%TF.GenerationSoftware,KiCad,Pcbnew,9.0.4-9.0.4-0~ubuntu22.04.1*%
%TF.CreationDate,2025-10-18T22:49:11+02:00*%
%TF.ProjectId,YR,59522e6b-6963-4616-945f-706362585858,rev?*%
%TF.SameCoordinates,Original*%
%TF.FileFunction,Copper,L2,Bot*%
%TF.FilePolarity,Positive*%
%FSLAX46Y46*%
G04 Gerber Fmt 4.6, Leading zero omitted, Abs format (unit mm)*
G04 Created by KiCad (PCBNEW 9.0.4-9.0.4-0~ubuntu22.04.1) date 2025-10-18 22:49:11*
%MOMM*%
%LPD*%
G01*
G04 APERTURE LIST*
G04 Aperture macros list*
%AMRoundRect*
0 Rectangle with rounded corners*
0 $1 Rounding radius*
0 $2 $3 $4 $5 $6 $7 $8 $9 X,Y pos of 4 corners*
0 Add a 4 corners polygon primitive as box body*
4,1,4,$2,$3,$4,$5,$6,$7,$8,$9,$2,$3,0*
0 Add four circle primitives for the rounded corners*
1,1,$1+$1,$2,$3*
1,1,$1+$1,$4,$5*
1,1,$1+$1,$6,$7*
1,1,$1+$1,$8,$9*
0 Add four rect primitives between the rounded corners*
20,1,$1+$1,$2,$3,$4,$5,0*
20,1,$1+$1,$4,$5,$6,$7,0*
20,1,$1+$1,$6,$7,$8,$9,0*
20,1,$1+$1,$8,$9,$2,$3,0*%
G04 Aperture macros list end*
%TA.AperFunction,HeatsinkPad*%
%ADD10C,0.600000*%
%TD*%
%TA.AperFunction,ComponentPad*%
%ADD11R,1.700000X1.700000*%
%TD*%
%TA.AperFunction,ComponentPad*%
%ADD12C,1.700000*%
%TD*%
%TA.AperFunction,ComponentPad*%
%ADD13RoundRect,0.250000X-0.600000X-0.750000X0.600000X-0.750000X0.600000X0.750000X-0.600000X0.750000X0*%
%TD*%
%TA.AperFunction,ComponentPad*%
%ADD14O,1.700000X2.000000*%
%TD*%
%TA.AperFunction,ViaPad*%
%ADD15C,0.600000*%
%TD*%
%TA.AperFunction,Conductor*%
%ADD16C,0.250000*%
%TD*%
%TA.AperFunction,Conductor*%
%ADD17C,0.500000*%
%TD*%
%TA.AperFunction,Conductor*%
%ADD18C,0.200000*%
%TD*%
G04 APERTURE END LIST*
D10*
%TO.P,U2,41,GND*%
%TO.N,GND*%
X147100000Y-64900000D03*
X147100000Y-66300000D03*
X147800000Y-64200000D03*
X147800000Y-65600000D03*
X147800000Y-67000000D03*
X148500000Y-64900000D03*
X148500000Y-66300000D03*
X149200000Y-64200000D03*
X149200000Y-65600000D03*
X149200000Y-67000000D03*
X149900000Y-64900000D03*
X149900000Y-66300000D03*
%TD*%
D11*
%TO.P,J5,1,Pin_1*%
%TO.N,3.3V_2*%
X189590000Y-69250000D03*
D12*
%TO.P,J5,2,Pin_2*%
X192130000Y-69250000D03*
%TO.P,J5,3,Pin_3*%
X194670000Y-69250000D03*
%TO.P,J5,4,Pin_4*%
X197210000Y-69250000D03*
%TO.P,J5,5,Pin_5*%
X199750000Y-69250000D03*
%TD*%
D11*
%TO.P,J4,1,Pin_1*%
%TO.N,GND*%
X189630000Y-73000000D03*
D12*
%TO.P,J4,2,Pin_2*%
X192170000Y-73000000D03*
%TO.P,J4,3,Pin_3*%
X194710000Y-73000000D03*
%TO.P,J4,4,Pin_4*%
X197250000Y-73000000D03*
%TO.P,J4,5,Pin_5*%
X199790000Y-73000000D03*
%TD*%
D11*
%TO.P,J6,1,Pin_1*%
%TO.N,GPIO1*%
X107950000Y-81280000D03*
D12*
%TO.P,J6,2,Pin_2*%
%TO.N,GPIO2*%
X110490000Y-81280000D03*
%TO.P,J6,3,Pin_3*%
%TO.N,GPIO3*%
X113030000Y-81280000D03*
%TO.P,J6,4,Pin_4*%
%TO.N,GPIO4*%
X115570000Y-81280000D03*
%TO.P,J6,5,Pin_5*%
%TO.N,GPIO8*%
X118110000Y-81280000D03*
%TO.P,J6,6,Pin_6*%
%TO.N,GPIO14*%
X120650000Y-81280000D03*
%TO.P,J6,7,Pin_7*%
%TO.N,GPIO15*%
X123190000Y-81280000D03*
%TO.P,J6,8,Pin_8*%
%TO.N,GPIO38*%
X125730000Y-81280000D03*
%TO.P,J6,9,Pin_9*%
%TO.N,GPIO39*%
X128270000Y-81280000D03*
%TO.P,J6,10,Pin_10*%
%TO.N,GPIO40*%
X130810000Y-81280000D03*
%TO.P,J6,11,Pin_11*%
%TO.N,GPIO41*%
X133350000Y-81280000D03*
%TO.P,J6,12,Pin_12*%
%TO.N,GPIO42*%
X135890000Y-81280000D03*
%TO.P,J6,13,Pin_13*%
%TO.N,GPIO45*%
X138430000Y-81280000D03*
%TO.P,J6,14,Pin_14*%
%TO.N,GPIO46*%
X140970000Y-81280000D03*
%TD*%
D11*
%TO.P,J7,1,Pin_1*%
%TO.N,GND*%
X108840000Y-73660000D03*
D12*
%TO.P,J7,2,Pin_2*%
%TO.N,S1E2*%
X111380000Y-73660000D03*
%TO.P,J7,3,Pin_3*%
%TO.N,S2E2*%
X113920000Y-73660000D03*
%TO.P,J7,4,Pin_4*%
%TO.N,K_E2*%
X116460000Y-73660000D03*
%TO.P,J7,5,Pin_5*%
%TO.N,3.3V*%
X119000000Y-73660000D03*
%TD*%
D11*
%TO.P,J10,1,Pin_1*%
%TO.N,GND*%
X108880000Y-70000000D03*
D12*
%TO.P,J10,2,Pin_2*%
%TO.N,S1E1*%
X111420000Y-70000000D03*
%TO.P,J10,3,Pin_3*%
%TO.N,S2E1*%
X113960000Y-70000000D03*
%TO.P,J10,4,Pin_4*%
%TO.N,K_E1*%
X116500000Y-70000000D03*
%TO.P,J10,5,Pin_5*%
%TO.N,3.3V*%
X119040000Y-70000000D03*
%TD*%
D11*
%TO.P,J8,1,Pin_1*%
%TO.N,V_in*%
X166878000Y-72898000D03*
D12*
%TO.P,J8,2,Pin_2*%
%TO.N,GND*%
X169418000Y-72898000D03*
%TO.P,J8,3,Pin_3*%
%TO.N,LCK*%
X171958000Y-72898000D03*
%TO.P,J8,4,Pin_4*%
%TO.N,DIN*%
X174498000Y-72898000D03*
%TO.P,J8,5,Pin_5*%
%TO.N,BCK*%
X177038000Y-72898000D03*
%TO.P,J8,6,Pin_6*%
%TO.N,GND*%
X179578000Y-72898000D03*
%TD*%
D11*
%TO.P,J1,1,Pin_1*%
%TO.N,GND*%
X162560000Y-64135000D03*
D12*
%TO.P,J1,2,Pin_2*%
%TO.N,RXD0*%
X162560000Y-61595000D03*
%TO.P,J1,3,Pin_3*%
%TO.N,TXD0*%
X162560000Y-59055000D03*
%TD*%
D13*
%TO.P,J2,1,Pin_1*%
%TO.N,GND*%
X129580000Y-60000000D03*
D14*
%TO.P,J2,2,Pin_2*%
%TO.N,V_in*%
X132080000Y-60000000D03*
%TD*%
D11*
%TO.P,J9,1,Pin_1*%
%TO.N,V_in*%
X166878000Y-69342000D03*
D12*
%TO.P,J9,2,Pin_2*%
%TO.N,GND*%
X169418000Y-69342000D03*
%TO.P,J9,3,Pin_3*%
%TO.N,unconnected-(J9-Pin_3-Pad3)*%
X171958000Y-69342000D03*
%TO.P,J9,4,Pin_4*%
%TO.N,GND*%
X174498000Y-69342000D03*
%TO.P,J9,5,Pin_5*%
%TO.N,BCK*%
X177038000Y-69342000D03*
%TO.P,J9,6,Pin_6*%
%TO.N,DIN*%
X179578000Y-69342000D03*
%TO.P,J9,7,Pin_7*%
%TO.N,LCK*%
X182118000Y-69342000D03*
%TD*%
D11*
%TO.P,J3,1,Pin_1*%
%TO.N,GND*%
X104290000Y-74890000D03*
D12*
%TO.P,J3,2,Pin_2*%
%TO.N,3.3V*%
X101750000Y-74890000D03*
%TO.P,J3,3,Pin_3*%
%TO.N,unconnected-(J3-Pin_3-Pad3)*%
X104290000Y-72350000D03*
%TO.P,J3,4,Pin_4*%
%TO.N,SCLK*%
X101750000Y-72350000D03*
%TO.P,J3,5,Pin_5*%
%TO.N,MOSI*%
X104290000Y-69810000D03*
%TO.P,J3,6,Pin_6*%
%TO.N,unconnected-(J3-Pin_6-Pad6)*%
X101750000Y-69810000D03*
%TO.P,J3,7,Pin_7*%
%TO.N,unconnected-(J3-Pin_7-Pad7)*%
X104290000Y-67270000D03*
%TO.P,J3,8,Pin_8*%
%TO.N,unconnected-(J3-Pin_8-Pad8)*%
X101750000Y-67270000D03*
%TO.P,J3,9,Pin_9*%
%TO.N,unconnected-(J3-Pin_9-Pad9)*%
X104290000Y-64730000D03*
%TO.P,J3,10,Pin_10*%
%TO.N,unconnected-(J3-Pin_10-Pad10)*%
X101750000Y-64730000D03*
%TO.P,J3,11,Pin_11*%
%TO.N,unconnected-(J3-Pin_11-Pad11)*%
X104290000Y-62190000D03*
%TO.P,J3,12,Pin_12*%
%TO.N,unconnected-(J3-Pin_12-Pad12)*%
X101750000Y-62190000D03*
%TO.P,J3,13,Pin_13*%
%TO.N,unconnected-(J3-Pin_13-Pad13)*%
X104290000Y-59650000D03*
%TO.P,J3,14,Pin_14*%
%TO.N,{slash}DC*%
X101750000Y-59650000D03*
%TO.P,J3,15,Pin_15*%
%TO.N,CHIP_PU*%
X104290000Y-57110000D03*
%TO.P,J3,16,Pin_16*%
%TO.N,{slash}CS*%
X101750000Y-57110000D03*
%TD*%
D15*
%TO.N,GND*%
X143750000Y-61750000D03*
X183000000Y-65250000D03*
X126250000Y-62750000D03*
X185500000Y-65250000D03*
X110000000Y-64750000D03*
X126250000Y-64000000D03*
X137000000Y-61500000D03*
X183900000Y-63250000D03*
X171000000Y-67250000D03*
X148000000Y-61750000D03*
X164500000Y-71250000D03*
X177750000Y-75000000D03*
X108712000Y-75946000D03*
X145250000Y-59250000D03*
X163500000Y-68250000D03*
X188500000Y-65250000D03*
%TO.N,V_in*%
X188722000Y-60706000D03*
X169882184Y-64800339D03*
%TO.N,3.3V*%
X175750000Y-63750000D03*
X111750000Y-64750000D03*
X109220000Y-54864000D03*
X175750000Y-58750000D03*
X111750000Y-67750000D03*
%TO.N,GPIO8*%
X118110000Y-76946000D03*
%TO.N,GPIO15*%
X123357493Y-75342000D03*
%TO.N,GPIO41*%
X151384000Y-67310000D03*
%TO.N,GPIO46*%
X144183558Y-77127558D03*
%TO.N,GPIO4*%
X123444000Y-74422000D03*
%TO.N,GPIO40*%
X150368000Y-68072000D03*
%TO.N,GPIO2*%
X148590000Y-60452000D03*
%TO.N,GPIO39*%
X149352000Y-68710000D03*
%TO.N,GPIO3*%
X113284000Y-77216000D03*
%TO.N,GPIO1*%
X149860000Y-59436000D03*
%TO.N,GPIO38*%
X148082000Y-70104000D03*
%TO.N,GPIO45*%
X156464000Y-73660000D03*
%TO.N,GPIO42*%
X152654000Y-66548000D03*
%TO.N,S1E1*%
X139192000Y-62992000D03*
%TO.N,S2E1*%
X139192000Y-64262000D03*
%TO.N,K_E1*%
X139192000Y-65786000D03*
%TD*%
D16*
%TO.N,GND*%
X104290000Y-74890000D02*
X102980000Y-76200000D01*
X105346000Y-75946000D02*
X104290000Y-74890000D01*
X108712000Y-75946000D02*
X105346000Y-75946000D01*
D17*
%TO.N,V_in*%
X170000000Y-57000000D02*
X170000000Y-64682523D01*
X170000000Y-57000000D02*
X181750000Y-57000000D01*
X135080000Y-57000000D02*
X170000000Y-57000000D01*
X181750000Y-57000000D02*
X185016000Y-57000000D01*
X185016000Y-57000000D02*
X188722000Y-60706000D01*
X170000000Y-64682523D02*
X169882184Y-64800339D01*
X132080000Y-60000000D02*
X135080000Y-57000000D01*
D18*
%TO.N,3.3V*%
X117849000Y-74811000D02*
X106513000Y-74811000D01*
X119000000Y-73660000D02*
X119000000Y-73500000D01*
D17*
X170942000Y-65786000D02*
X158242000Y-65786000D01*
X134381682Y-58689682D02*
X134381682Y-59688210D01*
X125730000Y-61468000D02*
X124460000Y-60198000D01*
X173714000Y-65786000D02*
X175750000Y-63750000D01*
X132601892Y-61468000D02*
X125984000Y-61468000D01*
X111750000Y-64750000D02*
X111750000Y-67750000D01*
D18*
X106513000Y-74811000D02*
X105441000Y-73739000D01*
D17*
X114554000Y-60198000D02*
X109220000Y-54864000D01*
D18*
X105441000Y-73739000D02*
X102901000Y-73739000D01*
X119040000Y-73460000D02*
X119040000Y-70000000D01*
X119000000Y-73660000D02*
X117849000Y-74811000D01*
X119000000Y-73500000D02*
X119040000Y-73460000D01*
D17*
X170942000Y-65786000D02*
X173714000Y-65786000D01*
D18*
X102901000Y-73739000D02*
X101750000Y-74890000D01*
D17*
X134905364Y-58166000D02*
X134381682Y-58689682D01*
X121412000Y-60198000D02*
X114554000Y-60198000D01*
X124460000Y-60198000D02*
X121412000Y-60198000D01*
X134381682Y-59688210D02*
X132601892Y-61468000D01*
X175750000Y-63750000D02*
X175750000Y-58750000D01*
X158242000Y-65786000D02*
X150622000Y-58166000D01*
X150622000Y-58166000D02*
X134905364Y-58166000D01*
X125984000Y-61468000D02*
X125730000Y-61468000D01*
D18*
%TO.N,GPIO8*%
X118110000Y-76946000D02*
X118110000Y-81280000D01*
%TO.N,GPIO15*%
X123190000Y-75509493D02*
X123357493Y-75342000D01*
X123190000Y-81280000D02*
X123190000Y-75509493D01*
%TO.N,GPIO41*%
X133350000Y-72644000D02*
X134112000Y-71882000D01*
X134874000Y-71521000D02*
X148649143Y-71521000D01*
X151384000Y-68786143D02*
X151384000Y-68326000D01*
X134473000Y-71521000D02*
X134874000Y-71521000D01*
X151384000Y-68326000D02*
X151384000Y-67310000D01*
X134112000Y-71882000D02*
X134473000Y-71521000D01*
X148649143Y-71521000D02*
X151384000Y-68786143D01*
X133350000Y-81280000D02*
X133350000Y-72644000D01*
%TO.N,GPIO46*%
X144183558Y-78066442D02*
X144183558Y-77127558D01*
X140970000Y-81280000D02*
X144183558Y-78066442D01*
%TO.N,GPIO4*%
X123173550Y-74676000D02*
X123190000Y-74676000D01*
X115570000Y-81280000D02*
X115570000Y-78636057D01*
X115570000Y-78636057D02*
X118006057Y-76200000D01*
X118006057Y-76200000D02*
X121666000Y-76200000D01*
X123190000Y-74676000D02*
X123444000Y-74422000D01*
X121666000Y-76200000D02*
X121666000Y-76183550D01*
X121666000Y-76183550D02*
X123173550Y-74676000D01*
%TO.N,GPIO40*%
X150368000Y-69235043D02*
X150368000Y-68072000D01*
X149679522Y-69923521D02*
X150368000Y-69235043D01*
X130810000Y-71628000D02*
X131064000Y-71374000D01*
X148483043Y-71120000D02*
X149679522Y-69923521D01*
X130810000Y-81280000D02*
X130810000Y-71628000D01*
X131064000Y-71374000D02*
X131318000Y-71120000D01*
X131318000Y-71120000D02*
X131572000Y-71120000D01*
X131572000Y-71120000D02*
X148483043Y-71120000D01*
%TO.N,GPIO2*%
X148590000Y-60452000D02*
X147574000Y-60452000D01*
X138176000Y-69850000D02*
X127000000Y-69850000D01*
X127000000Y-69850000D02*
X121158000Y-75692000D01*
X147574000Y-60452000D02*
X138176000Y-69850000D01*
X110490000Y-77724000D02*
X110490000Y-81280000D01*
X111760000Y-76454000D02*
X110490000Y-77724000D01*
X117094000Y-76454000D02*
X111760000Y-76454000D01*
X121158000Y-75692000D02*
X117856000Y-75692000D01*
X117856000Y-75692000D02*
X117094000Y-76454000D01*
%TO.N,GPIO39*%
X128270000Y-71628000D02*
X129193000Y-70705000D01*
X129193000Y-70705000D02*
X148330943Y-70705000D01*
X148330943Y-70705000D02*
X149352000Y-69683943D01*
X149352000Y-69683943D02*
X149352000Y-68710000D01*
X128270000Y-81280000D02*
X128270000Y-71628000D01*
D16*
%TO.N,GPIO3*%
X113030000Y-77470000D02*
X113030000Y-81280000D01*
X113284000Y-77216000D02*
X113030000Y-77470000D01*
D18*
%TO.N,GPIO1*%
X148022900Y-59436000D02*
X138009900Y-69449000D01*
X117034900Y-75946000D02*
X111506000Y-75946000D01*
X120904000Y-75291000D02*
X117689900Y-75291000D01*
X117689900Y-75291000D02*
X117034900Y-75946000D01*
X107950000Y-79502000D02*
X107950000Y-81280000D01*
X111506000Y-75946000D02*
X107950000Y-79502000D01*
X126746000Y-69449000D02*
X120904000Y-75291000D01*
X149860000Y-59436000D02*
X148022900Y-59436000D01*
X138009900Y-69449000D02*
X126746000Y-69449000D01*
%TO.N,GPIO38*%
X126267550Y-71149550D02*
X127156550Y-70260550D01*
X147935000Y-70251000D02*
X148082000Y-70104000D01*
X127166100Y-70251000D02*
X136398000Y-70251000D01*
X127156550Y-70260550D02*
X127166100Y-70251000D01*
X125730000Y-81280000D02*
X125730000Y-71687100D01*
X125730000Y-71687100D02*
X126267550Y-71149550D01*
X136398000Y-70251000D02*
X147935000Y-70251000D01*
%TO.N,GPIO45*%
X138430000Y-81280000D02*
X138430000Y-73406000D01*
X139446000Y-72390000D02*
X155194000Y-72390000D01*
X155194000Y-72390000D02*
X156464000Y-73660000D01*
X138430000Y-73406000D02*
X139446000Y-72390000D01*
%TO.N,GPIO42*%
X135890000Y-81280000D02*
X135890000Y-72390000D01*
X148815243Y-71922000D02*
X152654000Y-68083243D01*
X152654000Y-68083243D02*
X152654000Y-66548000D01*
X136358000Y-71922000D02*
X148815243Y-71922000D01*
X135890000Y-72390000D02*
X136358000Y-71922000D01*
%TO.N,S1E1*%
X115170000Y-66250000D02*
X111420000Y-70000000D01*
X135934000Y-66250000D02*
X115170000Y-66250000D01*
X139192000Y-62992000D02*
X135934000Y-66250000D01*
%TO.N,S2E1*%
X139192000Y-64262000D02*
X136454000Y-67000000D01*
X136454000Y-67000000D02*
X116960000Y-67000000D01*
X116960000Y-67000000D02*
X113960000Y-70000000D01*
%TO.N,K_E1*%
X118011000Y-68489000D02*
X116500000Y-70000000D01*
X136489000Y-68489000D02*
X118011000Y-68489000D01*
X139192000Y-65786000D02*
X136489000Y-68489000D01*
%TD*%
%TA.AperFunction,Conductor*%
%TO.N,GND*%
G36*
X125192539Y-50520185D02*
G01*
X125238294Y-50572989D01*
X125249500Y-50624500D01*
X125249500Y-55934108D01*
X125249500Y-56065892D01*
X125260743Y-56107853D01*
X125283608Y-56193187D01*
X125316121Y-56249500D01*
X125349500Y-56307314D01*
X125599500Y-56557314D01*
X125692686Y-56650500D01*
X125806814Y-56716392D01*
X125934107Y-56750500D01*
X125934108Y-56750500D01*
X133968771Y-56750500D01*
X134035810Y-56770185D01*
X134081565Y-56822989D01*
X134091509Y-56892147D01*
X134062484Y-56955703D01*
X134056455Y-56962177D01*
X133777452Y-57241180D01*
X132517626Y-58501004D01*
X132456303Y-58534489D01*
X132401550Y-58531542D01*
X132400986Y-58533892D01*
X132396246Y-58532754D01*
X132238776Y-58507813D01*
X132186287Y-58499500D01*
X131973713Y-58499500D01*
X131925042Y-58507208D01*
X131763760Y-58532753D01*
X131561585Y-58598444D01*
X131372179Y-58694951D01*
X131200215Y-58819889D01*
X131061035Y-58959069D01*
X130999712Y-58992553D01*
X130930020Y-58987569D01*
X130874087Y-58945697D01*
X130867815Y-58936484D01*
X130772315Y-58781654D01*
X130648345Y-58657684D01*
X130499124Y-58565643D01*
X130499119Y-58565641D01*
X130332697Y-58510494D01*
X130332690Y-58510493D01*
X130229986Y-58500000D01*
X129830000Y-58500000D01*
X129830000Y-59566988D01*
X129772993Y-59534075D01*
X129645826Y-59500000D01*
X129514174Y-59500000D01*
X129387007Y-59534075D01*
X129330000Y-59566988D01*
X129330000Y-58500000D01*
X128930028Y-58500000D01*
X128930012Y-58500001D01*
X128827302Y-58510494D01*
X128660880Y-58565641D01*
X128660875Y-58565643D01*
X128511654Y-58657684D01*
X128387684Y-58781654D01*
X128295643Y-58930875D01*
X128295641Y-58930880D01*
X128240494Y-59097302D01*
X128240493Y-59097309D01*
X128230000Y-59200013D01*
X128230000Y-59750000D01*
X129146988Y-59750000D01*
X129114075Y-59807007D01*
X129080000Y-59934174D01*
X129080000Y-60065826D01*
X129114075Y-60192993D01*
X129146988Y-60250000D01*
X128230001Y-60250000D01*
X128230001Y-60593500D01*
X128210316Y-60660539D01*
X128157512Y-60706294D01*
X128106001Y-60717500D01*
X126092229Y-60717500D01*
X126025190Y-60697815D01*
X126004548Y-60681181D01*
X124938421Y-59615052D01*
X124938414Y-59615046D01*
X124864729Y-59565812D01*
X124864729Y-59565813D01*
X124815491Y-59532913D01*
X124678917Y-59476343D01*
X124678907Y-59476340D01*
X124533920Y-59447500D01*
X124533918Y-59447500D01*
X121485918Y-59447500D01*
X114916229Y-59447500D01*
X114886788Y-59438855D01*
X114856802Y-59432332D01*
X114851786Y-59428577D01*
X114849190Y-59427815D01*
X114828548Y-59411181D01*
X114701912Y-59284545D01*
X112379548Y-56962181D01*
X109966071Y-54548703D01*
X109939191Y-54508475D01*
X109929394Y-54484821D01*
X109929389Y-54484814D01*
X109841789Y-54353710D01*
X109730292Y-54242213D01*
X109730288Y-54242210D01*
X109599185Y-54154609D01*
X109599172Y-54154602D01*
X109453501Y-54094264D01*
X109453489Y-54094261D01*
X109298845Y-54063500D01*
X109298842Y-54063500D01*
X109141158Y-54063500D01*
X109141155Y-54063500D01*
X108986510Y-54094261D01*
X108986498Y-54094264D01*
X108840827Y-54154602D01*
X108840814Y-54154609D01*
X108709711Y-54242210D01*
X108709707Y-54242213D01*
X108598213Y-54353707D01*
X108598210Y-54353711D01*
X108510609Y-54484814D01*
X108510602Y-54484827D01*
X108450264Y-54630498D01*
X108450261Y-54630510D01*
X108419500Y-54785153D01*
X108419500Y-54942846D01*
X108450261Y-55097489D01*
X108450264Y-55097501D01*
X108510602Y-55243172D01*
X108510609Y-55243185D01*
X108598210Y-55374288D01*
X108598213Y-55374292D01*
X108709710Y-55485789D01*
X108840815Y-55573390D01*
X108840821Y-55573394D01*
X108864475Y-55583191D01*
X108904703Y-55610071D01*
X111469841Y-58175208D01*
X113971049Y-60676416D01*
X114075584Y-60780951D01*
X114075585Y-60780952D01*
X114198498Y-60863080D01*
X114198511Y-60863087D01*
X114291387Y-60901557D01*
X114335087Y-60919658D01*
X114335091Y-60919658D01*
X114335092Y-60919659D01*
X114480079Y-60948500D01*
X114480082Y-60948500D01*
X121338082Y-60948500D01*
X124097770Y-60948500D01*
X124164809Y-60968185D01*
X124185451Y-60984819D01*
X125147049Y-61946416D01*
X125251583Y-62050950D01*
X125251585Y-62050952D01*
X125374498Y-62133080D01*
X125374511Y-62133087D01*
X125511082Y-62189656D01*
X125511087Y-62189658D01*
X125511091Y-62189658D01*
X125511092Y-62189659D01*
X125656079Y-62218500D01*
X125656082Y-62218500D01*
X132675812Y-62218500D01*
X132773354Y-62199096D01*
X132820805Y-62189658D01*
X132957387Y-62133084D01*
X133006621Y-62100186D01*
X133080308Y-62050952D01*
X134964633Y-60166626D01*
X135046766Y-60043705D01*
X135103340Y-59907123D01*
X135123255Y-59807007D01*
X135132182Y-59762130D01*
X135132182Y-59051911D01*
X135140826Y-59022470D01*
X135147350Y-58992484D01*
X135151104Y-58987468D01*
X135151867Y-58984872D01*
X135168501Y-58964230D01*
X135179912Y-58952819D01*
X135241235Y-58919334D01*
X135267593Y-58916500D01*
X147393802Y-58916500D01*
X147460841Y-58936185D01*
X147506596Y-58988989D01*
X147516540Y-59058147D01*
X147487515Y-59121703D01*
X147481483Y-59128181D01*
X137797484Y-68812181D01*
X137736161Y-68845666D01*
X137709803Y-68848500D01*
X137278097Y-68848500D01*
X137211058Y-68828815D01*
X137165303Y-68776011D01*
X137155359Y-68706853D01*
X137184384Y-68643297D01*
X137190416Y-68636819D01*
X138190416Y-67636819D01*
X139206662Y-66620572D01*
X139267983Y-66587089D01*
X139270150Y-66586638D01*
X139337378Y-66573265D01*
X139425497Y-66555737D01*
X139571179Y-66495394D01*
X139702289Y-66407789D01*
X139813789Y-66296289D01*
X139901394Y-66165179D01*
X139961737Y-66019497D01*
X139992500Y-65864842D01*
X139992500Y-65707158D01*
X139992500Y-65707155D01*
X139992499Y-65707153D01*
X139980467Y-65646666D01*
X139961737Y-65552503D01*
X139961735Y-65552498D01*
X139901397Y-65406827D01*
X139901390Y-65406814D01*
X139813789Y-65275711D01*
X139813786Y-65275707D01*
X139702292Y-65164213D01*
X139702288Y-65164210D01*
X139646752Y-65127102D01*
X139601947Y-65073490D01*
X139593240Y-65004165D01*
X139623394Y-64941137D01*
X139646752Y-64920898D01*
X139687227Y-64893853D01*
X139702289Y-64883789D01*
X139813789Y-64772289D01*
X139901394Y-64641179D01*
X139961737Y-64495497D01*
X139992500Y-64340842D01*
X139992500Y-64183158D01*
X139992500Y-64183155D01*
X139992499Y-64183153D01*
X139981570Y-64128210D01*
X139961737Y-64028503D01*
X139941756Y-63980264D01*
X139901397Y-63882827D01*
X139901390Y-63882814D01*
X139813789Y-63751711D01*
X139813786Y-63751707D01*
X139776760Y-63714681D01*
X139743275Y-63653358D01*
X139748259Y-63583666D01*
X139776760Y-63539319D01*
X139813786Y-63502292D01*
X139813789Y-63502289D01*
X139901394Y-63371179D01*
X139912217Y-63345051D01*
X139961735Y-63225501D01*
X139961737Y-63225497D01*
X139992500Y-63070842D01*
X139992500Y-62913158D01*
X139992500Y-62913155D01*
X139992499Y-62913153D01*
X139978275Y-62841646D01*
X139961737Y-62758503D01*
X139958236Y-62750051D01*
X139901397Y-62612827D01*
X139901390Y-62612814D01*
X139813789Y-62481711D01*
X139813786Y-62481707D01*
X139702292Y-62370213D01*
X139702288Y-62370210D01*
X139571185Y-62282609D01*
X139571172Y-62282602D01*
X139425501Y-62222264D01*
X139425489Y-62222261D01*
X139270845Y-62191500D01*
X139270842Y-62191500D01*
X139113158Y-62191500D01*
X139113155Y-62191500D01*
X138958510Y-62222261D01*
X138958498Y-62222264D01*
X138812827Y-62282602D01*
X138812814Y-62282609D01*
X138681711Y-62370210D01*
X138681707Y-62370213D01*
X138570213Y-62481707D01*
X138570210Y-62481711D01*
X138482609Y-62612814D01*
X138482602Y-62612827D01*
X138422264Y-62758498D01*
X138422261Y-62758508D01*
X138391362Y-62913848D01*
X138358977Y-62975759D01*
X138357426Y-62977337D01*
X135721584Y-65613181D01*
X135660261Y-65646666D01*
X135633903Y-65649500D01*
X115256669Y-65649500D01*
X115256653Y-65649499D01*
X115249057Y-65649499D01*
X115090943Y-65649499D01*
X114976397Y-65680192D01*
X114938214Y-65690423D01*
X114900701Y-65712082D01*
X114900700Y-65712082D01*
X114801287Y-65769477D01*
X114801282Y-65769481D01*
X112762181Y-67808583D01*
X112700858Y-67842068D01*
X112631166Y-67837084D01*
X112575233Y-67795212D01*
X112550816Y-67729748D01*
X112550500Y-67720902D01*
X112550500Y-67671155D01*
X112550499Y-67671153D01*
X112519739Y-67516511D01*
X112519738Y-67516508D01*
X112519737Y-67516503D01*
X112509937Y-67492844D01*
X112500500Y-67445396D01*
X112500500Y-65054604D01*
X112509939Y-65007151D01*
X112513240Y-64999181D01*
X112519737Y-64983497D01*
X112550500Y-64828842D01*
X112550500Y-64671158D01*
X112550500Y-64671155D01*
X112550499Y-64671153D01*
X112543308Y-64635000D01*
X112519737Y-64516503D01*
X112504050Y-64478630D01*
X112459397Y-64370827D01*
X112459390Y-64370814D01*
X112371789Y-64239711D01*
X112371786Y-64239707D01*
X112260292Y-64128213D01*
X112260288Y-64128210D01*
X112129185Y-64040609D01*
X112129172Y-64040602D01*
X111983501Y-63980264D01*
X111983489Y-63980261D01*
X111828845Y-63949500D01*
X111828842Y-63949500D01*
X111671158Y-63949500D01*
X111671155Y-63949500D01*
X111516510Y-63980261D01*
X111516498Y-63980264D01*
X111370827Y-64040602D01*
X111370814Y-64040609D01*
X111239711Y-64128210D01*
X111239707Y-64128213D01*
X111128213Y-64239707D01*
X111128210Y-64239711D01*
X111040609Y-64370814D01*
X111040602Y-64370827D01*
X110980264Y-64516498D01*
X110980261Y-64516510D01*
X110949500Y-64671153D01*
X110949500Y-64828846D01*
X110980261Y-64983489D01*
X110980263Y-64983497D01*
X110990061Y-65007151D01*
X110999500Y-65054604D01*
X110999500Y-67445396D01*
X110990062Y-67492844D01*
X110980263Y-67516503D01*
X110980262Y-67516506D01*
X110980260Y-67516511D01*
X110949500Y-67671153D01*
X110949500Y-67828846D01*
X110980261Y-67983489D01*
X110980264Y-67983501D01*
X111040602Y-68129172D01*
X111040609Y-68129185D01*
X111128210Y-68260288D01*
X111128213Y-68260292D01*
X111239707Y-68371786D01*
X111239711Y-68371789D01*
X111326449Y-68429746D01*
X111371254Y-68483358D01*
X111379961Y-68552683D01*
X111349807Y-68615711D01*
X111290363Y-68652430D01*
X111276956Y-68655321D01*
X111103760Y-68682753D01*
X110901585Y-68748444D01*
X110712179Y-68844951D01*
X110540215Y-68969889D01*
X110426285Y-69083819D01*
X110364962Y-69117303D01*
X110295270Y-69112319D01*
X110239337Y-69070447D01*
X110222422Y-69039470D01*
X110173354Y-68907913D01*
X110173350Y-68907906D01*
X110087190Y-68792812D01*
X110087187Y-68792809D01*
X109972093Y-68706649D01*
X109972086Y-68706645D01*
X109837379Y-68656403D01*
X109837372Y-68656401D01*
X109777844Y-68650000D01*
X109130000Y-68650000D01*
X109130000Y-69566988D01*
X109072993Y-69534075D01*
X108945826Y-69500000D01*
X108814174Y-69500000D01*
X108687007Y-69534075D01*
X108630000Y-69566988D01*
X108630000Y-68650000D01*
X107982155Y-68650000D01*
X107922627Y-68656401D01*
X107922620Y-68656403D01*
X107787913Y-68706645D01*
X107787906Y-68706649D01*
X107672812Y-68792809D01*
X107672809Y-68792812D01*
X107586649Y-68907906D01*
X107586645Y-68907913D01*
X107536403Y-69042620D01*
X107536401Y-69042627D01*
X107530000Y-69102155D01*
X107530000Y-69750000D01*
X108446988Y-69750000D01*
X108414075Y-69807007D01*
X108380000Y-69934174D01*
X108380000Y-70065826D01*
X108414075Y-70192993D01*
X108446988Y-70250000D01*
X107530000Y-70250000D01*
X107530000Y-70897844D01*
X107536401Y-70957372D01*
X107536403Y-70957379D01*
X107586645Y-71092086D01*
X107586649Y-71092093D01*
X107672809Y-71207187D01*
X107672812Y-71207190D01*
X107787906Y-71293350D01*
X107787913Y-71293354D01*
X107922620Y-71343596D01*
X107922627Y-71343598D01*
X107982155Y-71349999D01*
X107982172Y-71350000D01*
X108630000Y-71350000D01*
X108630000Y-70433012D01*
X108687007Y-70465925D01*
X108814174Y-70500000D01*
X108945826Y-70500000D01*
X109072993Y-70465925D01*
X109130000Y-70433012D01*
X109130000Y-71350000D01*
X109777828Y-71350000D01*
X109777844Y-71349999D01*
X109837372Y-71343598D01*
X109837379Y-71343596D01*
X109972086Y-71293354D01*
X109972093Y-71293350D01*
X110087187Y-71207190D01*
X110087190Y-71207187D01*
X110173350Y-71092093D01*
X110173354Y-71092086D01*
X110222422Y-70960529D01*
X110264293Y-70904595D01*
X110329757Y-70880178D01*
X110398030Y-70895030D01*
X110426285Y-70916181D01*
X110540213Y-71030109D01*
X110712179Y-71155048D01*
X110712181Y-71155049D01*
X110712184Y-71155051D01*
X110901588Y-71251557D01*
X111103757Y-71317246D01*
X111313713Y-71350500D01*
X111313714Y-71350500D01*
X111526286Y-71350500D01*
X111526287Y-71350500D01*
X111736243Y-71317246D01*
X111938412Y-71251557D01*
X112127816Y-71155051D01*
X112214471Y-71092093D01*
X112299786Y-71030109D01*
X112299788Y-71030106D01*
X112299792Y-71030104D01*
X112450104Y-70879792D01*
X112450106Y-70879788D01*
X112450109Y-70879786D01*
X112575048Y-70707820D01*
X112575047Y-70707820D01*
X112575051Y-70707816D01*
X112579514Y-70699054D01*
X112627488Y-70648259D01*
X112695308Y-70631463D01*
X112761444Y-70653999D01*
X112800486Y-70699056D01*
X112804951Y-70707820D01*
X112929890Y-70879786D01*
X113080213Y-71030109D01*
X113252179Y-71155048D01*
X113252181Y-71155049D01*
X113252184Y-71155051D01*
X113441588Y-71251557D01*
X113643757Y-71317246D01*
X113853713Y-71350500D01*
X113853714Y-71350500D01*
X114066286Y-71350500D01*
X114066287Y-71350500D01*
X114276243Y-71317246D01*
X114478412Y-71251557D01*
X114667816Y-71155051D01*
X114754471Y-71092093D01*
X114839786Y-71030109D01*
X114839788Y-71030106D01*
X114839792Y-71030104D01*
X114990104Y-70879792D01*
X114990106Y-70879788D01*
X114990109Y-70879786D01*
X115115048Y-70707820D01*
X115115047Y-70707820D01*
X115115051Y-70707816D01*
X115119514Y-70699054D01*
X115167488Y-70648259D01*
X115235308Y-70631463D01*
X115301444Y-70653999D01*
X115340486Y-70699056D01*
X115344951Y-70707820D01*
X115469890Y-70879786D01*
X115620213Y-71030109D01*
X115792179Y-71155048D01*
X115792181Y-71155049D01*
X115792184Y-71155051D01*
X115981588Y-71251557D01*
X116183757Y-71317246D01*
X116393713Y-71350500D01*
X116393714Y-71350500D01*
X116606286Y-71350500D01*
X116606287Y-71350500D01*
X116816243Y-71317246D01*
X117018412Y-71251557D01*
X117207816Y-71155051D01*
X117294471Y-71092093D01*
X117379786Y-71030109D01*
X117379788Y-71030106D01*
X117379792Y-71030104D01*
X117530104Y-70879792D01*
X117530106Y-70879788D01*
X117530109Y-70879786D01*
X117655048Y-70707820D01*
X117655047Y-70707820D01*
X117655051Y-70707816D01*
X117659514Y-70699054D01*
X117707488Y-70648259D01*
X117775308Y-70631463D01*
X117841444Y-70653999D01*
X117880486Y-70699056D01*
X117884951Y-70707820D01*
X118009890Y-70879786D01*
X118160213Y-71030109D01*
X118332184Y-71155051D01*
X118332184Y-71155052D01*
X118371793Y-71175233D01*
X118422590Y-71223206D01*
X118439500Y-71285718D01*
X118439500Y-72353899D01*
X118419815Y-72420938D01*
X118371796Y-72464383D01*
X118292182Y-72504949D01*
X118120213Y-72629890D01*
X117969890Y-72780213D01*
X117844949Y-72952182D01*
X117840484Y-72960946D01*
X117792509Y-73011742D01*
X117724688Y-73028536D01*
X117658553Y-73005998D01*
X117619516Y-72960946D01*
X117615050Y-72952182D01*
X117490109Y-72780213D01*
X117339786Y-72629890D01*
X117167820Y-72504951D01*
X116978414Y-72408444D01*
X116978413Y-72408443D01*
X116978412Y-72408443D01*
X116776243Y-72342754D01*
X116776241Y-72342753D01*
X116776240Y-72342753D01*
X116614957Y-72317208D01*
X116566287Y-72309500D01*
X116353713Y-72309500D01*
X116314202Y-72315757D01*
X116143759Y-72342753D01*
X116143760Y-72342753D01*
X115941585Y-72408444D01*
X115752179Y-72504951D01*
X115580213Y-72629890D01*
X115429890Y-72780213D01*
X115304949Y-72952182D01*
X115300484Y-72960946D01*
X115252509Y-73011742D01*
X115184688Y-73028536D01*
X115118553Y-73005998D01*
X115079516Y-72960946D01*
X115075050Y-72952182D01*
X114950109Y-72780213D01*
X114799786Y-72629890D01*
X114627820Y-72504951D01*
X114438414Y-72408444D01*
X114438413Y-72408443D01*
X114438412Y-72408443D01*
X114236243Y-72342754D01*
X114236241Y-72342753D01*
X114236240Y-72342753D01*
X114074957Y-72317208D01*
X114026287Y-72309500D01*
X113813713Y-72309500D01*
X113774202Y-72315757D01*
X113603759Y-72342753D01*
X113603760Y-72342753D01*
X113401585Y-72408444D01*
X113212179Y-72504951D01*
X113040213Y-72629890D01*
X112889890Y-72780213D01*
X112764949Y-72952182D01*
X112760484Y-72960946D01*
X112712509Y-73011742D01*
X112644688Y-73028536D01*
X112578553Y-73005998D01*
X112539516Y-72960946D01*
X112535050Y-72952182D01*
X112410109Y-72780213D01*
X112259786Y-72629890D01*
X112087820Y-72504951D01*
X111898414Y-72408444D01*
X111898413Y-72408443D01*
X111898412Y-72408443D01*
X111696243Y-72342754D01*
X111696241Y-72342753D01*
X111696240Y-72342753D01*
X111534957Y-72317208D01*
X111486287Y-72309500D01*
X111273713Y-72309500D01*
X111234202Y-72315757D01*
X111063759Y-72342753D01*
X111063760Y-72342753D01*
X110861585Y-72408444D01*
X110672179Y-72504951D01*
X110500215Y-72629889D01*
X110386285Y-72743819D01*
X110324962Y-72777303D01*
X110255270Y-72772319D01*
X110199337Y-72730447D01*
X110182422Y-72699470D01*
X110133354Y-72567913D01*
X110133350Y-72567906D01*
X110047190Y-72452812D01*
X110047187Y-72452809D01*
X109932093Y-72366649D01*
X109932086Y-72366645D01*
X109797379Y-72316403D01*
X109797372Y-72316401D01*
X109737844Y-72310000D01*
X109090000Y-72310000D01*
X109090000Y-73226988D01*
X109032993Y-73194075D01*
X108905826Y-73160000D01*
X108774174Y-73160000D01*
X108647007Y-73194075D01*
X108590000Y-73226988D01*
X108590000Y-72310000D01*
X107942155Y-72310000D01*
X107882627Y-72316401D01*
X107882620Y-72316403D01*
X107747913Y-72366645D01*
X107747906Y-72366649D01*
X107632812Y-72452809D01*
X107632809Y-72452812D01*
X107546649Y-72567906D01*
X107546645Y-72567913D01*
X107496403Y-72702620D01*
X107496401Y-72702627D01*
X107490000Y-72762155D01*
X107490000Y-73410000D01*
X108406988Y-73410000D01*
X108374075Y-73467007D01*
X108340000Y-73594174D01*
X108340000Y-73725826D01*
X108374075Y-73852993D01*
X108406988Y-73910000D01*
X107490000Y-73910000D01*
X107490000Y-74086500D01*
X107470315Y-74153539D01*
X107417511Y-74199294D01*
X107366000Y-74210500D01*
X106813097Y-74210500D01*
X106746058Y-74190815D01*
X106725416Y-74174181D01*
X105928590Y-73377355D01*
X105928588Y-73377352D01*
X105809717Y-73258481D01*
X105809716Y-73258480D01*
X105722904Y-73208360D01*
X105672785Y-73179423D01*
X105560023Y-73149208D01*
X105554428Y-73147114D01*
X105531072Y-73129589D01*
X105506138Y-73114391D01*
X105503454Y-73108866D01*
X105498541Y-73105180D01*
X105488366Y-73077806D01*
X105475609Y-73051544D01*
X105476338Y-73045445D01*
X105474198Y-73039688D01*
X105480437Y-73011161D01*
X105483904Y-72982168D01*
X105487408Y-72974686D01*
X105541553Y-72868420D01*
X105541554Y-72868418D01*
X105541554Y-72868417D01*
X105541557Y-72868412D01*
X105607246Y-72666243D01*
X105640500Y-72456287D01*
X105640500Y-72243713D01*
X105607246Y-72033757D01*
X105541557Y-71831588D01*
X105445051Y-71642184D01*
X105445049Y-71642181D01*
X105445048Y-71642179D01*
X105320109Y-71470213D01*
X105169786Y-71319890D01*
X104997820Y-71194951D01*
X104997115Y-71194591D01*
X104989054Y-71190485D01*
X104938259Y-71142512D01*
X104921463Y-71074692D01*
X104943999Y-71008556D01*
X104989054Y-70969515D01*
X104997816Y-70965051D01*
X105019789Y-70949086D01*
X105169786Y-70840109D01*
X105169788Y-70840106D01*
X105169792Y-70840104D01*
X105320104Y-70689792D01*
X105320106Y-70689788D01*
X105320109Y-70689786D01*
X105429086Y-70539789D01*
X105445051Y-70517816D01*
X105541557Y-70328412D01*
X105607246Y-70126243D01*
X105640500Y-69916287D01*
X105640500Y-69703713D01*
X105607246Y-69493757D01*
X105541557Y-69291588D01*
X105445051Y-69102184D01*
X105445050Y-69102182D01*
X105320109Y-68930213D01*
X105169786Y-68779890D01*
X104997820Y-68654951D01*
X104992872Y-68652430D01*
X104989054Y-68650485D01*
X104938259Y-68602512D01*
X104921463Y-68534692D01*
X104943999Y-68468556D01*
X104989054Y-68429515D01*
X104997816Y-68425051D01*
X105061466Y-68378807D01*
X105169786Y-68300109D01*
X105169788Y-68300106D01*
X105169792Y-68300104D01*
X105320104Y-68149792D01*
X105320106Y-68149788D01*
X105320109Y-68149786D01*
X105440921Y-67983501D01*
X105445051Y-67977816D01*
X105541557Y-67788412D01*
X105607246Y-67586243D01*
X105640500Y-67376287D01*
X105640500Y-67163713D01*
X105607246Y-66953757D01*
X105541557Y-66751588D01*
X105445051Y-66562184D01*
X105445049Y-66562181D01*
X105445048Y-66562179D01*
X105320109Y-66390213D01*
X105169786Y-66239890D01*
X104997820Y-66114951D01*
X104997115Y-66114591D01*
X104989054Y-66110485D01*
X104938259Y-66062512D01*
X104921463Y-65994692D01*
X104943999Y-65928556D01*
X104989054Y-65889515D01*
X104997816Y-65885051D01*
X105025629Y-65864844D01*
X105169786Y-65760109D01*
X105169788Y-65760106D01*
X105169792Y-65760104D01*
X105320104Y-65609792D01*
X105320106Y-65609788D01*
X105320109Y-65609786D01*
X105445048Y-65437820D01*
X105445047Y-65437820D01*
X105445051Y-65437816D01*
X105541557Y-65248412D01*
X105607246Y-65046243D01*
X105640500Y-64836287D01*
X105640500Y-64623713D01*
X105607246Y-64413757D01*
X105541557Y-64211588D01*
X105445051Y-64022184D01*
X105445049Y-64022181D01*
X105445048Y-64022179D01*
X105320109Y-63850213D01*
X105169786Y-63699890D01*
X104997820Y-63574951D01*
X104997115Y-63574591D01*
X104989054Y-63570485D01*
X104938259Y-63522512D01*
X104921463Y-63454692D01*
X104943999Y-63388556D01*
X104989054Y-63349515D01*
X104997816Y-63345051D01*
X105146300Y-63237172D01*
X105169786Y-63220109D01*
X105169788Y-63220106D01*
X105169792Y-63220104D01*
X105320104Y-63069792D01*
X105320106Y-63069788D01*
X105320109Y-63069786D01*
X105445048Y-62897820D01*
X105445047Y-62897820D01*
X105445051Y-62897816D01*
X105541557Y-62708412D01*
X105607246Y-62506243D01*
X105640500Y-62296287D01*
X105640500Y-62083713D01*
X105607246Y-61873757D01*
X105541557Y-61671588D01*
X105445051Y-61482184D01*
X105445049Y-61482181D01*
X105445048Y-61482179D01*
X105320109Y-61310213D01*
X105169786Y-61159890D01*
X104997820Y-61034951D01*
X104997115Y-61034591D01*
X104989054Y-61030485D01*
X104938259Y-60982512D01*
X104921463Y-60914692D01*
X104943999Y-60848556D01*
X104989054Y-60809515D01*
X104997816Y-60805051D01*
X105025629Y-60784844D01*
X105169786Y-60680109D01*
X105169788Y-60680106D01*
X105169792Y-60680104D01*
X105320104Y-60529792D01*
X105320106Y-60529788D01*
X105320109Y-60529786D01*
X105445048Y-60357820D01*
X105445047Y-60357820D01*
X105445051Y-60357816D01*
X105541557Y-60168412D01*
X105607246Y-59966243D01*
X105640500Y-59756287D01*
X105640500Y-59543713D01*
X105607246Y-59333757D01*
X105541557Y-59131588D01*
X105445051Y-58942184D01*
X105445049Y-58942181D01*
X105445048Y-58942179D01*
X105320109Y-58770213D01*
X105169786Y-58619890D01*
X104997820Y-58494951D01*
X104997115Y-58494591D01*
X104989054Y-58490485D01*
X104938259Y-58442512D01*
X104921463Y-58374692D01*
X104943999Y-58308556D01*
X104989054Y-58269515D01*
X104997816Y-58265051D01*
X105032699Y-58239707D01*
X105169786Y-58140109D01*
X105169788Y-58140106D01*
X105169792Y-58140104D01*
X105320104Y-57989792D01*
X105320106Y-57989788D01*
X105320109Y-57989786D01*
X105445048Y-57817820D01*
X105445047Y-57817820D01*
X105445051Y-57817816D01*
X105541557Y-57628412D01*
X105607246Y-57426243D01*
X105640500Y-57216287D01*
X105640500Y-57003713D01*
X105607246Y-56793757D01*
X105541557Y-56591588D01*
X105445051Y-56402184D01*
X105445049Y-56402181D01*
X105445048Y-56402179D01*
X105320109Y-56230213D01*
X105169786Y-56079890D01*
X104997820Y-55954951D01*
X104808414Y-55858444D01*
X104808413Y-55858443D01*
X104808412Y-55858443D01*
X104606243Y-55792754D01*
X104606241Y-55792753D01*
X104606240Y-55792753D01*
X104444957Y-55767208D01*
X104396287Y-55759500D01*
X104183713Y-55759500D01*
X104135042Y-55767208D01*
X103973760Y-55792753D01*
X103771585Y-55858444D01*
X103582179Y-55954951D01*
X103410213Y-56079890D01*
X103259890Y-56230213D01*
X103134949Y-56402182D01*
X103130484Y-56410946D01*
X103082509Y-56461742D01*
X103014688Y-56478536D01*
X102948553Y-56455998D01*
X102909516Y-56410946D01*
X102905050Y-56402182D01*
X102780109Y-56230213D01*
X102629786Y-56079890D01*
X102457820Y-55954951D01*
X102268414Y-55858444D01*
X102268413Y-55858443D01*
X102268412Y-55858443D01*
X102066243Y-55792754D01*
X102066241Y-55792753D01*
X102066240Y-55792753D01*
X101904957Y-55767208D01*
X101856287Y-55759500D01*
X101643713Y-55759500D01*
X101595042Y-55767208D01*
X101433760Y-55792753D01*
X101231585Y-55858444D01*
X101042179Y-55954951D01*
X100870213Y-56079890D01*
X100719890Y-56230213D01*
X100594951Y-56402179D01*
X100498444Y-56591585D01*
X100432753Y-56793760D01*
X100399500Y-57003713D01*
X100399500Y-57216286D01*
X100432753Y-57426239D01*
X100498444Y-57628414D01*
X100594951Y-57817820D01*
X100719890Y-57989786D01*
X100870213Y-58140109D01*
X101042182Y-58265050D01*
X101050946Y-58269516D01*
X101101742Y-58317491D01*
X101118536Y-58385312D01*
X101095998Y-58451447D01*
X101050946Y-58490484D01*
X101042182Y-58494949D01*
X100870213Y-58619890D01*
X100719890Y-58770213D01*
X100594951Y-58942179D01*
X100498444Y-59131585D01*
X100498443Y-59131587D01*
X100498443Y-59131588D01*
X100488793Y-59161287D01*
X100432753Y-59333760D01*
X100400927Y-59534705D01*
X100399500Y-59543713D01*
X100399500Y-59756287D01*
X100400534Y-59762816D01*
X100429593Y-59946289D01*
X100432754Y-59966243D01*
X100497862Y-60166625D01*
X100498444Y-60168414D01*
X100594951Y-60357820D01*
X100719890Y-60529786D01*
X100870213Y-60680109D01*
X101042182Y-60805050D01*
X101050946Y-60809516D01*
X101101742Y-60857491D01*
X101118536Y-60925312D01*
X101095998Y-60991447D01*
X101050946Y-61030484D01*
X101042182Y-61034949D01*
X100870213Y-61159890D01*
X100719890Y-61310213D01*
X100594951Y-61482179D01*
X100498444Y-61671585D01*
X100498443Y-61671587D01*
X100498443Y-61671588D01*
X100488793Y-61701287D01*
X100432753Y-61873760D01*
X100399500Y-62083713D01*
X100399500Y-62296286D01*
X100427772Y-62474792D01*
X100432754Y-62506243D01*
X100490914Y-62685241D01*
X100498444Y-62708414D01*
X100594951Y-62897820D01*
X100719890Y-63069786D01*
X100870213Y-63220109D01*
X101042182Y-63345050D01*
X101050946Y-63349516D01*
X101101742Y-63397491D01*
X101118536Y-63465312D01*
X101095998Y-63531447D01*
X101050946Y-63570484D01*
X101042182Y-63574949D01*
X100870213Y-63699890D01*
X100719890Y-63850213D01*
X100594951Y-64022179D01*
X100498444Y-64211585D01*
X100432753Y-64413760D01*
X100399500Y-64623713D01*
X100399500Y-64836286D01*
X100430603Y-65032666D01*
X100432754Y-65046243D01*
X100471084Y-65164211D01*
X100498444Y-65248414D01*
X100594951Y-65437820D01*
X100719890Y-65609786D01*
X100870213Y-65760109D01*
X101042182Y-65885050D01*
X101050946Y-65889516D01*
X101101742Y-65937491D01*
X101118536Y-66005312D01*
X101095998Y-66071447D01*
X101050946Y-66110484D01*
X101042182Y-66114949D01*
X100870213Y-66239890D01*
X100719890Y-66390213D01*
X100594951Y-66562179D01*
X100498444Y-66751585D01*
X100432753Y-66953760D01*
X100399500Y-67163713D01*
X100399500Y-67376286D01*
X100421708Y-67516506D01*
X100432754Y-67586243D01*
X100489955Y-67762290D01*
X100498444Y-67788414D01*
X100594951Y-67977820D01*
X100719890Y-68149786D01*
X100870213Y-68300109D01*
X101042182Y-68425050D01*
X101050946Y-68429516D01*
X101101742Y-68477491D01*
X101118536Y-68545312D01*
X101095998Y-68611447D01*
X101050946Y-68650484D01*
X101042182Y-68654949D01*
X100870213Y-68779890D01*
X100719890Y-68930213D01*
X100594951Y-69102179D01*
X100498444Y-69291585D01*
X100432753Y-69493760D01*
X100399500Y-69703713D01*
X100399500Y-69916286D01*
X100419261Y-70041056D01*
X100432754Y-70126243D01*
X100489043Y-70299483D01*
X100498444Y-70328414D01*
X100594951Y-70517820D01*
X100719890Y-70689786D01*
X100870213Y-70840109D01*
X101042182Y-70965050D01*
X101050946Y-70969516D01*
X101101742Y-71017491D01*
X101118536Y-71085312D01*
X101095998Y-71151447D01*
X101050946Y-71190484D01*
X101042182Y-71194949D01*
X100870213Y-71319890D01*
X100719890Y-71470213D01*
X100594951Y-71642179D01*
X100498444Y-71831585D01*
X100432753Y-72033760D01*
X100399500Y-72243713D01*
X100399500Y-72456286D01*
X100432753Y-72666239D01*
X100432753Y-72666241D01*
X100432754Y-72666243D01*
X100495791Y-72860251D01*
X100498444Y-72868414D01*
X100594951Y-73057820D01*
X100719890Y-73229786D01*
X100870213Y-73380109D01*
X101042182Y-73505050D01*
X101050946Y-73509516D01*
X101101742Y-73557491D01*
X101118536Y-73625312D01*
X101095998Y-73691447D01*
X101050946Y-73730484D01*
X101042182Y-73734949D01*
X100870213Y-73859890D01*
X100719890Y-74010213D01*
X100594951Y-74182179D01*
X100498444Y-74371585D01*
X100432753Y-74573760D01*
X100413233Y-74697007D01*
X100399500Y-74783713D01*
X100399500Y-74996287D01*
X100403186Y-75019558D01*
X100428552Y-75179716D01*
X100432754Y-75206243D01*
X100460462Y-75291520D01*
X100498444Y-75408414D01*
X100594951Y-75597820D01*
X100719890Y-75769786D01*
X100870213Y-75920109D01*
X101042179Y-76045048D01*
X101042181Y-76045049D01*
X101042184Y-76045051D01*
X101231588Y-76141557D01*
X101433757Y-76207246D01*
X101643713Y-76240500D01*
X101643714Y-76240500D01*
X101856286Y-76240500D01*
X101856287Y-76240500D01*
X102066243Y-76207246D01*
X102268412Y-76141557D01*
X102457816Y-76045051D01*
X102544478Y-75982088D01*
X102629784Y-75920110D01*
X102629784Y-75920109D01*
X102629792Y-75920104D01*
X102743717Y-75806178D01*
X102805036Y-75772696D01*
X102874728Y-75777680D01*
X102930662Y-75819551D01*
X102947577Y-75850528D01*
X102996646Y-75982088D01*
X102996649Y-75982093D01*
X103082809Y-76097187D01*
X103082812Y-76097190D01*
X103197906Y-76183350D01*
X103197913Y-76183354D01*
X103332620Y-76233596D01*
X103332627Y-76233598D01*
X103392155Y-76239999D01*
X103392172Y-76240000D01*
X104040000Y-76240000D01*
X104040000Y-75323012D01*
X104097007Y-75355925D01*
X104224174Y-75390000D01*
X104355826Y-75390000D01*
X104482993Y-75355925D01*
X104540000Y-75323012D01*
X104540000Y-76240000D01*
X105187828Y-76240000D01*
X105187844Y-76239999D01*
X105247372Y-76233598D01*
X105247379Y-76233596D01*
X105382086Y-76183354D01*
X105382093Y-76183350D01*
X105497187Y-76097190D01*
X105497190Y-76097187D01*
X105583350Y-75982093D01*
X105583354Y-75982086D01*
X105633596Y-75847379D01*
X105633598Y-75847372D01*
X105639999Y-75787844D01*
X105640000Y-75787827D01*
X105640000Y-75086597D01*
X105646238Y-75065351D01*
X105647818Y-75043263D01*
X105655890Y-75032479D01*
X105659685Y-75019558D01*
X105676418Y-75005058D01*
X105689690Y-74987330D01*
X105702310Y-74982622D01*
X105712489Y-74973803D01*
X105734406Y-74970651D01*
X105755154Y-74962913D01*
X105768314Y-74965775D01*
X105781647Y-74963859D01*
X105801790Y-74973058D01*
X105823427Y-74977765D01*
X105841152Y-74991033D01*
X105845203Y-74992884D01*
X105851681Y-74998916D01*
X106028139Y-75175374D01*
X106028149Y-75175385D01*
X106032479Y-75179715D01*
X106032480Y-75179716D01*
X106144284Y-75291520D01*
X106231095Y-75341639D01*
X106231097Y-75341641D01*
X106255838Y-75355925D01*
X106281215Y-75370577D01*
X106433943Y-75411501D01*
X106433946Y-75411501D01*
X106599653Y-75411501D01*
X106599669Y-75411500D01*
X110891902Y-75411500D01*
X110958941Y-75431185D01*
X111004696Y-75483989D01*
X111014640Y-75553147D01*
X110985615Y-75616703D01*
X110979583Y-75623181D01*
X107469481Y-79133282D01*
X107469479Y-79133285D01*
X107433484Y-79195632D01*
X107433483Y-79195634D01*
X107390423Y-79270214D01*
X107390423Y-79270215D01*
X107349499Y-79422943D01*
X107349499Y-79422945D01*
X107349499Y-79591046D01*
X107349500Y-79591059D01*
X107349500Y-79805500D01*
X107329815Y-79872539D01*
X107277011Y-79918294D01*
X107225501Y-79929500D01*
X107052130Y-79929500D01*
X107052123Y-79929501D01*
X106992516Y-79935908D01*
X106857671Y-79986202D01*
X106857664Y-79986206D01*
X106742455Y-80072452D01*
X106742452Y-80072455D01*
X106656206Y-80187664D01*
X106656202Y-80187671D01*
X106605908Y-80322517D01*
X106599501Y-80382116D01*
X106599500Y-80382135D01*
X106599500Y-82177870D01*
X106599501Y-82177876D01*
X106605909Y-82237484D01*
X106641223Y-82332168D01*
X106646207Y-82401859D01*
X106612721Y-82463182D01*
X106551398Y-82496666D01*
X106525041Y-82499500D01*
X94624500Y-82499500D01*
X94557461Y-82479815D01*
X94511706Y-82427011D01*
X94500500Y-82375500D01*
X94500500Y-80381902D01*
X95249500Y-80381902D01*
X95249500Y-80618097D01*
X95286446Y-80851368D01*
X95359433Y-81075996D01*
X95409223Y-81173713D01*
X95466657Y-81286433D01*
X95605483Y-81477510D01*
X95772490Y-81644517D01*
X95963567Y-81783343D01*
X95993142Y-81798412D01*
X96174003Y-81890566D01*
X96174005Y-81890566D01*
X96174008Y-81890568D01*
X96265221Y-81920205D01*
X96398631Y-81963553D01*
X96631903Y-82000500D01*
X96631908Y-82000500D01*
X96868097Y-82000500D01*
X97101368Y-81963553D01*
X97325992Y-81890568D01*
X97536433Y-81783343D01*
X97727510Y-81644517D01*
X97894517Y-81477510D01*
X98033343Y-81286433D01*
X98140568Y-81075992D01*
X98213553Y-80851368D01*
X98218783Y-80818349D01*
X98250500Y-80618097D01*
X98250500Y-80381902D01*
X101749500Y-80381902D01*
X101749500Y-80618097D01*
X101786446Y-80851368D01*
X101859433Y-81075996D01*
X101909223Y-81173713D01*
X101966657Y-81286433D01*
X102105483Y-81477510D01*
X102272490Y-81644517D01*
X102463567Y-81783343D01*
X102493142Y-81798412D01*
X102674003Y-81890566D01*
X102674005Y-81890566D01*
X102674008Y-81890568D01*
X102765221Y-81920205D01*
X102898631Y-81963553D01*
X103131903Y-82000500D01*
X103131908Y-82000500D01*
X103368097Y-82000500D01*
X103601368Y-81963553D01*
X103825992Y-81890568D01*
X104036433Y-81783343D01*
X104227510Y-81644517D01*
X104394517Y-81477510D01*
X104533343Y-81286433D01*
X104640568Y-81075992D01*
X104713553Y-80851368D01*
X104718783Y-80818349D01*
X104750500Y-80618097D01*
X104750500Y-80381902D01*
X104713553Y-80148631D01*
X104667540Y-80007019D01*
X104640568Y-79924008D01*
X104640566Y-79924005D01*
X104640566Y-79924003D01*
X104544293Y-79735058D01*
X104533343Y-79713567D01*
X104394517Y-79522490D01*
X104227510Y-79355483D01*
X104036433Y-79216657D01*
X103995169Y-79195632D01*
X103825996Y-79109433D01*
X103601368Y-79036446D01*
X103368097Y-78999500D01*
X103368092Y-78999500D01*
X103131908Y-78999500D01*
X103131903Y-78999500D01*
X102898631Y-79036446D01*
X102674003Y-79109433D01*
X102463566Y-79216657D01*
X102389852Y-79270214D01*
X102272490Y-79355483D01*
X102272488Y-79355485D01*
X102272487Y-79355485D01*
X102105485Y-79522487D01*
X102105485Y-79522488D01*
X102105483Y-79522490D01*
X102062929Y-79581060D01*
X101966657Y-79713566D01*
X101859433Y-79924003D01*
X101786446Y-80148631D01*
X101749500Y-80381902D01*
X98250500Y-80381902D01*
X98213553Y-80148631D01*
X98167540Y-80007019D01*
X98140568Y-79924008D01*
X98140566Y-79924005D01*
X98140566Y-79924003D01*
X98044293Y-79735058D01*
X98033343Y-79713567D01*
X97894517Y-79522490D01*
X97727510Y-79355483D01*
X97536433Y-79216657D01*
X97495169Y-79195632D01*
X97325996Y-79109433D01*
X97101368Y-79036446D01*
X96868097Y-78999500D01*
X96868092Y-78999500D01*
X96631908Y-78999500D01*
X96631903Y-78999500D01*
X96398631Y-79036446D01*
X96174003Y-79109433D01*
X95963566Y-79216657D01*
X95889852Y-79270214D01*
X95772490Y-79355483D01*
X95772488Y-79355485D01*
X95772487Y-79355485D01*
X95605485Y-79522487D01*
X95605485Y-79522488D01*
X95605483Y-79522490D01*
X95562929Y-79581060D01*
X95466657Y-79713566D01*
X95359433Y-79924003D01*
X95286446Y-80148631D01*
X95249500Y-80381902D01*
X94500500Y-80381902D01*
X94500500Y-52381902D01*
X95249500Y-52381902D01*
X95249500Y-52618097D01*
X95286446Y-52851368D01*
X95359433Y-53075996D01*
X95466657Y-53286433D01*
X95605483Y-53477510D01*
X95772490Y-53644517D01*
X95963567Y-53783343D01*
X96062991Y-53834002D01*
X96174003Y-53890566D01*
X96174005Y-53890566D01*
X96174008Y-53890568D01*
X96294412Y-53929689D01*
X96398631Y-53963553D01*
X96631903Y-54000500D01*
X96631908Y-54000500D01*
X96868097Y-54000500D01*
X97101368Y-53963553D01*
X97325992Y-53890568D01*
X97536433Y-53783343D01*
X97727510Y-53644517D01*
X97894517Y-53477510D01*
X98033343Y-53286433D01*
X98140568Y-53075992D01*
X98213553Y-52851368D01*
X98250500Y-52618097D01*
X98250500Y-52381902D01*
X101749500Y-52381902D01*
X101749500Y-52618097D01*
X101786446Y-52851368D01*
X101859433Y-53075996D01*
X101966657Y-53286433D01*
X102105483Y-53477510D01*
X102272490Y-53644517D01*
X102463567Y-53783343D01*
X102562991Y-53834002D01*
X102674003Y-53890566D01*
X102674005Y-53890566D01*
X102674008Y-53890568D01*
X102794412Y-53929689D01*
X102898631Y-53963553D01*
X103131903Y-54000500D01*
X103131908Y-54000500D01*
X103368097Y-54000500D01*
X103601368Y-53963553D01*
X103825992Y-53890568D01*
X104036433Y-53783343D01*
X104227510Y-53644517D01*
X104394517Y-53477510D01*
X104533343Y-53286433D01*
X104640568Y-53075992D01*
X104713553Y-52851368D01*
X104750500Y-52618097D01*
X104750500Y-52381902D01*
X104713553Y-52148631D01*
X104640566Y-51924003D01*
X104533342Y-51713566D01*
X104394517Y-51522490D01*
X104227510Y-51355483D01*
X104036433Y-51216657D01*
X103825996Y-51109433D01*
X103601368Y-51036446D01*
X103368097Y-50999500D01*
X103368092Y-50999500D01*
X103131908Y-50999500D01*
X103131903Y-50999500D01*
X102898631Y-51036446D01*
X102674003Y-51109433D01*
X102463566Y-51216657D01*
X102354550Y-51295862D01*
X102272490Y-51355483D01*
X102272488Y-51355485D01*
X102272487Y-51355485D01*
X102105485Y-51522487D01*
X102105485Y-51522488D01*
X102105483Y-51522490D01*
X102045862Y-51604550D01*
X101966657Y-51713566D01*
X101859433Y-51924003D01*
X101786446Y-52148631D01*
X101749500Y-52381902D01*
X98250500Y-52381902D01*
X98213553Y-52148631D01*
X98140566Y-51924003D01*
X98033342Y-51713566D01*
X97894517Y-51522490D01*
X97727510Y-51355483D01*
X97536433Y-51216657D01*
X97325996Y-51109433D01*
X97101368Y-51036446D01*
X96868097Y-50999500D01*
X96868092Y-50999500D01*
X96631908Y-50999500D01*
X96631903Y-50999500D01*
X96398631Y-51036446D01*
X96174003Y-51109433D01*
X95963566Y-51216657D01*
X95854550Y-51295862D01*
X95772490Y-51355483D01*
X95772488Y-51355485D01*
X95772487Y-51355485D01*
X95605485Y-51522487D01*
X95605485Y-51522488D01*
X95605483Y-51522490D01*
X95545862Y-51604550D01*
X95466657Y-51713566D01*
X95359433Y-51924003D01*
X95286446Y-52148631D01*
X95249500Y-52381902D01*
X94500500Y-52381902D01*
X94500500Y-50624500D01*
X94520185Y-50557461D01*
X94572989Y-50511706D01*
X94624500Y-50500500D01*
X125125500Y-50500500D01*
X125192539Y-50520185D01*
G37*
%TD.AperFunction*%
%TA.AperFunction,Conductor*%
G36*
X206942539Y-50520185D02*
G01*
X206988294Y-50572989D01*
X206999500Y-50624500D01*
X206999500Y-82375500D01*
X206979815Y-82442539D01*
X206927011Y-82488294D01*
X206875500Y-82499500D01*
X141959758Y-82499500D01*
X141892719Y-82479815D01*
X141846964Y-82427011D01*
X141837020Y-82357853D01*
X141866045Y-82294297D01*
X141872077Y-82287819D01*
X141922413Y-82237483D01*
X142000104Y-82159792D01*
X142000106Y-82159788D01*
X142000109Y-82159786D01*
X142125048Y-81987820D01*
X142125047Y-81987820D01*
X142125051Y-81987816D01*
X142221557Y-81798412D01*
X142287246Y-81596243D01*
X142320500Y-81386287D01*
X142320500Y-81173713D01*
X142287246Y-80963757D01*
X142273506Y-80921473D01*
X142271512Y-80851635D01*
X142303755Y-80795478D01*
X142717331Y-80381902D01*
X196999500Y-80381902D01*
X196999500Y-80618097D01*
X197036446Y-80851368D01*
X197109433Y-81075996D01*
X197159223Y-81173713D01*
X197216657Y-81286433D01*
X197355483Y-81477510D01*
X197522490Y-81644517D01*
X197713567Y-81783343D01*
X197743142Y-81798412D01*
X197924003Y-81890566D01*
X197924005Y-81890566D01*
X197924008Y-81890568D01*
X198015221Y-81920205D01*
X198148631Y-81963553D01*
X198381903Y-82000500D01*
X198381908Y-82000500D01*
X198618097Y-82000500D01*
X198851368Y-81963553D01*
X199075992Y-81890568D01*
X199286433Y-81783343D01*
X199477510Y-81644517D01*
X199644517Y-81477510D01*
X199783343Y-81286433D01*
X199890568Y-81075992D01*
X199963553Y-80851368D01*
X199968783Y-80818349D01*
X200000500Y-80618097D01*
X200000500Y-80381902D01*
X203499500Y-80381902D01*
X203499500Y-80618097D01*
X203536446Y-80851368D01*
X203609433Y-81075996D01*
X203659223Y-81173713D01*
X203716657Y-81286433D01*
X203855483Y-81477510D01*
X204022490Y-81644517D01*
X204213567Y-81783343D01*
X204243142Y-81798412D01*
X204424003Y-81890566D01*
X204424005Y-81890566D01*
X204424008Y-81890568D01*
X204515221Y-81920205D01*
X204648631Y-81963553D01*
X204881903Y-82000500D01*
X204881908Y-82000500D01*
X205118097Y-82000500D01*
X205351368Y-81963553D01*
X205575992Y-81890568D01*
X205786433Y-81783343D01*
X205977510Y-81644517D01*
X206144517Y-81477510D01*
X206283343Y-81286433D01*
X206390568Y-81075992D01*
X206463553Y-80851368D01*
X206468783Y-80818349D01*
X206500500Y-80618097D01*
X206500500Y-80381902D01*
X206463553Y-80148631D01*
X206417540Y-80007019D01*
X206390568Y-79924008D01*
X206390566Y-79924005D01*
X206390566Y-79924003D01*
X206294293Y-79735058D01*
X206283343Y-79713567D01*
X206144517Y-79522490D01*
X205977510Y-79355483D01*
X205786433Y-79216657D01*
X205745169Y-79195632D01*
X205575996Y-79109433D01*
X205351368Y-79036446D01*
X205118097Y-78999500D01*
X205118092Y-78999500D01*
X204881908Y-78999500D01*
X204881903Y-78999500D01*
X204648631Y-79036446D01*
X204424003Y-79109433D01*
X204213566Y-79216657D01*
X204139852Y-79270214D01*
X204022490Y-79355483D01*
X204022488Y-79355485D01*
X204022487Y-79355485D01*
X203855485Y-79522487D01*
X203855485Y-79522488D01*
X203855483Y-79522490D01*
X203812929Y-79581060D01*
X203716657Y-79713566D01*
X203609433Y-79924003D01*
X203536446Y-80148631D01*
X203499500Y-80381902D01*
X200000500Y-80381902D01*
X199963553Y-80148631D01*
X199917540Y-80007019D01*
X199890568Y-79924008D01*
X199890566Y-79924005D01*
X199890566Y-79924003D01*
X199794293Y-79735058D01*
X199783343Y-79713567D01*
X199644517Y-79522490D01*
X199477510Y-79355483D01*
X199286433Y-79216657D01*
X199245169Y-79195632D01*
X199075996Y-79109433D01*
X198851368Y-79036446D01*
X198618097Y-78999500D01*
X198618092Y-78999500D01*
X198381908Y-78999500D01*
X198381903Y-78999500D01*
X198148631Y-79036446D01*
X197924003Y-79109433D01*
X197713566Y-79216657D01*
X197639852Y-79270214D01*
X197522490Y-79355483D01*
X197522488Y-79355485D01*
X197522487Y-79355485D01*
X197355485Y-79522487D01*
X197355485Y-79522488D01*
X197355483Y-79522490D01*
X197312929Y-79581060D01*
X197216657Y-79713566D01*
X197109433Y-79924003D01*
X197036446Y-80148631D01*
X196999500Y-80381902D01*
X142717331Y-80381902D01*
X144552271Y-78546963D01*
X144552274Y-78546962D01*
X144664078Y-78435158D01*
X144714197Y-78348346D01*
X144743135Y-78298227D01*
X144784058Y-78145500D01*
X144784058Y-77987385D01*
X144784058Y-77707323D01*
X144803743Y-77640284D01*
X144804956Y-77638432D01*
X144833862Y-77595172D01*
X144892952Y-77506737D01*
X144953295Y-77361055D01*
X144984058Y-77206400D01*
X144984058Y-77048716D01*
X144984058Y-77048713D01*
X144984057Y-77048711D01*
X144979310Y-77024846D01*
X144953295Y-76894061D01*
X144953293Y-76894056D01*
X144892955Y-76748385D01*
X144892948Y-76748372D01*
X144805347Y-76617269D01*
X144805344Y-76617265D01*
X144693850Y-76505771D01*
X144693846Y-76505768D01*
X144562743Y-76418167D01*
X144562730Y-76418160D01*
X144417059Y-76357822D01*
X144417047Y-76357819D01*
X144262403Y-76327058D01*
X144262400Y-76327058D01*
X144104716Y-76327058D01*
X144104713Y-76327058D01*
X143950068Y-76357819D01*
X143950056Y-76357822D01*
X143804385Y-76418160D01*
X143804372Y-76418167D01*
X143673269Y-76505768D01*
X143673265Y-76505771D01*
X143561771Y-76617265D01*
X143561768Y-76617269D01*
X143474167Y-76748372D01*
X143474160Y-76748385D01*
X143413822Y-76894056D01*
X143413819Y-76894068D01*
X143383058Y-77048711D01*
X143383058Y-77206404D01*
X143413819Y-77361047D01*
X143413822Y-77361059D01*
X143474160Y-77506730D01*
X143474167Y-77506743D01*
X143562160Y-77638432D01*
X143567810Y-77656478D01*
X143578035Y-77672388D01*
X143582486Y-77703347D01*
X143583038Y-77705109D01*
X143583058Y-77707323D01*
X143583058Y-77766344D01*
X143563373Y-77833383D01*
X143546739Y-77854025D01*
X141454522Y-79946241D01*
X141393199Y-79979726D01*
X141328523Y-79976491D01*
X141286245Y-79962754D01*
X141146272Y-79940584D01*
X141076287Y-79929500D01*
X140863713Y-79929500D01*
X140815042Y-79937208D01*
X140653760Y-79962753D01*
X140451585Y-80028444D01*
X140262179Y-80124951D01*
X140090213Y-80249890D01*
X139939890Y-80400213D01*
X139814949Y-80572182D01*
X139810484Y-80580946D01*
X139762509Y-80631742D01*
X139694688Y-80648536D01*
X139628553Y-80625998D01*
X139589516Y-80580946D01*
X139585050Y-80572182D01*
X139460109Y-80400213D01*
X139309786Y-80249890D01*
X139137815Y-80124948D01*
X139137814Y-80124947D01*
X139098205Y-80104765D01*
X139047409Y-80056791D01*
X139030500Y-79994281D01*
X139030500Y-73706097D01*
X139050185Y-73639058D01*
X139066819Y-73618416D01*
X139658416Y-73026819D01*
X139719739Y-72993334D01*
X139746097Y-72990500D01*
X154893903Y-72990500D01*
X154960942Y-73010185D01*
X154981584Y-73026819D01*
X155629425Y-73674660D01*
X155662910Y-73735983D01*
X155663361Y-73738149D01*
X155694261Y-73893491D01*
X155694264Y-73893501D01*
X155754602Y-74039172D01*
X155754609Y-74039185D01*
X155842210Y-74170288D01*
X155842213Y-74170292D01*
X155953707Y-74281786D01*
X155953711Y-74281789D01*
X156084814Y-74369390D01*
X156084827Y-74369397D01*
X156230498Y-74429735D01*
X156230503Y-74429737D01*
X156378663Y-74459208D01*
X156385153Y-74460499D01*
X156385156Y-74460500D01*
X156385158Y-74460500D01*
X156542844Y-74460500D01*
X156542845Y-74460499D01*
X156697497Y-74429737D01*
X156837882Y-74371588D01*
X156843172Y-74369397D01*
X156843172Y-74369396D01*
X156843179Y-74369394D01*
X156974289Y-74281789D01*
X157085789Y-74170289D01*
X157173394Y-74039179D01*
X157233737Y-73893497D01*
X157264500Y-73738842D01*
X157264500Y-73581158D01*
X157264500Y-73581155D01*
X157264499Y-73581153D01*
X157254217Y-73529463D01*
X157233737Y-73426503D01*
X157229557Y-73416412D01*
X157173397Y-73280827D01*
X157173390Y-73280814D01*
X157085789Y-73149711D01*
X157085786Y-73149707D01*
X156974292Y-73038213D01*
X156974288Y-73038210D01*
X156843185Y-72950609D01*
X156843172Y-72950602D01*
X156697501Y-72890264D01*
X156697491Y-72890261D01*
X156542149Y-72859361D01*
X156480238Y-72826976D01*
X156478660Y-72825425D01*
X155681590Y-72028355D01*
X155681588Y-72028352D01*
X155653371Y-72000135D01*
X165527500Y-72000135D01*
X165527500Y-73795870D01*
X165527501Y-73795876D01*
X165533908Y-73855483D01*
X165584202Y-73990328D01*
X165584206Y-73990335D01*
X165670452Y-74105544D01*
X165670455Y-74105547D01*
X165785664Y-74191793D01*
X165785671Y-74191797D01*
X165920517Y-74242091D01*
X165920516Y-74242091D01*
X165927444Y-74242835D01*
X165980127Y-74248500D01*
X167775872Y-74248499D01*
X167835483Y-74242091D01*
X167970331Y-74191796D01*
X168085546Y-74105546D01*
X168171796Y-73990331D01*
X168222091Y-73855483D01*
X168228500Y-73795873D01*
X168228499Y-73771979D01*
X168231330Y-73758963D01*
X168241940Y-73739525D01*
X168248179Y-73718275D01*
X168264803Y-73697643D01*
X168264808Y-73697636D01*
X168264811Y-73697634D01*
X168264818Y-73697626D01*
X168935037Y-73027408D01*
X168952075Y-73090993D01*
X169017901Y-73205007D01*
X169110993Y-73298099D01*
X169225007Y-73363925D01*
X169288590Y-73380962D01*
X168656282Y-74013269D01*
X168656282Y-74013270D01*
X168710449Y-74052624D01*
X168899782Y-74149095D01*
X169101870Y-74214757D01*
X169311754Y-74248000D01*
X169524246Y-74248000D01*
X169734127Y-74214757D01*
X169734130Y-74214757D01*
X169936217Y-74149095D01*
X170125554Y-74052622D01*
X170179716Y-74013270D01*
X170179717Y-74013270D01*
X169547408Y-73380962D01*
X169610993Y-73363925D01*
X169725007Y-73298099D01*
X169818099Y-73205007D01*
X169883925Y-73090993D01*
X169900962Y-73027408D01*
X170533270Y-73659717D01*
X170533270Y-73659716D01*
X170572622Y-73605555D01*
X170577232Y-73596507D01*
X170625205Y-73545709D01*
X170693025Y-73528912D01*
X170759161Y-73551447D01*
X170798204Y-73596504D01*
X170802949Y-73605817D01*
X170927890Y-73777786D01*
X171078213Y-73928109D01*
X171250179Y-74053048D01*
X171250181Y-74053049D01*
X171250184Y-74053051D01*
X171439588Y-74149557D01*
X171641757Y-74215246D01*
X171851713Y-74248500D01*
X171851714Y-74248500D01*
X172064286Y-74248500D01*
X172064287Y-74248500D01*
X172274243Y-74215246D01*
X172476412Y-74149557D01*
X172665816Y-74053051D01*
X172752138Y-73990335D01*
X172837786Y-73928109D01*
X172837788Y-73928106D01*
X172837792Y-73928104D01*
X172988104Y-73777792D01*
X172988106Y-73777788D01*
X172988109Y-73777786D01*
X173113048Y-73605820D01*
X173113047Y-73605820D01*
X173113051Y-73605816D01*
X173117514Y-73597054D01*
X173165488Y-73546259D01*
X173233308Y-73529463D01*
X173299444Y-73551999D01*
X173338486Y-73597056D01*
X173342951Y-73605820D01*
X173467890Y-73777786D01*
X173618213Y-73928109D01*
X173790179Y-74053048D01*
X173790181Y-74053049D01*
X173790184Y-74053051D01*
X173979588Y-74149557D01*
X174181757Y-74215246D01*
X174391713Y-74248500D01*
X174391714Y-74248500D01*
X174604286Y-74248500D01*
X174604287Y-74248500D01*
X174814243Y-74215246D01*
X175016412Y-74149557D01*
X175205816Y-74053051D01*
X175292138Y-73990335D01*
X175377786Y-73928109D01*
X175377788Y-73928106D01*
X175377792Y-73928104D01*
X175528104Y-73777792D01*
X175528106Y-73777788D01*
X175528109Y-73777786D01*
X175653048Y-73605820D01*
X175653047Y-73605820D01*
X175653051Y-73605816D01*
X175657514Y-73597054D01*
X175705488Y-73546259D01*
X175773308Y-73529463D01*
X175839444Y-73551999D01*
X175878486Y-73597056D01*
X175882951Y-73605820D01*
X176007890Y-73777786D01*
X176158213Y-73928109D01*
X176330179Y-74053048D01*
X176330181Y-74053049D01*
X176330184Y-74053051D01*
X176519588Y-74149557D01*
X176721757Y-74215246D01*
X176931713Y-74248500D01*
X176931714Y-74248500D01*
X177144286Y-74248500D01*
X177144287Y-74248500D01*
X177354243Y-74215246D01*
X177556412Y-74149557D01*
X177745816Y-74053051D01*
X177832138Y-73990335D01*
X177917786Y-73928109D01*
X177917788Y-73928106D01*
X177917792Y-73928104D01*
X178068104Y-73777792D01*
X178068106Y-73777788D01*
X178068109Y-73777786D01*
X178153890Y-73659717D01*
X178193051Y-73605816D01*
X178197793Y-73596508D01*
X178245763Y-73545711D01*
X178313583Y-73528911D01*
X178379719Y-73551445D01*
X178418763Y-73596500D01*
X178423373Y-73605547D01*
X178462728Y-73659716D01*
X179095037Y-73027408D01*
X179112075Y-73090993D01*
X179177901Y-73205007D01*
X179270993Y-73298099D01*
X179385007Y-73363925D01*
X179448590Y-73380962D01*
X178816282Y-74013269D01*
X178816282Y-74013270D01*
X178870449Y-74052624D01*
X179059782Y-74149095D01*
X179261870Y-74214757D01*
X179471754Y-74248000D01*
X179684246Y-74248000D01*
X179894127Y-74214757D01*
X179894130Y-74214757D01*
X180096217Y-74149095D01*
X180285554Y-74052622D01*
X180339716Y-74013270D01*
X180339717Y-74013270D01*
X179707408Y-73380962D01*
X179770993Y-73363925D01*
X179885007Y-73298099D01*
X179978099Y-73205007D01*
X180043925Y-73090993D01*
X180060962Y-73027408D01*
X180693270Y-73659717D01*
X180693270Y-73659716D01*
X180732622Y-73605554D01*
X180829095Y-73416217D01*
X180894757Y-73214130D01*
X180894757Y-73214128D01*
X180900284Y-73179239D01*
X180900284Y-73179238D01*
X180928000Y-73004246D01*
X180928000Y-72791753D01*
X180894757Y-72581872D01*
X180894757Y-72581869D01*
X180829095Y-72379782D01*
X180732623Y-72190447D01*
X180732622Y-72190445D01*
X180719029Y-72171735D01*
X180719028Y-72171734D01*
X180693271Y-72136282D01*
X180693269Y-72136282D01*
X180060962Y-72768590D01*
X180043925Y-72705007D01*
X179978099Y-72590993D01*
X179885007Y-72497901D01*
X179770993Y-72432075D01*
X179707409Y-72415037D01*
X180020290Y-72102155D01*
X188280000Y-72102155D01*
X188280000Y-72750000D01*
X189196988Y-72750000D01*
X189164075Y-72807007D01*
X189130000Y-72934174D01*
X189130000Y-73065826D01*
X189164075Y-73192993D01*
X189196988Y-73250000D01*
X188280000Y-73250000D01*
X188280000Y-73897844D01*
X188286401Y-73957372D01*
X188286403Y-73957379D01*
X188336645Y-74092086D01*
X188336649Y-74092093D01*
X188422809Y-74207187D01*
X188422812Y-74207190D01*
X188537906Y-74293350D01*
X188537913Y-74293354D01*
X188672620Y-74343596D01*
X188672627Y-74343598D01*
X188732155Y-74349999D01*
X188732172Y-74350000D01*
X189380000Y-74350000D01*
X189380000Y-73433012D01*
X189437007Y-73465925D01*
X189564174Y-73500000D01*
X189695826Y-73500000D01*
X189822993Y-73465925D01*
X189880000Y-73433012D01*
X189880000Y-74350000D01*
X190527828Y-74350000D01*
X190527844Y-74349999D01*
X190587372Y-74343598D01*
X190587379Y-74343596D01*
X190722086Y-74293354D01*
X190722093Y-74293350D01*
X190837187Y-74207190D01*
X190837190Y-74207187D01*
X190923350Y-74092093D01*
X190923354Y-74092086D01*
X190945529Y-74032632D01*
X190984319Y-73859390D01*
X190984682Y-73858734D01*
X190984642Y-73857984D01*
X191017642Y-73798802D01*
X191687037Y-73129408D01*
X191704075Y-73192993D01*
X191769901Y-73307007D01*
X191862993Y-73400099D01*
X191977007Y-73465925D01*
X192040590Y-73482962D01*
X191408282Y-74115269D01*
X191408282Y-74115270D01*
X191462449Y-74154624D01*
X191651782Y-74251095D01*
X191853870Y-74316757D01*
X192063754Y-74350000D01*
X192276246Y-74350000D01*
X192486127Y-74316757D01*
X192486130Y-74316757D01*
X192688217Y-74251095D01*
X192877554Y-74154622D01*
X192931716Y-74115270D01*
X192931717Y-74115270D01*
X192299408Y-73482962D01*
X192362993Y-73465925D01*
X192477007Y-73400099D01*
X192570099Y-73307007D01*
X192635925Y-73192993D01*
X192652962Y-73129409D01*
X193285270Y-73761717D01*
X193285270Y-73761716D01*
X193324622Y-73707554D01*
X193329514Y-73697954D01*
X193377488Y-73647157D01*
X193445308Y-73630361D01*
X193511444Y-73652897D01*
X193550486Y-73697954D01*
X193555375Y-73707550D01*
X193594728Y-73761716D01*
X194227037Y-73129408D01*
X194244075Y-73192993D01*
X194309901Y-73307007D01*
X194402993Y-73400099D01*
X194517007Y-73465925D01*
X194580590Y-73482962D01*
X193948282Y-74115269D01*
X193948282Y-74115270D01*
X194002449Y-74154624D01*
X194191782Y-74251095D01*
X194393870Y-74316757D01*
X194603754Y-74350000D01*
X194816246Y-74350000D01*
X195026127Y-74316757D01*
X195026130Y-74316757D01*
X195228217Y-74251095D01*
X195417554Y-74154622D01*
X195471716Y-74115270D01*
X195471717Y-74115270D01*
X194839408Y-73482962D01*
X194902993Y-73465925D01*
X195017007Y-73400099D01*
X195110099Y-73307007D01*
X195175925Y-73192993D01*
X195192962Y-73129408D01*
X195825270Y-73761717D01*
X195825270Y-73761716D01*
X195864622Y-73707554D01*
X195869514Y-73697954D01*
X195917488Y-73647157D01*
X195985308Y-73630361D01*
X196051444Y-73652897D01*
X196090486Y-73697954D01*
X196095375Y-73707550D01*
X196134728Y-73761716D01*
X196767037Y-73129408D01*
X196784075Y-73192993D01*
X196849901Y-73307007D01*
X196942993Y-73400099D01*
X197057007Y-73465925D01*
X197120590Y-73482962D01*
X196488282Y-74115269D01*
X196488282Y-74115270D01*
X196542449Y-74154624D01*
X196731782Y-74251095D01*
X196933870Y-74316757D01*
X197143754Y-74350000D01*
X197356246Y-74350000D01*
X197566127Y-74316757D01*
X197566130Y-74316757D01*
X197768217Y-74251095D01*
X197957554Y-74154622D01*
X198011716Y-74115270D01*
X198011717Y-74115270D01*
X197379408Y-73482962D01*
X197442993Y-73465925D01*
X197557007Y-73400099D01*
X197650099Y-73307007D01*
X197715925Y-73192993D01*
X197732962Y-73129408D01*
X198365270Y-73761717D01*
X198365270Y-73761716D01*
X198404622Y-73707554D01*
X198409514Y-73697954D01*
X198457488Y-73647157D01*
X198525308Y-73630361D01*
X198591444Y-73652897D01*
X198630486Y-73697954D01*
X198635375Y-73707550D01*
X198674728Y-73761716D01*
X199307037Y-73129408D01*
X199324075Y-73192993D01*
X199389901Y-73307007D01*
X199482993Y-73400099D01*
X199597007Y-73465925D01*
X199660590Y-73482962D01*
X199028282Y-74115269D01*
X199028282Y-74115270D01*
X199082449Y-74154624D01*
X199271782Y-74251095D01*
X199473870Y-74316757D01*
X199683754Y-74350000D01*
X199896246Y-74350000D01*
X200106127Y-74316757D01*
X200106130Y-74316757D01*
X200308217Y-74251095D01*
X200497554Y-74154622D01*
X200551716Y-74115270D01*
X200551717Y-74115270D01*
X199919408Y-73482962D01*
X199982993Y-73465925D01*
X200097007Y-73400099D01*
X200190099Y-73307007D01*
X200255925Y-73192993D01*
X200272962Y-73129408D01*
X200905270Y-73761717D01*
X200905270Y-73761716D01*
X200944622Y-73707554D01*
X201041095Y-73518217D01*
X201106757Y-73316130D01*
X201106757Y-73316127D01*
X201140000Y-73106246D01*
X201140000Y-72893753D01*
X201106757Y-72683872D01*
X201106757Y-72683869D01*
X201041095Y-72481782D01*
X200944624Y-72292449D01*
X200905270Y-72238282D01*
X200905269Y-72238282D01*
X200272962Y-72870590D01*
X200255925Y-72807007D01*
X200190099Y-72692993D01*
X200097007Y-72599901D01*
X199982993Y-72534075D01*
X199919409Y-72517037D01*
X200551716Y-71884728D01*
X200497550Y-71845375D01*
X200308217Y-71748904D01*
X200106129Y-71683242D01*
X199896246Y-71650000D01*
X199683754Y-71650000D01*
X199473872Y-71683242D01*
X199473869Y-71683242D01*
X199271782Y-71748904D01*
X199082439Y-71845380D01*
X199028282Y-71884727D01*
X199028282Y-71884728D01*
X199660591Y-72517037D01*
X199597007Y-72534075D01*
X199482993Y-72599901D01*
X199389901Y-72692993D01*
X199324075Y-72807007D01*
X199307037Y-72870591D01*
X198674728Y-72238282D01*
X198674727Y-72238282D01*
X198635380Y-72292440D01*
X198630483Y-72302051D01*
X198582506Y-72352845D01*
X198514684Y-72369638D01*
X198448550Y-72347098D01*
X198409516Y-72302048D01*
X198404626Y-72292452D01*
X198365270Y-72238282D01*
X198365269Y-72238282D01*
X197732962Y-72870590D01*
X197715925Y-72807007D01*
X197650099Y-72692993D01*
X197557007Y-72599901D01*
X197442993Y-72534075D01*
X197379409Y-72517037D01*
X198011716Y-71884728D01*
X197957550Y-71845375D01*
X197768217Y-71748904D01*
X197566129Y-71683242D01*
X197356246Y-71650000D01*
X197143754Y-71650000D01*
X196933872Y-71683242D01*
X196933869Y-71683242D01*
X196731782Y-71748904D01*
X196542439Y-71845380D01*
X196488282Y-71884727D01*
X196488282Y-71884728D01*
X197120591Y-72517037D01*
X197057007Y-72534075D01*
X196942993Y-72599901D01*
X196849901Y-72692993D01*
X196784075Y-72807007D01*
X196767037Y-72870591D01*
X196134728Y-72238282D01*
X196134727Y-72238282D01*
X196095380Y-72292440D01*
X196090483Y-72302051D01*
X196042506Y-72352845D01*
X195974684Y-72369638D01*
X195908550Y-72347098D01*
X195869516Y-72302048D01*
X195864626Y-72292452D01*
X195825270Y-72238282D01*
X195192962Y-72870590D01*
X195175925Y-72807007D01*
X195110099Y-72692993D01*
X195017007Y-72599901D01*
X194902993Y-72534075D01*
X194839409Y-72517037D01*
X195471716Y-71884728D01*
X195417550Y-71845375D01*
X195228217Y-71748904D01*
X195026129Y-71683242D01*
X194816246Y-71650000D01*
X194603754Y-71650000D01*
X194393872Y-71683242D01*
X194393869Y-71683242D01*
X194191782Y-71748904D01*
X194002439Y-71845380D01*
X193948282Y-71884727D01*
X193948282Y-71884728D01*
X194580591Y-72517037D01*
X194517007Y-72534075D01*
X194402993Y-72599901D01*
X194309901Y-72692993D01*
X194244075Y-72807007D01*
X194227037Y-72870591D01*
X193594728Y-72238282D01*
X193594727Y-72238282D01*
X193555380Y-72292440D01*
X193550483Y-72302051D01*
X193502506Y-72352845D01*
X193434684Y-72369638D01*
X193368550Y-72347098D01*
X193329516Y-72302048D01*
X193324626Y-72292452D01*
X193285270Y-72238282D01*
X193285269Y-72238282D01*
X192652962Y-72870590D01*
X192635925Y-72807007D01*
X192570099Y-72692993D01*
X192477007Y-72599901D01*
X192362993Y-72534075D01*
X192299409Y-72517037D01*
X192931716Y-71884728D01*
X192877550Y-71845375D01*
X192688217Y-71748904D01*
X192486129Y-71683242D01*
X192276246Y-71650000D01*
X192063754Y-71650000D01*
X191853872Y-71683242D01*
X191853869Y-71683242D01*
X191651782Y-71748904D01*
X191462439Y-71845380D01*
X191408282Y-71884727D01*
X191408282Y-71884728D01*
X192040591Y-72517037D01*
X191977007Y-72534075D01*
X191862993Y-72599901D01*
X191769901Y-72692993D01*
X191704075Y-72807007D01*
X191687037Y-72870591D01*
X191017642Y-72201196D01*
X190984319Y-72140609D01*
X190945527Y-71967364D01*
X190923354Y-71907913D01*
X190923350Y-71907906D01*
X190837190Y-71792812D01*
X190837187Y-71792809D01*
X190722093Y-71706649D01*
X190722086Y-71706645D01*
X190587379Y-71656403D01*
X190587372Y-71656401D01*
X190527844Y-71650000D01*
X189880000Y-71650000D01*
X189880000Y-72566988D01*
X189822993Y-72534075D01*
X189695826Y-72500000D01*
X189564174Y-72500000D01*
X189437007Y-72534075D01*
X189380000Y-72566988D01*
X189380000Y-71650000D01*
X188732155Y-71650000D01*
X188672627Y-71656401D01*
X188672620Y-71656403D01*
X188537913Y-71706645D01*
X188537906Y-71706649D01*
X188422812Y-71792809D01*
X188422809Y-71792812D01*
X188336649Y-71907906D01*
X188336645Y-71907913D01*
X188286403Y-72042620D01*
X188286401Y-72042627D01*
X188280000Y-72102155D01*
X180020290Y-72102155D01*
X180339716Y-71782728D01*
X180285550Y-71743375D01*
X180096217Y-71646904D01*
X179894129Y-71581242D01*
X179684246Y-71548000D01*
X179471754Y-71548000D01*
X179261872Y-71581242D01*
X179261869Y-71581242D01*
X179059782Y-71646904D01*
X178870439Y-71743380D01*
X178816282Y-71782727D01*
X178816282Y-71782728D01*
X179448591Y-72415037D01*
X179385007Y-72432075D01*
X179270993Y-72497901D01*
X179177901Y-72590993D01*
X179112075Y-72705007D01*
X179095037Y-72768591D01*
X178462728Y-72136282D01*
X178462727Y-72136282D01*
X178423380Y-72190440D01*
X178423376Y-72190446D01*
X178418760Y-72199505D01*
X178370781Y-72250297D01*
X178302959Y-72267087D01*
X178236826Y-72244543D01*
X178197794Y-72199493D01*
X178193051Y-72190184D01*
X178193049Y-72190181D01*
X178193048Y-72190179D01*
X178068109Y-72018213D01*
X177917786Y-71867890D01*
X177745820Y-71742951D01*
X177556414Y-71646444D01*
X177556413Y-71646443D01*
X177556412Y-71646443D01*
X177354243Y-71580754D01*
X177354241Y-71580753D01*
X177354240Y-71580753D01*
X177192957Y-71555208D01*
X177144287Y-71547500D01*
X176931713Y-71547500D01*
X176883042Y-71555208D01*
X176721760Y-71580753D01*
X176519585Y-71646444D01*
X176330179Y-71742951D01*
X176158213Y-71867890D01*
X176007890Y-72018213D01*
X175882949Y-72190182D01*
X175878484Y-72198946D01*
X175830509Y-72249742D01*
X175762688Y-72266536D01*
X175696553Y-72243998D01*
X175657516Y-72198946D01*
X175653050Y-72190182D01*
X175528109Y-72018213D01*
X175377786Y-71867890D01*
X175205820Y-71742951D01*
X175016414Y-71646444D01*
X175016413Y-71646443D01*
X175016412Y-71646443D01*
X174814243Y-71580754D01*
X174814241Y-71580753D01*
X174814240Y-71580753D01*
X174652957Y-71555208D01*
X174604287Y-71547500D01*
X174391713Y-71547500D01*
X174343042Y-71555208D01*
X174181760Y-71580753D01*
X173979585Y-71646444D01*
X173790179Y-71742951D01*
X173618213Y-71867890D01*
X173467890Y-72018213D01*
X173342949Y-72190182D01*
X173338484Y-72198946D01*
X173290509Y-72249742D01*
X173222688Y-72266536D01*
X173156553Y-72243998D01*
X173117516Y-72198946D01*
X173113050Y-72190182D01*
X172988109Y-72018213D01*
X172837786Y-71867890D01*
X172665820Y-71742951D01*
X172476414Y-71646444D01*
X172476413Y-71646443D01*
X172476412Y-71646443D01*
X172274243Y-71580754D01*
X172274241Y-71580753D01*
X172274240Y-71580753D01*
X172112957Y-71555208D01*
X172064287Y-71547500D01*
X171851713Y-71547500D01*
X171803042Y-71555208D01*
X171641760Y-71580753D01*
X171439585Y-71646444D01*
X171250179Y-71742951D01*
X171078213Y-71867890D01*
X170927890Y-72018213D01*
X170802949Y-72190182D01*
X170798202Y-72199499D01*
X170750227Y-72250293D01*
X170682405Y-72267087D01*
X170616271Y-72244548D01*
X170577234Y-72199495D01*
X170572626Y-72190452D01*
X170533270Y-72136282D01*
X170533269Y-72136282D01*
X169900962Y-72768590D01*
X169883925Y-72705007D01*
X169818099Y-72590993D01*
X169725007Y-72497901D01*
X169610993Y-72432075D01*
X169547409Y-72415037D01*
X170179716Y-71782728D01*
X170125550Y-71743375D01*
X169936217Y-71646904D01*
X169734129Y-71581242D01*
X169524246Y-71548000D01*
X169311754Y-71548000D01*
X169101872Y-71581242D01*
X169101869Y-71581242D01*
X168899782Y-71646904D01*
X168710439Y-71743380D01*
X168656282Y-71782727D01*
X168656282Y-71782728D01*
X169288591Y-72415037D01*
X169225007Y-72432075D01*
X169110993Y-72497901D01*
X169017901Y-72590993D01*
X168952075Y-72705007D01*
X168935037Y-72768591D01*
X168264818Y-72098372D01*
X168231333Y-72037049D01*
X168231330Y-72037036D01*
X168228499Y-72024015D01*
X168228499Y-72000128D01*
X168222091Y-71940517D01*
X168192455Y-71861058D01*
X168171798Y-71805673D01*
X168171793Y-71805664D01*
X168085547Y-71690455D01*
X168085544Y-71690452D01*
X167970335Y-71604206D01*
X167970328Y-71604202D01*
X167835482Y-71553908D01*
X167835483Y-71553908D01*
X167775883Y-71547501D01*
X167775881Y-71547500D01*
X167775873Y-71547500D01*
X167775864Y-71547500D01*
X165980129Y-71547500D01*
X165980123Y-71547501D01*
X165920516Y-71553908D01*
X165785671Y-71604202D01*
X165785664Y-71604206D01*
X165670455Y-71690452D01*
X165670452Y-71690455D01*
X165584206Y-71805664D01*
X165584202Y-71805671D01*
X165533908Y-71940517D01*
X165527501Y-72000116D01*
X165527500Y-72000135D01*
X155653371Y-72000135D01*
X155562717Y-71909481D01*
X155562716Y-71909480D01*
X155467520Y-71854519D01*
X155425785Y-71830423D01*
X155273057Y-71789499D01*
X155114943Y-71789499D01*
X155107347Y-71789499D01*
X155107331Y-71789500D01*
X150096340Y-71789500D01*
X150029301Y-71769815D01*
X149983546Y-71717011D01*
X149973602Y-71647853D01*
X150002627Y-71584297D01*
X150008659Y-71577819D01*
X150746374Y-70840104D01*
X153012506Y-68573970D01*
X153012511Y-68573967D01*
X153022714Y-68563763D01*
X153022716Y-68563763D01*
X153134520Y-68451959D01*
X153139037Y-68444135D01*
X165527500Y-68444135D01*
X165527500Y-70239870D01*
X165527501Y-70239876D01*
X165533908Y-70299483D01*
X165584202Y-70434328D01*
X165584206Y-70434335D01*
X165670452Y-70549544D01*
X165670455Y-70549547D01*
X165785664Y-70635793D01*
X165785671Y-70635797D01*
X165920517Y-70686091D01*
X165920516Y-70686091D01*
X165927444Y-70686835D01*
X165980127Y-70692500D01*
X167775872Y-70692499D01*
X167835483Y-70686091D01*
X167970331Y-70635796D01*
X168085546Y-70549546D01*
X168171796Y-70434331D01*
X168222091Y-70299483D01*
X168228500Y-70239873D01*
X168228499Y-70215979D01*
X168231330Y-70202963D01*
X168241940Y-70183525D01*
X168248179Y-70162275D01*
X168264803Y-70141643D01*
X168264808Y-70141636D01*
X168264811Y-70141634D01*
X168264818Y-70141626D01*
X168935037Y-69471408D01*
X168952075Y-69534993D01*
X169017901Y-69649007D01*
X169110993Y-69742099D01*
X169225007Y-69807925D01*
X169288590Y-69824962D01*
X168656282Y-70457269D01*
X168656282Y-70457270D01*
X168710449Y-70496624D01*
X168899782Y-70593095D01*
X169101870Y-70658757D01*
X169311754Y-70692000D01*
X169524246Y-70692000D01*
X169734127Y-70658757D01*
X169734130Y-70658757D01*
X169936217Y-70593095D01*
X170125554Y-70496622D01*
X170179716Y-70457270D01*
X170179717Y-70457270D01*
X169547408Y-69824962D01*
X169610993Y-69807925D01*
X169725007Y-69742099D01*
X169818099Y-69649007D01*
X169883925Y-69534993D01*
X169900962Y-69471408D01*
X170533270Y-70103717D01*
X170533270Y-70103716D01*
X170572622Y-70049555D01*
X170577232Y-70040507D01*
X170625205Y-69989709D01*
X170693025Y-69972912D01*
X170759161Y-69995447D01*
X170798204Y-70040504D01*
X170802949Y-70049817D01*
X170927890Y-70221786D01*
X171078213Y-70372109D01*
X171250179Y-70497048D01*
X171250181Y-70497049D01*
X171250184Y-70497051D01*
X171439588Y-70593557D01*
X171641757Y-70659246D01*
X171851713Y-70692500D01*
X171851714Y-70692500D01*
X172064286Y-70692500D01*
X172064287Y-70692500D01*
X172274243Y-70659246D01*
X172476412Y-70593557D01*
X172665816Y-70497051D01*
X172708658Y-70465925D01*
X172837786Y-70372109D01*
X172837788Y-70372106D01*
X172837792Y-70372104D01*
X172988104Y-70221792D01*
X172988106Y-70221788D01*
X172988109Y-70221786D01*
X173073890Y-70103717D01*
X173113051Y-70049816D01*
X173117793Y-70040508D01*
X173165763Y-69989711D01*
X173233583Y-69972911D01*
X173299719Y-69995445D01*
X173338763Y-70040500D01*
X173343373Y-70049547D01*
X173382728Y-70103716D01*
X174015037Y-69471408D01*
X174032075Y-69534993D01*
X174097901Y-69649007D01*
X174190993Y-69742099D01*
X174305007Y-69807925D01*
X174368590Y-69824962D01*
X173736282Y-70457269D01*
X173736282Y-70457270D01*
X173790449Y-70496624D01*
X173979782Y-70593095D01*
X174181870Y-70658757D01*
X174391754Y-70692000D01*
X174604246Y-70692000D01*
X174814127Y-70658757D01*
X174814130Y-70658757D01*
X175016217Y-70593095D01*
X175205554Y-70496622D01*
X175259716Y-70457270D01*
X175259717Y-70457270D01*
X174627408Y-69824962D01*
X174690993Y-69807925D01*
X174805007Y-69742099D01*
X174898099Y-69649007D01*
X174963925Y-69534993D01*
X174980962Y-69471408D01*
X175613270Y-70103717D01*
X175613270Y-70103716D01*
X175652622Y-70049555D01*
X175657232Y-70040507D01*
X175705205Y-69989709D01*
X175773025Y-69972912D01*
X175839161Y-69995447D01*
X175878204Y-70040504D01*
X175882949Y-70049817D01*
X176007890Y-70221786D01*
X176158213Y-70372109D01*
X176330179Y-70497048D01*
X176330181Y-70497049D01*
X176330184Y-70497051D01*
X176519588Y-70593557D01*
X176721757Y-70659246D01*
X176931713Y-70692500D01*
X176931714Y-70692500D01*
X177144286Y-70692500D01*
X177144287Y-70692500D01*
X177354243Y-70659246D01*
X177556412Y-70593557D01*
X177745816Y-70497051D01*
X177788658Y-70465925D01*
X177917786Y-70372109D01*
X177917788Y-70372106D01*
X177917792Y-70372104D01*
X178068104Y-70221792D01*
X178068106Y-70221788D01*
X178068109Y-70221786D01*
X178193048Y-70049820D01*
X178193047Y-70049820D01*
X178193051Y-70049816D01*
X178197514Y-70041054D01*
X178245488Y-69990259D01*
X178313308Y-69973463D01*
X178379444Y-69995999D01*
X178418486Y-70041056D01*
X178422951Y-70049820D01*
X178547890Y-70221786D01*
X178698213Y-70372109D01*
X178870179Y-70497048D01*
X178870181Y-70497049D01*
X178870184Y-70497051D01*
X179059588Y-70593557D01*
X179261757Y-70659246D01*
X179471713Y-70692500D01*
X179471714Y-70692500D01*
X179684286Y-70692500D01*
X179684287Y-70692500D01*
X179894243Y-70659246D01*
X180096412Y-70593557D01*
X180285816Y-70497051D01*
X180328658Y-70465925D01*
X180457786Y-70372109D01*
X180457788Y-70372106D01*
X180457792Y-70372104D01*
X180608104Y-70221792D01*
X180608106Y-70221788D01*
X180608109Y-70221786D01*
X180733048Y-70049820D01*
X180733047Y-70049820D01*
X180733051Y-70049816D01*
X180737514Y-70041054D01*
X180785488Y-69990259D01*
X180853308Y-69973463D01*
X180919444Y-69995999D01*
X180958486Y-70041056D01*
X180962951Y-70049820D01*
X181087890Y-70221786D01*
X181238213Y-70372109D01*
X181410179Y-70497048D01*
X181410181Y-70497049D01*
X181410184Y-70497051D01*
X181599588Y-70593557D01*
X181801757Y-70659246D01*
X182011713Y-70692500D01*
X182011714Y-70692500D01*
X182224286Y-70692500D01*
X182224287Y-70692500D01*
X182434243Y-70659246D01*
X182636412Y-70593557D01*
X182825816Y-70497051D01*
X182868658Y-70465925D01*
X182997786Y-70372109D01*
X182997788Y-70372106D01*
X182997792Y-70372104D01*
X183148104Y-70221792D01*
X183148106Y-70221788D01*
X183148109Y-70221786D01*
X183273048Y-70049820D01*
X183273047Y-70049820D01*
X183273051Y-70049816D01*
X183369557Y-69860412D01*
X183435246Y-69658243D01*
X183468500Y-69448287D01*
X183468500Y-69235713D01*
X183435246Y-69025757D01*
X183369557Y-68823588D01*
X183273051Y-68634184D01*
X183273049Y-68634181D01*
X183273048Y-68634179D01*
X183148109Y-68462213D01*
X183038031Y-68352135D01*
X188239500Y-68352135D01*
X188239500Y-70147870D01*
X188239501Y-70147876D01*
X188245908Y-70207483D01*
X188296202Y-70342328D01*
X188296206Y-70342335D01*
X188382452Y-70457544D01*
X188382455Y-70457547D01*
X188497664Y-70543793D01*
X188497671Y-70543797D01*
X188632517Y-70594091D01*
X188632516Y-70594091D01*
X188639444Y-70594835D01*
X188692127Y-70600500D01*
X190487872Y-70600499D01*
X190547483Y-70594091D01*
X190682331Y-70543796D01*
X190797546Y-70457546D01*
X190883796Y-70342331D01*
X190932810Y-70210916D01*
X190974681Y-70154984D01*
X191040145Y-70130566D01*
X191108418Y-70145417D01*
X191136673Y-70166569D01*
X191250213Y-70280109D01*
X191422179Y-70405048D01*
X191422181Y-70405049D01*
X191422184Y-70405051D01*
X191611588Y-70501557D01*
X191813757Y-70567246D01*
X192023713Y-70600500D01*
X192023714Y-70600500D01*
X192236286Y-70600500D01*
X192236287Y-70600500D01*
X192446243Y-70567246D01*
X192648412Y-70501557D01*
X192837816Y-70405051D01*
X192924138Y-70342335D01*
X193009786Y-70280109D01*
X193009788Y-70280106D01*
X193009792Y-70280104D01*
X193160104Y-70129792D01*
X193160106Y-70129788D01*
X193160109Y-70129786D01*
X193285048Y-69957820D01*
X193285047Y-69957820D01*
X193285051Y-69957816D01*
X193289514Y-69949054D01*
X193337488Y-69898259D01*
X193405308Y-69881463D01*
X193471444Y-69903999D01*
X193510486Y-69949056D01*
X193514951Y-69957820D01*
X193639890Y-70129786D01*
X193790213Y-70280109D01*
X193962179Y-70405048D01*
X193962181Y-70405049D01*
X193962184Y-70405051D01*
X194151588Y-70501557D01*
X194353757Y-70567246D01*
X194563713Y-70600500D01*
X194563714Y-70600500D01*
X194776286Y-70600500D01*
X194776287Y-70600500D01*
X194986243Y-70567246D01*
X195188412Y-70501557D01*
X195377816Y-70405051D01*
X195464138Y-70342335D01*
X195549786Y-70280109D01*
X195549788Y-70280106D01*
X195549792Y-70280104D01*
X195700104Y-70129792D01*
X195700106Y-70129788D01*
X195700109Y-70129786D01*
X195825048Y-69957820D01*
X195825047Y-69957820D01*
X195825051Y-69957816D01*
X195829514Y-69949054D01*
X195877488Y-69898259D01*
X195945308Y-69881463D01*
X196011444Y-69903999D01*
X196050486Y-69949056D01*
X196054951Y-69957820D01*
X196179890Y-70129786D01*
X196330213Y-70280109D01*
X196502179Y-70405048D01*
X196502181Y-70405049D01*
X196502184Y-70405051D01*
X196691588Y-70501557D01*
X196893757Y-70567246D01*
X197103713Y-70600500D01*
X197103714Y-70600500D01*
X197316286Y-70600500D01*
X197316287Y-70600500D01*
X197526243Y-70567246D01*
X197728412Y-70501557D01*
X197917816Y-70405051D01*
X198004138Y-70342335D01*
X198089786Y-70280109D01*
X198089788Y-70280106D01*
X198089792Y-70280104D01*
X198240104Y-70129792D01*
X198240106Y-70129788D01*
X198240109Y-70129786D01*
X198365048Y-69957820D01*
X198365047Y-69957820D01*
X198365051Y-69957816D01*
X198369514Y-69949054D01*
X198417488Y-69898259D01*
X198485308Y-69881463D01*
X198551444Y-69903999D01*
X198590486Y-69949056D01*
X198594951Y-69957820D01*
X198719890Y-70129786D01*
X198870213Y-70280109D01*
X199042179Y-70405048D01*
X199042181Y-70405049D01*
X199042184Y-70405051D01*
X199231588Y-70501557D01*
X199433757Y-70567246D01*
X199643713Y-70600500D01*
X199643714Y-70600500D01*
X199856286Y-70600500D01*
X199856287Y-70600500D01*
X200066243Y-70567246D01*
X200268412Y-70501557D01*
X200457816Y-70405051D01*
X200544138Y-70342335D01*
X200629786Y-70280109D01*
X200629788Y-70280106D01*
X200629792Y-70280104D01*
X200780104Y-70129792D01*
X200780106Y-70129788D01*
X200780109Y-70129786D01*
X200905048Y-69957820D01*
X200905047Y-69957820D01*
X200905051Y-69957816D01*
X201001557Y-69768412D01*
X201067246Y-69566243D01*
X201100500Y-69356287D01*
X201100500Y-69143713D01*
X201067246Y-68933757D01*
X201001557Y-68731588D01*
X200905051Y-68542184D01*
X200905049Y-68542181D01*
X200905048Y-68542179D01*
X200780109Y-68370213D01*
X200629786Y-68219890D01*
X200457820Y-68094951D01*
X200268414Y-67998444D01*
X200268413Y-67998443D01*
X200268412Y-67998443D01*
X200066243Y-67932754D01*
X200066241Y-67932753D01*
X200066240Y-67932753D01*
X199904957Y-67907208D01*
X199856287Y-67899500D01*
X199643713Y-67899500D01*
X199595042Y-67907208D01*
X199433760Y-67932753D01*
X199332672Y-67965598D01*
X199233232Y-67997909D01*
X199231585Y-67998444D01*
X199042179Y-68094951D01*
X198870213Y-68219890D01*
X198719890Y-68370213D01*
X198594949Y-68542182D01*
X198590484Y-68550946D01*
X198542509Y-68601742D01*
X198474688Y-68618536D01*
X198408553Y-68595998D01*
X198369516Y-68550946D01*
X198365050Y-68542182D01*
X198240109Y-68370213D01*
X198089786Y-68219890D01*
X197917820Y-68094951D01*
X197728414Y-67998444D01*
X197728413Y-67998443D01*
X197728412Y-67998443D01*
X197526243Y-67932754D01*
X197526241Y-67932753D01*
X197526240Y-67932753D01*
X197364957Y-67907208D01*
X197316287Y-67899500D01*
X197103713Y-67899500D01*
X197055042Y-67907208D01*
X196893760Y-67932753D01*
X196792672Y-67965598D01*
X196693232Y-67997909D01*
X196691585Y-67998444D01*
X196502179Y-68094951D01*
X196330213Y-68219890D01*
X196179890Y-68370213D01*
X196054949Y-68542182D01*
X196050484Y-68550946D01*
X196002509Y-68601742D01*
X195934688Y-68618536D01*
X195868553Y-68595998D01*
X195829516Y-68550946D01*
X195825050Y-68542182D01*
X195700109Y-68370213D01*
X195549786Y-68219890D01*
X195377820Y-68094951D01*
X195188414Y-67998444D01*
X195188413Y-67998443D01*
X195188412Y-67998443D01*
X194986243Y-67932754D01*
X194986241Y-67932753D01*
X194986240Y-67932753D01*
X194824957Y-67907208D01*
X194776287Y-67899500D01*
X194563713Y-67899500D01*
X194515042Y-67907208D01*
X194353760Y-67932753D01*
X194252672Y-67965598D01*
X194153232Y-67997909D01*
X194151585Y-67998444D01*
X193962179Y-68094951D01*
X193790213Y-68219890D01*
X193639890Y-68370213D01*
X193514949Y-68542182D01*
X193510484Y-68550946D01*
X193462509Y-68601742D01*
X193394688Y-68618536D01*
X193328553Y-68595998D01*
X193289516Y-68550946D01*
X193285050Y-68542182D01*
X193160109Y-68370213D01*
X193009786Y-68219890D01*
X192837820Y-68094951D01*
X192648414Y-67998444D01*
X192648413Y-67998443D01*
X192648412Y-67998443D01*
X192446243Y-67932754D01*
X192446241Y-67932753D01*
X192446240Y-67932753D01*
X192284957Y-67907208D01*
X192236287Y-67899500D01*
X192023713Y-67899500D01*
X191975042Y-67907208D01*
X191813760Y-67932753D01*
X191712672Y-67965598D01*
X191613232Y-67997909D01*
X191611585Y-67998444D01*
X191422179Y-68094951D01*
X191250215Y-68219889D01*
X191136673Y-68333431D01*
X191075350Y-68366915D01*
X191005658Y-68361931D01*
X190949725Y-68320059D01*
X190932810Y-68289082D01*
X190883797Y-68157671D01*
X190883793Y-68157664D01*
X190797547Y-68042455D01*
X190797544Y-68042452D01*
X190682335Y-67956206D01*
X190682328Y-67956202D01*
X190547482Y-67905908D01*
X190547483Y-67905908D01*
X190487883Y-67899501D01*
X190487881Y-67899500D01*
X190487873Y-67899500D01*
X190487864Y-67899500D01*
X188692129Y-67899500D01*
X188692123Y-67899501D01*
X188632516Y-67905908D01*
X188497671Y-67956202D01*
X188497664Y-67956206D01*
X188382455Y-68042452D01*
X188382452Y-68042455D01*
X188296206Y-68157664D01*
X188296202Y-68157671D01*
X188245908Y-68292517D01*
X188239501Y-68352116D01*
X188239500Y-68352135D01*
X183038031Y-68352135D01*
X182997786Y-68311890D01*
X182825820Y-68186951D01*
X182636414Y-68090444D01*
X182636413Y-68090443D01*
X182636412Y-68090443D01*
X182434243Y-68024754D01*
X182434241Y-68024753D01*
X182434240Y-68024753D01*
X182268123Y-67998443D01*
X182224287Y-67991500D01*
X182011713Y-67991500D01*
X181967877Y-67998443D01*
X181801760Y-68024753D01*
X181700672Y-68057598D01*
X181606461Y-68088210D01*
X181599585Y-68090444D01*
X181410179Y-68186951D01*
X181238213Y-68311890D01*
X181087890Y-68462213D01*
X180962949Y-68634182D01*
X180958484Y-68642946D01*
X180910509Y-68693742D01*
X180842688Y-68710536D01*
X180776553Y-68687998D01*
X180737516Y-68642946D01*
X180733050Y-68634182D01*
X180608109Y-68462213D01*
X180457786Y-68311890D01*
X180285820Y-68186951D01*
X180096414Y-68090444D01*
X180096413Y-68090443D01*
X180096412Y-68090443D01*
X179894243Y-68024754D01*
X179894241Y-68024753D01*
X179894240Y-68024753D01*
X179728123Y-67998443D01*
X179684287Y-67991500D01*
X179471713Y-67991500D01*
X179427877Y-67998443D01*
X179261760Y-68024753D01*
X179160672Y-68057598D01*
X179066461Y-68088210D01*
X179059585Y-68090444D01*
X178870179Y-68186951D01*
X178698213Y-68311890D01*
X178547890Y-68462213D01*
X178422949Y-68634182D01*
X178418484Y-68642946D01*
X178370509Y-68693742D01*
X178302688Y-68710536D01*
X178236553Y-68687998D01*
X178197516Y-68642946D01*
X178193050Y-68634182D01*
X178068109Y-68462213D01*
X177917786Y-68311890D01*
X177745820Y-68186951D01*
X177556414Y-68090444D01*
X177556413Y-68090443D01*
X177556412Y-68090443D01*
X177354243Y-68024754D01*
X177354241Y-68024753D01*
X177354240Y-68024753D01*
X177188123Y-67998443D01*
X177144287Y-67991500D01*
X176931713Y-67991500D01*
X176887877Y-67998443D01*
X176721760Y-68024753D01*
X176620672Y-68057598D01*
X176526461Y-68088210D01*
X176519585Y-68090444D01*
X176330179Y-68186951D01*
X176158213Y-68311890D01*
X176007890Y-68462213D01*
X175882949Y-68634182D01*
X175878202Y-68643499D01*
X175830227Y-68694293D01*
X175762405Y-68711087D01*
X175696271Y-68688548D01*
X175657234Y-68643495D01*
X175652626Y-68634452D01*
X175613270Y-68580282D01*
X175613269Y-68580282D01*
X174980962Y-69212590D01*
X174963925Y-69149007D01*
X174898099Y-69034993D01*
X174805007Y-68941901D01*
X174690993Y-68876075D01*
X174627409Y-68859037D01*
X175259716Y-68226728D01*
X175205550Y-68187375D01*
X175016217Y-68090904D01*
X174814129Y-68025242D01*
X174604246Y-67992000D01*
X174391754Y-67992000D01*
X174181872Y-68025242D01*
X174181869Y-68025242D01*
X173979782Y-68090904D01*
X173790439Y-68187380D01*
X173736282Y-68226727D01*
X173736282Y-68226728D01*
X174368591Y-68859037D01*
X174305007Y-68876075D01*
X174190993Y-68941901D01*
X174097901Y-69034993D01*
X174032075Y-69149007D01*
X174015037Y-69212591D01*
X173382728Y-68580282D01*
X173382727Y-68580282D01*
X173343380Y-68634440D01*
X173343376Y-68634446D01*
X173338760Y-68643505D01*
X173290781Y-68694297D01*
X173222959Y-68711087D01*
X173156826Y-68688543D01*
X173117794Y-68643493D01*
X173113051Y-68634184D01*
X173113049Y-68634181D01*
X173113048Y-68634179D01*
X172988109Y-68462213D01*
X172837786Y-68311890D01*
X172665820Y-68186951D01*
X172476414Y-68090444D01*
X172476413Y-68090443D01*
X172476412Y-68090443D01*
X172274243Y-68024754D01*
X172274241Y-68024753D01*
X172274240Y-68024753D01*
X172108123Y-67998443D01*
X172064287Y-67991500D01*
X171851713Y-67991500D01*
X171807877Y-67998443D01*
X171641760Y-68024753D01*
X171540672Y-68057598D01*
X171446461Y-68088210D01*
X171439585Y-68090444D01*
X171250179Y-68186951D01*
X171078213Y-68311890D01*
X170927890Y-68462213D01*
X170802949Y-68634182D01*
X170798202Y-68643499D01*
X170750227Y-68694293D01*
X170682405Y-68711087D01*
X170616271Y-68688548D01*
X170577234Y-68643495D01*
X170572626Y-68634452D01*
X170533270Y-68580282D01*
X170533269Y-68580282D01*
X169900962Y-69212590D01*
X169883925Y-69149007D01*
X169818099Y-69034993D01*
X169725007Y-68941901D01*
X169610993Y-68876075D01*
X169547409Y-68859037D01*
X170179716Y-68226728D01*
X170125550Y-68187375D01*
X169936217Y-68090904D01*
X169734129Y-68025242D01*
X169524246Y-67992000D01*
X169311754Y-67992000D01*
X169101872Y-68025242D01*
X169101869Y-68025242D01*
X168899782Y-68090904D01*
X168710439Y-68187380D01*
X168656282Y-68226727D01*
X168656282Y-68226728D01*
X169288591Y-68859037D01*
X169225007Y-68876075D01*
X169110993Y-68941901D01*
X169017901Y-69034993D01*
X168952075Y-69149007D01*
X168935037Y-69212591D01*
X168264818Y-68542372D01*
X168231333Y-68481049D01*
X168231330Y-68481036D01*
X168228499Y-68468015D01*
X168228499Y-68444128D01*
X168222091Y-68384517D01*
X168190607Y-68300104D01*
X168171798Y-68249673D01*
X168171793Y-68249664D01*
X168085547Y-68134455D01*
X168085544Y-68134452D01*
X167970335Y-68048206D01*
X167970328Y-68048202D01*
X167835482Y-67997908D01*
X167835483Y-67997908D01*
X167775883Y-67991501D01*
X167775881Y-67991500D01*
X167775873Y-67991500D01*
X167775864Y-67991500D01*
X165980129Y-67991500D01*
X165980123Y-67991501D01*
X165920516Y-67997908D01*
X165785671Y-68048202D01*
X165785664Y-68048206D01*
X165670455Y-68134452D01*
X165670452Y-68134455D01*
X165584206Y-68249664D01*
X165584202Y-68249671D01*
X165533908Y-68384517D01*
X165527501Y-68444116D01*
X165527500Y-68444135D01*
X153139037Y-68444135D01*
X153203229Y-68332951D01*
X153213577Y-68315028D01*
X153254500Y-68162301D01*
X153254500Y-68004186D01*
X153254500Y-67127765D01*
X153274185Y-67060726D01*
X153275398Y-67058874D01*
X153363390Y-66927185D01*
X153363390Y-66927184D01*
X153363394Y-66927179D01*
X153423737Y-66781497D01*
X153454500Y-66626842D01*
X153454500Y-66469158D01*
X153454500Y-66469155D01*
X153454499Y-66469153D01*
X153434568Y-66368953D01*
X153423737Y-66314503D01*
X153392832Y-66239890D01*
X153363397Y-66168827D01*
X153363390Y-66168814D01*
X153275789Y-66037711D01*
X153275786Y-66037707D01*
X153164292Y-65926213D01*
X153164288Y-65926210D01*
X153033185Y-65838609D01*
X153033172Y-65838602D01*
X152887501Y-65778264D01*
X152887489Y-65778261D01*
X152732845Y-65747500D01*
X152732842Y-65747500D01*
X152575158Y-65747500D01*
X152575155Y-65747500D01*
X152420510Y-65778261D01*
X152420498Y-65778264D01*
X152274827Y-65838602D01*
X152274814Y-65838609D01*
X152143711Y-65926210D01*
X152143707Y-65926213D01*
X152032213Y-66037707D01*
X152032210Y-66037711D01*
X151944609Y-66168814D01*
X151944602Y-66168827D01*
X151884264Y-66314498D01*
X151884261Y-66314510D01*
X151852311Y-66475132D01*
X151850011Y-66474674D01*
X151827728Y-66529821D01*
X151770683Y-66570165D01*
X151700882Y-66573265D01*
X151683054Y-66567417D01*
X151651202Y-66554224D01*
X151617497Y-66540263D01*
X151617493Y-66540262D01*
X151617489Y-66540261D01*
X151462845Y-66509500D01*
X151462842Y-66509500D01*
X151305158Y-66509500D01*
X151305155Y-66509500D01*
X151150510Y-66540261D01*
X151150498Y-66540264D01*
X151004827Y-66600602D01*
X151004814Y-66600609D01*
X150873711Y-66688210D01*
X150873707Y-66688213D01*
X150762213Y-66799707D01*
X150762210Y-66799711D01*
X150674609Y-66930814D01*
X150674602Y-66930827D01*
X150614264Y-67076498D01*
X150614261Y-67076508D01*
X150594770Y-67174496D01*
X150562385Y-67236407D01*
X150501669Y-67270981D01*
X150452931Y-67271850D01*
X150452907Y-67272097D01*
X150450788Y-67271888D01*
X150448962Y-67271921D01*
X150446845Y-67271500D01*
X150446842Y-67271500D01*
X150289158Y-67271500D01*
X150289155Y-67271500D01*
X150134510Y-67302261D01*
X150134498Y-67302264D01*
X149988827Y-67362602D01*
X149988814Y-67362609D01*
X149857711Y-67450210D01*
X149857707Y-67450213D01*
X149746213Y-67561707D01*
X149746210Y-67561711D01*
X149658609Y-67692814D01*
X149658602Y-67692827D01*
X149597293Y-67840844D01*
X149553452Y-67895248D01*
X149487158Y-67917313D01*
X149458541Y-67915009D01*
X149430846Y-67909500D01*
X149430842Y-67909500D01*
X149273158Y-67909500D01*
X149273155Y-67909500D01*
X149118510Y-67940261D01*
X149118498Y-67940264D01*
X148972827Y-68000602D01*
X148972814Y-68000609D01*
X148841711Y-68088210D01*
X148841707Y-68088213D01*
X148730213Y-68199707D01*
X148730210Y-68199711D01*
X148642609Y-68330814D01*
X148642602Y-68330827D01*
X148582264Y-68476498D01*
X148582261Y-68476510D01*
X148551500Y-68631153D01*
X148551500Y-68788846D01*
X148582261Y-68943489D01*
X148582264Y-68943501D01*
X148642602Y-69089172D01*
X148642609Y-69089185D01*
X148730602Y-69220874D01*
X148736252Y-69238920D01*
X148746477Y-69254830D01*
X148750928Y-69285789D01*
X148751480Y-69287551D01*
X148751500Y-69289765D01*
X148751500Y-69356604D01*
X148731815Y-69423643D01*
X148679011Y-69469398D01*
X148609853Y-69479342D01*
X148558609Y-69459706D01*
X148461185Y-69394609D01*
X148461172Y-69394602D01*
X148315501Y-69334264D01*
X148315489Y-69334261D01*
X148160845Y-69303500D01*
X148160842Y-69303500D01*
X148003158Y-69303500D01*
X148003155Y-69303500D01*
X147848510Y-69334261D01*
X147848498Y-69334264D01*
X147702827Y-69394602D01*
X147702814Y-69394609D01*
X147571711Y-69482210D01*
X147571707Y-69482213D01*
X147460213Y-69593707D01*
X147460208Y-69593713D01*
X147459087Y-69595392D01*
X147458272Y-69596072D01*
X147456347Y-69598419D01*
X147455901Y-69598053D01*
X147405474Y-69640197D01*
X147355986Y-69650500D01*
X139524097Y-69650500D01*
X139457058Y-69630815D01*
X139411303Y-69578011D01*
X139401359Y-69508853D01*
X139430384Y-69445297D01*
X139436416Y-69438819D01*
X147786416Y-61088819D01*
X147813343Y-61074115D01*
X147839162Y-61057523D01*
X147845362Y-61056631D01*
X147847739Y-61055334D01*
X147874097Y-61052500D01*
X148010234Y-61052500D01*
X148077273Y-61072185D01*
X148079125Y-61073398D01*
X148210814Y-61161390D01*
X148210827Y-61161397D01*
X148356498Y-61221735D01*
X148356503Y-61221737D01*
X148511153Y-61252499D01*
X148511156Y-61252500D01*
X148511158Y-61252500D01*
X148668844Y-61252500D01*
X148668845Y-61252499D01*
X148823497Y-61221737D01*
X148969179Y-61161394D01*
X149100289Y-61073789D01*
X149211789Y-60962289D01*
X149299394Y-60831179D01*
X149310217Y-60805051D01*
X149318587Y-60784842D01*
X149359737Y-60685497D01*
X149390500Y-60530842D01*
X149390500Y-60373158D01*
X149390500Y-60373155D01*
X149390499Y-60373153D01*
X149378276Y-60311701D01*
X149384503Y-60242110D01*
X149427366Y-60186932D01*
X149493256Y-60163688D01*
X149547344Y-60172948D01*
X149626503Y-60205737D01*
X149781153Y-60236499D01*
X149781156Y-60236500D01*
X149781158Y-60236500D01*
X149938844Y-60236500D01*
X149938845Y-60236499D01*
X150093497Y-60205737D01*
X150239179Y-60145394D01*
X150370289Y-60057789D01*
X150481789Y-59946289D01*
X150569394Y-59815179D01*
X150629737Y-59669497D01*
X150656549Y-59534705D01*
X150688934Y-59472794D01*
X150749649Y-59438220D01*
X150819419Y-59441959D01*
X150865847Y-59471215D01*
X157763580Y-66368948D01*
X157763584Y-66368951D01*
X157886498Y-66451080D01*
X157886511Y-66451087D01*
X157993469Y-66495390D01*
X158023087Y-66507658D01*
X158023091Y-66507658D01*
X158023092Y-66507659D01*
X158168079Y-66536500D01*
X158168082Y-66536500D01*
X173787920Y-66536500D01*
X173885462Y-66517096D01*
X173932913Y-66507658D01*
X174069495Y-66451084D01*
X174134291Y-66407789D01*
X174134294Y-66407786D01*
X174134296Y-66407786D01*
X174163547Y-66388240D01*
X174192416Y-66368952D01*
X176065297Y-64496069D01*
X176105524Y-64469191D01*
X176129179Y-64459394D01*
X176260289Y-64371789D01*
X176371789Y-64260289D01*
X176459394Y-64129179D01*
X176519737Y-63983497D01*
X176550500Y-63828842D01*
X176550500Y-63671158D01*
X176550500Y-63671155D01*
X176550499Y-63671153D01*
X176519739Y-63516511D01*
X176519738Y-63516508D01*
X176519737Y-63516503D01*
X176509937Y-63492844D01*
X176500500Y-63445396D01*
X176500500Y-59054604D01*
X176509939Y-59007151D01*
X176519737Y-58983497D01*
X176550500Y-58828842D01*
X176550500Y-58671158D01*
X176550500Y-58671155D01*
X176550499Y-58671153D01*
X176536036Y-58598443D01*
X176519737Y-58516503D01*
X176510809Y-58494949D01*
X176459397Y-58370827D01*
X176459390Y-58370814D01*
X176371789Y-58239711D01*
X176371786Y-58239707D01*
X176260292Y-58128213D01*
X176260288Y-58128210D01*
X176129185Y-58040609D01*
X176129172Y-58040602D01*
X176004738Y-57989061D01*
X175950334Y-57945221D01*
X175928269Y-57878926D01*
X175945548Y-57811227D01*
X175996685Y-57763616D01*
X176052190Y-57750500D01*
X181676082Y-57750500D01*
X184653770Y-57750500D01*
X184720809Y-57770185D01*
X184741451Y-57786819D01*
X187975926Y-61021293D01*
X188002805Y-61061519D01*
X188012603Y-61085172D01*
X188012606Y-61085178D01*
X188012609Y-61085185D01*
X188100210Y-61216288D01*
X188100213Y-61216292D01*
X188211707Y-61327786D01*
X188211711Y-61327789D01*
X188342814Y-61415390D01*
X188342827Y-61415397D01*
X188488498Y-61475735D01*
X188488503Y-61475737D01*
X188643153Y-61506499D01*
X188643156Y-61506500D01*
X188643158Y-61506500D01*
X188800844Y-61506500D01*
X188800845Y-61506499D01*
X188955497Y-61475737D01*
X189101179Y-61415394D01*
X189232289Y-61327789D01*
X189343789Y-61216289D01*
X189431394Y-61085179D01*
X189434953Y-61076588D01*
X189482296Y-60962289D01*
X189491737Y-60939497D01*
X189522500Y-60784842D01*
X189522500Y-60627158D01*
X189522500Y-60627155D01*
X189522499Y-60627153D01*
X189503341Y-60530842D01*
X189491737Y-60472503D01*
X189476404Y-60435486D01*
X189431397Y-60326827D01*
X189431390Y-60326814D01*
X189343789Y-60195711D01*
X189343786Y-60195707D01*
X189232292Y-60084213D01*
X189232288Y-60084210D01*
X189101185Y-59996609D01*
X189101180Y-59996607D01*
X189101179Y-59996606D01*
X189077519Y-59986805D01*
X189037293Y-59959926D01*
X185494421Y-56417052D01*
X185494414Y-56417046D01*
X185420729Y-56367812D01*
X185420729Y-56367813D01*
X185371491Y-56334913D01*
X185234917Y-56278343D01*
X185234907Y-56278340D01*
X185089920Y-56249500D01*
X185089918Y-56249500D01*
X181823918Y-56249500D01*
X174754315Y-56249500D01*
X174687276Y-56229815D01*
X174641521Y-56177011D01*
X174631577Y-56107853D01*
X174646928Y-56063499D01*
X174650497Y-56057316D01*
X174650500Y-56057314D01*
X174716392Y-55943186D01*
X174750500Y-55815892D01*
X174750500Y-55684107D01*
X174750500Y-52381902D01*
X196999500Y-52381902D01*
X196999500Y-52618097D01*
X197036446Y-52851368D01*
X197109433Y-53075996D01*
X197216657Y-53286433D01*
X197355483Y-53477510D01*
X197522490Y-53644517D01*
X197713567Y-53783343D01*
X197812991Y-53834002D01*
X197924003Y-53890566D01*
X197924005Y-53890566D01*
X197924008Y-53890568D01*
X198044412Y-53929689D01*
X198148631Y-53963553D01*
X198381903Y-54000500D01*
X198381908Y-54000500D01*
X198618097Y-54000500D01*
X198851368Y-53963553D01*
X199075992Y-53890568D01*
X199286433Y-53783343D01*
X199477510Y-53644517D01*
X199644517Y-53477510D01*
X199783343Y-53286433D01*
X199890568Y-53075992D01*
X199963553Y-52851368D01*
X200000500Y-52618097D01*
X200000500Y-52381902D01*
X203499500Y-52381902D01*
X203499500Y-52618097D01*
X203536446Y-52851368D01*
X203609433Y-53075996D01*
X203716657Y-53286433D01*
X203855483Y-53477510D01*
X204022490Y-53644517D01*
X204213567Y-53783343D01*
X204312991Y-53834002D01*
X204424003Y-53890566D01*
X204424005Y-53890566D01*
X204424008Y-53890568D01*
X204544412Y-53929689D01*
X204648631Y-53963553D01*
X204881903Y-54000500D01*
X204881908Y-54000500D01*
X205118097Y-54000500D01*
X205351368Y-53963553D01*
X205575992Y-53890568D01*
X205786433Y-53783343D01*
X205977510Y-53644517D01*
X206144517Y-53477510D01*
X206283343Y-53286433D01*
X206390568Y-53075992D01*
X206463553Y-52851368D01*
X206500500Y-52618097D01*
X206500500Y-52381902D01*
X206463553Y-52148631D01*
X206390566Y-51924003D01*
X206283342Y-51713566D01*
X206144517Y-51522490D01*
X205977510Y-51355483D01*
X205786433Y-51216657D01*
X205575996Y-51109433D01*
X205351368Y-51036446D01*
X205118097Y-50999500D01*
X205118092Y-50999500D01*
X204881908Y-50999500D01*
X204881903Y-50999500D01*
X204648631Y-51036446D01*
X204424003Y-51109433D01*
X204213566Y-51216657D01*
X204104550Y-51295862D01*
X204022490Y-51355483D01*
X204022488Y-51355485D01*
X204022487Y-51355485D01*
X203855485Y-51522487D01*
X203855485Y-51522488D01*
X203855483Y-51522490D01*
X203795862Y-51604550D01*
X203716657Y-51713566D01*
X203609433Y-51924003D01*
X203536446Y-52148631D01*
X203499500Y-52381902D01*
X200000500Y-52381902D01*
X199963553Y-52148631D01*
X199890566Y-51924003D01*
X199783342Y-51713566D01*
X199644517Y-51522490D01*
X199477510Y-51355483D01*
X199286433Y-51216657D01*
X199075996Y-51109433D01*
X198851368Y-51036446D01*
X198618097Y-50999500D01*
X198618092Y-50999500D01*
X198381908Y-50999500D01*
X198381903Y-50999500D01*
X198148631Y-51036446D01*
X197924003Y-51109433D01*
X197713566Y-51216657D01*
X197604550Y-51295862D01*
X197522490Y-51355483D01*
X197522488Y-51355485D01*
X197522487Y-51355485D01*
X197355485Y-51522487D01*
X197355485Y-51522488D01*
X197355483Y-51522490D01*
X197295862Y-51604550D01*
X197216657Y-51713566D01*
X197109433Y-51924003D01*
X197036446Y-52148631D01*
X196999500Y-52381902D01*
X174750500Y-52381902D01*
X174750500Y-50624500D01*
X174770185Y-50557461D01*
X174822989Y-50511706D01*
X174874500Y-50500500D01*
X206875500Y-50500500D01*
X206942539Y-50520185D01*
G37*
%TD.AperFunction*%
%TA.AperFunction,Conductor*%
G36*
X161706502Y-57759383D02*
G01*
X161737225Y-57766528D01*
X161739777Y-57769154D01*
X161743288Y-57770185D01*
X161763932Y-57794009D01*
X161785919Y-57816634D01*
X161786646Y-57820222D01*
X161789043Y-57822989D01*
X161793530Y-57854201D01*
X161799794Y-57885112D01*
X161798465Y-57888523D01*
X161798987Y-57892147D01*
X161785883Y-57920839D01*
X161774444Y-57950221D01*
X161770886Y-57953678D01*
X161769962Y-57955703D01*
X161749135Y-57974817D01*
X161729531Y-57989061D01*
X161680207Y-58024896D01*
X161529890Y-58175213D01*
X161404951Y-58347179D01*
X161308444Y-58536585D01*
X161242753Y-58738760D01*
X161209500Y-58948713D01*
X161209500Y-59161286D01*
X161236816Y-59333757D01*
X161242754Y-59371243D01*
X161298793Y-59543713D01*
X161308444Y-59573414D01*
X161404951Y-59762820D01*
X161529890Y-59934786D01*
X161680213Y-60085109D01*
X161852182Y-60210050D01*
X161860946Y-60214516D01*
X161911742Y-60262491D01*
X161928536Y-60330312D01*
X161905998Y-60396447D01*
X161860946Y-60435484D01*
X161852182Y-60439949D01*
X161680213Y-60564890D01*
X161529890Y-60715213D01*
X161404951Y-60887179D01*
X161308444Y-61076585D01*
X161242753Y-61278760D01*
X161209500Y-61488713D01*
X161209500Y-61701286D01*
X161236816Y-61873757D01*
X161242754Y-61911243D01*
X161298793Y-62083713D01*
X161308444Y-62113414D01*
X161404951Y-62302820D01*
X161529890Y-62474786D01*
X161643818Y-62588714D01*
X161677303Y-62650037D01*
X161672319Y-62719729D01*
X161630447Y-62775662D01*
X161599471Y-62792577D01*
X161467912Y-62841646D01*
X161467906Y-62841649D01*
X161352812Y-62927809D01*
X161352809Y-62927812D01*
X161266649Y-63042906D01*
X161266645Y-63042913D01*
X161216403Y-63177620D01*
X161216401Y-63177627D01*
X161210000Y-63237155D01*
X161210000Y-63885000D01*
X162126988Y-63885000D01*
X162094075Y-63942007D01*
X162060000Y-64069174D01*
X162060000Y-64200826D01*
X162094075Y-64327993D01*
X162126988Y-64385000D01*
X161210000Y-64385000D01*
X161210000Y-64911500D01*
X161190315Y-64978539D01*
X161137511Y-65024294D01*
X161086000Y-65035500D01*
X158604229Y-65035500D01*
X158537190Y-65015815D01*
X158516548Y-64999181D01*
X151479549Y-57962181D01*
X151446064Y-57900858D01*
X151451048Y-57831166D01*
X151492920Y-57775233D01*
X151558384Y-57750816D01*
X151567230Y-57750500D01*
X161676249Y-57750500D01*
X161706502Y-57759383D01*
G37*
%TD.AperFunction*%
%TA.AperFunction,Conductor*%
G36*
X169192539Y-57770185D02*
G01*
X169238294Y-57822989D01*
X169249500Y-57874500D01*
X169249500Y-64268740D01*
X169229815Y-64335779D01*
X169228602Y-64337630D01*
X169172790Y-64421158D01*
X169172788Y-64421161D01*
X169112448Y-64566837D01*
X169112445Y-64566849D01*
X169081684Y-64721492D01*
X169081684Y-64879185D01*
X169083300Y-64887309D01*
X169077073Y-64956901D01*
X169034209Y-65012078D01*
X168968319Y-65035322D01*
X168961683Y-65035500D01*
X164034000Y-65035500D01*
X163966961Y-65015815D01*
X163921206Y-64963011D01*
X163910000Y-64911500D01*
X163910000Y-64385000D01*
X162993012Y-64385000D01*
X163025925Y-64327993D01*
X163060000Y-64200826D01*
X163060000Y-64069174D01*
X163025925Y-63942007D01*
X162993012Y-63885000D01*
X163910000Y-63885000D01*
X163910000Y-63237172D01*
X163909999Y-63237155D01*
X163903598Y-63177627D01*
X163903596Y-63177620D01*
X163853354Y-63042913D01*
X163853350Y-63042906D01*
X163767190Y-62927812D01*
X163767187Y-62927809D01*
X163652093Y-62841649D01*
X163652088Y-62841646D01*
X163520528Y-62792577D01*
X163464595Y-62750705D01*
X163440178Y-62685241D01*
X163455030Y-62616968D01*
X163476175Y-62588720D01*
X163590104Y-62474792D01*
X163715051Y-62302816D01*
X163811557Y-62113412D01*
X163877246Y-61911243D01*
X163910500Y-61701287D01*
X163910500Y-61488713D01*
X163877246Y-61278757D01*
X163811557Y-61076588D01*
X163715051Y-60887184D01*
X163715049Y-60887181D01*
X163715048Y-60887179D01*
X163590109Y-60715213D01*
X163439786Y-60564890D01*
X163267820Y-60439951D01*
X163267115Y-60439591D01*
X163259054Y-60435485D01*
X163208259Y-60387512D01*
X163191463Y-60319692D01*
X163213999Y-60253556D01*
X163259054Y-60214515D01*
X163267816Y-60210051D01*
X163331630Y-60163688D01*
X163439786Y-60085109D01*
X163439788Y-60085106D01*
X163439792Y-60085104D01*
X163590104Y-59934792D01*
X163590106Y-59934788D01*
X163590109Y-59934786D01*
X163715048Y-59762820D01*
X163715047Y-59762820D01*
X163715051Y-59762816D01*
X163811557Y-59573412D01*
X163877246Y-59371243D01*
X163910500Y-59161287D01*
X163910500Y-58948713D01*
X163877246Y-58738757D01*
X163811557Y-58536588D01*
X163715051Y-58347184D01*
X163715049Y-58347181D01*
X163715048Y-58347179D01*
X163590109Y-58175213D01*
X163439792Y-58024896D01*
X163390469Y-57989061D01*
X163370865Y-57974818D01*
X163328200Y-57919489D01*
X163322221Y-57849876D01*
X163354826Y-57788080D01*
X163415665Y-57753723D01*
X163443751Y-57750500D01*
X169125500Y-57750500D01*
X169192539Y-57770185D01*
G37*
%TD.AperFunction*%
%TD*%
M02*
