%TF.GenerationSoftware,KiCad,Pcbnew,9.0.4-9.0.4-0~ubuntu22.04.1*%
%TF.CreationDate,2025-10-18T22:49:11+02:00*%
%TF.ProjectId,YR,59522e6b-6963-4616-945f-706362585858,rev?*%
%TF.SameCoordinates,Original*%
%TF.FileFunction,Copper,L1,Top*%
%TF.FilePolarity,Positive*%
%FSLAX46Y46*%
G04 Gerber Fmt 4.6, Leading zero omitted, Abs format (unit mm)*
G04 Created by KiCad (PCBNEW 9.0.4-9.0.4-0~ubuntu22.04.1) date 2025-10-18 22:49:11*
%MOMM*%
%LPD*%
G01*
G04 APERTURE LIST*
G04 Aperture macros list*
%AMRoundRect*
0 Rectangle with rounded corners*
0 $1 Rounding radius*
0 $2 $3 $4 $5 $6 $7 $8 $9 X,Y pos of 4 corners*
0 Add a 4 corners polygon primitive as box body*
4,1,4,$2,$3,$4,$5,$6,$7,$8,$9,$2,$3,0*
0 Add four circle primitives for the rounded corners*
1,1,$1+$1,$2,$3*
1,1,$1+$1,$4,$5*
1,1,$1+$1,$6,$7*
1,1,$1+$1,$8,$9*
0 Add four rect primitives between the rounded corners*
20,1,$1+$1,$2,$3,$4,$5,0*
20,1,$1+$1,$4,$5,$6,$7,0*
20,1,$1+$1,$6,$7,$8,$9,0*
20,1,$1+$1,$8,$9,$2,$3,0*%
G04 Aperture macros list end*
%TA.AperFunction,SMDPad,CuDef*%
%ADD10RoundRect,0.375000X0.375000X-0.625000X0.375000X0.625000X-0.375000X0.625000X-0.375000X-0.625000X0*%
%TD*%
%TA.AperFunction,SMDPad,CuDef*%
%ADD11RoundRect,0.500000X1.400000X-0.500000X1.400000X0.500000X-1.400000X0.500000X-1.400000X-0.500000X0*%
%TD*%
%TA.AperFunction,SMDPad,CuDef*%
%ADD12R,1.500000X0.900000*%
%TD*%
%TA.AperFunction,SMDPad,CuDef*%
%ADD13R,0.900000X1.500000*%
%TD*%
%TA.AperFunction,HeatsinkPad*%
%ADD14C,0.600000*%
%TD*%
%TA.AperFunction,HeatsinkPad*%
%ADD15R,3.900000X3.900000*%
%TD*%
%TA.AperFunction,SMDPad,CuDef*%
%ADD16RoundRect,0.250000X-0.650000X0.412500X-0.650000X-0.412500X0.650000X-0.412500X0.650000X0.412500X0*%
%TD*%
%TA.AperFunction,ComponentPad*%
%ADD17R,1.700000X1.700000*%
%TD*%
%TA.AperFunction,ComponentPad*%
%ADD18C,1.700000*%
%TD*%
%TA.AperFunction,SMDPad,CuDef*%
%ADD19RoundRect,0.250000X-0.275000X-0.750000X0.275000X-0.750000X0.275000X0.750000X-0.275000X0.750000X0*%
%TD*%
%TA.AperFunction,SMDPad,CuDef*%
%ADD20RoundRect,0.250000X0.400000X0.625000X-0.400000X0.625000X-0.400000X-0.625000X0.400000X-0.625000X0*%
%TD*%
%TA.AperFunction,SMDPad,CuDef*%
%ADD21RoundRect,0.250000X-1.050000X-0.550000X1.050000X-0.550000X1.050000X0.550000X-1.050000X0.550000X0*%
%TD*%
%TA.AperFunction,SMDPad,CuDef*%
%ADD22RoundRect,0.250000X1.050000X0.550000X-1.050000X0.550000X-1.050000X-0.550000X1.050000X-0.550000X0*%
%TD*%
%TA.AperFunction,SMDPad,CuDef*%
%ADD23RoundRect,0.250000X-0.412500X-0.650000X0.412500X-0.650000X0.412500X0.650000X-0.412500X0.650000X0*%
%TD*%
%TA.AperFunction,SMDPad,CuDef*%
%ADD24RoundRect,0.250000X-0.400000X-0.625000X0.400000X-0.625000X0.400000X0.625000X-0.400000X0.625000X0*%
%TD*%
%TA.AperFunction,ComponentPad*%
%ADD25RoundRect,0.250000X-0.600000X-0.750000X0.600000X-0.750000X0.600000X0.750000X-0.600000X0.750000X0*%
%TD*%
%TA.AperFunction,ComponentPad*%
%ADD26O,1.700000X2.000000*%
%TD*%
%TA.AperFunction,SMDPad,CuDef*%
%ADD27RoundRect,0.250000X-0.550000X1.050000X-0.550000X-1.050000X0.550000X-1.050000X0.550000X1.050000X0*%
%TD*%
%TA.AperFunction,ViaPad*%
%ADD28C,0.600000*%
%TD*%
%TA.AperFunction,Conductor*%
%ADD29C,0.500000*%
%TD*%
%TA.AperFunction,Conductor*%
%ADD30C,0.250000*%
%TD*%
%TA.AperFunction,Conductor*%
%ADD31C,0.200000*%
%TD*%
G04 APERTURE END LIST*
D10*
%TO.P,U3,1,GND*%
%TO.N,GND*%
X184450000Y-58800000D03*
%TO.P,U3,2,VO*%
%TO.N,3.3V_2*%
X186750000Y-58800000D03*
D11*
X186750000Y-52500000D03*
D10*
%TO.P,U3,3,VI*%
%TO.N,V_in*%
X189050000Y-58800000D03*
%TD*%
D12*
%TO.P,U2,1,GND*%
%TO.N,GND*%
X141250000Y-57880000D03*
%TO.P,U2,2,3V3*%
%TO.N,3.3V*%
X141250000Y-59150000D03*
%TO.P,U2,3,EN*%
%TO.N,CHIP_PU*%
X141250000Y-60420000D03*
%TO.P,U2,4,IO4*%
%TO.N,GPIO4*%
X141250000Y-61690000D03*
%TO.P,U2,5,IO5*%
%TO.N,S1E1*%
X141250000Y-62960000D03*
%TO.P,U2,6,IO6*%
%TO.N,S2E1*%
X141250000Y-64230000D03*
%TO.P,U2,7,IO7*%
%TO.N,K_E1*%
X141250000Y-65500000D03*
%TO.P,U2,8,IO15*%
%TO.N,GPIO15*%
X141250000Y-66770000D03*
%TO.P,U2,9,IO16*%
%TO.N,S1E2*%
X141250000Y-68040000D03*
%TO.P,U2,10,IO17*%
%TO.N,S2E2*%
X141250000Y-69310000D03*
%TO.P,U2,11,IO18*%
%TO.N,K_E2*%
X141250000Y-70580000D03*
%TO.P,U2,12,IO8*%
%TO.N,GPIO8*%
X141250000Y-71850000D03*
%TO.P,U2,13,USB_D-*%
%TO.N,unconnected-(U2-USB_D--Pad13)*%
X141250000Y-73120000D03*
%TO.P,U2,14,USB_D+*%
%TO.N,unconnected-(U2-USB_D+-Pad14)*%
X141250000Y-74390000D03*
D13*
%TO.P,U2,15,IO3*%
%TO.N,GPIO3*%
X143015000Y-75640000D03*
%TO.P,U2,16,IO46*%
%TO.N,GPIO46*%
X144285000Y-75640000D03*
%TO.P,U2,17,IO9*%
%TO.N,{slash}CS*%
X145555000Y-75640000D03*
%TO.P,U2,18,IO10*%
%TO.N,{slash}DC*%
X146825000Y-75640000D03*
%TO.P,U2,19,IO11*%
%TO.N,MOSI*%
X148095000Y-75640000D03*
%TO.P,U2,20,IO12*%
%TO.N,SCLK*%
X149365000Y-75640000D03*
%TO.P,U2,21,IO13*%
%TO.N,unconnected-(U2-IO13-Pad21)*%
X150635000Y-75640000D03*
%TO.P,U2,22,IO14*%
%TO.N,GPIO14*%
X151905000Y-75640000D03*
%TO.P,U2,23,IO21*%
%TO.N,LCK*%
X153175000Y-75640000D03*
%TO.P,U2,24,IO47*%
%TO.N,BCK*%
X154445000Y-75640000D03*
%TO.P,U2,25,IO48*%
%TO.N,DIN*%
X155715000Y-75640000D03*
%TO.P,U2,26,IO45*%
%TO.N,GPIO45*%
X156985000Y-75640000D03*
D12*
%TO.P,U2,27,IO0*%
%TO.N,GPIO0*%
X158750000Y-74390000D03*
%TO.P,U2,28,IO35*%
%TO.N,unconnected-(U2-IO35-Pad28)*%
X158750000Y-73120000D03*
%TO.P,U2,29,IO36*%
%TO.N,unconnected-(U2-IO36-Pad29)*%
X158750000Y-71850000D03*
%TO.P,U2,30,IO37*%
%TO.N,unconnected-(U2-IO37-Pad30)*%
X158750000Y-70580000D03*
%TO.P,U2,31,IO38*%
%TO.N,GPIO38*%
X158750000Y-69310000D03*
%TO.P,U2,32,IO39*%
%TO.N,GPIO39*%
X158750000Y-68040000D03*
%TO.P,U2,33,IO40*%
%TO.N,GPIO40*%
X158750000Y-66770000D03*
%TO.P,U2,34,IO41*%
%TO.N,GPIO41*%
X158750000Y-65500000D03*
%TO.P,U2,35,IO42*%
%TO.N,GPIO42*%
X158750000Y-64230000D03*
%TO.P,U2,36,RXD0*%
%TO.N,RXD0*%
X158750000Y-62960000D03*
%TO.P,U2,37,TXD0*%
%TO.N,TXD0*%
X158750000Y-61690000D03*
%TO.P,U2,38,IO2*%
%TO.N,GPIO2*%
X158750000Y-60420000D03*
%TO.P,U2,39,IO1*%
%TO.N,GPIO1*%
X158750000Y-59150000D03*
%TO.P,U2,40,GND*%
%TO.N,GND*%
X158750000Y-57880000D03*
D14*
%TO.P,U2,41,GND*%
X147100000Y-64900000D03*
X147100000Y-66300000D03*
X147800000Y-64200000D03*
X147800000Y-65600000D03*
X147800000Y-67000000D03*
X148500000Y-64900000D03*
D15*
X148500000Y-65600000D03*
D14*
X148500000Y-66300000D03*
X149200000Y-64200000D03*
X149200000Y-65600000D03*
X149200000Y-67000000D03*
X149900000Y-64900000D03*
X149900000Y-66300000D03*
%TD*%
D16*
%TO.P,C8,1*%
%TO.N,3.3V*%
X122000000Y-69125000D03*
%TO.P,C8,2*%
%TO.N,GND*%
X122000000Y-72250000D03*
%TD*%
D17*
%TO.P,J5,1,Pin_1*%
%TO.N,3.3V_2*%
X189590000Y-69250000D03*
D18*
%TO.P,J5,2,Pin_2*%
X192130000Y-69250000D03*
%TO.P,J5,3,Pin_3*%
X194670000Y-69250000D03*
%TO.P,J5,4,Pin_4*%
X197210000Y-69250000D03*
%TO.P,J5,5,Pin_5*%
X199750000Y-69250000D03*
%TD*%
D10*
%TO.P,U1,1,GND*%
%TO.N,GND*%
X109900000Y-62865000D03*
%TO.P,U1,2,VO*%
%TO.N,3.3V*%
X112200000Y-62865000D03*
D11*
X112200000Y-56565000D03*
D10*
%TO.P,U1,3,VI*%
%TO.N,V_in*%
X114500000Y-62865000D03*
%TD*%
D17*
%TO.P,J4,1,Pin_1*%
%TO.N,GND*%
X189630000Y-73000000D03*
D18*
%TO.P,J4,2,Pin_2*%
X192170000Y-73000000D03*
%TO.P,J4,3,Pin_3*%
X194710000Y-73000000D03*
%TO.P,J4,4,Pin_4*%
X197250000Y-73000000D03*
%TO.P,J4,5,Pin_5*%
X199790000Y-73000000D03*
%TD*%
D17*
%TO.P,J6,1,Pin_1*%
%TO.N,GPIO1*%
X107950000Y-81280000D03*
D18*
%TO.P,J6,2,Pin_2*%
%TO.N,GPIO2*%
X110490000Y-81280000D03*
%TO.P,J6,3,Pin_3*%
%TO.N,GPIO3*%
X113030000Y-81280000D03*
%TO.P,J6,4,Pin_4*%
%TO.N,GPIO4*%
X115570000Y-81280000D03*
%TO.P,J6,5,Pin_5*%
%TO.N,GPIO8*%
X118110000Y-81280000D03*
%TO.P,J6,6,Pin_6*%
%TO.N,GPIO14*%
X120650000Y-81280000D03*
%TO.P,J6,7,Pin_7*%
%TO.N,GPIO15*%
X123190000Y-81280000D03*
%TO.P,J6,8,Pin_8*%
%TO.N,GPIO38*%
X125730000Y-81280000D03*
%TO.P,J6,9,Pin_9*%
%TO.N,GPIO39*%
X128270000Y-81280000D03*
%TO.P,J6,10,Pin_10*%
%TO.N,GPIO40*%
X130810000Y-81280000D03*
%TO.P,J6,11,Pin_11*%
%TO.N,GPIO41*%
X133350000Y-81280000D03*
%TO.P,J6,12,Pin_12*%
%TO.N,GPIO42*%
X135890000Y-81280000D03*
%TO.P,J6,13,Pin_13*%
%TO.N,GPIO45*%
X138430000Y-81280000D03*
%TO.P,J6,14,Pin_14*%
%TO.N,GPIO46*%
X140970000Y-81280000D03*
%TD*%
D17*
%TO.P,J7,1,Pin_1*%
%TO.N,GND*%
X108840000Y-73660000D03*
D18*
%TO.P,J7,2,Pin_2*%
%TO.N,S1E2*%
X111380000Y-73660000D03*
%TO.P,J7,3,Pin_3*%
%TO.N,S2E2*%
X113920000Y-73660000D03*
%TO.P,J7,4,Pin_4*%
%TO.N,K_E2*%
X116460000Y-73660000D03*
%TO.P,J7,5,Pin_5*%
%TO.N,3.3V*%
X119000000Y-73660000D03*
%TD*%
D19*
%TO.P,S2,1,1*%
%TO.N,GND*%
X177300000Y-53250000D03*
%TO.P,S2,2,2*%
%TO.N,GPIO0*%
X181750000Y-53250000D03*
%TD*%
D16*
%TO.P,C10,1*%
%TO.N,V_in*%
X193000000Y-52750000D03*
%TO.P,C10,2*%
%TO.N,GND*%
X193000000Y-55875000D03*
%TD*%
D17*
%TO.P,J10,1,Pin_1*%
%TO.N,GND*%
X108880000Y-70000000D03*
D18*
%TO.P,J10,2,Pin_2*%
%TO.N,S1E1*%
X111420000Y-70000000D03*
%TO.P,J10,3,Pin_3*%
%TO.N,S2E1*%
X113960000Y-70000000D03*
%TO.P,J10,4,Pin_4*%
%TO.N,K_E1*%
X116500000Y-70000000D03*
%TO.P,J10,5,Pin_5*%
%TO.N,3.3V*%
X119040000Y-70000000D03*
%TD*%
D17*
%TO.P,J8,1,Pin_1*%
%TO.N,V_in*%
X166878000Y-72898000D03*
D18*
%TO.P,J8,2,Pin_2*%
%TO.N,GND*%
X169418000Y-72898000D03*
%TO.P,J8,3,Pin_3*%
%TO.N,LCK*%
X171958000Y-72898000D03*
%TO.P,J8,4,Pin_4*%
%TO.N,DIN*%
X174498000Y-72898000D03*
%TO.P,J8,5,Pin_5*%
%TO.N,BCK*%
X177038000Y-72898000D03*
%TO.P,J8,6,Pin_6*%
%TO.N,GND*%
X179578000Y-72898000D03*
%TD*%
D20*
%TO.P,R9,1*%
%TO.N,3.3V_2*%
X181102000Y-63246000D03*
%TO.P,R9,2*%
%TO.N,3.3V*%
X178002000Y-63246000D03*
%TD*%
D21*
%TO.P,C2,1*%
%TO.N,3.3V*%
X119380000Y-62230000D03*
%TO.P,C2,2*%
%TO.N,GND*%
X122980000Y-62230000D03*
%TD*%
D22*
%TO.P,C12,1*%
%TO.N,3.3V_2*%
X187500000Y-63250000D03*
%TO.P,C12,2*%
%TO.N,GND*%
X183900000Y-63250000D03*
%TD*%
D16*
%TO.P,C11,1*%
%TO.N,3.3V_2*%
X186500000Y-69875000D03*
%TO.P,C11,2*%
%TO.N,GND*%
X186500000Y-73000000D03*
%TD*%
D23*
%TO.P,C3,1*%
%TO.N,GND*%
X165625000Y-59000000D03*
%TO.P,C3,2*%
%TO.N,CHIP_PU*%
X168750000Y-59000000D03*
%TD*%
D24*
%TO.P,R1,1*%
%TO.N,CHIP_PU*%
X170900000Y-58928000D03*
%TO.P,R1,2*%
%TO.N,3.3V*%
X174000000Y-58928000D03*
%TD*%
D23*
%TO.P,C1,1*%
%TO.N,V_in*%
X120375000Y-56250000D03*
%TO.P,C1,2*%
%TO.N,GND*%
X123500000Y-56250000D03*
%TD*%
%TO.P,C7,1*%
%TO.N,GND*%
X165625000Y-63750000D03*
%TO.P,C7,2*%
%TO.N,GPIO0*%
X168750000Y-63750000D03*
%TD*%
D24*
%TO.P,R6,1*%
%TO.N,GPIO0*%
X170900000Y-63750000D03*
%TO.P,R6,2*%
%TO.N,3.3V*%
X174000000Y-63750000D03*
%TD*%
D17*
%TO.P,J1,1,Pin_1*%
%TO.N,GND*%
X162560000Y-64135000D03*
D18*
%TO.P,J1,2,Pin_2*%
%TO.N,RXD0*%
X162560000Y-61595000D03*
%TO.P,J1,3,Pin_3*%
%TO.N,TXD0*%
X162560000Y-59055000D03*
%TD*%
D25*
%TO.P,J2,1,Pin_1*%
%TO.N,GND*%
X129580000Y-60000000D03*
D26*
%TO.P,J2,2,Pin_2*%
%TO.N,V_in*%
X132080000Y-60000000D03*
%TD*%
D19*
%TO.P,S1,1,1*%
%TO.N,GND*%
X177275000Y-57500000D03*
%TO.P,S1,2,2*%
%TO.N,CHIP_PU*%
X181725000Y-57500000D03*
%TD*%
D17*
%TO.P,J9,1,Pin_1*%
%TO.N,V_in*%
X166878000Y-69342000D03*
D18*
%TO.P,J9,2,Pin_2*%
%TO.N,GND*%
X169418000Y-69342000D03*
%TO.P,J9,3,Pin_3*%
%TO.N,unconnected-(J9-Pin_3-Pad3)*%
X171958000Y-69342000D03*
%TO.P,J9,4,Pin_4*%
%TO.N,GND*%
X174498000Y-69342000D03*
%TO.P,J9,5,Pin_5*%
%TO.N,BCK*%
X177038000Y-69342000D03*
%TO.P,J9,6,Pin_6*%
%TO.N,DIN*%
X179578000Y-69342000D03*
%TO.P,J9,7,Pin_7*%
%TO.N,LCK*%
X182118000Y-69342000D03*
%TD*%
D27*
%TO.P,C9,1*%
%TO.N,3.3V*%
X125750000Y-68900000D03*
%TO.P,C9,2*%
%TO.N,GND*%
X125750000Y-72500000D03*
%TD*%
D17*
%TO.P,J3,1,Pin_1*%
%TO.N,GND*%
X104290000Y-74890000D03*
D18*
%TO.P,J3,2,Pin_2*%
%TO.N,3.3V*%
X101750000Y-74890000D03*
%TO.P,J3,3,Pin_3*%
%TO.N,unconnected-(J3-Pin_3-Pad3)*%
X104290000Y-72350000D03*
%TO.P,J3,4,Pin_4*%
%TO.N,SCLK*%
X101750000Y-72350000D03*
%TO.P,J3,5,Pin_5*%
%TO.N,MOSI*%
X104290000Y-69810000D03*
%TO.P,J3,6,Pin_6*%
%TO.N,unconnected-(J3-Pin_6-Pad6)*%
X101750000Y-69810000D03*
%TO.P,J3,7,Pin_7*%
%TO.N,unconnected-(J3-Pin_7-Pad7)*%
X104290000Y-67270000D03*
%TO.P,J3,8,Pin_8*%
%TO.N,unconnected-(J3-Pin_8-Pad8)*%
X101750000Y-67270000D03*
%TO.P,J3,9,Pin_9*%
%TO.N,unconnected-(J3-Pin_9-Pad9)*%
X104290000Y-64730000D03*
%TO.P,J3,10,Pin_10*%
%TO.N,unconnected-(J3-Pin_10-Pad10)*%
X101750000Y-64730000D03*
%TO.P,J3,11,Pin_11*%
%TO.N,unconnected-(J3-Pin_11-Pad11)*%
X104290000Y-62190000D03*
%TO.P,J3,12,Pin_12*%
%TO.N,unconnected-(J3-Pin_12-Pad12)*%
X101750000Y-62190000D03*
%TO.P,J3,13,Pin_13*%
%TO.N,unconnected-(J3-Pin_13-Pad13)*%
X104290000Y-59650000D03*
%TO.P,J3,14,Pin_14*%
%TO.N,{slash}DC*%
X101750000Y-59650000D03*
%TO.P,J3,15,Pin_15*%
%TO.N,CHIP_PU*%
X104290000Y-57110000D03*
%TO.P,J3,16,Pin_16*%
%TO.N,{slash}CS*%
X101750000Y-57110000D03*
%TD*%
D28*
%TO.N,GND*%
X143750000Y-61750000D03*
X183000000Y-65250000D03*
X126250000Y-62750000D03*
X185500000Y-65250000D03*
X110000000Y-64750000D03*
X126250000Y-64000000D03*
X137000000Y-61500000D03*
X183900000Y-63250000D03*
X171000000Y-67250000D03*
X148000000Y-61750000D03*
X164500000Y-71250000D03*
X177750000Y-75000000D03*
X108712000Y-75946000D03*
X145250000Y-59250000D03*
X163500000Y-68250000D03*
X188500000Y-65250000D03*
%TO.N,V_in*%
X188722000Y-60706000D03*
X169882184Y-64800339D03*
%TO.N,3.3V*%
X175750000Y-63750000D03*
X111750000Y-64750000D03*
X109220000Y-54864000D03*
X175750000Y-58750000D03*
X111750000Y-67750000D03*
%TO.N,GPIO8*%
X118110000Y-76946000D03*
%TO.N,GPIO15*%
X123357493Y-75342000D03*
%TO.N,GPIO41*%
X151384000Y-67310000D03*
%TO.N,GPIO46*%
X144183558Y-77127558D03*
%TO.N,GPIO4*%
X123444000Y-74422000D03*
%TO.N,GPIO40*%
X150368000Y-68072000D03*
%TO.N,GPIO2*%
X148590000Y-60452000D03*
%TO.N,GPIO39*%
X149352000Y-68710000D03*
%TO.N,GPIO3*%
X113284000Y-77216000D03*
%TO.N,GPIO1*%
X149860000Y-59436000D03*
%TO.N,GPIO38*%
X148082000Y-70104000D03*
%TO.N,GPIO45*%
X156464000Y-73660000D03*
%TO.N,GPIO42*%
X152654000Y-66548000D03*
%TO.N,S1E1*%
X139192000Y-62992000D03*
%TO.N,S2E1*%
X139192000Y-64262000D03*
%TO.N,K_E1*%
X139192000Y-65786000D03*
%TD*%
D29*
%TO.N,GND*%
X109900000Y-64650000D02*
X110000000Y-64750000D01*
D30*
X108840000Y-73660000D02*
X108840000Y-75818000D01*
X108840000Y-75818000D02*
X108712000Y-75946000D01*
D29*
X109900000Y-62865000D02*
X109900000Y-64650000D01*
D31*
%TO.N,CHIP_PU*%
X107857000Y-60677000D02*
X104290000Y-57110000D01*
X172170000Y-60198000D02*
X179027000Y-60198000D01*
X170828000Y-59000000D02*
X170900000Y-58928000D01*
X108575000Y-65575000D02*
X107857000Y-64857000D01*
X166878000Y-56896000D02*
X168750000Y-58768000D01*
X166878000Y-56896000D02*
X149606000Y-56896000D01*
X168750000Y-59000000D02*
X170828000Y-59000000D01*
X149606000Y-56896000D02*
X146082000Y-60420000D01*
X179027000Y-60198000D02*
X181725000Y-57500000D01*
X168750000Y-58768000D02*
X168750000Y-59000000D01*
X107857000Y-64857000D02*
X107857000Y-60677000D01*
X170900000Y-58928000D02*
X172170000Y-60198000D01*
X129175000Y-65575000D02*
X108575000Y-65575000D01*
X134330000Y-60420000D02*
X129175000Y-65575000D01*
X141250000Y-60420000D02*
X134330000Y-60420000D01*
X146082000Y-60420000D02*
X141250000Y-60420000D01*
%TO.N,GPIO0*%
X168750000Y-63750000D02*
X171901000Y-60599000D01*
X159700000Y-74390000D02*
X158750000Y-74390000D01*
X182551000Y-54051000D02*
X181750000Y-53250000D01*
X159798000Y-74390000D02*
X158750000Y-74390000D01*
X182551000Y-58485160D02*
X182551000Y-54051000D01*
X168750000Y-63750000D02*
X168750000Y-65340000D01*
X180437160Y-60599000D02*
X182551000Y-58485160D01*
X171901000Y-60599000D02*
X180437160Y-60599000D01*
X168750000Y-63750000D02*
X170900000Y-63750000D01*
X168750000Y-65340000D02*
X159700000Y-74390000D01*
D29*
%TO.N,V_in*%
X119199000Y-58166000D02*
X114500000Y-62865000D01*
X119199000Y-58166000D02*
X119199000Y-57426000D01*
X188722000Y-59128000D02*
X189050000Y-58800000D01*
X188722000Y-60706000D02*
X188722000Y-59128000D01*
X169882184Y-64800339D02*
X169882184Y-66337816D01*
X189050000Y-58800000D02*
X189050000Y-56700000D01*
X166878000Y-69342000D02*
X166878000Y-72898000D01*
X169882184Y-66337816D02*
X166878000Y-69342000D01*
X132080000Y-58928000D02*
X131318000Y-58166000D01*
X131318000Y-58166000D02*
X119199000Y-58166000D01*
X119199000Y-57426000D02*
X120375000Y-56250000D01*
X132080000Y-60000000D02*
X132080000Y-58928000D01*
X189050000Y-56700000D02*
X193000000Y-52750000D01*
%TO.N,3.3V*%
X175750000Y-63750000D02*
X174000000Y-63750000D01*
X113030000Y-65024000D02*
X115570000Y-65024000D01*
X110499000Y-54864000D02*
X112200000Y-56565000D01*
X115570000Y-65024000D02*
X116840000Y-63754000D01*
X124600000Y-67750000D02*
X125750000Y-68900000D01*
D31*
X119915000Y-69125000D02*
X122000000Y-69125000D01*
D29*
X112200000Y-56565000D02*
X112200000Y-62865000D01*
X112238000Y-64262000D02*
X111750000Y-64750000D01*
D31*
X119040000Y-70000000D02*
X119915000Y-69125000D01*
D29*
X112268000Y-64262000D02*
X113030000Y-65024000D01*
X174178000Y-58750000D02*
X174000000Y-58928000D01*
X177498000Y-63750000D02*
X178002000Y-63246000D01*
X116840000Y-63754000D02*
X116840000Y-63246000D01*
D31*
X122000000Y-69125000D02*
X125525000Y-69125000D01*
D29*
X112200000Y-64194000D02*
X112268000Y-64262000D01*
X109220000Y-54864000D02*
X110499000Y-54864000D01*
X111750000Y-67750000D02*
X124600000Y-67750000D01*
X117856000Y-62230000D02*
X119380000Y-62230000D01*
D31*
X128833760Y-65024000D02*
X115570000Y-65024000D01*
D29*
X112200000Y-62865000D02*
X112200000Y-64194000D01*
X116840000Y-63246000D02*
X117856000Y-62230000D01*
D31*
X141250000Y-59150000D02*
X134707760Y-59150000D01*
D29*
X112268000Y-64262000D02*
X112238000Y-64262000D01*
X119040000Y-62570000D02*
X119380000Y-62230000D01*
D30*
X174254000Y-59182000D02*
X174000000Y-58928000D01*
D31*
X134707760Y-59150000D02*
X128833760Y-65024000D01*
D29*
X175750000Y-58750000D02*
X174178000Y-58750000D01*
D31*
X125525000Y-69125000D02*
X125750000Y-68900000D01*
D30*
X174004000Y-63754000D02*
X174000000Y-63750000D01*
D29*
X175750000Y-63750000D02*
X177498000Y-63750000D01*
D31*
%TO.N,RXD0*%
X161195000Y-62960000D02*
X158750000Y-62960000D01*
X162560000Y-61595000D02*
X161195000Y-62960000D01*
%TO.N,TXD0*%
X159925000Y-61690000D02*
X158750000Y-61690000D01*
X162560000Y-59055000D02*
X159925000Y-61690000D01*
D29*
%TO.N,3.3V_2*%
X197210000Y-69250000D02*
X199750000Y-69250000D01*
X192130000Y-69250000D02*
X194670000Y-69250000D01*
X187500000Y-59550000D02*
X186750000Y-58800000D01*
X186750000Y-58800000D02*
X186750000Y-52500000D01*
X189590000Y-69250000D02*
X192130000Y-69250000D01*
X187500000Y-63250000D02*
X186249000Y-61999000D01*
X186500000Y-64250000D02*
X186500000Y-69875000D01*
X194670000Y-69250000D02*
X197210000Y-69250000D01*
X187500000Y-63250000D02*
X187500000Y-59550000D01*
X186249000Y-61999000D02*
X182349000Y-61999000D01*
X187758000Y-62992000D02*
X187500000Y-63250000D01*
X188965000Y-69875000D02*
X189590000Y-69250000D01*
X187500000Y-63250000D02*
X186500000Y-64250000D01*
X186500000Y-69875000D02*
X188965000Y-69875000D01*
X182349000Y-61999000D02*
X181102000Y-63246000D01*
D31*
%TO.N,GPIO8*%
X135005000Y-77145000D02*
X118618000Y-77145000D01*
X118309000Y-77145000D02*
X118110000Y-76946000D01*
X118618000Y-77145000D02*
X118309000Y-77145000D01*
X140300000Y-71850000D02*
X135005000Y-77145000D01*
X141250000Y-71850000D02*
X140300000Y-71850000D01*
%TO.N,GPIO15*%
X131826000Y-75541000D02*
X140597000Y-66770000D01*
X140597000Y-66770000D02*
X141250000Y-66770000D01*
X123357493Y-75342000D02*
X123453493Y-75438000D01*
X123453493Y-75447493D02*
X123547000Y-75541000D01*
X123547000Y-75541000D02*
X131826000Y-75541000D01*
X123453493Y-75438000D02*
X123453493Y-75447493D01*
%TO.N,GPIO41*%
X155194000Y-67310000D02*
X157004000Y-65500000D01*
X151384000Y-67310000D02*
X155194000Y-67310000D01*
X157004000Y-65500000D02*
X158750000Y-65500000D01*
%TO.N,GPIO46*%
X144183558Y-77127558D02*
X144183558Y-75741442D01*
X144183558Y-75741442D02*
X144285000Y-75640000D01*
%TO.N,GPIO4*%
X138430000Y-68072000D02*
X138430000Y-62738000D01*
X123444000Y-74422000D02*
X124162000Y-75140000D01*
X139478000Y-61690000D02*
X141250000Y-61690000D01*
X138430000Y-62738000D02*
X139478000Y-61690000D01*
X124162000Y-75140000D02*
X131362000Y-75140000D01*
X131362000Y-75140000D02*
X138430000Y-68072000D01*
%TO.N,GPIO40*%
X155448000Y-68072000D02*
X156750000Y-66770000D01*
X150368000Y-68072000D02*
X155448000Y-68072000D01*
X156750000Y-66770000D02*
X158750000Y-66770000D01*
D30*
%TO.N,GPIO2*%
X158750000Y-60420000D02*
X148622000Y-60420000D01*
X148622000Y-60420000D02*
X148590000Y-60452000D01*
D31*
%TO.N,GPIO39*%
X149352000Y-68710000D02*
X156080000Y-68710000D01*
X156750000Y-68040000D02*
X158750000Y-68040000D01*
X156080000Y-68710000D02*
X156750000Y-68040000D01*
D30*
%TO.N,GPIO3*%
X143015000Y-76796000D02*
X142240000Y-77571000D01*
X113639000Y-77571000D02*
X113284000Y-77216000D01*
X142240000Y-77571000D02*
X115824000Y-77571000D01*
X115824000Y-77571000D02*
X113639000Y-77571000D01*
X143015000Y-75640000D02*
X143015000Y-76796000D01*
%TO.N,GPIO14*%
X149790000Y-79826000D02*
X151905000Y-77711000D01*
X122104000Y-79826000D02*
X149790000Y-79826000D01*
X151905000Y-77711000D02*
X151905000Y-75640000D01*
X120650000Y-81280000D02*
X122104000Y-79826000D01*
%TO.N,GPIO1*%
X158750000Y-59150000D02*
X150146000Y-59150000D01*
X150146000Y-59150000D02*
X149860000Y-59436000D01*
D31*
%TO.N,GPIO38*%
X148082000Y-70104000D02*
X148876000Y-69310000D01*
X148876000Y-69310000D02*
X158750000Y-69310000D01*
%TO.N,GPIO45*%
X156985000Y-74181000D02*
X156985000Y-75640000D01*
X156464000Y-73660000D02*
X156985000Y-74181000D01*
%TO.N,GPIO42*%
X152654000Y-66548000D02*
X154686000Y-66548000D01*
X157004000Y-64230000D02*
X158750000Y-64230000D01*
X154686000Y-66548000D02*
X157004000Y-64230000D01*
D30*
%TO.N,SCLK*%
X106680000Y-77470000D02*
X108585000Y-79375000D01*
X103114000Y-76066000D02*
X104518000Y-77470000D01*
X108585000Y-79375000D02*
X146875000Y-79375000D01*
X103114000Y-73714000D02*
X103114000Y-76066000D01*
X101750000Y-72350000D02*
X103114000Y-73714000D01*
X146875000Y-79375000D02*
X149365000Y-76885000D01*
X149365000Y-76885000D02*
X149365000Y-75640000D01*
X104518000Y-77470000D02*
X106680000Y-77470000D01*
%TO.N,{slash}CS*%
X106045000Y-67945000D02*
X107319215Y-69219215D01*
X107319215Y-76195785D02*
X109145430Y-78022000D01*
X103114000Y-58474000D02*
X104777116Y-58474000D01*
X107319215Y-69219215D02*
X107319215Y-76195785D01*
X106045000Y-59741884D02*
X106045000Y-67945000D01*
X145555000Y-76640000D02*
X145555000Y-75640000D01*
X104777116Y-58474000D02*
X106045000Y-59741884D01*
X109145430Y-78022000D02*
X144173000Y-78022000D01*
X101750000Y-57110000D02*
X103114000Y-58474000D01*
X144173000Y-78022000D02*
X145555000Y-76640000D01*
%TO.N,{slash}DC*%
X146825000Y-77063000D02*
X146825000Y-75640000D01*
X103802884Y-68446000D02*
X104589116Y-68446000D01*
X104589116Y-68446000D02*
X106682810Y-70539694D01*
X101750000Y-59650000D02*
X103114000Y-61014000D01*
X103114000Y-61014000D02*
X103114000Y-67757116D01*
X108958620Y-78473000D02*
X145415000Y-78473000D01*
X145415000Y-78473000D02*
X146825000Y-77063000D01*
X106682810Y-76197190D02*
X108958620Y-78473000D01*
X103114000Y-67757116D02*
X103802884Y-68446000D01*
X106682810Y-70539694D02*
X106682810Y-76197190D01*
%TO.N,MOSI*%
X145811000Y-78924000D02*
X148095000Y-76640000D01*
X148095000Y-76640000D02*
X148095000Y-75640000D01*
X106047810Y-76200000D02*
X108771810Y-78924000D01*
X106045000Y-76200000D02*
X106047810Y-76200000D01*
X104290000Y-69810000D02*
X106045000Y-71565000D01*
X106045000Y-71565000D02*
X106045000Y-76200000D01*
X108771810Y-78924000D02*
X145811000Y-78924000D01*
D31*
%TO.N,BCK*%
X155980000Y-78125000D02*
X171811000Y-78125000D01*
X171811000Y-78125000D02*
X177038000Y-72898000D01*
X177038000Y-72898000D02*
X177038000Y-69342000D01*
X154445000Y-76590000D02*
X155980000Y-78125000D01*
X154445000Y-75640000D02*
X154445000Y-76590000D01*
%TO.N,LCK*%
X182118000Y-74168000D02*
X182118000Y-69342000D01*
X155488000Y-78526000D02*
X177760000Y-78526000D01*
X171958000Y-72898000D02*
X173347000Y-71509000D01*
X174422240Y-67790000D02*
X180566000Y-67790000D01*
X173347000Y-71509000D02*
X173347000Y-68865240D01*
X173347000Y-68865240D02*
X174422240Y-67790000D01*
X180566000Y-67790000D02*
X182118000Y-69342000D01*
X177760000Y-78526000D02*
X182118000Y-74168000D01*
X153175000Y-76213000D02*
X155488000Y-78526000D01*
X153175000Y-75640000D02*
X153175000Y-76213000D01*
%TO.N,DIN*%
X155715000Y-75640000D02*
X155715000Y-76721000D01*
X176561240Y-68191000D02*
X178427000Y-68191000D01*
X169672000Y-77724000D02*
X174498000Y-72898000D01*
X175887000Y-71509000D02*
X175887000Y-68865240D01*
X175887000Y-68865240D02*
X176561240Y-68191000D01*
X174498000Y-72898000D02*
X175887000Y-71509000D01*
X178427000Y-68191000D02*
X179578000Y-69342000D01*
X156718000Y-77724000D02*
X169672000Y-77724000D01*
X155715000Y-76721000D02*
X156718000Y-77724000D01*
%TO.N,S1E1*%
X141250000Y-62960000D02*
X139224000Y-62960000D01*
X139224000Y-62960000D02*
X139192000Y-62992000D01*
%TO.N,S2E1*%
X141250000Y-64230000D02*
X139224000Y-64230000D01*
X139224000Y-64230000D02*
X139192000Y-64262000D01*
%TO.N,K_E1*%
X141250000Y-65500000D02*
X139478000Y-65500000D01*
X139478000Y-65500000D02*
X139192000Y-65786000D01*
%TO.N,K_E2*%
X141250000Y-70580000D02*
X140300000Y-70580000D01*
X134136000Y-76744000D02*
X119544000Y-76744000D01*
X140300000Y-70580000D02*
X134136000Y-76744000D01*
X119544000Y-76744000D02*
X116460000Y-73660000D01*
%TO.N,S1E2*%
X141250000Y-68040000D02*
X140748000Y-68040000D01*
X112932000Y-72108000D02*
X111380000Y-73660000D01*
X140748000Y-68040000D02*
X132846000Y-75942000D01*
X122909760Y-75942000D02*
X119075760Y-72108000D01*
X132846000Y-75942000D02*
X122909760Y-75942000D01*
X119075760Y-72108000D02*
X112932000Y-72108000D01*
%TO.N,S2E2*%
X115071000Y-72509000D02*
X113920000Y-73660000D01*
X116936760Y-72509000D02*
X115071000Y-72509000D01*
X133267000Y-76343000D02*
X119888000Y-76343000D01*
X117611000Y-74066000D02*
X117611000Y-73183240D01*
X140300000Y-69310000D02*
X133267000Y-76343000D01*
X141250000Y-69310000D02*
X140300000Y-69310000D01*
X119888000Y-76343000D02*
X117611000Y-74066000D01*
X117611000Y-73183240D02*
X116936760Y-72509000D01*
%TD*%
%TA.AperFunction,Conductor*%
%TO.N,GND*%
G36*
X125192539Y-50520185D02*
G01*
X125238294Y-50572989D01*
X125249500Y-50624500D01*
X125249500Y-55934108D01*
X125249500Y-56065892D01*
X125265338Y-56125000D01*
X125283608Y-56193187D01*
X125316554Y-56250250D01*
X125349500Y-56307314D01*
X125599500Y-56557314D01*
X125692686Y-56650500D01*
X125785943Y-56704342D01*
X125806814Y-56716392D01*
X125934107Y-56750500D01*
X125934108Y-56750500D01*
X140204554Y-56750500D01*
X140271593Y-56770185D01*
X140317348Y-56822989D01*
X140327292Y-56892147D01*
X140298267Y-56955703D01*
X140263982Y-56983332D01*
X140257906Y-56986649D01*
X140142812Y-57072809D01*
X140142809Y-57072812D01*
X140056649Y-57187906D01*
X140056645Y-57187913D01*
X140006403Y-57322620D01*
X140006401Y-57322627D01*
X140000000Y-57382155D01*
X140000000Y-57630000D01*
X142500000Y-57630000D01*
X142500000Y-57382172D01*
X142499999Y-57382155D01*
X142493598Y-57322627D01*
X142493596Y-57322620D01*
X142443354Y-57187913D01*
X142443350Y-57187906D01*
X142357190Y-57072812D01*
X142357187Y-57072809D01*
X142242093Y-56986649D01*
X142236018Y-56983332D01*
X142186613Y-56933926D01*
X142171762Y-56865653D01*
X142196179Y-56800189D01*
X142252113Y-56758318D01*
X142295446Y-56750500D01*
X148602902Y-56750500D01*
X148669941Y-56770185D01*
X148715696Y-56822989D01*
X148725640Y-56892147D01*
X148696615Y-56955703D01*
X148690583Y-56962181D01*
X145869584Y-59783181D01*
X145808261Y-59816666D01*
X145781903Y-59819500D01*
X142620094Y-59819500D01*
X142553055Y-59799815D01*
X142507300Y-59747011D01*
X142496804Y-59682246D01*
X142500500Y-59647873D01*
X142500499Y-58652128D01*
X142494091Y-58592517D01*
X142481073Y-58557616D01*
X142476090Y-58487926D01*
X142481075Y-58470949D01*
X142493597Y-58437375D01*
X142493598Y-58437372D01*
X142499999Y-58377844D01*
X142500000Y-58377827D01*
X142500000Y-58130000D01*
X140000000Y-58130000D01*
X140000000Y-58377839D01*
X140003700Y-58412242D01*
X139991296Y-58481002D01*
X139943687Y-58532140D01*
X139880411Y-58549500D01*
X134628701Y-58549500D01*
X134588560Y-58560255D01*
X134588561Y-58560256D01*
X134475974Y-58590423D01*
X134475969Y-58590426D01*
X134339050Y-58669475D01*
X134339042Y-58669481D01*
X134227238Y-58781286D01*
X133559339Y-59449184D01*
X133498016Y-59482669D01*
X133428324Y-59477685D01*
X133372391Y-59435813D01*
X133353727Y-59399821D01*
X133331557Y-59331588D01*
X133235051Y-59142184D01*
X133235049Y-59142181D01*
X133235048Y-59142179D01*
X133110109Y-58970213D01*
X132959790Y-58819894D01*
X132959785Y-58819890D01*
X132827533Y-58723804D01*
X132816944Y-58710373D01*
X132803867Y-58701293D01*
X132785857Y-58670939D01*
X132754687Y-58595689D01*
X132754687Y-58595688D01*
X132745084Y-58572505D01*
X132693263Y-58494949D01*
X132664197Y-58451447D01*
X132662954Y-58449586D01*
X132662952Y-58449584D01*
X131796421Y-57583052D01*
X131796414Y-57583046D01*
X131722729Y-57533812D01*
X131722729Y-57533813D01*
X131673491Y-57500913D01*
X131536917Y-57444343D01*
X131536907Y-57444340D01*
X131391920Y-57415500D01*
X131391918Y-57415500D01*
X124697906Y-57415500D01*
X124630867Y-57395815D01*
X124585112Y-57343011D01*
X124575168Y-57273853D01*
X124592366Y-57226406D01*
X124596852Y-57219131D01*
X124596858Y-57219119D01*
X124652005Y-57052697D01*
X124652006Y-57052690D01*
X124662499Y-56949986D01*
X124662500Y-56949973D01*
X124662500Y-56500000D01*
X122337501Y-56500000D01*
X122337501Y-56949986D01*
X122347994Y-57052697D01*
X122403141Y-57219119D01*
X122403147Y-57219131D01*
X122407634Y-57226406D01*
X122426073Y-57293799D01*
X122405149Y-57360462D01*
X122351506Y-57405230D01*
X122302094Y-57415500D01*
X121573492Y-57415500D01*
X121506453Y-57395815D01*
X121460698Y-57343011D01*
X121450754Y-57273853D01*
X121467952Y-57226405D01*
X121472314Y-57219334D01*
X121527499Y-57052797D01*
X121538000Y-56950009D01*
X121537999Y-55550013D01*
X122337500Y-55550013D01*
X122337500Y-56000000D01*
X123250000Y-56000000D01*
X123750000Y-56000000D01*
X124662499Y-56000000D01*
X124662499Y-55550028D01*
X124662498Y-55550013D01*
X124652005Y-55447302D01*
X124596858Y-55280880D01*
X124596856Y-55280875D01*
X124504815Y-55131654D01*
X124380845Y-55007684D01*
X124231624Y-54915643D01*
X124231619Y-54915641D01*
X124065197Y-54860494D01*
X124065190Y-54860493D01*
X123962486Y-54850000D01*
X123750000Y-54850000D01*
X123750000Y-56000000D01*
X123250000Y-56000000D01*
X123250000Y-54850000D01*
X123037529Y-54850000D01*
X123037512Y-54850001D01*
X122934802Y-54860494D01*
X122768380Y-54915641D01*
X122768375Y-54915643D01*
X122619154Y-55007684D01*
X122495184Y-55131654D01*
X122403143Y-55280875D01*
X122403141Y-55280880D01*
X122347994Y-55447302D01*
X122347993Y-55447309D01*
X122337500Y-55550013D01*
X121537999Y-55550013D01*
X121537999Y-55549992D01*
X121527499Y-55447203D01*
X121472314Y-55280666D01*
X121380212Y-55131344D01*
X121256156Y-55007288D01*
X121106834Y-54915186D01*
X120940297Y-54860001D01*
X120940295Y-54860000D01*
X120837510Y-54849500D01*
X119912498Y-54849500D01*
X119912480Y-54849501D01*
X119809703Y-54860000D01*
X119809700Y-54860001D01*
X119643168Y-54915185D01*
X119643163Y-54915187D01*
X119493842Y-55007289D01*
X119369789Y-55131342D01*
X119277687Y-55280663D01*
X119277685Y-55280668D01*
X119277615Y-55280880D01*
X119222501Y-55447203D01*
X119222501Y-55447204D01*
X119222500Y-55447204D01*
X119212000Y-55549983D01*
X119212000Y-56300269D01*
X119192315Y-56367308D01*
X119175681Y-56387950D01*
X118616045Y-56947586D01*
X118597691Y-56975058D01*
X118597690Y-56975059D01*
X118533916Y-57070503D01*
X118533914Y-57070506D01*
X118477343Y-57207082D01*
X118477340Y-57207092D01*
X118448500Y-57352079D01*
X118448500Y-57803770D01*
X118428815Y-57870809D01*
X118412181Y-57891451D01*
X114975450Y-61328181D01*
X114914127Y-61361666D01*
X114887769Y-61364500D01*
X114048877Y-61364500D01*
X114048874Y-61364501D01*
X114006113Y-61367399D01*
X114006112Y-61367399D01*
X113821303Y-61413360D01*
X113650707Y-61497967D01*
X113650704Y-61497969D01*
X113502278Y-61617277D01*
X113502277Y-61617278D01*
X113446647Y-61686486D01*
X113389304Y-61726405D01*
X113319482Y-61728985D01*
X113259349Y-61693406D01*
X113253353Y-61686486D01*
X113197722Y-61617278D01*
X113197721Y-61617277D01*
X113049295Y-61497969D01*
X113019405Y-61483145D01*
X112968092Y-61435723D01*
X112950500Y-61372057D01*
X112950500Y-58189499D01*
X112970185Y-58122460D01*
X113022989Y-58076705D01*
X113074500Y-58065499D01*
X113658028Y-58065499D01*
X113658036Y-58065499D01*
X113777418Y-58054886D01*
X113973049Y-57998909D01*
X114153407Y-57904698D01*
X114311109Y-57776109D01*
X114439698Y-57618407D01*
X114533909Y-57438049D01*
X114589886Y-57242418D01*
X114600500Y-57123037D01*
X114600499Y-56006964D01*
X114589886Y-55887582D01*
X114533909Y-55691951D01*
X114439698Y-55511593D01*
X114327744Y-55374292D01*
X114311109Y-55353890D01*
X114153409Y-55225304D01*
X114153410Y-55225304D01*
X114153407Y-55225302D01*
X113973049Y-55131091D01*
X113973048Y-55131090D01*
X113973045Y-55131089D01*
X113855615Y-55097489D01*
X113777418Y-55075114D01*
X113777415Y-55075113D01*
X113777413Y-55075113D01*
X113704631Y-55068642D01*
X113658037Y-55064500D01*
X113658033Y-55064500D01*
X111812230Y-55064500D01*
X111745191Y-55044815D01*
X111724549Y-55028181D01*
X110977421Y-54281052D01*
X110977414Y-54281046D01*
X110903729Y-54231812D01*
X110903729Y-54231813D01*
X110854491Y-54198913D01*
X110717917Y-54142343D01*
X110717907Y-54142340D01*
X110572920Y-54113500D01*
X110572918Y-54113500D01*
X109524604Y-54113500D01*
X109477155Y-54104062D01*
X109453497Y-54094263D01*
X109453493Y-54094262D01*
X109453488Y-54094260D01*
X109298845Y-54063500D01*
X109298842Y-54063500D01*
X109141158Y-54063500D01*
X109141155Y-54063500D01*
X108986510Y-54094261D01*
X108986498Y-54094264D01*
X108840827Y-54154602D01*
X108840814Y-54154609D01*
X108709711Y-54242210D01*
X108709707Y-54242213D01*
X108598213Y-54353707D01*
X108598210Y-54353711D01*
X108510609Y-54484814D01*
X108510602Y-54484827D01*
X108450264Y-54630498D01*
X108450261Y-54630510D01*
X108419500Y-54785153D01*
X108419500Y-54942846D01*
X108450261Y-55097489D01*
X108450264Y-55097501D01*
X108510602Y-55243172D01*
X108510609Y-55243185D01*
X108598210Y-55374288D01*
X108598213Y-55374292D01*
X108709707Y-55485786D01*
X108709711Y-55485789D01*
X108840814Y-55573390D01*
X108840827Y-55573397D01*
X108940060Y-55614500D01*
X108986503Y-55633737D01*
X109141153Y-55664499D01*
X109141156Y-55664500D01*
X109141158Y-55664500D01*
X109298844Y-55664500D01*
X109298845Y-55664499D01*
X109375152Y-55649320D01*
X109453488Y-55633739D01*
X109453489Y-55633738D01*
X109453497Y-55633737D01*
X109477155Y-55623937D01*
X109485329Y-55622311D01*
X109489669Y-55619523D01*
X109524604Y-55614500D01*
X109723795Y-55614500D01*
X109790834Y-55634185D01*
X109836589Y-55686989D01*
X109846533Y-55756147D01*
X109843011Y-55772611D01*
X109810114Y-55887582D01*
X109810113Y-55887586D01*
X109805977Y-55934108D01*
X109800164Y-55999501D01*
X109799500Y-56006966D01*
X109799500Y-57123028D01*
X109799501Y-57123034D01*
X109810113Y-57242415D01*
X109866089Y-57438045D01*
X109866090Y-57438048D01*
X109866091Y-57438049D01*
X109960302Y-57618407D01*
X109960304Y-57618409D01*
X110088890Y-57776109D01*
X110160313Y-57834346D01*
X110246593Y-57904698D01*
X110426951Y-57998909D01*
X110622582Y-58054886D01*
X110741963Y-58065500D01*
X111325500Y-58065499D01*
X111392539Y-58085183D01*
X111438294Y-58137987D01*
X111449500Y-58189499D01*
X111449500Y-61372057D01*
X111429815Y-61439096D01*
X111380595Y-61483145D01*
X111350704Y-61497969D01*
X111202280Y-61617276D01*
X111202278Y-61617278D01*
X111178348Y-61647048D01*
X111146326Y-61686885D01*
X111088982Y-61726803D01*
X111019160Y-61729383D01*
X110959027Y-61693804D01*
X110953031Y-61686884D01*
X110897364Y-61617630D01*
X110749025Y-61498392D01*
X110749022Y-61498390D01*
X110578523Y-61413831D01*
X110393824Y-61367897D01*
X110351097Y-61365000D01*
X110150000Y-61365000D01*
X110150000Y-64365000D01*
X110351097Y-64365000D01*
X110393824Y-64362102D01*
X110578523Y-64316168D01*
X110749022Y-64231609D01*
X110749025Y-64231607D01*
X110897366Y-64112367D01*
X110897367Y-64112366D01*
X110953033Y-64043115D01*
X110971328Y-64030378D01*
X110986543Y-64014079D01*
X110999449Y-64010802D01*
X111010376Y-64003196D01*
X111032655Y-64002372D01*
X111054264Y-63996887D01*
X111066891Y-64001107D01*
X111080198Y-64000616D01*
X111099386Y-64011968D01*
X111120530Y-64019036D01*
X111136455Y-64033900D01*
X111140331Y-64036194D01*
X111146311Y-64043096D01*
X111156168Y-64055358D01*
X111182823Y-64119944D01*
X111170330Y-64188687D01*
X111147202Y-64220718D01*
X111128213Y-64239707D01*
X111128208Y-64239714D01*
X111040609Y-64370814D01*
X111040602Y-64370827D01*
X110980264Y-64516498D01*
X110980261Y-64516510D01*
X110949500Y-64671153D01*
X110949500Y-64828843D01*
X110950097Y-64834905D01*
X110948207Y-64835091D01*
X110942773Y-64895889D01*
X110899915Y-64951071D01*
X110834028Y-64974322D01*
X110827379Y-64974500D01*
X108875097Y-64974500D01*
X108808058Y-64954815D01*
X108787416Y-64938181D01*
X108493819Y-64644584D01*
X108460334Y-64583261D01*
X108457500Y-64556903D01*
X108457500Y-63833732D01*
X108477185Y-63766693D01*
X108529989Y-63720938D01*
X108599147Y-63710994D01*
X108662703Y-63740019D01*
X108695584Y-63787626D01*
X108695843Y-63787498D01*
X108696728Y-63789283D01*
X108697894Y-63790971D01*
X108698832Y-63793526D01*
X108783390Y-63964022D01*
X108783392Y-63964025D01*
X108902632Y-64112366D01*
X108902633Y-64112367D01*
X109050974Y-64231607D01*
X109050977Y-64231609D01*
X109221476Y-64316168D01*
X109406175Y-64362102D01*
X109448903Y-64365000D01*
X109650000Y-64365000D01*
X109650000Y-61365000D01*
X109448903Y-61365000D01*
X109406175Y-61367897D01*
X109221476Y-61413831D01*
X109050977Y-61498390D01*
X109050974Y-61498392D01*
X108902633Y-61617632D01*
X108902632Y-61617633D01*
X108783392Y-61765974D01*
X108783390Y-61765977D01*
X108698829Y-61936479D01*
X108697892Y-61939032D01*
X108696899Y-61940370D01*
X108695843Y-61942502D01*
X108695461Y-61942312D01*
X108656295Y-61995170D01*
X108590951Y-62019906D01*
X108522606Y-62005388D01*
X108472960Y-61956225D01*
X108457500Y-61896267D01*
X108457500Y-60766060D01*
X108457501Y-60766047D01*
X108457501Y-60597944D01*
X108448644Y-60564890D01*
X108416577Y-60445216D01*
X108413536Y-60439949D01*
X108337524Y-60308290D01*
X108337518Y-60308282D01*
X106982055Y-58952819D01*
X105623756Y-57594521D01*
X105590272Y-57533199D01*
X105593507Y-57468523D01*
X105607246Y-57426243D01*
X105640500Y-57216287D01*
X105640500Y-57003713D01*
X105607246Y-56793757D01*
X105541557Y-56591588D01*
X105445051Y-56402184D01*
X105445049Y-56402181D01*
X105445048Y-56402179D01*
X105320109Y-56230213D01*
X105169786Y-56079890D01*
X104997820Y-55954951D01*
X104808414Y-55858444D01*
X104808413Y-55858443D01*
X104808412Y-55858443D01*
X104606243Y-55792754D01*
X104606241Y-55792753D01*
X104606240Y-55792753D01*
X104444957Y-55767208D01*
X104396287Y-55759500D01*
X104183713Y-55759500D01*
X104135042Y-55767208D01*
X103973760Y-55792753D01*
X103771585Y-55858444D01*
X103582179Y-55954951D01*
X103410213Y-56079890D01*
X103259890Y-56230213D01*
X103134949Y-56402182D01*
X103130484Y-56410946D01*
X103082509Y-56461742D01*
X103014688Y-56478536D01*
X102948553Y-56455998D01*
X102909516Y-56410946D01*
X102905050Y-56402182D01*
X102780109Y-56230213D01*
X102629786Y-56079890D01*
X102457820Y-55954951D01*
X102268414Y-55858444D01*
X102268413Y-55858443D01*
X102268412Y-55858443D01*
X102066243Y-55792754D01*
X102066241Y-55792753D01*
X102066240Y-55792753D01*
X101904957Y-55767208D01*
X101856287Y-55759500D01*
X101643713Y-55759500D01*
X101595042Y-55767208D01*
X101433760Y-55792753D01*
X101231585Y-55858444D01*
X101042179Y-55954951D01*
X100870213Y-56079890D01*
X100719890Y-56230213D01*
X100594951Y-56402179D01*
X100498444Y-56591585D01*
X100498443Y-56591587D01*
X100498443Y-56591588D01*
X100492726Y-56609183D01*
X100432753Y-56793760D01*
X100404038Y-56975059D01*
X100399500Y-57003713D01*
X100399500Y-57216287D01*
X100403639Y-57242418D01*
X100432753Y-57426239D01*
X100432753Y-57426241D01*
X100432754Y-57426243D01*
X100496322Y-57621885D01*
X100498444Y-57628414D01*
X100594951Y-57817820D01*
X100719890Y-57989786D01*
X100870213Y-58140109D01*
X101042182Y-58265050D01*
X101050946Y-58269516D01*
X101101742Y-58317491D01*
X101118536Y-58385312D01*
X101095998Y-58451447D01*
X101050946Y-58490484D01*
X101042182Y-58494949D01*
X100870213Y-58619890D01*
X100719890Y-58770213D01*
X100594951Y-58942179D01*
X100498444Y-59131585D01*
X100498443Y-59131587D01*
X100498443Y-59131588D01*
X100488793Y-59161287D01*
X100432753Y-59333760D01*
X100399500Y-59543713D01*
X100399500Y-59756286D01*
X100428311Y-59938196D01*
X100432754Y-59966243D01*
X100497857Y-60166609D01*
X100498444Y-60168414D01*
X100594951Y-60357820D01*
X100719890Y-60529786D01*
X100870213Y-60680109D01*
X101042182Y-60805050D01*
X101050946Y-60809516D01*
X101101742Y-60857491D01*
X101118536Y-60925312D01*
X101095998Y-60991447D01*
X101050946Y-61030484D01*
X101042182Y-61034949D01*
X100870213Y-61159890D01*
X100719890Y-61310213D01*
X100594951Y-61482179D01*
X100498444Y-61671585D01*
X100498443Y-61671587D01*
X100498443Y-61671588D01*
X100479664Y-61729383D01*
X100432753Y-61873760D01*
X100408278Y-62028289D01*
X100399500Y-62083713D01*
X100399500Y-62296287D01*
X100400352Y-62301666D01*
X100432749Y-62506215D01*
X100432754Y-62506243D01*
X100490914Y-62685241D01*
X100498444Y-62708414D01*
X100594951Y-62897820D01*
X100719890Y-63069786D01*
X100870213Y-63220109D01*
X101042182Y-63345050D01*
X101050946Y-63349516D01*
X101101742Y-63397491D01*
X101118536Y-63465312D01*
X101095998Y-63531447D01*
X101050946Y-63570484D01*
X101042182Y-63574949D01*
X100870213Y-63699890D01*
X100719890Y-63850213D01*
X100594951Y-64022179D01*
X100498444Y-64211585D01*
X100432753Y-64413760D01*
X100399500Y-64623713D01*
X100399500Y-64836286D01*
X100430631Y-65032844D01*
X100432754Y-65046243D01*
X100495723Y-65240042D01*
X100498444Y-65248414D01*
X100594951Y-65437820D01*
X100719890Y-65609786D01*
X100870213Y-65760109D01*
X101042182Y-65885050D01*
X101050946Y-65889516D01*
X101101742Y-65937491D01*
X101118536Y-66005312D01*
X101095998Y-66071447D01*
X101050946Y-66110484D01*
X101042182Y-66114949D01*
X100870213Y-66239890D01*
X100719890Y-66390213D01*
X100594951Y-66562179D01*
X100498444Y-66751585D01*
X100498443Y-66751587D01*
X100498443Y-66751588D01*
X100477437Y-66816237D01*
X100432753Y-66953760D01*
X100399500Y-67163713D01*
X100399500Y-67376286D01*
X100423951Y-67530668D01*
X100432754Y-67586243D01*
X100498244Y-67787801D01*
X100498444Y-67788414D01*
X100594951Y-67977820D01*
X100719890Y-68149786D01*
X100870213Y-68300109D01*
X101042182Y-68425050D01*
X101050946Y-68429516D01*
X101101742Y-68477491D01*
X101118536Y-68545312D01*
X101095998Y-68611447D01*
X101050946Y-68650484D01*
X101042182Y-68654949D01*
X100870213Y-68779890D01*
X100719890Y-68930213D01*
X100594951Y-69102179D01*
X100498444Y-69291585D01*
X100432753Y-69493760D01*
X100399500Y-69703713D01*
X100399500Y-69916286D01*
X100425766Y-70082127D01*
X100432754Y-70126243D01*
X100489043Y-70299483D01*
X100498444Y-70328414D01*
X100594951Y-70517820D01*
X100719890Y-70689786D01*
X100870213Y-70840109D01*
X101042182Y-70965050D01*
X101050946Y-70969516D01*
X101101742Y-71017491D01*
X101118536Y-71085312D01*
X101095998Y-71151447D01*
X101050946Y-71190484D01*
X101042182Y-71194949D01*
X100870213Y-71319890D01*
X100719890Y-71470213D01*
X100594951Y-71642179D01*
X100498444Y-71831585D01*
X100432753Y-72033760D01*
X100399500Y-72243713D01*
X100399500Y-72456286D01*
X100425766Y-72622127D01*
X100432754Y-72666243D01*
X100495547Y-72859500D01*
X100498444Y-72868414D01*
X100594951Y-73057820D01*
X100719890Y-73229786D01*
X100870213Y-73380109D01*
X101042182Y-73505050D01*
X101050946Y-73509516D01*
X101101742Y-73557491D01*
X101118536Y-73625312D01*
X101095998Y-73691447D01*
X101050946Y-73730484D01*
X101042182Y-73734949D01*
X100870213Y-73859890D01*
X100719890Y-74010213D01*
X100594951Y-74182179D01*
X100498444Y-74371585D01*
X100432753Y-74573760D01*
X100399500Y-74783713D01*
X100399500Y-74996286D01*
X100431376Y-75197547D01*
X100432754Y-75206243D01*
X100494884Y-75397460D01*
X100498444Y-75408414D01*
X100594951Y-75597820D01*
X100719890Y-75769786D01*
X100870213Y-75920109D01*
X101042179Y-76045048D01*
X101042181Y-76045049D01*
X101042184Y-76045051D01*
X101231588Y-76141557D01*
X101433757Y-76207246D01*
X101643713Y-76240500D01*
X101643714Y-76240500D01*
X101856286Y-76240500D01*
X101856287Y-76240500D01*
X102066243Y-76207246D01*
X102268412Y-76141557D01*
X102324810Y-76112820D01*
X102346714Y-76108706D01*
X102367266Y-76100080D01*
X102380386Y-76102382D01*
X102393478Y-76099924D01*
X102414130Y-76108305D01*
X102436084Y-76112159D01*
X102445876Y-76121189D01*
X102458219Y-76126199D01*
X102471061Y-76144416D01*
X102487446Y-76159527D01*
X102494379Y-76177493D01*
X102498476Y-76183305D01*
X102501107Y-76192070D01*
X102502019Y-76195573D01*
X102512537Y-76248452D01*
X102517986Y-76261606D01*
X102521269Y-76269531D01*
X102559687Y-76362285D01*
X102583062Y-76397266D01*
X102583063Y-76397268D01*
X102628141Y-76464732D01*
X102628144Y-76464736D01*
X102719586Y-76556178D01*
X102719608Y-76556198D01*
X104032139Y-77868729D01*
X104032142Y-77868733D01*
X104119267Y-77955858D01*
X104166087Y-77987142D01*
X104221715Y-78024312D01*
X104272820Y-78045480D01*
X104335548Y-78071463D01*
X104395971Y-78083481D01*
X104456393Y-78095500D01*
X104456394Y-78095500D01*
X106369548Y-78095500D01*
X106436587Y-78115185D01*
X106457229Y-78131819D01*
X108043229Y-79717819D01*
X108076714Y-79779142D01*
X108071730Y-79848834D01*
X108029858Y-79904767D01*
X107964394Y-79929184D01*
X107955548Y-79929500D01*
X107052129Y-79929500D01*
X107052123Y-79929501D01*
X106992516Y-79935908D01*
X106857671Y-79986202D01*
X106857664Y-79986206D01*
X106742455Y-80072452D01*
X106742452Y-80072455D01*
X106656206Y-80187664D01*
X106656202Y-80187671D01*
X106605908Y-80322517D01*
X106599501Y-80382116D01*
X106599500Y-80382135D01*
X106599500Y-82177870D01*
X106599501Y-82177876D01*
X106605909Y-82237484D01*
X106641223Y-82332168D01*
X106646207Y-82401859D01*
X106612721Y-82463182D01*
X106551398Y-82496666D01*
X106525041Y-82499500D01*
X94624500Y-82499500D01*
X94557461Y-82479815D01*
X94511706Y-82427011D01*
X94500500Y-82375500D01*
X94500500Y-80381902D01*
X95249500Y-80381902D01*
X95249500Y-80618097D01*
X95286446Y-80851368D01*
X95359433Y-81075996D01*
X95409223Y-81173713D01*
X95466657Y-81286433D01*
X95605483Y-81477510D01*
X95772490Y-81644517D01*
X95963567Y-81783343D01*
X95993142Y-81798412D01*
X96174003Y-81890566D01*
X96174005Y-81890566D01*
X96174008Y-81890568D01*
X96265221Y-81920205D01*
X96398631Y-81963553D01*
X96631903Y-82000500D01*
X96631908Y-82000500D01*
X96868097Y-82000500D01*
X97101368Y-81963553D01*
X97325992Y-81890568D01*
X97536433Y-81783343D01*
X97727510Y-81644517D01*
X97894517Y-81477510D01*
X98033343Y-81286433D01*
X98140568Y-81075992D01*
X98213553Y-80851368D01*
X98227773Y-80761585D01*
X98250500Y-80618097D01*
X98250500Y-80381902D01*
X101749500Y-80381902D01*
X101749500Y-80618097D01*
X101786446Y-80851368D01*
X101859433Y-81075996D01*
X101909223Y-81173713D01*
X101966657Y-81286433D01*
X102105483Y-81477510D01*
X102272490Y-81644517D01*
X102463567Y-81783343D01*
X102493142Y-81798412D01*
X102674003Y-81890566D01*
X102674005Y-81890566D01*
X102674008Y-81890568D01*
X102765221Y-81920205D01*
X102898631Y-81963553D01*
X103131903Y-82000500D01*
X103131908Y-82000500D01*
X103368097Y-82000500D01*
X103601368Y-81963553D01*
X103825992Y-81890568D01*
X104036433Y-81783343D01*
X104227510Y-81644517D01*
X104394517Y-81477510D01*
X104533343Y-81286433D01*
X104640568Y-81075992D01*
X104713553Y-80851368D01*
X104727773Y-80761585D01*
X104750500Y-80618097D01*
X104750500Y-80381902D01*
X104713553Y-80148631D01*
X104644435Y-79935909D01*
X104640568Y-79924008D01*
X104640566Y-79924005D01*
X104640566Y-79924003D01*
X104563997Y-79773729D01*
X104533343Y-79713567D01*
X104394517Y-79522490D01*
X104227510Y-79355483D01*
X104036433Y-79216657D01*
X103999161Y-79197666D01*
X103825996Y-79109433D01*
X103601368Y-79036446D01*
X103368097Y-78999500D01*
X103368092Y-78999500D01*
X103131908Y-78999500D01*
X103131903Y-78999500D01*
X102898631Y-79036446D01*
X102674003Y-79109433D01*
X102463566Y-79216657D01*
X102354550Y-79295862D01*
X102272490Y-79355483D01*
X102272488Y-79355485D01*
X102272487Y-79355485D01*
X102105485Y-79522487D01*
X102105485Y-79522488D01*
X102105483Y-79522490D01*
X102045862Y-79604550D01*
X101966657Y-79713566D01*
X101859433Y-79924003D01*
X101786446Y-80148631D01*
X101749500Y-80381902D01*
X98250500Y-80381902D01*
X98213553Y-80148631D01*
X98144435Y-79935909D01*
X98140568Y-79924008D01*
X98140566Y-79924005D01*
X98140566Y-79924003D01*
X98063997Y-79773729D01*
X98033343Y-79713567D01*
X97894517Y-79522490D01*
X97727510Y-79355483D01*
X97536433Y-79216657D01*
X97499161Y-79197666D01*
X97325996Y-79109433D01*
X97101368Y-79036446D01*
X96868097Y-78999500D01*
X96868092Y-78999500D01*
X96631908Y-78999500D01*
X96631903Y-78999500D01*
X96398631Y-79036446D01*
X96174003Y-79109433D01*
X95963566Y-79216657D01*
X95854550Y-79295862D01*
X95772490Y-79355483D01*
X95772488Y-79355485D01*
X95772487Y-79355485D01*
X95605485Y-79522487D01*
X95605485Y-79522488D01*
X95605483Y-79522490D01*
X95545862Y-79604550D01*
X95466657Y-79713566D01*
X95359433Y-79924003D01*
X95286446Y-80148631D01*
X95249500Y-80381902D01*
X94500500Y-80381902D01*
X94500500Y-52381902D01*
X95249500Y-52381902D01*
X95249500Y-52618097D01*
X95286446Y-52851368D01*
X95359433Y-53075996D01*
X95428994Y-53212516D01*
X95466657Y-53286433D01*
X95605483Y-53477510D01*
X95772490Y-53644517D01*
X95963567Y-53783343D01*
X96033968Y-53819214D01*
X96174003Y-53890566D01*
X96174005Y-53890566D01*
X96174008Y-53890568D01*
X96294412Y-53929689D01*
X96398631Y-53963553D01*
X96631903Y-54000500D01*
X96631908Y-54000500D01*
X96868097Y-54000500D01*
X97101368Y-53963553D01*
X97325992Y-53890568D01*
X97536433Y-53783343D01*
X97727510Y-53644517D01*
X97894517Y-53477510D01*
X98033343Y-53286433D01*
X98140568Y-53075992D01*
X98213553Y-52851368D01*
X98250500Y-52618097D01*
X98250500Y-52381902D01*
X101749500Y-52381902D01*
X101749500Y-52618097D01*
X101786446Y-52851368D01*
X101859433Y-53075996D01*
X101928994Y-53212516D01*
X101966657Y-53286433D01*
X102105483Y-53477510D01*
X102272490Y-53644517D01*
X102463567Y-53783343D01*
X102533968Y-53819214D01*
X102674003Y-53890566D01*
X102674005Y-53890566D01*
X102674008Y-53890568D01*
X102794412Y-53929689D01*
X102898631Y-53963553D01*
X103131903Y-54000500D01*
X103131908Y-54000500D01*
X103368097Y-54000500D01*
X103601368Y-53963553D01*
X103825992Y-53890568D01*
X104036433Y-53783343D01*
X104227510Y-53644517D01*
X104394517Y-53477510D01*
X104533343Y-53286433D01*
X104640568Y-53075992D01*
X104713553Y-52851368D01*
X104750500Y-52618097D01*
X104750500Y-52381902D01*
X104713553Y-52148631D01*
X104675443Y-52031342D01*
X104640568Y-51924008D01*
X104640566Y-51924005D01*
X104640566Y-51924003D01*
X104551907Y-51750001D01*
X104533343Y-51713567D01*
X104394517Y-51522490D01*
X104227510Y-51355483D01*
X104036433Y-51216657D01*
X103825996Y-51109433D01*
X103601368Y-51036446D01*
X103368097Y-50999500D01*
X103368092Y-50999500D01*
X103131908Y-50999500D01*
X103131903Y-50999500D01*
X102898631Y-51036446D01*
X102674003Y-51109433D01*
X102463566Y-51216657D01*
X102364147Y-51288890D01*
X102272490Y-51355483D01*
X102272488Y-51355485D01*
X102272487Y-51355485D01*
X102105485Y-51522487D01*
X102105485Y-51522488D01*
X102105483Y-51522490D01*
X102058614Y-51587000D01*
X101966657Y-51713566D01*
X101859433Y-51924003D01*
X101786446Y-52148631D01*
X101749500Y-52381902D01*
X98250500Y-52381902D01*
X98213553Y-52148631D01*
X98175443Y-52031342D01*
X98140568Y-51924008D01*
X98140566Y-51924005D01*
X98140566Y-51924003D01*
X98051907Y-51750001D01*
X98033343Y-51713567D01*
X97894517Y-51522490D01*
X97727510Y-51355483D01*
X97536433Y-51216657D01*
X97325996Y-51109433D01*
X97101368Y-51036446D01*
X96868097Y-50999500D01*
X96868092Y-50999500D01*
X96631908Y-50999500D01*
X96631903Y-50999500D01*
X96398631Y-51036446D01*
X96174003Y-51109433D01*
X95963566Y-51216657D01*
X95864147Y-51288890D01*
X95772490Y-51355483D01*
X95772488Y-51355485D01*
X95772487Y-51355485D01*
X95605485Y-51522487D01*
X95605485Y-51522488D01*
X95605483Y-51522490D01*
X95558614Y-51587000D01*
X95466657Y-51713566D01*
X95359433Y-51924003D01*
X95286446Y-52148631D01*
X95249500Y-52381902D01*
X94500500Y-52381902D01*
X94500500Y-50624500D01*
X94520185Y-50557461D01*
X94572989Y-50511706D01*
X94624500Y-50500500D01*
X125125500Y-50500500D01*
X125192539Y-50520185D01*
G37*
%TD.AperFunction*%
%TA.AperFunction,Conductor*%
G36*
X206942539Y-50520185D02*
G01*
X206988294Y-50572989D01*
X206999500Y-50624500D01*
X206999500Y-82375500D01*
X206979815Y-82442539D01*
X206927011Y-82488294D01*
X206875500Y-82499500D01*
X141959758Y-82499500D01*
X141892719Y-82479815D01*
X141846964Y-82427011D01*
X141837020Y-82357853D01*
X141866045Y-82294297D01*
X141872077Y-82287819D01*
X141922413Y-82237483D01*
X142000104Y-82159792D01*
X142000106Y-82159788D01*
X142000109Y-82159786D01*
X142125048Y-81987820D01*
X142125047Y-81987820D01*
X142125051Y-81987816D01*
X142221557Y-81798412D01*
X142287246Y-81596243D01*
X142320500Y-81386287D01*
X142320500Y-81173713D01*
X142287246Y-80963757D01*
X142221557Y-80761588D01*
X142155423Y-80631794D01*
X142142528Y-80563126D01*
X142168804Y-80498385D01*
X142225911Y-80458128D01*
X142265909Y-80451500D01*
X149851607Y-80451500D01*
X149912029Y-80439481D01*
X149972452Y-80427463D01*
X150005792Y-80413652D01*
X150082447Y-80381902D01*
X196999500Y-80381902D01*
X196999500Y-80618097D01*
X197036446Y-80851368D01*
X197109433Y-81075996D01*
X197159223Y-81173713D01*
X197216657Y-81286433D01*
X197355483Y-81477510D01*
X197522490Y-81644517D01*
X197713567Y-81783343D01*
X197743142Y-81798412D01*
X197924003Y-81890566D01*
X197924005Y-81890566D01*
X197924008Y-81890568D01*
X198015221Y-81920205D01*
X198148631Y-81963553D01*
X198381903Y-82000500D01*
X198381908Y-82000500D01*
X198618097Y-82000500D01*
X198851368Y-81963553D01*
X199075992Y-81890568D01*
X199286433Y-81783343D01*
X199477510Y-81644517D01*
X199644517Y-81477510D01*
X199783343Y-81286433D01*
X199890568Y-81075992D01*
X199963553Y-80851368D01*
X199977773Y-80761585D01*
X200000500Y-80618097D01*
X200000500Y-80381902D01*
X203499500Y-80381902D01*
X203499500Y-80618097D01*
X203536446Y-80851368D01*
X203609433Y-81075996D01*
X203659223Y-81173713D01*
X203716657Y-81286433D01*
X203855483Y-81477510D01*
X204022490Y-81644517D01*
X204213567Y-81783343D01*
X204243142Y-81798412D01*
X204424003Y-81890566D01*
X204424005Y-81890566D01*
X204424008Y-81890568D01*
X204515221Y-81920205D01*
X204648631Y-81963553D01*
X204881903Y-82000500D01*
X204881908Y-82000500D01*
X205118097Y-82000500D01*
X205351368Y-81963553D01*
X205575992Y-81890568D01*
X205786433Y-81783343D01*
X205977510Y-81644517D01*
X206144517Y-81477510D01*
X206283343Y-81286433D01*
X206390568Y-81075992D01*
X206463553Y-80851368D01*
X206477773Y-80761585D01*
X206500500Y-80618097D01*
X206500500Y-80381902D01*
X206463553Y-80148631D01*
X206394435Y-79935909D01*
X206390568Y-79924008D01*
X206390566Y-79924005D01*
X206390566Y-79924003D01*
X206313997Y-79773729D01*
X206283343Y-79713567D01*
X206144517Y-79522490D01*
X205977510Y-79355483D01*
X205786433Y-79216657D01*
X205749161Y-79197666D01*
X205575996Y-79109433D01*
X205351368Y-79036446D01*
X205118097Y-78999500D01*
X205118092Y-78999500D01*
X204881908Y-78999500D01*
X204881903Y-78999500D01*
X204648631Y-79036446D01*
X204424003Y-79109433D01*
X204213566Y-79216657D01*
X204104550Y-79295862D01*
X204022490Y-79355483D01*
X204022488Y-79355485D01*
X204022487Y-79355485D01*
X203855485Y-79522487D01*
X203855485Y-79522488D01*
X203855483Y-79522490D01*
X203795862Y-79604550D01*
X203716657Y-79713566D01*
X203609433Y-79924003D01*
X203536446Y-80148631D01*
X203499500Y-80381902D01*
X200000500Y-80381902D01*
X199963553Y-80148631D01*
X199894435Y-79935909D01*
X199890568Y-79924008D01*
X199890566Y-79924005D01*
X199890566Y-79924003D01*
X199813997Y-79773729D01*
X199783343Y-79713567D01*
X199644517Y-79522490D01*
X199477510Y-79355483D01*
X199286433Y-79216657D01*
X199249161Y-79197666D01*
X199075996Y-79109433D01*
X198851368Y-79036446D01*
X198618097Y-78999500D01*
X198618092Y-78999500D01*
X198381908Y-78999500D01*
X198381903Y-78999500D01*
X198148631Y-79036446D01*
X197924003Y-79109433D01*
X197713566Y-79216657D01*
X197604550Y-79295862D01*
X197522490Y-79355483D01*
X197522488Y-79355485D01*
X197522487Y-79355485D01*
X197355485Y-79522487D01*
X197355485Y-79522488D01*
X197355483Y-79522490D01*
X197295862Y-79604550D01*
X197216657Y-79713566D01*
X197109433Y-79924003D01*
X197036446Y-80148631D01*
X196999500Y-80381902D01*
X150082447Y-80381902D01*
X150086286Y-80380312D01*
X150137509Y-80346084D01*
X150188733Y-80311858D01*
X150275858Y-80224733D01*
X150275858Y-80224731D01*
X150286066Y-80214524D01*
X150286067Y-80214521D01*
X152390858Y-78109733D01*
X152459312Y-78007285D01*
X152486932Y-77940603D01*
X152506463Y-77893452D01*
X152515603Y-77847500D01*
X152530501Y-77772606D01*
X152530501Y-77649393D01*
X152530501Y-77644283D01*
X152530500Y-77644257D01*
X152530500Y-77012781D01*
X152550185Y-76945742D01*
X152602989Y-76899987D01*
X152667756Y-76889492D01*
X152677127Y-76890500D01*
X152951902Y-76890499D01*
X153018941Y-76910183D01*
X153039583Y-76926818D01*
X155003139Y-78890374D01*
X155003149Y-78890385D01*
X155007479Y-78894715D01*
X155007480Y-78894716D01*
X155119284Y-79006520D01*
X155119286Y-79006521D01*
X155171120Y-79036447D01*
X155171119Y-79036447D01*
X155171122Y-79036448D01*
X155256209Y-79085574D01*
X155256210Y-79085575D01*
X155256212Y-79085575D01*
X155256215Y-79085577D01*
X155408943Y-79126501D01*
X155408946Y-79126501D01*
X155574653Y-79126501D01*
X155574669Y-79126500D01*
X177673331Y-79126500D01*
X177673347Y-79126501D01*
X177680943Y-79126501D01*
X177839054Y-79126501D01*
X177839057Y-79126501D01*
X177991785Y-79085577D01*
X178076880Y-79036447D01*
X178128716Y-79006520D01*
X178240520Y-78894716D01*
X178240520Y-78894714D01*
X178250724Y-78884511D01*
X178250727Y-78884506D01*
X182598520Y-74536716D01*
X182677577Y-74399784D01*
X182718501Y-74247057D01*
X182718501Y-74088942D01*
X182718501Y-74081347D01*
X182718500Y-74081329D01*
X182718500Y-73462486D01*
X185100001Y-73462486D01*
X185110494Y-73565197D01*
X185165641Y-73731619D01*
X185165643Y-73731624D01*
X185257684Y-73880845D01*
X185381654Y-74004815D01*
X185530875Y-74096856D01*
X185530880Y-74096858D01*
X185697302Y-74152005D01*
X185697309Y-74152006D01*
X185800019Y-74162499D01*
X186249999Y-74162499D01*
X186750000Y-74162499D01*
X187199972Y-74162499D01*
X187199986Y-74162498D01*
X187302697Y-74152005D01*
X187469119Y-74096858D01*
X187469124Y-74096856D01*
X187618345Y-74004815D01*
X187742315Y-73880845D01*
X187834356Y-73731624D01*
X187834358Y-73731619D01*
X187889505Y-73565197D01*
X187889506Y-73565190D01*
X187899999Y-73462486D01*
X187900000Y-73462473D01*
X187900000Y-73250000D01*
X186750000Y-73250000D01*
X186750000Y-74162499D01*
X186249999Y-74162499D01*
X186250000Y-74162498D01*
X186250000Y-73250000D01*
X185100001Y-73250000D01*
X185100001Y-73462486D01*
X182718500Y-73462486D01*
X182718500Y-72537513D01*
X185100000Y-72537513D01*
X185100000Y-72750000D01*
X186250000Y-72750000D01*
X186750000Y-72750000D01*
X187899999Y-72750000D01*
X187899999Y-72537528D01*
X187899998Y-72537513D01*
X187889505Y-72434802D01*
X187834358Y-72268380D01*
X187834353Y-72268369D01*
X187769945Y-72163948D01*
X187769944Y-72163947D01*
X187742317Y-72119156D01*
X187725316Y-72102155D01*
X188280000Y-72102155D01*
X188280000Y-72750000D01*
X189196988Y-72750000D01*
X189164075Y-72807007D01*
X189130000Y-72934174D01*
X189130000Y-73065826D01*
X189164075Y-73192993D01*
X189196988Y-73250000D01*
X188280000Y-73250000D01*
X188280000Y-73897844D01*
X188286401Y-73957372D01*
X188286403Y-73957379D01*
X188336645Y-74092086D01*
X188336649Y-74092093D01*
X188422809Y-74207187D01*
X188422812Y-74207190D01*
X188537906Y-74293350D01*
X188537913Y-74293354D01*
X188672620Y-74343596D01*
X188672627Y-74343598D01*
X188732155Y-74349999D01*
X188732172Y-74350000D01*
X189380000Y-74350000D01*
X189380000Y-73433012D01*
X189437007Y-73465925D01*
X189564174Y-73500000D01*
X189695826Y-73500000D01*
X189822993Y-73465925D01*
X189880000Y-73433012D01*
X189880000Y-74350000D01*
X190527828Y-74350000D01*
X190527844Y-74349999D01*
X190587372Y-74343598D01*
X190587379Y-74343596D01*
X190722086Y-74293354D01*
X190722093Y-74293350D01*
X190837187Y-74207190D01*
X190837190Y-74207187D01*
X190923350Y-74092093D01*
X190923354Y-74092086D01*
X190945529Y-74032632D01*
X190984319Y-73859390D01*
X190984682Y-73858734D01*
X190984642Y-73857984D01*
X191017642Y-73798802D01*
X191687037Y-73129408D01*
X191704075Y-73192993D01*
X191769901Y-73307007D01*
X191862993Y-73400099D01*
X191977007Y-73465925D01*
X192040590Y-73482962D01*
X191408282Y-74115269D01*
X191408282Y-74115270D01*
X191462449Y-74154624D01*
X191651782Y-74251095D01*
X191853870Y-74316757D01*
X192063754Y-74350000D01*
X192276246Y-74350000D01*
X192486127Y-74316757D01*
X192486130Y-74316757D01*
X192688217Y-74251095D01*
X192877554Y-74154622D01*
X192931716Y-74115270D01*
X192931717Y-74115270D01*
X192299408Y-73482962D01*
X192362993Y-73465925D01*
X192477007Y-73400099D01*
X192570099Y-73307007D01*
X192635925Y-73192993D01*
X192652962Y-73129409D01*
X193285270Y-73761717D01*
X193285270Y-73761716D01*
X193324622Y-73707554D01*
X193329514Y-73697954D01*
X193377488Y-73647157D01*
X193445308Y-73630361D01*
X193511444Y-73652897D01*
X193550486Y-73697954D01*
X193555375Y-73707550D01*
X193594728Y-73761716D01*
X194227037Y-73129408D01*
X194244075Y-73192993D01*
X194309901Y-73307007D01*
X194402993Y-73400099D01*
X194517007Y-73465925D01*
X194580590Y-73482962D01*
X193948282Y-74115269D01*
X193948282Y-74115270D01*
X194002449Y-74154624D01*
X194191782Y-74251095D01*
X194393870Y-74316757D01*
X194603754Y-74350000D01*
X194816246Y-74350000D01*
X195026127Y-74316757D01*
X195026130Y-74316757D01*
X195228217Y-74251095D01*
X195417554Y-74154622D01*
X195471716Y-74115270D01*
X195471717Y-74115270D01*
X194839408Y-73482962D01*
X194902993Y-73465925D01*
X195017007Y-73400099D01*
X195110099Y-73307007D01*
X195175925Y-73192993D01*
X195192962Y-73129408D01*
X195825270Y-73761717D01*
X195825270Y-73761716D01*
X195864622Y-73707554D01*
X195869514Y-73697954D01*
X195917488Y-73647157D01*
X195985308Y-73630361D01*
X196051444Y-73652897D01*
X196090486Y-73697954D01*
X196095375Y-73707550D01*
X196134728Y-73761716D01*
X196767037Y-73129408D01*
X196784075Y-73192993D01*
X196849901Y-73307007D01*
X196942993Y-73400099D01*
X197057007Y-73465925D01*
X197120590Y-73482962D01*
X196488282Y-74115269D01*
X196488282Y-74115270D01*
X196542449Y-74154624D01*
X196731782Y-74251095D01*
X196933870Y-74316757D01*
X197143754Y-74350000D01*
X197356246Y-74350000D01*
X197566127Y-74316757D01*
X197566130Y-74316757D01*
X197768217Y-74251095D01*
X197957554Y-74154622D01*
X198011716Y-74115270D01*
X198011717Y-74115270D01*
X197379408Y-73482962D01*
X197442993Y-73465925D01*
X197557007Y-73400099D01*
X197650099Y-73307007D01*
X197715925Y-73192993D01*
X197732962Y-73129408D01*
X198365270Y-73761717D01*
X198365270Y-73761716D01*
X198404622Y-73707554D01*
X198409514Y-73697954D01*
X198457488Y-73647157D01*
X198525308Y-73630361D01*
X198591444Y-73652897D01*
X198630486Y-73697954D01*
X198635375Y-73707550D01*
X198674728Y-73761716D01*
X199307037Y-73129408D01*
X199324075Y-73192993D01*
X199389901Y-73307007D01*
X199482993Y-73400099D01*
X199597007Y-73465925D01*
X199660590Y-73482962D01*
X199028282Y-74115269D01*
X199028282Y-74115270D01*
X199082449Y-74154624D01*
X199271782Y-74251095D01*
X199473870Y-74316757D01*
X199683754Y-74350000D01*
X199896246Y-74350000D01*
X200106127Y-74316757D01*
X200106130Y-74316757D01*
X200308217Y-74251095D01*
X200497554Y-74154622D01*
X200551716Y-74115270D01*
X200551717Y-74115270D01*
X199919408Y-73482962D01*
X199982993Y-73465925D01*
X200097007Y-73400099D01*
X200190099Y-73307007D01*
X200255925Y-73192993D01*
X200272962Y-73129408D01*
X200905270Y-73761717D01*
X200905270Y-73761716D01*
X200944622Y-73707554D01*
X201041095Y-73518217D01*
X201106757Y-73316130D01*
X201106757Y-73316127D01*
X201140000Y-73106246D01*
X201140000Y-72893753D01*
X201106757Y-72683872D01*
X201106757Y-72683869D01*
X201041095Y-72481782D01*
X200944624Y-72292449D01*
X200905270Y-72238282D01*
X200905269Y-72238282D01*
X200272962Y-72870590D01*
X200255925Y-72807007D01*
X200190099Y-72692993D01*
X200097007Y-72599901D01*
X199982993Y-72534075D01*
X199919409Y-72517037D01*
X200551716Y-71884728D01*
X200497550Y-71845375D01*
X200308217Y-71748904D01*
X200106129Y-71683242D01*
X199896246Y-71650000D01*
X199683754Y-71650000D01*
X199473872Y-71683242D01*
X199473869Y-71683242D01*
X199271782Y-71748904D01*
X199082439Y-71845380D01*
X199028282Y-71884727D01*
X199028282Y-71884728D01*
X199660591Y-72517037D01*
X199597007Y-72534075D01*
X199482993Y-72599901D01*
X199389901Y-72692993D01*
X199324075Y-72807007D01*
X199307037Y-72870591D01*
X198674728Y-72238282D01*
X198674727Y-72238282D01*
X198635380Y-72292440D01*
X198630483Y-72302051D01*
X198582506Y-72352845D01*
X198514684Y-72369638D01*
X198448550Y-72347098D01*
X198409516Y-72302048D01*
X198404626Y-72292452D01*
X198365270Y-72238282D01*
X197732962Y-72870590D01*
X197715925Y-72807007D01*
X197650099Y-72692993D01*
X197557007Y-72599901D01*
X197442993Y-72534075D01*
X197379409Y-72517037D01*
X198011716Y-71884728D01*
X197957550Y-71845375D01*
X197768217Y-71748904D01*
X197566129Y-71683242D01*
X197356246Y-71650000D01*
X197143754Y-71650000D01*
X196933872Y-71683242D01*
X196933869Y-71683242D01*
X196731782Y-71748904D01*
X196542439Y-71845380D01*
X196488282Y-71884727D01*
X196488282Y-71884728D01*
X197120591Y-72517037D01*
X197057007Y-72534075D01*
X196942993Y-72599901D01*
X196849901Y-72692993D01*
X196784075Y-72807007D01*
X196767037Y-72870591D01*
X196134728Y-72238282D01*
X196134727Y-72238282D01*
X196095380Y-72292440D01*
X196090483Y-72302051D01*
X196042506Y-72352845D01*
X195974684Y-72369638D01*
X195908550Y-72347098D01*
X195869516Y-72302048D01*
X195864626Y-72292452D01*
X195825270Y-72238282D01*
X195825269Y-72238282D01*
X195192962Y-72870590D01*
X195175925Y-72807007D01*
X195110099Y-72692993D01*
X195017007Y-72599901D01*
X194902993Y-72534075D01*
X194839409Y-72517037D01*
X195471716Y-71884728D01*
X195417550Y-71845375D01*
X195228217Y-71748904D01*
X195026129Y-71683242D01*
X194816246Y-71650000D01*
X194603754Y-71650000D01*
X194393872Y-71683242D01*
X194393869Y-71683242D01*
X194191782Y-71748904D01*
X194002439Y-71845380D01*
X193948282Y-71884727D01*
X193948282Y-71884728D01*
X194580591Y-72517037D01*
X194517007Y-72534075D01*
X194402993Y-72599901D01*
X194309901Y-72692993D01*
X194244075Y-72807007D01*
X194227037Y-72870591D01*
X193594728Y-72238282D01*
X193594727Y-72238282D01*
X193555380Y-72292440D01*
X193550483Y-72302051D01*
X193502506Y-72352845D01*
X193434684Y-72369638D01*
X193368550Y-72347098D01*
X193329516Y-72302048D01*
X193324626Y-72292452D01*
X193285270Y-72238282D01*
X192652962Y-72870590D01*
X192635925Y-72807007D01*
X192570099Y-72692993D01*
X192477007Y-72599901D01*
X192362993Y-72534075D01*
X192299409Y-72517037D01*
X192931716Y-71884728D01*
X192877550Y-71845375D01*
X192688217Y-71748904D01*
X192486129Y-71683242D01*
X192276246Y-71650000D01*
X192063754Y-71650000D01*
X191853872Y-71683242D01*
X191853869Y-71683242D01*
X191651782Y-71748904D01*
X191462439Y-71845380D01*
X191408282Y-71884727D01*
X191408282Y-71884728D01*
X192040591Y-72517037D01*
X191977007Y-72534075D01*
X191862993Y-72599901D01*
X191769901Y-72692993D01*
X191704075Y-72807007D01*
X191687037Y-72870591D01*
X191017642Y-72201196D01*
X190984319Y-72140609D01*
X190945527Y-71967364D01*
X190923354Y-71907913D01*
X190923350Y-71907906D01*
X190837190Y-71792812D01*
X190837187Y-71792809D01*
X190722093Y-71706649D01*
X190722086Y-71706645D01*
X190587379Y-71656403D01*
X190587372Y-71656401D01*
X190527844Y-71650000D01*
X189880000Y-71650000D01*
X189880000Y-72566988D01*
X189822993Y-72534075D01*
X189695826Y-72500000D01*
X189564174Y-72500000D01*
X189437007Y-72534075D01*
X189380000Y-72566988D01*
X189380000Y-71650000D01*
X188732155Y-71650000D01*
X188672627Y-71656401D01*
X188672620Y-71656403D01*
X188537913Y-71706645D01*
X188537906Y-71706649D01*
X188422812Y-71792809D01*
X188422809Y-71792812D01*
X188336649Y-71907906D01*
X188336645Y-71907913D01*
X188286403Y-72042620D01*
X188286401Y-72042627D01*
X188280000Y-72102155D01*
X187725316Y-72102155D01*
X187618345Y-71995184D01*
X187469124Y-71903143D01*
X187469119Y-71903141D01*
X187302697Y-71847994D01*
X187302690Y-71847993D01*
X187199986Y-71837500D01*
X186750000Y-71837500D01*
X186750000Y-72750000D01*
X186250000Y-72750000D01*
X186250000Y-71837500D01*
X185800028Y-71837500D01*
X185800012Y-71837501D01*
X185697302Y-71847994D01*
X185530880Y-71903141D01*
X185530875Y-71903143D01*
X185381654Y-71995184D01*
X185257684Y-72119154D01*
X185165643Y-72268375D01*
X185165641Y-72268380D01*
X185110494Y-72434802D01*
X185110493Y-72434809D01*
X185100000Y-72537513D01*
X182718500Y-72537513D01*
X182718500Y-70627718D01*
X182738185Y-70560679D01*
X182786207Y-70517233D01*
X182825815Y-70497052D01*
X182825815Y-70497051D01*
X182825816Y-70497051D01*
X182952444Y-70405051D01*
X182997786Y-70372109D01*
X182997788Y-70372106D01*
X182997792Y-70372104D01*
X183148104Y-70221792D01*
X183148106Y-70221788D01*
X183148109Y-70221786D01*
X183273048Y-70049820D01*
X183273050Y-70049817D01*
X183273051Y-70049816D01*
X183369557Y-69860412D01*
X183435246Y-69658243D01*
X183468500Y-69448287D01*
X183468500Y-69235713D01*
X183435246Y-69025757D01*
X183369557Y-68823588D01*
X183273051Y-68634184D01*
X183273049Y-68634181D01*
X183273048Y-68634179D01*
X183148109Y-68462213D01*
X182997786Y-68311890D01*
X182825820Y-68186951D01*
X182636414Y-68090444D01*
X182636413Y-68090443D01*
X182636412Y-68090443D01*
X182434243Y-68024754D01*
X182434241Y-68024753D01*
X182434240Y-68024753D01*
X182265042Y-67997955D01*
X182224287Y-67991500D01*
X182011713Y-67991500D01*
X181983006Y-67996046D01*
X181801757Y-68024753D01*
X181759473Y-68038492D01*
X181689632Y-68040486D01*
X181633476Y-68008241D01*
X181053590Y-67428355D01*
X181053588Y-67428352D01*
X180934717Y-67309481D01*
X180934716Y-67309480D01*
X180844316Y-67257288D01*
X180797785Y-67230423D01*
X180645057Y-67189499D01*
X180486943Y-67189499D01*
X180479347Y-67189499D01*
X180479331Y-67189500D01*
X174508909Y-67189500D01*
X174508893Y-67189499D01*
X174501297Y-67189499D01*
X174343183Y-67189499D01*
X174228637Y-67220192D01*
X174190454Y-67230423D01*
X174143924Y-67257288D01*
X174143923Y-67257288D01*
X174053527Y-67309477D01*
X174053522Y-67309481D01*
X173032131Y-68330873D01*
X172970808Y-68364358D01*
X172901116Y-68359374D01*
X172856769Y-68330873D01*
X172837786Y-68311890D01*
X172665820Y-68186951D01*
X172476414Y-68090444D01*
X172476413Y-68090443D01*
X172476412Y-68090443D01*
X172274243Y-68024754D01*
X172274241Y-68024753D01*
X172274240Y-68024753D01*
X172105042Y-67997955D01*
X172064287Y-67991500D01*
X171851713Y-67991500D01*
X171810958Y-67997955D01*
X171641760Y-68024753D01*
X171641757Y-68024754D01*
X171446461Y-68088210D01*
X171439585Y-68090444D01*
X171250179Y-68186951D01*
X171078213Y-68311890D01*
X170927890Y-68462213D01*
X170802949Y-68634182D01*
X170798202Y-68643499D01*
X170750227Y-68694293D01*
X170682405Y-68711087D01*
X170616271Y-68688548D01*
X170577234Y-68643495D01*
X170572626Y-68634452D01*
X170533270Y-68580282D01*
X170533269Y-68580282D01*
X169900962Y-69212590D01*
X169883925Y-69149007D01*
X169818099Y-69034993D01*
X169725007Y-68941901D01*
X169610993Y-68876075D01*
X169547408Y-68859037D01*
X170179716Y-68226728D01*
X170125550Y-68187375D01*
X169936217Y-68090904D01*
X169734128Y-68025242D01*
X169561847Y-67997955D01*
X169498712Y-67968026D01*
X169461781Y-67908714D01*
X169462779Y-67838851D01*
X169493560Y-67787807D01*
X170465136Y-66816232D01*
X170520391Y-66733535D01*
X170547268Y-66693311D01*
X170570702Y-66636736D01*
X170603843Y-66556728D01*
X170632684Y-66411733D01*
X170632684Y-66263898D01*
X170632684Y-65249499D01*
X170652369Y-65182460D01*
X170705173Y-65136705D01*
X170756684Y-65125499D01*
X171350002Y-65125499D01*
X171350008Y-65125499D01*
X171452797Y-65114999D01*
X171619334Y-65059814D01*
X171768656Y-64967712D01*
X171892712Y-64843656D01*
X171984814Y-64694334D01*
X172039999Y-64527797D01*
X172050500Y-64425009D01*
X172050499Y-63074992D01*
X172050498Y-63074983D01*
X172849500Y-63074983D01*
X172849500Y-64425001D01*
X172849501Y-64425018D01*
X172860000Y-64527796D01*
X172860001Y-64527799D01*
X172915185Y-64694331D01*
X172915187Y-64694336D01*
X172930604Y-64719331D01*
X173007288Y-64843656D01*
X173131344Y-64967712D01*
X173280666Y-65059814D01*
X173447203Y-65114999D01*
X173549991Y-65125500D01*
X174450008Y-65125499D01*
X174450016Y-65125498D01*
X174450019Y-65125498D01*
X174512582Y-65119107D01*
X174552797Y-65114999D01*
X174719334Y-65059814D01*
X174868656Y-64967712D01*
X174992712Y-64843656D01*
X175084814Y-64694334D01*
X175120879Y-64585494D01*
X175134749Y-64565463D01*
X175144872Y-64543297D01*
X175154284Y-64537248D01*
X175160652Y-64528051D01*
X175183151Y-64518696D01*
X175203650Y-64505523D01*
X175220750Y-64503064D01*
X175225167Y-64501228D01*
X175238585Y-64500500D01*
X175445396Y-64500500D01*
X175492844Y-64509937D01*
X175516503Y-64519737D01*
X175516508Y-64519738D01*
X175516511Y-64519739D01*
X175671153Y-64550499D01*
X175671156Y-64550500D01*
X175671158Y-64550500D01*
X175828844Y-64550500D01*
X175828845Y-64550499D01*
X175942987Y-64527795D01*
X175983488Y-64519739D01*
X175983489Y-64519738D01*
X175983497Y-64519737D01*
X176007155Y-64509937D01*
X176054604Y-64500500D01*
X177157821Y-64500500D01*
X177222917Y-64518961D01*
X177282659Y-64555810D01*
X177282660Y-64555810D01*
X177282666Y-64555814D01*
X177449203Y-64610999D01*
X177551991Y-64621500D01*
X178452008Y-64621499D01*
X178452016Y-64621498D01*
X178452019Y-64621498D01*
X178508302Y-64615748D01*
X178554797Y-64610999D01*
X178721334Y-64555814D01*
X178870656Y-64463712D01*
X178994712Y-64339656D01*
X179086814Y-64190334D01*
X179141999Y-64023797D01*
X179152500Y-63921009D01*
X179152499Y-62570992D01*
X179152498Y-62570983D01*
X179951500Y-62570983D01*
X179951500Y-63921001D01*
X179951501Y-63921018D01*
X179962000Y-64023796D01*
X179962001Y-64023799D01*
X180017185Y-64190331D01*
X180017187Y-64190336D01*
X180030295Y-64211588D01*
X180109288Y-64339656D01*
X180233344Y-64463712D01*
X180382666Y-64555814D01*
X180549203Y-64610999D01*
X180651991Y-64621500D01*
X181552008Y-64621499D01*
X181552016Y-64621498D01*
X181552019Y-64621498D01*
X181608302Y-64615748D01*
X181654797Y-64610999D01*
X181821334Y-64555814D01*
X181970656Y-64463712D01*
X182094712Y-64339656D01*
X182101760Y-64328228D01*
X182153707Y-64281503D01*
X182222669Y-64270279D01*
X182286752Y-64298121D01*
X182294981Y-64305642D01*
X182381654Y-64392315D01*
X182530875Y-64484356D01*
X182530880Y-64484358D01*
X182697302Y-64539505D01*
X182697309Y-64539506D01*
X182800019Y-64549999D01*
X183649999Y-64549999D01*
X183650000Y-64549998D01*
X183650000Y-63374000D01*
X183669685Y-63306961D01*
X183722489Y-63261206D01*
X183774000Y-63250000D01*
X184026000Y-63250000D01*
X184093039Y-63269685D01*
X184138794Y-63322489D01*
X184150000Y-63374000D01*
X184150000Y-64549999D01*
X184999972Y-64549999D01*
X184999986Y-64549998D01*
X185102697Y-64539505D01*
X185269119Y-64484358D01*
X185269124Y-64484356D01*
X185418345Y-64392315D01*
X185537819Y-64272842D01*
X185599142Y-64239357D01*
X185668834Y-64244341D01*
X185724767Y-64286213D01*
X185749184Y-64351677D01*
X185749500Y-64360523D01*
X185749500Y-68615630D01*
X185729815Y-68682669D01*
X185677011Y-68728424D01*
X185664505Y-68733336D01*
X185530666Y-68777686D01*
X185530663Y-68777687D01*
X185381342Y-68869789D01*
X185257289Y-68993842D01*
X185165187Y-69143163D01*
X185165185Y-69143168D01*
X185137349Y-69227170D01*
X185110001Y-69309703D01*
X185110001Y-69309704D01*
X185110000Y-69309704D01*
X185099500Y-69412483D01*
X185099500Y-70337501D01*
X185099501Y-70337519D01*
X185110000Y-70440296D01*
X185110001Y-70440299D01*
X185165185Y-70606831D01*
X185165187Y-70606836D01*
X185172253Y-70618291D01*
X185257288Y-70756156D01*
X185381344Y-70880212D01*
X185530666Y-70972314D01*
X185697203Y-71027499D01*
X185799991Y-71038000D01*
X187200008Y-71037999D01*
X187302797Y-71027499D01*
X187469334Y-70972314D01*
X187618656Y-70880212D01*
X187742712Y-70756156D01*
X187786970Y-70684402D01*
X187838917Y-70637679D01*
X187892508Y-70625500D01*
X189038920Y-70625500D01*
X189152620Y-70602882D01*
X189176813Y-70600499D01*
X190487871Y-70600499D01*
X190487872Y-70600499D01*
X190547483Y-70594091D01*
X190682331Y-70543796D01*
X190797546Y-70457546D01*
X190883796Y-70342331D01*
X190932810Y-70210916D01*
X190974681Y-70154984D01*
X191040145Y-70130566D01*
X191108418Y-70145417D01*
X191136673Y-70166569D01*
X191250213Y-70280109D01*
X191422179Y-70405048D01*
X191422181Y-70405049D01*
X191422184Y-70405051D01*
X191611588Y-70501557D01*
X191813757Y-70567246D01*
X192023713Y-70600500D01*
X192023714Y-70600500D01*
X192236286Y-70600500D01*
X192236287Y-70600500D01*
X192446243Y-70567246D01*
X192648412Y-70501557D01*
X192837816Y-70405051D01*
X192924138Y-70342335D01*
X193009786Y-70280109D01*
X193009788Y-70280106D01*
X193009792Y-70280104D01*
X193160104Y-70129792D01*
X193160108Y-70129786D01*
X193216903Y-70051615D01*
X193221234Y-70048274D01*
X193223508Y-70043297D01*
X193248610Y-70027164D01*
X193272233Y-70008949D01*
X193278904Y-70007696D01*
X193282286Y-70005523D01*
X193317221Y-70000500D01*
X193482779Y-70000500D01*
X193549818Y-70020185D01*
X193583097Y-70051615D01*
X193639892Y-70129788D01*
X193790213Y-70280109D01*
X193962179Y-70405048D01*
X193962181Y-70405049D01*
X193962184Y-70405051D01*
X194151588Y-70501557D01*
X194353757Y-70567246D01*
X194563713Y-70600500D01*
X194563714Y-70600500D01*
X194776286Y-70600500D01*
X194776287Y-70600500D01*
X194986243Y-70567246D01*
X195188412Y-70501557D01*
X195377816Y-70405051D01*
X195464138Y-70342335D01*
X195549786Y-70280109D01*
X195549788Y-70280106D01*
X195549792Y-70280104D01*
X195700104Y-70129792D01*
X195700108Y-70129786D01*
X195756903Y-70051615D01*
X195761234Y-70048274D01*
X195763508Y-70043297D01*
X195788610Y-70027164D01*
X195812233Y-70008949D01*
X195818904Y-70007696D01*
X195822286Y-70005523D01*
X195857221Y-70000500D01*
X196022779Y-70000500D01*
X196089818Y-70020185D01*
X196123097Y-70051615D01*
X196179892Y-70129788D01*
X196330213Y-70280109D01*
X196502179Y-70405048D01*
X196502181Y-70405049D01*
X196502184Y-70405051D01*
X196691588Y-70501557D01*
X196893757Y-70567246D01*
X197103713Y-70600500D01*
X197103714Y-70600500D01*
X197316286Y-70600500D01*
X197316287Y-70600500D01*
X197526243Y-70567246D01*
X197728412Y-70501557D01*
X197917816Y-70405051D01*
X198004138Y-70342335D01*
X198089786Y-70280109D01*
X198089788Y-70280106D01*
X198089792Y-70280104D01*
X198240104Y-70129792D01*
X198240108Y-70129786D01*
X198296903Y-70051615D01*
X198301234Y-70048274D01*
X198303508Y-70043297D01*
X198328610Y-70027164D01*
X198352233Y-70008949D01*
X198358904Y-70007696D01*
X198362286Y-70005523D01*
X198397221Y-70000500D01*
X198562779Y-70000500D01*
X198629818Y-70020185D01*
X198663097Y-70051615D01*
X198719892Y-70129788D01*
X198870213Y-70280109D01*
X199042179Y-70405048D01*
X199042181Y-70405049D01*
X199042184Y-70405051D01*
X199231588Y-70501557D01*
X199433757Y-70567246D01*
X199643713Y-70600500D01*
X199643714Y-70600500D01*
X199856286Y-70600500D01*
X199856287Y-70600500D01*
X200066243Y-70567246D01*
X200268412Y-70501557D01*
X200457816Y-70405051D01*
X200544138Y-70342335D01*
X200629786Y-70280109D01*
X200629788Y-70280106D01*
X200629792Y-70280104D01*
X200780104Y-70129792D01*
X200780106Y-70129788D01*
X200780109Y-70129786D01*
X200905048Y-69957820D01*
X200905047Y-69957820D01*
X200905051Y-69957816D01*
X201001557Y-69768412D01*
X201067246Y-69566243D01*
X201100500Y-69356287D01*
X201100500Y-69143713D01*
X201067246Y-68933757D01*
X201001557Y-68731588D01*
X200905051Y-68542184D01*
X200905049Y-68542181D01*
X200905048Y-68542179D01*
X200780109Y-68370213D01*
X200629786Y-68219890D01*
X200457820Y-68094951D01*
X200268414Y-67998444D01*
X200268413Y-67998443D01*
X200268412Y-67998443D01*
X200066243Y-67932754D01*
X200066241Y-67932753D01*
X200066240Y-67932753D01*
X199904957Y-67907208D01*
X199856287Y-67899500D01*
X199643713Y-67899500D01*
X199595042Y-67907208D01*
X199433760Y-67932753D01*
X199332672Y-67965598D01*
X199277612Y-67983489D01*
X199231585Y-67998444D01*
X199042179Y-68094951D01*
X198870213Y-68219890D01*
X198719892Y-68370211D01*
X198663097Y-68448385D01*
X198658765Y-68451725D01*
X198656492Y-68456703D01*
X198631389Y-68472835D01*
X198607767Y-68491051D01*
X198601095Y-68492303D01*
X198597714Y-68494477D01*
X198562779Y-68499500D01*
X198397221Y-68499500D01*
X198330182Y-68479815D01*
X198296903Y-68448385D01*
X198240107Y-68370211D01*
X198089786Y-68219890D01*
X197917820Y-68094951D01*
X197728414Y-67998444D01*
X197728413Y-67998443D01*
X197728412Y-67998443D01*
X197526243Y-67932754D01*
X197526241Y-67932753D01*
X197526240Y-67932753D01*
X197364957Y-67907208D01*
X197316287Y-67899500D01*
X197103713Y-67899500D01*
X197055042Y-67907208D01*
X196893760Y-67932753D01*
X196792672Y-67965598D01*
X196737612Y-67983489D01*
X196691585Y-67998444D01*
X196502179Y-68094951D01*
X196330213Y-68219890D01*
X196179892Y-68370211D01*
X196123097Y-68448385D01*
X196118765Y-68451725D01*
X196116492Y-68456703D01*
X196091389Y-68472835D01*
X196067767Y-68491051D01*
X196061095Y-68492303D01*
X196057714Y-68494477D01*
X196022779Y-68499500D01*
X195857221Y-68499500D01*
X195790182Y-68479815D01*
X195756903Y-68448385D01*
X195700107Y-68370211D01*
X195549786Y-68219890D01*
X195377820Y-68094951D01*
X195188414Y-67998444D01*
X195188413Y-67998443D01*
X195188412Y-67998443D01*
X194986243Y-67932754D01*
X194986241Y-67932753D01*
X194986240Y-67932753D01*
X194824957Y-67907208D01*
X194776287Y-67899500D01*
X194563713Y-67899500D01*
X194515042Y-67907208D01*
X194353760Y-67932753D01*
X194252672Y-67965598D01*
X194197612Y-67983489D01*
X194151585Y-67998444D01*
X193962179Y-68094951D01*
X193790213Y-68219890D01*
X193639892Y-68370211D01*
X193583097Y-68448385D01*
X193578765Y-68451725D01*
X193576492Y-68456703D01*
X193551389Y-68472835D01*
X193527767Y-68491051D01*
X193521095Y-68492303D01*
X193517714Y-68494477D01*
X193482779Y-68499500D01*
X193317221Y-68499500D01*
X193250182Y-68479815D01*
X193216903Y-68448385D01*
X193160107Y-68370211D01*
X193009786Y-68219890D01*
X192837820Y-68094951D01*
X192648414Y-67998444D01*
X192648413Y-67998443D01*
X192648412Y-67998443D01*
X192446243Y-67932754D01*
X192446241Y-67932753D01*
X192446240Y-67932753D01*
X192284957Y-67907208D01*
X192236287Y-67899500D01*
X192023713Y-67899500D01*
X191975042Y-67907208D01*
X191813760Y-67932753D01*
X191712672Y-67965598D01*
X191657612Y-67983489D01*
X191611585Y-67998444D01*
X191422179Y-68094951D01*
X191250215Y-68219889D01*
X191136673Y-68333431D01*
X191075350Y-68366915D01*
X191005658Y-68361931D01*
X190949725Y-68320059D01*
X190932810Y-68289082D01*
X190883797Y-68157671D01*
X190883793Y-68157664D01*
X190797547Y-68042455D01*
X190797544Y-68042452D01*
X190682335Y-67956206D01*
X190682328Y-67956202D01*
X190547482Y-67905908D01*
X190547483Y-67905908D01*
X190487883Y-67899501D01*
X190487881Y-67899500D01*
X190487873Y-67899500D01*
X190487864Y-67899500D01*
X188692129Y-67899500D01*
X188692123Y-67899501D01*
X188632516Y-67905908D01*
X188497671Y-67956202D01*
X188497664Y-67956206D01*
X188382455Y-68042452D01*
X188382452Y-68042455D01*
X188296206Y-68157664D01*
X188296202Y-68157671D01*
X188245908Y-68292517D01*
X188239501Y-68352116D01*
X188239500Y-68352135D01*
X188239500Y-69000500D01*
X188236949Y-69009185D01*
X188238238Y-69018147D01*
X188227259Y-69042187D01*
X188219815Y-69067539D01*
X188212974Y-69073466D01*
X188209213Y-69081703D01*
X188186978Y-69095992D01*
X188167011Y-69113294D01*
X188156496Y-69115581D01*
X188150435Y-69119477D01*
X188115500Y-69124500D01*
X187892508Y-69124500D01*
X187825469Y-69104815D01*
X187786969Y-69065597D01*
X187769185Y-69036764D01*
X187742712Y-68993844D01*
X187618656Y-68869788D01*
X187507846Y-68801440D01*
X187469336Y-68777687D01*
X187469335Y-68777686D01*
X187469334Y-68777686D01*
X187335495Y-68733336D01*
X187278051Y-68693563D01*
X187251228Y-68629047D01*
X187250500Y-68615630D01*
X187250500Y-64674499D01*
X187270185Y-64607460D01*
X187322989Y-64561705D01*
X187374500Y-64550499D01*
X188600002Y-64550499D01*
X188600008Y-64550499D01*
X188702797Y-64539999D01*
X188869334Y-64484814D01*
X189018656Y-64392712D01*
X189142712Y-64268656D01*
X189234814Y-64119334D01*
X189289999Y-63952797D01*
X189300500Y-63850009D01*
X189300499Y-62649992D01*
X189289999Y-62547203D01*
X189234814Y-62380666D01*
X189142712Y-62231344D01*
X189018656Y-62107288D01*
X188923347Y-62048501D01*
X188869336Y-62015187D01*
X188869331Y-62015185D01*
X188867862Y-62014698D01*
X188702797Y-61960001D01*
X188702795Y-61960000D01*
X188600016Y-61949500D01*
X188600009Y-61949500D01*
X188374500Y-61949500D01*
X188307461Y-61929815D01*
X188261706Y-61877011D01*
X188250500Y-61825500D01*
X188250500Y-61562732D01*
X188270185Y-61495693D01*
X188322989Y-61449938D01*
X188392147Y-61439994D01*
X188421950Y-61448170D01*
X188488503Y-61475737D01*
X188613150Y-61500531D01*
X188643153Y-61506499D01*
X188643156Y-61506500D01*
X188643158Y-61506500D01*
X188800844Y-61506500D01*
X188800845Y-61506499D01*
X188955497Y-61475737D01*
X189101179Y-61415394D01*
X189232289Y-61327789D01*
X189343789Y-61216289D01*
X189431394Y-61085179D01*
X189434953Y-61076588D01*
X189468481Y-60995643D01*
X189491737Y-60939497D01*
X189522500Y-60784842D01*
X189522500Y-60627158D01*
X189522500Y-60627155D01*
X189522499Y-60627153D01*
X189491739Y-60472511D01*
X189491738Y-60472508D01*
X189491737Y-60472503D01*
X189486029Y-60458724D01*
X189478563Y-60389256D01*
X189509839Y-60326778D01*
X189569928Y-60291126D01*
X189570422Y-60291001D01*
X189728693Y-60251641D01*
X189899296Y-60167030D01*
X190047722Y-60047722D01*
X190167030Y-59899296D01*
X190251641Y-59728693D01*
X190297600Y-59543889D01*
X190300500Y-59501123D01*
X190300499Y-58098878D01*
X190297600Y-58056111D01*
X190251641Y-57871307D01*
X190217984Y-57803443D01*
X190167032Y-57700707D01*
X190167030Y-57700704D01*
X190047722Y-57552278D01*
X190047721Y-57552277D01*
X189899295Y-57432969D01*
X189869405Y-57418145D01*
X189857742Y-57407367D01*
X189843297Y-57400770D01*
X189832609Y-57384139D01*
X189818092Y-57370723D01*
X189813645Y-57354630D01*
X189805523Y-57341992D01*
X189800500Y-57307057D01*
X189800500Y-57062228D01*
X189820185Y-56995189D01*
X189836814Y-56974552D01*
X190473880Y-56337486D01*
X191600001Y-56337486D01*
X191610494Y-56440197D01*
X191665641Y-56606619D01*
X191665643Y-56606624D01*
X191757684Y-56755845D01*
X191881654Y-56879815D01*
X192030875Y-56971856D01*
X192030880Y-56971858D01*
X192197302Y-57027005D01*
X192197309Y-57027006D01*
X192300019Y-57037499D01*
X192749999Y-57037499D01*
X193250000Y-57037499D01*
X193699972Y-57037499D01*
X193699986Y-57037498D01*
X193802697Y-57027005D01*
X193969119Y-56971858D01*
X193969124Y-56971856D01*
X194118345Y-56879815D01*
X194242315Y-56755845D01*
X194334356Y-56606624D01*
X194334358Y-56606619D01*
X194389505Y-56440197D01*
X194389506Y-56440190D01*
X194399999Y-56337486D01*
X194400000Y-56337473D01*
X194400000Y-56125000D01*
X193250000Y-56125000D01*
X193250000Y-57037499D01*
X192749999Y-57037499D01*
X192750000Y-57037498D01*
X192750000Y-56125000D01*
X191600001Y-56125000D01*
X191600001Y-56337486D01*
X190473880Y-56337486D01*
X191388320Y-55423046D01*
X191449642Y-55389562D01*
X191519334Y-55394546D01*
X191575267Y-55436418D01*
X191599684Y-55501882D01*
X191600000Y-55510728D01*
X191600000Y-55625000D01*
X192750000Y-55625000D01*
X193250000Y-55625000D01*
X194399999Y-55625000D01*
X194399999Y-55412528D01*
X194399998Y-55412513D01*
X194389505Y-55309802D01*
X194334358Y-55143380D01*
X194334356Y-55143375D01*
X194242315Y-54994154D01*
X194118345Y-54870184D01*
X193969124Y-54778143D01*
X193969119Y-54778141D01*
X193802697Y-54722994D01*
X193802690Y-54722993D01*
X193699986Y-54712500D01*
X193250000Y-54712500D01*
X193250000Y-55625000D01*
X192750000Y-55625000D01*
X192750000Y-54712500D01*
X192398227Y-54712500D01*
X192331188Y-54692815D01*
X192285433Y-54640011D01*
X192275489Y-54570853D01*
X192304514Y-54507297D01*
X192310529Y-54500836D01*
X192862048Y-53949317D01*
X192923371Y-53915833D01*
X192949729Y-53912999D01*
X193700002Y-53912999D01*
X193700008Y-53912999D01*
X193802797Y-53902499D01*
X193969334Y-53847314D01*
X194118656Y-53755212D01*
X194242712Y-53631156D01*
X194334814Y-53481834D01*
X194389999Y-53315297D01*
X194400500Y-53212509D01*
X194400499Y-52381902D01*
X196999500Y-52381902D01*
X196999500Y-52618097D01*
X197036446Y-52851368D01*
X197109433Y-53075996D01*
X197178994Y-53212516D01*
X197216657Y-53286433D01*
X197355483Y-53477510D01*
X197522490Y-53644517D01*
X197713567Y-53783343D01*
X197783968Y-53819214D01*
X197924003Y-53890566D01*
X197924005Y-53890566D01*
X197924008Y-53890568D01*
X198044412Y-53929689D01*
X198148631Y-53963553D01*
X198381903Y-54000500D01*
X198381908Y-54000500D01*
X198618097Y-54000500D01*
X198851368Y-53963553D01*
X199075992Y-53890568D01*
X199286433Y-53783343D01*
X199477510Y-53644517D01*
X199644517Y-53477510D01*
X199783343Y-53286433D01*
X199890568Y-53075992D01*
X199963553Y-52851368D01*
X200000500Y-52618097D01*
X200000500Y-52381902D01*
X203499500Y-52381902D01*
X203499500Y-52618097D01*
X203536446Y-52851368D01*
X203609433Y-53075996D01*
X203678994Y-53212516D01*
X203716657Y-53286433D01*
X203855483Y-53477510D01*
X204022490Y-53644517D01*
X204213567Y-53783343D01*
X204283968Y-53819214D01*
X204424003Y-53890566D01*
X204424005Y-53890566D01*
X204424008Y-53890568D01*
X204544412Y-53929689D01*
X204648631Y-53963553D01*
X204881903Y-54000500D01*
X204881908Y-54000500D01*
X205118097Y-54000500D01*
X205351368Y-53963553D01*
X205575992Y-53890568D01*
X205786433Y-53783343D01*
X205977510Y-53644517D01*
X206144517Y-53477510D01*
X206283343Y-53286433D01*
X206390568Y-53075992D01*
X206463553Y-52851368D01*
X206500500Y-52618097D01*
X206500500Y-52381902D01*
X206463553Y-52148631D01*
X206425443Y-52031342D01*
X206390568Y-51924008D01*
X206390566Y-51924005D01*
X206390566Y-51924003D01*
X206301907Y-51750001D01*
X206283343Y-51713567D01*
X206144517Y-51522490D01*
X205977510Y-51355483D01*
X205786433Y-51216657D01*
X205575996Y-51109433D01*
X205351368Y-51036446D01*
X205118097Y-50999500D01*
X205118092Y-50999500D01*
X204881908Y-50999500D01*
X204881903Y-50999500D01*
X204648631Y-51036446D01*
X204424003Y-51109433D01*
X204213566Y-51216657D01*
X204114147Y-51288890D01*
X204022490Y-51355483D01*
X204022488Y-51355485D01*
X204022487Y-51355485D01*
X203855485Y-51522487D01*
X203855485Y-51522488D01*
X203855483Y-51522490D01*
X203808614Y-51587000D01*
X203716657Y-51713566D01*
X203609433Y-51924003D01*
X203536446Y-52148631D01*
X203499500Y-52381902D01*
X200000500Y-52381902D01*
X199963553Y-52148631D01*
X199925443Y-52031342D01*
X199890568Y-51924008D01*
X199890566Y-51924005D01*
X199890566Y-51924003D01*
X199801907Y-51750001D01*
X199783343Y-51713567D01*
X199644517Y-51522490D01*
X199477510Y-51355483D01*
X199286433Y-51216657D01*
X199075996Y-51109433D01*
X198851368Y-51036446D01*
X198618097Y-50999500D01*
X198618092Y-50999500D01*
X198381908Y-50999500D01*
X198381903Y-50999500D01*
X198148631Y-51036446D01*
X197924003Y-51109433D01*
X197713566Y-51216657D01*
X197614147Y-51288890D01*
X197522490Y-51355483D01*
X197522488Y-51355485D01*
X197522487Y-51355485D01*
X197355485Y-51522487D01*
X197355485Y-51522488D01*
X197355483Y-51522490D01*
X197308614Y-51587000D01*
X197216657Y-51713566D01*
X197109433Y-51924003D01*
X197036446Y-52148631D01*
X196999500Y-52381902D01*
X194400499Y-52381902D01*
X194400499Y-52287492D01*
X194389999Y-52184703D01*
X194334814Y-52018166D01*
X194242712Y-51868844D01*
X194118656Y-51744788D01*
X193969334Y-51652686D01*
X193802797Y-51597501D01*
X193802795Y-51597500D01*
X193700010Y-51587000D01*
X192299998Y-51587000D01*
X192299981Y-51587001D01*
X192197203Y-51597500D01*
X192197200Y-51597501D01*
X192030668Y-51652685D01*
X192030663Y-51652687D01*
X191881342Y-51744789D01*
X191757289Y-51868842D01*
X191665187Y-52018163D01*
X191665185Y-52018168D01*
X191637349Y-52102170D01*
X191610001Y-52184703D01*
X191610001Y-52184704D01*
X191610000Y-52184704D01*
X191599500Y-52287483D01*
X191599500Y-53037769D01*
X191579815Y-53104808D01*
X191563181Y-53125450D01*
X188467045Y-56221586D01*
X188427121Y-56281341D01*
X188427119Y-56281344D01*
X188414474Y-56300269D01*
X188384916Y-56344504D01*
X188384912Y-56344511D01*
X188328343Y-56481082D01*
X188328340Y-56481092D01*
X188299500Y-56626079D01*
X188299500Y-57307057D01*
X188279815Y-57374096D01*
X188230595Y-57418145D01*
X188200704Y-57432969D01*
X188052278Y-57552277D01*
X188052277Y-57552278D01*
X187996647Y-57621486D01*
X187939304Y-57661405D01*
X187869482Y-57663985D01*
X187809349Y-57628406D01*
X187803353Y-57621486D01*
X187747722Y-57552278D01*
X187747721Y-57552277D01*
X187599295Y-57432969D01*
X187569405Y-57418145D01*
X187518092Y-57370723D01*
X187500500Y-57307057D01*
X187500500Y-54124499D01*
X187520185Y-54057460D01*
X187572989Y-54011705D01*
X187624500Y-54000499D01*
X188208028Y-54000499D01*
X188208036Y-54000499D01*
X188327418Y-53989886D01*
X188523049Y-53933909D01*
X188703407Y-53839698D01*
X188861109Y-53711109D01*
X188989698Y-53553407D01*
X189083909Y-53373049D01*
X189139886Y-53177418D01*
X189150500Y-53058037D01*
X189150499Y-51941964D01*
X189139886Y-51822582D01*
X189083909Y-51626951D01*
X188989698Y-51446593D01*
X188915408Y-51355483D01*
X188861109Y-51288890D01*
X188703409Y-51160304D01*
X188703410Y-51160304D01*
X188703407Y-51160302D01*
X188523049Y-51066091D01*
X188523048Y-51066090D01*
X188523045Y-51066089D01*
X188405829Y-51032550D01*
X188327418Y-51010114D01*
X188327415Y-51010113D01*
X188327413Y-51010113D01*
X188261102Y-51004217D01*
X188208037Y-50999500D01*
X188208032Y-50999500D01*
X185291971Y-50999500D01*
X185291965Y-50999500D01*
X185291964Y-50999501D01*
X185280316Y-51000536D01*
X185172584Y-51010113D01*
X184976954Y-51066089D01*
X184893979Y-51109432D01*
X184796593Y-51160302D01*
X184796591Y-51160303D01*
X184796590Y-51160304D01*
X184638890Y-51288890D01*
X184510304Y-51446590D01*
X184416089Y-51626954D01*
X184371332Y-51783376D01*
X184362100Y-51815643D01*
X184360114Y-51822583D01*
X184360113Y-51822586D01*
X184349500Y-51941966D01*
X184349500Y-53058028D01*
X184349501Y-53058034D01*
X184360113Y-53177415D01*
X184416089Y-53373045D01*
X184416090Y-53373048D01*
X184416091Y-53373049D01*
X184510302Y-53553407D01*
X184510304Y-53553409D01*
X184638890Y-53711109D01*
X184710005Y-53769095D01*
X184796593Y-53839698D01*
X184976951Y-53933909D01*
X185172582Y-53989886D01*
X185291963Y-54000500D01*
X185875500Y-54000499D01*
X185942539Y-54020183D01*
X185988294Y-54072987D01*
X185999500Y-54124499D01*
X185999500Y-57307057D01*
X185979815Y-57374096D01*
X185930595Y-57418145D01*
X185900704Y-57432969D01*
X185766568Y-57540791D01*
X185752278Y-57552278D01*
X185737897Y-57570169D01*
X185696326Y-57621885D01*
X185638982Y-57661803D01*
X185569160Y-57664383D01*
X185509027Y-57628804D01*
X185503031Y-57621884D01*
X185447364Y-57552630D01*
X185299025Y-57433392D01*
X185299022Y-57433390D01*
X185128523Y-57348831D01*
X184943824Y-57302897D01*
X184901097Y-57300000D01*
X184700000Y-57300000D01*
X184700000Y-60300000D01*
X184901097Y-60300000D01*
X184943824Y-60297102D01*
X185128523Y-60251168D01*
X185299022Y-60166609D01*
X185299025Y-60166607D01*
X185447366Y-60047367D01*
X185447367Y-60047366D01*
X185503033Y-59978115D01*
X185560376Y-59938196D01*
X185630198Y-59935616D01*
X185690331Y-59971194D01*
X185696305Y-59978089D01*
X185752278Y-60047722D01*
X185752280Y-60047724D01*
X185900704Y-60167030D01*
X185900707Y-60167032D01*
X186071302Y-60251639D01*
X186071303Y-60251639D01*
X186071307Y-60251641D01*
X186256111Y-60297600D01*
X186298877Y-60300500D01*
X186625500Y-60300499D01*
X186692539Y-60320183D01*
X186738294Y-60372987D01*
X186749500Y-60424499D01*
X186749500Y-61208399D01*
X186729815Y-61275438D01*
X186677011Y-61321193D01*
X186607853Y-61331137D01*
X186578048Y-61322960D01*
X186467917Y-61277343D01*
X186467907Y-61277340D01*
X186322920Y-61248500D01*
X186322918Y-61248500D01*
X182422917Y-61248500D01*
X182275082Y-61248500D01*
X182275080Y-61248500D01*
X182130092Y-61277340D01*
X182130082Y-61277343D01*
X181993511Y-61333912D01*
X181993498Y-61333919D01*
X181870584Y-61416048D01*
X181870580Y-61416051D01*
X181452450Y-61834181D01*
X181391127Y-61867666D01*
X181364769Y-61870500D01*
X180651998Y-61870500D01*
X180651980Y-61870501D01*
X180549203Y-61881000D01*
X180549200Y-61881001D01*
X180382668Y-61936185D01*
X180382663Y-61936187D01*
X180233342Y-62028289D01*
X180109289Y-62152342D01*
X180017187Y-62301663D01*
X180017185Y-62301668D01*
X179998022Y-62359500D01*
X179962001Y-62468203D01*
X179962001Y-62468204D01*
X179962000Y-62468204D01*
X179951500Y-62570983D01*
X179152498Y-62570983D01*
X179148545Y-62532289D01*
X179141999Y-62468203D01*
X179141998Y-62468200D01*
X179124582Y-62415643D01*
X179086814Y-62301666D01*
X178994712Y-62152344D01*
X178870656Y-62028288D01*
X178777888Y-61971069D01*
X178721336Y-61936187D01*
X178721331Y-61936185D01*
X178719862Y-61935698D01*
X178554797Y-61881001D01*
X178554795Y-61881000D01*
X178452010Y-61870500D01*
X177551998Y-61870500D01*
X177551980Y-61870501D01*
X177449203Y-61881000D01*
X177449200Y-61881001D01*
X177282668Y-61936185D01*
X177282663Y-61936187D01*
X177133342Y-62028289D01*
X177009289Y-62152342D01*
X176917187Y-62301663D01*
X176917185Y-62301668D01*
X176898022Y-62359500D01*
X176862001Y-62468203D01*
X176862001Y-62468204D01*
X176862000Y-62468204D01*
X176851500Y-62570983D01*
X176851500Y-62875500D01*
X176831815Y-62942539D01*
X176779011Y-62988294D01*
X176727500Y-62999500D01*
X176054604Y-62999500D01*
X176007155Y-62990062D01*
X175983497Y-62980263D01*
X175983493Y-62980262D01*
X175983488Y-62980260D01*
X175828845Y-62949500D01*
X175828842Y-62949500D01*
X175671158Y-62949500D01*
X175671155Y-62949500D01*
X175516511Y-62980260D01*
X175516506Y-62980262D01*
X175516504Y-62980262D01*
X175516503Y-62980263D01*
X175492844Y-62990062D01*
X175484670Y-62991688D01*
X175480331Y-62994477D01*
X175445396Y-62999500D01*
X175238585Y-62999500D01*
X175171546Y-62979815D01*
X175125791Y-62927011D01*
X175120879Y-62914504D01*
X175120131Y-62912246D01*
X175084814Y-62805666D01*
X174992712Y-62656344D01*
X174868656Y-62532288D01*
X174754919Y-62462135D01*
X174719336Y-62440187D01*
X174719331Y-62440185D01*
X174717862Y-62439698D01*
X174552797Y-62385001D01*
X174552795Y-62385000D01*
X174450010Y-62374500D01*
X173549998Y-62374500D01*
X173549980Y-62374501D01*
X173447203Y-62385000D01*
X173447200Y-62385001D01*
X173280668Y-62440185D01*
X173280663Y-62440187D01*
X173131342Y-62532289D01*
X173007289Y-62656342D01*
X172915187Y-62805663D01*
X172915185Y-62805668D01*
X172903263Y-62841646D01*
X172860001Y-62972203D01*
X172860001Y-62972204D01*
X172860000Y-62972204D01*
X172849500Y-63074983D01*
X172050498Y-63074983D01*
X172047221Y-63042906D01*
X172039999Y-62972203D01*
X172039998Y-62972200D01*
X172015351Y-62897820D01*
X171984814Y-62805666D01*
X171892712Y-62656344D01*
X171768656Y-62532288D01*
X171654919Y-62462135D01*
X171619336Y-62440187D01*
X171619331Y-62440185D01*
X171617862Y-62439698D01*
X171452797Y-62385001D01*
X171452795Y-62385000D01*
X171350016Y-62374500D01*
X171350009Y-62374500D01*
X171274096Y-62374500D01*
X171207057Y-62354815D01*
X171161302Y-62302011D01*
X171151358Y-62232853D01*
X171180383Y-62169297D01*
X171186415Y-62162819D01*
X171583258Y-61765977D01*
X172113416Y-61235819D01*
X172174739Y-61202334D01*
X172201097Y-61199500D01*
X180350491Y-61199500D01*
X180350507Y-61199501D01*
X180358103Y-61199501D01*
X180516214Y-61199501D01*
X180516217Y-61199501D01*
X180668945Y-61158577D01*
X180734603Y-61120669D01*
X180805876Y-61079520D01*
X180917680Y-60967716D01*
X180917680Y-60967714D01*
X180927884Y-60957511D01*
X180927888Y-60957506D01*
X182919713Y-58965681D01*
X182919716Y-58965680D01*
X182988322Y-58897073D01*
X183049644Y-58863591D01*
X183089474Y-58866440D01*
X183119334Y-58868576D01*
X183119335Y-58868576D01*
X183119336Y-58868577D01*
X183175269Y-58910449D01*
X183188007Y-58944604D01*
X183199684Y-58975912D01*
X183200000Y-58984758D01*
X183200000Y-59501096D01*
X183202897Y-59543824D01*
X183248831Y-59728523D01*
X183333390Y-59899022D01*
X183333392Y-59899025D01*
X183452632Y-60047366D01*
X183452633Y-60047367D01*
X183600974Y-60166607D01*
X183600977Y-60166609D01*
X183771476Y-60251168D01*
X183956175Y-60297102D01*
X183998903Y-60300000D01*
X184200000Y-60300000D01*
X184200000Y-57300000D01*
X183998903Y-57300000D01*
X183956175Y-57302897D01*
X183771476Y-57348831D01*
X183600977Y-57433390D01*
X183600974Y-57433392D01*
X183452635Y-57552631D01*
X183372147Y-57652762D01*
X183314803Y-57692680D01*
X183244981Y-57695260D01*
X183184849Y-57659681D01*
X183153497Y-57597240D01*
X183151500Y-57575074D01*
X183151500Y-53971945D01*
X183151500Y-53971943D01*
X183110577Y-53819216D01*
X183110577Y-53819215D01*
X183110577Y-53819214D01*
X183081639Y-53769095D01*
X183081637Y-53769092D01*
X183073624Y-53755212D01*
X183031520Y-53682284D01*
X182919716Y-53570480D01*
X182919715Y-53570479D01*
X182915385Y-53566149D01*
X182915374Y-53566139D01*
X182811818Y-53462583D01*
X182778333Y-53401260D01*
X182775499Y-53374902D01*
X182775499Y-52449998D01*
X182775498Y-52449981D01*
X182764999Y-52347203D01*
X182764998Y-52347200D01*
X182709814Y-52180666D01*
X182617712Y-52031344D01*
X182493656Y-51907288D01*
X182400888Y-51850069D01*
X182344336Y-51815187D01*
X182344331Y-51815185D01*
X182342862Y-51814698D01*
X182177797Y-51760001D01*
X182177795Y-51760000D01*
X182075010Y-51749500D01*
X181424998Y-51749500D01*
X181424980Y-51749501D01*
X181322203Y-51760000D01*
X181322200Y-51760001D01*
X181155668Y-51815185D01*
X181155663Y-51815187D01*
X181006342Y-51907289D01*
X180882289Y-52031342D01*
X180790187Y-52180663D01*
X180790185Y-52180668D01*
X180790115Y-52180880D01*
X180735001Y-52347203D01*
X180735001Y-52347204D01*
X180735000Y-52347204D01*
X180724500Y-52449983D01*
X180724500Y-54050001D01*
X180724501Y-54050018D01*
X180735000Y-54152796D01*
X180735001Y-54152799D01*
X180790115Y-54319119D01*
X180790186Y-54319334D01*
X180882288Y-54468656D01*
X181006344Y-54592712D01*
X181155666Y-54684814D01*
X181322203Y-54739999D01*
X181424991Y-54750500D01*
X181826500Y-54750499D01*
X181893539Y-54770183D01*
X181939294Y-54822987D01*
X181950500Y-54874499D01*
X181950500Y-55875500D01*
X181930815Y-55942539D01*
X181878011Y-55988294D01*
X181826500Y-55999500D01*
X181399998Y-55999500D01*
X181399980Y-55999501D01*
X181297203Y-56010000D01*
X181297200Y-56010001D01*
X181130668Y-56065185D01*
X181130663Y-56065187D01*
X180981342Y-56157289D01*
X180857289Y-56281342D01*
X180765187Y-56430663D01*
X180765185Y-56430668D01*
X180756792Y-56455998D01*
X180710001Y-56597203D01*
X180710001Y-56597204D01*
X180710000Y-56597204D01*
X180699500Y-56699983D01*
X180699500Y-57624902D01*
X180679815Y-57691941D01*
X180663181Y-57712583D01*
X178814584Y-59561181D01*
X178753261Y-59594666D01*
X178726903Y-59597500D01*
X176331262Y-59597500D01*
X176264223Y-59577815D01*
X176218468Y-59525011D01*
X176208524Y-59455853D01*
X176237549Y-59392297D01*
X176255931Y-59376080D01*
X176255581Y-59375653D01*
X176260285Y-59371791D01*
X176260289Y-59371789D01*
X176371789Y-59260289D01*
X176459394Y-59129179D01*
X176513312Y-58999007D01*
X176557152Y-58944604D01*
X176623446Y-58922539D01*
X176673799Y-58932761D01*
X176674023Y-58932086D01*
X176679638Y-58933946D01*
X176680275Y-58934076D01*
X176680880Y-58934358D01*
X176847302Y-58989505D01*
X176847309Y-58989506D01*
X176950019Y-58999999D01*
X177525000Y-58999999D01*
X177599972Y-58999999D01*
X177599986Y-58999998D01*
X177702697Y-58989505D01*
X177869119Y-58934358D01*
X177869124Y-58934356D01*
X178018345Y-58842315D01*
X178142315Y-58718345D01*
X178234356Y-58569124D01*
X178234358Y-58569119D01*
X178289505Y-58402697D01*
X178289506Y-58402690D01*
X178299999Y-58299986D01*
X178300000Y-58299973D01*
X178300000Y-57750000D01*
X177525000Y-57750000D01*
X177525000Y-58999999D01*
X176950019Y-58999999D01*
X177024999Y-58999998D01*
X177025000Y-58999998D01*
X177025000Y-57750000D01*
X176250000Y-57750000D01*
X176250000Y-57905073D01*
X176230315Y-57972112D01*
X176177511Y-58017867D01*
X176108352Y-58027810D01*
X176078548Y-58019634D01*
X176069471Y-58015874D01*
X175983497Y-57980263D01*
X175983492Y-57980262D01*
X175983489Y-57980261D01*
X175828845Y-57949500D01*
X175828842Y-57949500D01*
X175671158Y-57949500D01*
X175671155Y-57949500D01*
X175516511Y-57980260D01*
X175516506Y-57980262D01*
X175516504Y-57980262D01*
X175516503Y-57980263D01*
X175492844Y-57990062D01*
X175445396Y-57999500D01*
X175163787Y-57999500D01*
X175096748Y-57979815D01*
X175058248Y-57940596D01*
X175036337Y-57905073D01*
X174992712Y-57834344D01*
X174868656Y-57710288D01*
X174736549Y-57628804D01*
X174719336Y-57618187D01*
X174719331Y-57618185D01*
X174694630Y-57610000D01*
X174552797Y-57563001D01*
X174552795Y-57563000D01*
X174450010Y-57552500D01*
X173549998Y-57552500D01*
X173549980Y-57552501D01*
X173447203Y-57563000D01*
X173447200Y-57563001D01*
X173280668Y-57618185D01*
X173280663Y-57618187D01*
X173131342Y-57710289D01*
X173007289Y-57834342D01*
X172915187Y-57983663D01*
X172915185Y-57983668D01*
X172909939Y-57999500D01*
X172860001Y-58150203D01*
X172860001Y-58150204D01*
X172860000Y-58150204D01*
X172849500Y-58252983D01*
X172849500Y-58252991D01*
X172849500Y-58922539D01*
X172849501Y-59473500D01*
X172829816Y-59540539D01*
X172777013Y-59586294D01*
X172725501Y-59597500D01*
X172470097Y-59597500D01*
X172403058Y-59577815D01*
X172382416Y-59561181D01*
X172086818Y-59265583D01*
X172053333Y-59204260D01*
X172050499Y-59177902D01*
X172050499Y-58252998D01*
X172050498Y-58252981D01*
X172039999Y-58150203D01*
X172039998Y-58150200D01*
X172036654Y-58140109D01*
X171984814Y-57983666D01*
X171892712Y-57834344D01*
X171768656Y-57710288D01*
X171636549Y-57628804D01*
X171619336Y-57618187D01*
X171619331Y-57618185D01*
X171594630Y-57610000D01*
X171452797Y-57563001D01*
X171452795Y-57563000D01*
X171350010Y-57552500D01*
X170449998Y-57552500D01*
X170449980Y-57552501D01*
X170347203Y-57563000D01*
X170347200Y-57563001D01*
X170180668Y-57618185D01*
X170180663Y-57618187D01*
X170031342Y-57710289D01*
X169907285Y-57834346D01*
X169905795Y-57836231D01*
X169904446Y-57837185D01*
X169902181Y-57839451D01*
X169901793Y-57839063D01*
X169848768Y-57876601D01*
X169778968Y-57879731D01*
X169720857Y-57846989D01*
X169631157Y-57757289D01*
X169631156Y-57757288D01*
X169525211Y-57691941D01*
X169481836Y-57665187D01*
X169481831Y-57665185D01*
X169465221Y-57659681D01*
X169315297Y-57610001D01*
X169315295Y-57610000D01*
X169212516Y-57599500D01*
X169212509Y-57599500D01*
X168482098Y-57599500D01*
X168415059Y-57579815D01*
X168394417Y-57563181D01*
X168105089Y-57273853D01*
X167793415Y-56962180D01*
X167759931Y-56900858D01*
X167764915Y-56831167D01*
X167806786Y-56775233D01*
X167872251Y-56750816D01*
X167881097Y-56750500D01*
X173815890Y-56750500D01*
X173815892Y-56750500D01*
X173943186Y-56716392D01*
X173971555Y-56700013D01*
X176250000Y-56700013D01*
X176250000Y-57250000D01*
X177025000Y-57250000D01*
X177525000Y-57250000D01*
X178299999Y-57250000D01*
X178299999Y-56700028D01*
X178299998Y-56700013D01*
X178289505Y-56597302D01*
X178234358Y-56430880D01*
X178234356Y-56430875D01*
X178142315Y-56281654D01*
X178018345Y-56157684D01*
X177869124Y-56065643D01*
X177869119Y-56065641D01*
X177702697Y-56010494D01*
X177702690Y-56010493D01*
X177599986Y-56000000D01*
X177525000Y-56000000D01*
X177525000Y-57250000D01*
X177025000Y-57250000D01*
X177025000Y-56000000D01*
X177024999Y-55999999D01*
X176950028Y-56000000D01*
X176950011Y-56000001D01*
X176847302Y-56010494D01*
X176680880Y-56065641D01*
X176680875Y-56065643D01*
X176531654Y-56157684D01*
X176407684Y-56281654D01*
X176315643Y-56430875D01*
X176315641Y-56430880D01*
X176260494Y-56597302D01*
X176260493Y-56597309D01*
X176250000Y-56700013D01*
X173971555Y-56700013D01*
X174057314Y-56650500D01*
X174650500Y-56057314D01*
X174716392Y-55943186D01*
X174750500Y-55815892D01*
X174750500Y-55684107D01*
X174750500Y-54049986D01*
X176275001Y-54049986D01*
X176285494Y-54152697D01*
X176340641Y-54319119D01*
X176340643Y-54319124D01*
X176432684Y-54468345D01*
X176556654Y-54592315D01*
X176705875Y-54684356D01*
X176705880Y-54684358D01*
X176872302Y-54739505D01*
X176872309Y-54739506D01*
X176975019Y-54749999D01*
X177550000Y-54749999D01*
X177624972Y-54749999D01*
X177624986Y-54749998D01*
X177727697Y-54739505D01*
X177894119Y-54684358D01*
X177894124Y-54684356D01*
X178043345Y-54592315D01*
X178167315Y-54468345D01*
X178259356Y-54319124D01*
X178259358Y-54319119D01*
X178314505Y-54152697D01*
X178314506Y-54152690D01*
X178324999Y-54049986D01*
X178325000Y-54049973D01*
X178325000Y-53500000D01*
X177550000Y-53500000D01*
X177550000Y-54749999D01*
X176975019Y-54749999D01*
X177049999Y-54749998D01*
X177050000Y-54749998D01*
X177050000Y-53500000D01*
X176275001Y-53500000D01*
X176275001Y-54049986D01*
X174750500Y-54049986D01*
X174750500Y-52450013D01*
X176275000Y-52450013D01*
X176275000Y-53000000D01*
X177050000Y-53000000D01*
X177550000Y-53000000D01*
X178324999Y-53000000D01*
X178324999Y-52450028D01*
X178324998Y-52450013D01*
X178314505Y-52347302D01*
X178259358Y-52180880D01*
X178259356Y-52180875D01*
X178167315Y-52031654D01*
X178043345Y-51907684D01*
X177894124Y-51815643D01*
X177894119Y-51815641D01*
X177727697Y-51760494D01*
X177727690Y-51760493D01*
X177624986Y-51750000D01*
X177550000Y-51750000D01*
X177550000Y-53000000D01*
X177050000Y-53000000D01*
X177050000Y-51750000D01*
X177049999Y-51749999D01*
X176975028Y-51750000D01*
X176975011Y-51750001D01*
X176872302Y-51760494D01*
X176705880Y-51815641D01*
X176705875Y-51815643D01*
X176556654Y-51907684D01*
X176432684Y-52031654D01*
X176340643Y-52180875D01*
X176340641Y-52180880D01*
X176285494Y-52347302D01*
X176285493Y-52347309D01*
X176275000Y-52450013D01*
X174750500Y-52450013D01*
X174750500Y-50624500D01*
X174770185Y-50557461D01*
X174822989Y-50511706D01*
X174874500Y-50500500D01*
X206875500Y-50500500D01*
X206942539Y-50520185D01*
G37*
%TD.AperFunction*%
%TA.AperFunction,Conductor*%
G36*
X180919444Y-69995999D02*
G01*
X180958484Y-70041054D01*
X180961898Y-70047754D01*
X180962951Y-70049820D01*
X181087890Y-70221786D01*
X181238213Y-70372109D01*
X181410184Y-70497051D01*
X181410184Y-70497052D01*
X181449793Y-70517233D01*
X181500590Y-70565206D01*
X181517500Y-70627718D01*
X181517500Y-73867902D01*
X181497815Y-73934941D01*
X181481181Y-73955583D01*
X177547584Y-77889181D01*
X177486261Y-77922666D01*
X177459903Y-77925500D01*
X173159097Y-77925500D01*
X173092058Y-77905815D01*
X173046303Y-77853011D01*
X173036359Y-77783853D01*
X173065384Y-77720297D01*
X173071416Y-77713819D01*
X173941051Y-76844184D01*
X176553478Y-74231755D01*
X176614799Y-74198272D01*
X176679473Y-74201506D01*
X176721757Y-74215246D01*
X176931713Y-74248500D01*
X176931714Y-74248500D01*
X177144286Y-74248500D01*
X177144287Y-74248500D01*
X177354243Y-74215246D01*
X177556412Y-74149557D01*
X177745816Y-74053051D01*
X177832138Y-73990335D01*
X177917786Y-73928109D01*
X177917788Y-73928106D01*
X177917792Y-73928104D01*
X178068104Y-73777792D01*
X178068106Y-73777788D01*
X178068109Y-73777786D01*
X178153890Y-73659717D01*
X178193051Y-73605816D01*
X178197793Y-73596508D01*
X178245763Y-73545711D01*
X178313583Y-73528911D01*
X178379719Y-73551445D01*
X178418763Y-73596500D01*
X178423373Y-73605547D01*
X178462728Y-73659716D01*
X179095037Y-73027408D01*
X179112075Y-73090993D01*
X179177901Y-73205007D01*
X179270993Y-73298099D01*
X179385007Y-73363925D01*
X179448590Y-73380962D01*
X178816282Y-74013269D01*
X178816282Y-74013270D01*
X178870449Y-74052624D01*
X179059782Y-74149095D01*
X179261870Y-74214757D01*
X179471754Y-74248000D01*
X179684246Y-74248000D01*
X179894127Y-74214757D01*
X179894130Y-74214757D01*
X180096217Y-74149095D01*
X180285554Y-74052622D01*
X180339716Y-74013270D01*
X180339717Y-74013270D01*
X179707408Y-73380962D01*
X179770993Y-73363925D01*
X179885007Y-73298099D01*
X179978099Y-73205007D01*
X180043925Y-73090993D01*
X180060962Y-73027408D01*
X180693270Y-73659717D01*
X180693270Y-73659716D01*
X180732622Y-73605554D01*
X180829095Y-73416217D01*
X180894757Y-73214130D01*
X180894757Y-73214127D01*
X180928000Y-73004246D01*
X180928000Y-72791753D01*
X180894757Y-72581872D01*
X180894757Y-72581869D01*
X180829095Y-72379782D01*
X180732624Y-72190449D01*
X180693270Y-72136282D01*
X180693269Y-72136282D01*
X180060962Y-72768590D01*
X180043925Y-72705007D01*
X179978099Y-72590993D01*
X179885007Y-72497901D01*
X179770993Y-72432075D01*
X179707409Y-72415037D01*
X180339716Y-71782728D01*
X180285550Y-71743375D01*
X180096217Y-71646904D01*
X179894129Y-71581242D01*
X179684246Y-71548000D01*
X179471754Y-71548000D01*
X179261872Y-71581242D01*
X179261869Y-71581242D01*
X179059782Y-71646904D01*
X178870439Y-71743380D01*
X178816282Y-71782727D01*
X178816282Y-71782728D01*
X179448591Y-72415037D01*
X179385007Y-72432075D01*
X179270993Y-72497901D01*
X179177901Y-72590993D01*
X179112075Y-72705007D01*
X179095037Y-72768591D01*
X178462728Y-72136282D01*
X178462727Y-72136282D01*
X178423380Y-72190440D01*
X178423376Y-72190446D01*
X178418760Y-72199505D01*
X178370781Y-72250297D01*
X178302959Y-72267087D01*
X178236826Y-72244543D01*
X178197794Y-72199493D01*
X178193051Y-72190184D01*
X178193049Y-72190181D01*
X178193048Y-72190179D01*
X178068109Y-72018213D01*
X177917786Y-71867890D01*
X177745815Y-71742948D01*
X177745814Y-71742947D01*
X177706205Y-71722765D01*
X177655409Y-71674791D01*
X177638500Y-71612281D01*
X177638500Y-70627718D01*
X177658185Y-70560679D01*
X177706207Y-70517233D01*
X177745815Y-70497052D01*
X177745815Y-70497051D01*
X177745816Y-70497051D01*
X177872444Y-70405051D01*
X177917786Y-70372109D01*
X177917788Y-70372106D01*
X177917792Y-70372104D01*
X178068104Y-70221792D01*
X178068106Y-70221788D01*
X178068109Y-70221786D01*
X178193048Y-70049820D01*
X178193050Y-70049817D01*
X178193051Y-70049816D01*
X178197514Y-70041054D01*
X178245488Y-69990259D01*
X178313308Y-69973463D01*
X178379444Y-69995999D01*
X178418484Y-70041054D01*
X178421898Y-70047754D01*
X178422951Y-70049820D01*
X178547890Y-70221786D01*
X178698213Y-70372109D01*
X178870179Y-70497048D01*
X178870181Y-70497049D01*
X178870184Y-70497051D01*
X179059588Y-70593557D01*
X179261757Y-70659246D01*
X179471713Y-70692500D01*
X179471714Y-70692500D01*
X179684286Y-70692500D01*
X179684287Y-70692500D01*
X179894243Y-70659246D01*
X180096412Y-70593557D01*
X180285816Y-70497051D01*
X180328658Y-70465925D01*
X180457786Y-70372109D01*
X180457788Y-70372106D01*
X180457792Y-70372104D01*
X180608104Y-70221792D01*
X180608106Y-70221788D01*
X180608109Y-70221786D01*
X180733048Y-70049820D01*
X180733050Y-70049817D01*
X180733051Y-70049816D01*
X180737514Y-70041054D01*
X180785488Y-69990259D01*
X180853308Y-69973463D01*
X180919444Y-69995999D01*
G37*
%TD.AperFunction*%
%TA.AperFunction,Conductor*%
G36*
X109090000Y-75010000D02*
G01*
X109737828Y-75010000D01*
X109737844Y-75009999D01*
X109797372Y-75003598D01*
X109797379Y-75003596D01*
X109932086Y-74953354D01*
X109932093Y-74953350D01*
X110047187Y-74867190D01*
X110047190Y-74867187D01*
X110133350Y-74752093D01*
X110133354Y-74752086D01*
X110182422Y-74620529D01*
X110224293Y-74564595D01*
X110289757Y-74540178D01*
X110358030Y-74555030D01*
X110386285Y-74576181D01*
X110500213Y-74690109D01*
X110672179Y-74815048D01*
X110672181Y-74815049D01*
X110672184Y-74815051D01*
X110861588Y-74911557D01*
X111063757Y-74977246D01*
X111273713Y-75010500D01*
X111273714Y-75010500D01*
X111486286Y-75010500D01*
X111486287Y-75010500D01*
X111696243Y-74977246D01*
X111898412Y-74911557D01*
X112087816Y-74815051D01*
X112174471Y-74752093D01*
X112259786Y-74690109D01*
X112259788Y-74690106D01*
X112259792Y-74690104D01*
X112410104Y-74539792D01*
X112410106Y-74539788D01*
X112410109Y-74539786D01*
X112531092Y-74373265D01*
X112535051Y-74367816D01*
X112539514Y-74359054D01*
X112587488Y-74308259D01*
X112655308Y-74291463D01*
X112721444Y-74313999D01*
X112760484Y-74359054D01*
X112764591Y-74367115D01*
X112764951Y-74367820D01*
X112889890Y-74539786D01*
X113040213Y-74690109D01*
X113212179Y-74815048D01*
X113212181Y-74815049D01*
X113212184Y-74815051D01*
X113401588Y-74911557D01*
X113603757Y-74977246D01*
X113813713Y-75010500D01*
X113813714Y-75010500D01*
X114026286Y-75010500D01*
X114026287Y-75010500D01*
X114236243Y-74977246D01*
X114438412Y-74911557D01*
X114627816Y-74815051D01*
X114714471Y-74752093D01*
X114799786Y-74690109D01*
X114799788Y-74690106D01*
X114799792Y-74690104D01*
X114950104Y-74539792D01*
X114950106Y-74539788D01*
X114950109Y-74539786D01*
X115071092Y-74373265D01*
X115075051Y-74367816D01*
X115079514Y-74359054D01*
X115127488Y-74308259D01*
X115195308Y-74291463D01*
X115261444Y-74313999D01*
X115300484Y-74359054D01*
X115304591Y-74367115D01*
X115304951Y-74367820D01*
X115429890Y-74539786D01*
X115580213Y-74690109D01*
X115752179Y-74815048D01*
X115752181Y-74815049D01*
X115752184Y-74815051D01*
X115941588Y-74911557D01*
X116143757Y-74977246D01*
X116353713Y-75010500D01*
X116353714Y-75010500D01*
X116566286Y-75010500D01*
X116566287Y-75010500D01*
X116776243Y-74977246D01*
X116818523Y-74963507D01*
X116888362Y-74961511D01*
X116944522Y-74993757D01*
X117922431Y-75971667D01*
X117955916Y-76032990D01*
X117950932Y-76102682D01*
X117909060Y-76158615D01*
X117881639Y-76172748D01*
X117882130Y-76173932D01*
X117730827Y-76236602D01*
X117730814Y-76236609D01*
X117599711Y-76324210D01*
X117599707Y-76324213D01*
X117488213Y-76435707D01*
X117488210Y-76435711D01*
X117400609Y-76566814D01*
X117400602Y-76566827D01*
X117340264Y-76712498D01*
X117340261Y-76712508D01*
X117313769Y-76845692D01*
X117281384Y-76907603D01*
X117220668Y-76942177D01*
X117192152Y-76945500D01*
X114121264Y-76945500D01*
X114054225Y-76925815D01*
X114008470Y-76873011D01*
X114006714Y-76868978D01*
X113993394Y-76836821D01*
X113993390Y-76836814D01*
X113905789Y-76705711D01*
X113905786Y-76705707D01*
X113794292Y-76594213D01*
X113794288Y-76594210D01*
X113663185Y-76506609D01*
X113663172Y-76506602D01*
X113517501Y-76446264D01*
X113517489Y-76446261D01*
X113362845Y-76415500D01*
X113362842Y-76415500D01*
X113205158Y-76415500D01*
X113205155Y-76415500D01*
X113050510Y-76446261D01*
X113050498Y-76446264D01*
X112904827Y-76506602D01*
X112904814Y-76506609D01*
X112773711Y-76594210D01*
X112773707Y-76594213D01*
X112662213Y-76705707D01*
X112662210Y-76705711D01*
X112574609Y-76836814D01*
X112574602Y-76836827D01*
X112514264Y-76982498D01*
X112514261Y-76982510D01*
X112483500Y-77137153D01*
X112483500Y-77272500D01*
X112463815Y-77339539D01*
X112411011Y-77385294D01*
X112359500Y-77396500D01*
X109455882Y-77396500D01*
X109388843Y-77376815D01*
X109368201Y-77360181D01*
X107981034Y-75973014D01*
X107947549Y-75911691D01*
X107944715Y-75885333D01*
X107944715Y-75134000D01*
X107964400Y-75066961D01*
X108017204Y-75021206D01*
X108068715Y-75010000D01*
X108590000Y-75010000D01*
X108590000Y-74093012D01*
X108647007Y-74125925D01*
X108774174Y-74160000D01*
X108905826Y-74160000D01*
X109032993Y-74125925D01*
X109090000Y-74093012D01*
X109090000Y-75010000D01*
G37*
%TD.AperFunction*%
%TA.AperFunction,Conductor*%
G36*
X165446834Y-69594914D02*
G01*
X165502767Y-69636786D01*
X165527184Y-69702250D01*
X165527500Y-69711096D01*
X165527500Y-70239870D01*
X165527501Y-70239876D01*
X165533908Y-70299483D01*
X165584202Y-70434328D01*
X165584206Y-70434335D01*
X165670452Y-70549544D01*
X165670455Y-70549547D01*
X165785664Y-70635793D01*
X165785671Y-70635797D01*
X165819084Y-70648259D01*
X165920517Y-70686091D01*
X165980127Y-70692500D01*
X166003497Y-70692499D01*
X166070536Y-70712181D01*
X166116292Y-70764983D01*
X166127500Y-70816499D01*
X166127500Y-71423500D01*
X166107815Y-71490539D01*
X166055011Y-71536294D01*
X166003505Y-71547500D01*
X165980132Y-71547500D01*
X165980123Y-71547501D01*
X165920516Y-71553908D01*
X165785671Y-71604202D01*
X165785664Y-71604206D01*
X165670455Y-71690452D01*
X165670452Y-71690455D01*
X165584206Y-71805664D01*
X165584202Y-71805671D01*
X165533908Y-71940517D01*
X165527501Y-72000116D01*
X165527500Y-72000135D01*
X165527500Y-73795870D01*
X165527501Y-73795876D01*
X165533908Y-73855483D01*
X165584202Y-73990328D01*
X165584206Y-73990335D01*
X165670452Y-74105544D01*
X165670455Y-74105547D01*
X165785664Y-74191793D01*
X165785671Y-74191797D01*
X165920517Y-74242091D01*
X165920516Y-74242091D01*
X165927444Y-74242835D01*
X165980127Y-74248500D01*
X167775872Y-74248499D01*
X167835483Y-74242091D01*
X167970331Y-74191796D01*
X168085546Y-74105546D01*
X168171796Y-73990331D01*
X168222091Y-73855483D01*
X168228500Y-73795873D01*
X168228499Y-73771979D01*
X168231330Y-73758963D01*
X168241940Y-73739525D01*
X168248179Y-73718275D01*
X168264803Y-73697643D01*
X168264808Y-73697636D01*
X168264811Y-73697634D01*
X168264818Y-73697626D01*
X168935037Y-73027408D01*
X168952075Y-73090993D01*
X169017901Y-73205007D01*
X169110993Y-73298099D01*
X169225007Y-73363925D01*
X169288590Y-73380962D01*
X168656282Y-74013269D01*
X168656282Y-74013270D01*
X168710449Y-74052624D01*
X168899782Y-74149095D01*
X169101870Y-74214757D01*
X169311754Y-74248000D01*
X169524246Y-74248000D01*
X169734127Y-74214757D01*
X169734130Y-74214757D01*
X169936217Y-74149095D01*
X170125554Y-74052622D01*
X170179716Y-74013270D01*
X170179717Y-74013270D01*
X169547408Y-73380962D01*
X169610993Y-73363925D01*
X169725007Y-73298099D01*
X169818099Y-73205007D01*
X169883925Y-73090993D01*
X169900962Y-73027408D01*
X170533270Y-73659717D01*
X170533270Y-73659716D01*
X170572622Y-73605555D01*
X170577232Y-73596507D01*
X170625205Y-73545709D01*
X170693025Y-73528912D01*
X170759161Y-73551447D01*
X170798204Y-73596504D01*
X170802949Y-73605817D01*
X170927890Y-73777786D01*
X171078213Y-73928109D01*
X171250179Y-74053048D01*
X171250181Y-74053049D01*
X171250184Y-74053051D01*
X171439588Y-74149557D01*
X171641757Y-74215246D01*
X171851713Y-74248500D01*
X171851714Y-74248500D01*
X171998901Y-74248500D01*
X172065940Y-74268185D01*
X172111695Y-74320989D01*
X172121639Y-74390147D01*
X172092614Y-74453703D01*
X172086582Y-74460181D01*
X169459584Y-77087181D01*
X169398261Y-77120666D01*
X169371903Y-77123500D01*
X157587889Y-77123500D01*
X157520850Y-77103815D01*
X157475095Y-77051011D01*
X157465151Y-76981853D01*
X157494176Y-76918297D01*
X157544556Y-76883318D01*
X157669204Y-76836827D01*
X157677331Y-76833796D01*
X157792546Y-76747546D01*
X157878796Y-76632331D01*
X157929091Y-76497483D01*
X157935500Y-76437873D01*
X157935499Y-75464498D01*
X157955183Y-75397460D01*
X158007987Y-75351705D01*
X158059494Y-75340499D01*
X159547872Y-75340499D01*
X159607483Y-75334091D01*
X159742331Y-75283796D01*
X159857546Y-75197546D01*
X159943796Y-75082331D01*
X159949529Y-75066961D01*
X159967783Y-75018019D01*
X160009653Y-74962085D01*
X160023175Y-74954385D01*
X160022746Y-74953641D01*
X160166709Y-74870524D01*
X160166708Y-74870524D01*
X160166716Y-74870520D01*
X160278520Y-74758716D01*
X160357577Y-74621784D01*
X160363665Y-74599061D01*
X160395757Y-74543476D01*
X165315821Y-69623413D01*
X165377142Y-69589930D01*
X165446834Y-69594914D01*
G37*
%TD.AperFunction*%
%TA.AperFunction,Conductor*%
G36*
X106875703Y-60545384D02*
G01*
X106882181Y-60551416D01*
X107220181Y-60889416D01*
X107253666Y-60950739D01*
X107256500Y-60977097D01*
X107256500Y-64770330D01*
X107256499Y-64770348D01*
X107256499Y-64936054D01*
X107256498Y-64936054D01*
X107297423Y-65088787D01*
X107297424Y-65088788D01*
X107302694Y-65097915D01*
X107302696Y-65097918D01*
X107376477Y-65225712D01*
X107376481Y-65225717D01*
X107495349Y-65344585D01*
X107495355Y-65344590D01*
X108090139Y-65939374D01*
X108090149Y-65939385D01*
X108094479Y-65943715D01*
X108094480Y-65943716D01*
X108206284Y-66055520D01*
X108206286Y-66055521D01*
X108206290Y-66055524D01*
X108309219Y-66114949D01*
X108343216Y-66134577D01*
X108455019Y-66164534D01*
X108495942Y-66175500D01*
X108495943Y-66175500D01*
X129088331Y-66175500D01*
X129088347Y-66175501D01*
X129095943Y-66175501D01*
X129254054Y-66175501D01*
X129254057Y-66175501D01*
X129406785Y-66134577D01*
X129456904Y-66105639D01*
X129543716Y-66055520D01*
X129655520Y-65943716D01*
X129655520Y-65943714D01*
X129665728Y-65933507D01*
X129665729Y-65933504D01*
X134542416Y-61056819D01*
X134603739Y-61023334D01*
X134630097Y-61020500D01*
X138998902Y-61020500D01*
X139065941Y-61040185D01*
X139111696Y-61092989D01*
X139121640Y-61162147D01*
X139092615Y-61225703D01*
X139086583Y-61232181D01*
X137949481Y-62369282D01*
X137949479Y-62369285D01*
X137942907Y-62380668D01*
X137908545Y-62440186D01*
X137870423Y-62506215D01*
X137829499Y-62658943D01*
X137829499Y-62658945D01*
X137829499Y-62827046D01*
X137829500Y-62827059D01*
X137829500Y-67771903D01*
X137809815Y-67838942D01*
X137793181Y-67859584D01*
X131149584Y-74503181D01*
X131088261Y-74536666D01*
X131061903Y-74539500D01*
X126439494Y-74539500D01*
X126372455Y-74519815D01*
X126326700Y-74467011D01*
X126316756Y-74397853D01*
X126345781Y-74334297D01*
X126404559Y-74296523D01*
X126426892Y-74292142D01*
X126452697Y-74289505D01*
X126619119Y-74234358D01*
X126619124Y-74234356D01*
X126768345Y-74142315D01*
X126892315Y-74018345D01*
X126984356Y-73869124D01*
X126984358Y-73869119D01*
X127039505Y-73702697D01*
X127039506Y-73702690D01*
X127049999Y-73599986D01*
X127050000Y-73599973D01*
X127050000Y-72750000D01*
X124450001Y-72750000D01*
X124450001Y-73599986D01*
X124460494Y-73702697D01*
X124515641Y-73869119D01*
X124515643Y-73869124D01*
X124607684Y-74018345D01*
X124731654Y-74142315D01*
X124880875Y-74234356D01*
X124880880Y-74234358D01*
X125047302Y-74289505D01*
X125047309Y-74289506D01*
X125073105Y-74292142D01*
X125137796Y-74318538D01*
X125177948Y-74375719D01*
X125180811Y-74445530D01*
X125145477Y-74505807D01*
X125083164Y-74537412D01*
X125060502Y-74539500D01*
X124462097Y-74539500D01*
X124395058Y-74519815D01*
X124374416Y-74503181D01*
X124278574Y-74407339D01*
X124245089Y-74346016D01*
X124244638Y-74343849D01*
X124222341Y-74231757D01*
X124213737Y-74188503D01*
X124202966Y-74162499D01*
X124153397Y-74042827D01*
X124153390Y-74042814D01*
X124065789Y-73911711D01*
X124065786Y-73911707D01*
X123954292Y-73800213D01*
X123954288Y-73800210D01*
X123823185Y-73712609D01*
X123823172Y-73712602D01*
X123677501Y-73652264D01*
X123677489Y-73652261D01*
X123522845Y-73621500D01*
X123522842Y-73621500D01*
X123365158Y-73621500D01*
X123365155Y-73621500D01*
X123210510Y-73652261D01*
X123210498Y-73652264D01*
X123064827Y-73712602D01*
X123064814Y-73712609D01*
X122933711Y-73800210D01*
X122933707Y-73800213D01*
X122822213Y-73911707D01*
X122822210Y-73911711D01*
X122734609Y-74042814D01*
X122734602Y-74042827D01*
X122674264Y-74188498D01*
X122674261Y-74188510D01*
X122643500Y-74343153D01*
X122643500Y-74500846D01*
X122644615Y-74506452D01*
X122638385Y-74576043D01*
X122595520Y-74631219D01*
X122529630Y-74654461D01*
X122461633Y-74638391D01*
X122435316Y-74618320D01*
X121441176Y-73624180D01*
X121407691Y-73562857D01*
X121412675Y-73493165D01*
X121454547Y-73437232D01*
X121520011Y-73412815D01*
X121528857Y-73412499D01*
X121749999Y-73412499D01*
X122250000Y-73412499D01*
X122699972Y-73412499D01*
X122699986Y-73412498D01*
X122802697Y-73402005D01*
X122969119Y-73346858D01*
X122969124Y-73346856D01*
X123118345Y-73254815D01*
X123242315Y-73130845D01*
X123334356Y-72981624D01*
X123334358Y-72981619D01*
X123389505Y-72815197D01*
X123389506Y-72815190D01*
X123399999Y-72712486D01*
X123400000Y-72712473D01*
X123400000Y-72500000D01*
X122250000Y-72500000D01*
X122250000Y-73412499D01*
X121749999Y-73412499D01*
X121750000Y-73412498D01*
X121750000Y-72500000D01*
X120600001Y-72500000D01*
X120593201Y-72506799D01*
X120580316Y-72550683D01*
X120527512Y-72596438D01*
X120458354Y-72606382D01*
X120394798Y-72577357D01*
X120388320Y-72571325D01*
X119604508Y-71787513D01*
X120600000Y-71787513D01*
X120600000Y-72000000D01*
X121750000Y-72000000D01*
X122250000Y-72000000D01*
X123399999Y-72000000D01*
X123399999Y-71787528D01*
X123399998Y-71787513D01*
X123389505Y-71684802D01*
X123334358Y-71518380D01*
X123334356Y-71518375D01*
X123242315Y-71369154D01*
X123118345Y-71245184D01*
X122969124Y-71153143D01*
X122969119Y-71153141D01*
X122802697Y-71097994D01*
X122802690Y-71097993D01*
X122699986Y-71087500D01*
X122250000Y-71087500D01*
X122250000Y-72000000D01*
X121750000Y-72000000D01*
X121750000Y-71087500D01*
X121300028Y-71087500D01*
X121300012Y-71087501D01*
X121197302Y-71097994D01*
X121030880Y-71153141D01*
X121030875Y-71153143D01*
X120881654Y-71245184D01*
X120757684Y-71369154D01*
X120665643Y-71518375D01*
X120665641Y-71518380D01*
X120610494Y-71684802D01*
X120610493Y-71684809D01*
X120600000Y-71787513D01*
X119604508Y-71787513D01*
X119563350Y-71746355D01*
X119563348Y-71746352D01*
X119444477Y-71627481D01*
X119444476Y-71627480D01*
X119349872Y-71572861D01*
X119307545Y-71548423D01*
X119307543Y-71548422D01*
X119307066Y-71548147D01*
X119278765Y-71518465D01*
X119258851Y-71497580D01*
X119245628Y-71428973D01*
X119271596Y-71364108D01*
X119272460Y-71363493D01*
X119283784Y-71355429D01*
X119328510Y-71323580D01*
X119349666Y-71318287D01*
X119356243Y-71317246D01*
X119558412Y-71251557D01*
X119747816Y-71155051D01*
X119834471Y-71092093D01*
X119919786Y-71030109D01*
X119919788Y-71030106D01*
X119919792Y-71030104D01*
X120070104Y-70879792D01*
X120070106Y-70879788D01*
X120070109Y-70879786D01*
X120195048Y-70707820D01*
X120195047Y-70707820D01*
X120195051Y-70707816D01*
X120291557Y-70518412D01*
X120357246Y-70316243D01*
X120390500Y-70106287D01*
X120390500Y-69893713D01*
X120386569Y-69868896D01*
X120388964Y-69850358D01*
X120386304Y-69831853D01*
X120393349Y-69816425D01*
X120395523Y-69799606D01*
X120407562Y-69785304D01*
X120415329Y-69768297D01*
X120429597Y-69759127D01*
X120440518Y-69746154D01*
X120458378Y-69740631D01*
X120474107Y-69730523D01*
X120505806Y-69725965D01*
X120507269Y-69725513D01*
X120509042Y-69725500D01*
X120532125Y-69725500D01*
X120599164Y-69745185D01*
X120644919Y-69797989D01*
X120649829Y-69810490D01*
X120665186Y-69856834D01*
X120757288Y-70006156D01*
X120881344Y-70130212D01*
X121030666Y-70222314D01*
X121197203Y-70277499D01*
X121299991Y-70288000D01*
X122700008Y-70287999D01*
X122802797Y-70277499D01*
X122969334Y-70222314D01*
X123118656Y-70130212D01*
X123242712Y-70006156D01*
X123334814Y-69856834D01*
X123350169Y-69810494D01*
X123389942Y-69753050D01*
X123454459Y-69726228D01*
X123467875Y-69725500D01*
X124325501Y-69725500D01*
X124392540Y-69745185D01*
X124438295Y-69797989D01*
X124449501Y-69849500D01*
X124449501Y-70000018D01*
X124460000Y-70102796D01*
X124460001Y-70102799D01*
X124515185Y-70269331D01*
X124515187Y-70269336D01*
X124550069Y-70325888D01*
X124598896Y-70405051D01*
X124607289Y-70418657D01*
X124731344Y-70542712D01*
X124815718Y-70594754D01*
X124862443Y-70646702D01*
X124873666Y-70715664D01*
X124845822Y-70779747D01*
X124815720Y-70805831D01*
X124731656Y-70857682D01*
X124607684Y-70981654D01*
X124515643Y-71130875D01*
X124515641Y-71130880D01*
X124460494Y-71297302D01*
X124460493Y-71297309D01*
X124450000Y-71400013D01*
X124450000Y-72250000D01*
X127049999Y-72250000D01*
X127049999Y-71400028D01*
X127049998Y-71400013D01*
X127039505Y-71297302D01*
X126984358Y-71130880D01*
X126984356Y-71130875D01*
X126892315Y-70981654D01*
X126768344Y-70857683D01*
X126768340Y-70857680D01*
X126684280Y-70805831D01*
X126637555Y-70753883D01*
X126626334Y-70684921D01*
X126654177Y-70620839D01*
X126684278Y-70594756D01*
X126768656Y-70542712D01*
X126892712Y-70418656D01*
X126984814Y-70269334D01*
X127039999Y-70102797D01*
X127050500Y-70000009D01*
X127050499Y-67799992D01*
X127039999Y-67697203D01*
X126984814Y-67530666D01*
X126892712Y-67381344D01*
X126768656Y-67257288D01*
X126619334Y-67165186D01*
X126452797Y-67110001D01*
X126452795Y-67110000D01*
X126350010Y-67099500D01*
X125149998Y-67099500D01*
X125149978Y-67099502D01*
X125044609Y-67110265D01*
X124975917Y-67097495D01*
X124963123Y-67090012D01*
X124955497Y-67084917D01*
X124955490Y-67084913D01*
X124818917Y-67028343D01*
X124818907Y-67028340D01*
X124673920Y-66999500D01*
X124673918Y-66999500D01*
X112054604Y-66999500D01*
X112007155Y-66990062D01*
X111983497Y-66980263D01*
X111983493Y-66980262D01*
X111983488Y-66980260D01*
X111828845Y-66949500D01*
X111828842Y-66949500D01*
X111671158Y-66949500D01*
X111671155Y-66949500D01*
X111516510Y-66980261D01*
X111516498Y-66980264D01*
X111370827Y-67040602D01*
X111370814Y-67040609D01*
X111239711Y-67128210D01*
X111239707Y-67128213D01*
X111128213Y-67239707D01*
X111128210Y-67239711D01*
X111040609Y-67370814D01*
X111040602Y-67370827D01*
X110980264Y-67516498D01*
X110980261Y-67516510D01*
X110949500Y-67671153D01*
X110949500Y-67828846D01*
X110980261Y-67983489D01*
X110980264Y-67983501D01*
X111040602Y-68129172D01*
X111040609Y-68129185D01*
X111128210Y-68260288D01*
X111128213Y-68260292D01*
X111239707Y-68371786D01*
X111239711Y-68371789D01*
X111326449Y-68429746D01*
X111371254Y-68483358D01*
X111379961Y-68552683D01*
X111349807Y-68615711D01*
X111290363Y-68652430D01*
X111276956Y-68655321D01*
X111103760Y-68682753D01*
X111033128Y-68705703D01*
X110968020Y-68726858D01*
X110901585Y-68748444D01*
X110712179Y-68844951D01*
X110540215Y-68969889D01*
X110426285Y-69083819D01*
X110364962Y-69117303D01*
X110295270Y-69112319D01*
X110239337Y-69070447D01*
X110222422Y-69039470D01*
X110173354Y-68907913D01*
X110173350Y-68907906D01*
X110087190Y-68792812D01*
X110087187Y-68792809D01*
X109972093Y-68706649D01*
X109972086Y-68706645D01*
X109837379Y-68656403D01*
X109837372Y-68656401D01*
X109777844Y-68650000D01*
X109130000Y-68650000D01*
X109130000Y-69566988D01*
X109072993Y-69534075D01*
X108945826Y-69500000D01*
X108814174Y-69500000D01*
X108687007Y-69534075D01*
X108630000Y-69566988D01*
X108630000Y-68650000D01*
X107982155Y-68650000D01*
X107922627Y-68656401D01*
X107922619Y-68656403D01*
X107792163Y-68705060D01*
X107722471Y-68710044D01*
X107661149Y-68676559D01*
X106706819Y-67722229D01*
X106673334Y-67660906D01*
X106670500Y-67634548D01*
X106670500Y-60639097D01*
X106690185Y-60572058D01*
X106742989Y-60526303D01*
X106812147Y-60516359D01*
X106875703Y-60545384D01*
G37*
%TD.AperFunction*%
%TA.AperFunction,Conductor*%
G36*
X157443039Y-57516185D02*
G01*
X157488794Y-57568989D01*
X157500000Y-57620500D01*
X157500000Y-57630000D01*
X160000000Y-57630000D01*
X160000000Y-57620500D01*
X160019685Y-57553461D01*
X160072489Y-57507706D01*
X160124000Y-57496500D01*
X162203357Y-57496500D01*
X162270396Y-57516185D01*
X162316151Y-57568989D01*
X162326095Y-57638147D01*
X162297070Y-57701703D01*
X162241676Y-57738429D01*
X162041588Y-57803443D01*
X162041585Y-57803444D01*
X161852179Y-57899951D01*
X161680213Y-58024890D01*
X161529890Y-58175213D01*
X161404951Y-58347179D01*
X161308444Y-58536585D01*
X161242753Y-58738760D01*
X161222192Y-58868577D01*
X161209500Y-58948713D01*
X161209500Y-59161287D01*
X161213786Y-59188349D01*
X161242754Y-59371244D01*
X161242754Y-59371247D01*
X161256491Y-59413523D01*
X161258486Y-59483364D01*
X161226241Y-59539522D01*
X160212180Y-60553583D01*
X160150857Y-60587068D01*
X160081165Y-60582084D01*
X160025232Y-60540212D01*
X160000815Y-60474748D01*
X160000499Y-60465902D01*
X160000499Y-59922129D01*
X160000498Y-59922123D01*
X159998044Y-59899296D01*
X159994091Y-59862517D01*
X159981340Y-59828332D01*
X159976357Y-59758642D01*
X159981338Y-59741672D01*
X159994091Y-59707483D01*
X160000500Y-59647873D01*
X160000499Y-58652128D01*
X159994091Y-58592517D01*
X159981073Y-58557616D01*
X159976090Y-58487926D01*
X159981075Y-58470949D01*
X159993597Y-58437375D01*
X159993598Y-58437372D01*
X159999999Y-58377844D01*
X160000000Y-58377827D01*
X160000000Y-58130000D01*
X157500000Y-58130000D01*
X157500000Y-58377834D01*
X157501012Y-58387240D01*
X157488609Y-58456000D01*
X157441001Y-58507139D01*
X157377723Y-58524500D01*
X150207607Y-58524500D01*
X150084393Y-58524500D01*
X150025497Y-58536215D01*
X150025496Y-58536214D01*
X149963555Y-58548535D01*
X149963552Y-58548536D01*
X149963551Y-58548536D01*
X149963548Y-58548537D01*
X149937603Y-58559284D01*
X149937601Y-58559285D01*
X149937600Y-58559284D01*
X149849710Y-58595689D01*
X149814444Y-58619254D01*
X149769745Y-58637769D01*
X149626508Y-58666261D01*
X149626498Y-58666264D01*
X149480827Y-58726602D01*
X149480814Y-58726609D01*
X149349711Y-58814210D01*
X149349707Y-58814213D01*
X149238213Y-58925707D01*
X149238210Y-58925711D01*
X149150609Y-59056814D01*
X149150602Y-59056827D01*
X149090264Y-59202498D01*
X149090261Y-59202510D01*
X149059500Y-59357153D01*
X149059500Y-59514841D01*
X149071724Y-59576299D01*
X149065495Y-59645890D01*
X149022632Y-59701067D01*
X148956742Y-59724311D01*
X148902654Y-59715050D01*
X148823501Y-59682264D01*
X148823489Y-59682261D01*
X148668845Y-59651500D01*
X148668842Y-59651500D01*
X148511158Y-59651500D01*
X148511155Y-59651500D01*
X148356510Y-59682261D01*
X148356498Y-59682264D01*
X148210827Y-59742602D01*
X148210814Y-59742609D01*
X148079711Y-59830210D01*
X148079707Y-59830213D01*
X147968213Y-59941707D01*
X147968210Y-59941711D01*
X147880609Y-60072814D01*
X147880602Y-60072827D01*
X147820264Y-60218498D01*
X147820261Y-60218510D01*
X147789500Y-60373153D01*
X147789500Y-60530846D01*
X147820261Y-60685489D01*
X147820264Y-60685501D01*
X147880602Y-60831172D01*
X147880609Y-60831185D01*
X147968210Y-60962288D01*
X147968213Y-60962292D01*
X148079707Y-61073786D01*
X148079711Y-61073789D01*
X148210814Y-61161390D01*
X148210827Y-61161397D01*
X148348309Y-61218343D01*
X148356503Y-61221737D01*
X148491049Y-61248500D01*
X148511153Y-61252499D01*
X148511156Y-61252500D01*
X148511158Y-61252500D01*
X148668844Y-61252500D01*
X148668845Y-61252499D01*
X148823497Y-61221737D01*
X148969179Y-61161394D01*
X149100289Y-61073789D01*
X149100292Y-61073786D01*
X149100468Y-61073643D01*
X149100577Y-61073596D01*
X149105354Y-61070405D01*
X149105959Y-61071311D01*
X149164779Y-61046333D01*
X149179128Y-61045500D01*
X157377219Y-61045500D01*
X157444258Y-61065185D01*
X157490013Y-61117989D01*
X157500507Y-61182756D01*
X157499500Y-61192127D01*
X157499500Y-61192129D01*
X157499500Y-62187870D01*
X157499501Y-62187876D01*
X157505908Y-62247481D01*
X157518659Y-62281669D01*
X157523642Y-62351361D01*
X157518659Y-62368331D01*
X157505908Y-62402518D01*
X157499501Y-62462116D01*
X157499501Y-62462123D01*
X157499500Y-62462135D01*
X157499500Y-63457870D01*
X157499501Y-63457876D01*
X157503196Y-63492247D01*
X157490789Y-63561006D01*
X157443178Y-63612143D01*
X157379906Y-63629500D01*
X157090669Y-63629500D01*
X157090653Y-63629499D01*
X157083057Y-63629499D01*
X156924943Y-63629499D01*
X156817587Y-63658265D01*
X156772210Y-63670424D01*
X156772209Y-63670425D01*
X156734163Y-63692392D01*
X156734162Y-63692393D01*
X156635287Y-63749477D01*
X156635282Y-63749481D01*
X156556846Y-63827918D01*
X156523480Y-63861284D01*
X156523478Y-63861286D01*
X155485265Y-64899500D01*
X154473584Y-65911181D01*
X154412261Y-65944666D01*
X154385903Y-65947500D01*
X153233766Y-65947500D01*
X153166727Y-65927815D01*
X153164875Y-65926602D01*
X153033185Y-65838609D01*
X153033172Y-65838602D01*
X152887501Y-65778264D01*
X152887489Y-65778261D01*
X152732845Y-65747500D01*
X152732842Y-65747500D01*
X152575158Y-65747500D01*
X152575155Y-65747500D01*
X152420510Y-65778261D01*
X152420498Y-65778264D01*
X152274827Y-65838602D01*
X152274814Y-65838609D01*
X152143711Y-65926210D01*
X152143707Y-65926213D01*
X152032213Y-66037707D01*
X152032210Y-66037711D01*
X151944609Y-66168814D01*
X151944602Y-66168827D01*
X151884264Y-66314498D01*
X151884261Y-66314510D01*
X151852311Y-66475132D01*
X151850011Y-66474674D01*
X151827728Y-66529821D01*
X151770683Y-66570165D01*
X151700882Y-66573265D01*
X151683054Y-66567417D01*
X151651202Y-66554224D01*
X151617497Y-66540263D01*
X151617493Y-66540262D01*
X151617489Y-66540261D01*
X151462845Y-66509500D01*
X151462842Y-66509500D01*
X151305158Y-66509500D01*
X151305155Y-66509500D01*
X151150510Y-66540261D01*
X151150498Y-66540264D01*
X151004827Y-66600602D01*
X151004814Y-66600609D01*
X150873711Y-66688210D01*
X150873707Y-66688213D01*
X150762213Y-66799707D01*
X150762210Y-66799711D01*
X150674609Y-66930814D01*
X150674602Y-66930827D01*
X150614264Y-67076498D01*
X150614261Y-67076508D01*
X150594770Y-67174496D01*
X150562385Y-67236407D01*
X150501669Y-67270981D01*
X150452931Y-67271850D01*
X150452907Y-67272097D01*
X150450788Y-67271888D01*
X150448962Y-67271921D01*
X150446845Y-67271500D01*
X150446842Y-67271500D01*
X150289158Y-67271500D01*
X150289155Y-67271500D01*
X150134510Y-67302261D01*
X150134498Y-67302264D01*
X149988827Y-67362602D01*
X149988814Y-67362609D01*
X149857711Y-67450210D01*
X149857707Y-67450213D01*
X149746213Y-67561707D01*
X149746210Y-67561711D01*
X149658609Y-67692814D01*
X149658602Y-67692827D01*
X149597293Y-67840844D01*
X149553452Y-67895248D01*
X149487158Y-67917313D01*
X149458541Y-67915009D01*
X149430846Y-67909500D01*
X149430842Y-67909500D01*
X149273158Y-67909500D01*
X149273155Y-67909500D01*
X149118510Y-67940261D01*
X149118498Y-67940264D01*
X148972827Y-68000602D01*
X148972814Y-68000609D01*
X148841711Y-68088210D01*
X148841707Y-68088213D01*
X148730213Y-68199707D01*
X148730210Y-68199711D01*
X148642609Y-68330814D01*
X148642602Y-68330827D01*
X148582264Y-68476498D01*
X148582261Y-68476510D01*
X148551500Y-68631153D01*
X148551500Y-68734401D01*
X148531815Y-68801440D01*
X148512133Y-68822836D01*
X148513030Y-68823733D01*
X148067338Y-69269425D01*
X148006015Y-69302910D01*
X148003849Y-69303361D01*
X147848508Y-69334261D01*
X147848498Y-69334264D01*
X147702827Y-69394602D01*
X147702814Y-69394609D01*
X147571711Y-69482210D01*
X147571707Y-69482213D01*
X147460213Y-69593707D01*
X147460210Y-69593711D01*
X147372609Y-69724814D01*
X147372602Y-69724827D01*
X147312264Y-69870498D01*
X147312261Y-69870510D01*
X147281500Y-70025153D01*
X147281500Y-70182846D01*
X147312261Y-70337489D01*
X147312264Y-70337501D01*
X147372602Y-70483172D01*
X147372609Y-70483185D01*
X147460210Y-70614288D01*
X147460213Y-70614292D01*
X147571707Y-70725786D01*
X147571711Y-70725789D01*
X147702814Y-70813390D01*
X147702827Y-70813397D01*
X147848498Y-70873735D01*
X147848503Y-70873737D01*
X148003153Y-70904499D01*
X148003156Y-70904500D01*
X148003158Y-70904500D01*
X148160844Y-70904500D01*
X148160845Y-70904499D01*
X148315497Y-70873737D01*
X148461179Y-70813394D01*
X148592289Y-70725789D01*
X148703789Y-70614289D01*
X148791394Y-70483179D01*
X148851737Y-70337497D01*
X148871156Y-70239870D01*
X148882638Y-70182151D01*
X148891402Y-70165394D01*
X148895423Y-70146915D01*
X148914167Y-70121876D01*
X148915023Y-70120240D01*
X148916574Y-70118661D01*
X149088417Y-69946819D01*
X149149740Y-69913334D01*
X149176098Y-69910500D01*
X157379906Y-69910500D01*
X157446945Y-69930185D01*
X157492700Y-69982989D01*
X157503195Y-70047752D01*
X157499500Y-70082127D01*
X157499500Y-70082128D01*
X157499500Y-70082132D01*
X157499500Y-71077870D01*
X157499501Y-71077876D01*
X157505908Y-71137481D01*
X157518659Y-71171669D01*
X157523642Y-71241361D01*
X157518659Y-71258331D01*
X157505908Y-71292518D01*
X157499675Y-71350500D01*
X157499501Y-71352123D01*
X157499500Y-71352135D01*
X157499500Y-72347870D01*
X157499501Y-72347876D01*
X157505908Y-72407481D01*
X157518659Y-72441669D01*
X157523642Y-72511361D01*
X157518659Y-72528331D01*
X157505908Y-72562518D01*
X157499501Y-72622116D01*
X157499501Y-72622123D01*
X157499500Y-72622135D01*
X157499500Y-73503593D01*
X157479815Y-73570632D01*
X157427011Y-73616387D01*
X157357853Y-73626331D01*
X157294297Y-73597306D01*
X157256523Y-73538528D01*
X157253883Y-73527784D01*
X157249071Y-73503593D01*
X157233737Y-73426503D01*
X157229557Y-73416412D01*
X157173397Y-73280827D01*
X157173390Y-73280814D01*
X157085789Y-73149711D01*
X157085786Y-73149707D01*
X156974292Y-73038213D01*
X156974288Y-73038210D01*
X156843185Y-72950609D01*
X156843172Y-72950602D01*
X156697501Y-72890264D01*
X156697489Y-72890261D01*
X156542845Y-72859500D01*
X156542842Y-72859500D01*
X156385158Y-72859500D01*
X156385155Y-72859500D01*
X156230510Y-72890261D01*
X156230498Y-72890264D01*
X156084827Y-72950602D01*
X156084814Y-72950609D01*
X155953711Y-73038210D01*
X155953707Y-73038213D01*
X155842213Y-73149707D01*
X155842210Y-73149711D01*
X155754609Y-73280814D01*
X155754602Y-73280827D01*
X155694264Y-73426498D01*
X155694261Y-73426510D01*
X155663500Y-73581153D01*
X155663500Y-73738846D01*
X155694261Y-73893489D01*
X155694264Y-73893501D01*
X155754602Y-74039172D01*
X155754609Y-74039185D01*
X155842210Y-74170288D01*
X155842213Y-74170292D01*
X155849740Y-74177819D01*
X155883225Y-74239142D01*
X155878241Y-74308834D01*
X155836369Y-74364767D01*
X155770905Y-74389184D01*
X155762059Y-74389500D01*
X155217129Y-74389500D01*
X155217123Y-74389501D01*
X155157518Y-74395908D01*
X155123331Y-74408659D01*
X155053639Y-74413642D01*
X155036669Y-74408659D01*
X155002480Y-74395908D01*
X155002482Y-74395908D01*
X154942883Y-74389501D01*
X154942881Y-74389500D01*
X154942873Y-74389500D01*
X154942864Y-74389500D01*
X153947129Y-74389500D01*
X153947123Y-74389501D01*
X153887518Y-74395908D01*
X153853331Y-74408659D01*
X153783639Y-74413642D01*
X153766669Y-74408659D01*
X153732480Y-74395908D01*
X153732482Y-74395908D01*
X153672883Y-74389501D01*
X153672881Y-74389500D01*
X153672873Y-74389500D01*
X153672864Y-74389500D01*
X152677129Y-74389500D01*
X152677123Y-74389501D01*
X152617518Y-74395908D01*
X152583331Y-74408659D01*
X152513639Y-74413642D01*
X152496669Y-74408659D01*
X152462480Y-74395908D01*
X152462482Y-74395908D01*
X152402883Y-74389501D01*
X152402881Y-74389500D01*
X152402873Y-74389500D01*
X152402864Y-74389500D01*
X151407129Y-74389500D01*
X151407123Y-74389501D01*
X151347518Y-74395908D01*
X151313331Y-74408659D01*
X151243639Y-74413642D01*
X151226669Y-74408659D01*
X151192480Y-74395908D01*
X151192482Y-74395908D01*
X151132883Y-74389501D01*
X151132881Y-74389500D01*
X151132873Y-74389500D01*
X151132864Y-74389500D01*
X150137129Y-74389500D01*
X150137123Y-74389501D01*
X150077518Y-74395908D01*
X150043331Y-74408659D01*
X149973639Y-74413642D01*
X149956669Y-74408659D01*
X149922480Y-74395908D01*
X149922482Y-74395908D01*
X149862883Y-74389501D01*
X149862881Y-74389500D01*
X149862873Y-74389500D01*
X149862864Y-74389500D01*
X148867129Y-74389500D01*
X148867123Y-74389501D01*
X148807518Y-74395908D01*
X148773331Y-74408659D01*
X148703639Y-74413642D01*
X148686669Y-74408659D01*
X148652480Y-74395908D01*
X148652482Y-74395908D01*
X148592883Y-74389501D01*
X148592881Y-74389500D01*
X148592873Y-74389500D01*
X148592864Y-74389500D01*
X147597129Y-74389500D01*
X147597123Y-74389501D01*
X147537518Y-74395908D01*
X147503331Y-74408659D01*
X147433639Y-74413642D01*
X147416669Y-74408659D01*
X147382480Y-74395908D01*
X147382482Y-74395908D01*
X147322883Y-74389501D01*
X147322881Y-74389500D01*
X147322873Y-74389500D01*
X147322864Y-74389500D01*
X146327129Y-74389500D01*
X146327123Y-74389501D01*
X146267518Y-74395908D01*
X146233331Y-74408659D01*
X146163639Y-74413642D01*
X146146669Y-74408659D01*
X146112480Y-74395908D01*
X146112482Y-74395908D01*
X146052883Y-74389501D01*
X146052881Y-74389500D01*
X146052873Y-74389500D01*
X146052864Y-74389500D01*
X145057129Y-74389500D01*
X145057123Y-74389501D01*
X144997518Y-74395908D01*
X144963331Y-74408659D01*
X144893639Y-74413642D01*
X144876669Y-74408659D01*
X144842480Y-74395908D01*
X144842482Y-74395908D01*
X144782883Y-74389501D01*
X144782881Y-74389500D01*
X144782873Y-74389500D01*
X144782864Y-74389500D01*
X143787129Y-74389500D01*
X143787123Y-74389501D01*
X143727518Y-74395908D01*
X143693331Y-74408659D01*
X143623639Y-74413642D01*
X143606669Y-74408659D01*
X143572480Y-74395908D01*
X143572482Y-74395908D01*
X143512883Y-74389501D01*
X143512881Y-74389500D01*
X143512873Y-74389500D01*
X143512865Y-74389500D01*
X142624499Y-74389500D01*
X142557460Y-74369815D01*
X142511705Y-74317011D01*
X142500499Y-74265500D01*
X142500499Y-73892129D01*
X142500498Y-73892123D01*
X142500497Y-73892116D01*
X142494091Y-73832517D01*
X142481340Y-73798332D01*
X142476357Y-73728642D01*
X142481338Y-73711672D01*
X142494091Y-73677483D01*
X142500500Y-73617873D01*
X142500499Y-72622128D01*
X142494091Y-72562517D01*
X142481340Y-72528332D01*
X142476357Y-72458642D01*
X142481340Y-72441669D01*
X142494091Y-72407483D01*
X142500500Y-72347873D01*
X142500499Y-71352128D01*
X142494091Y-71292517D01*
X142481340Y-71258332D01*
X142476357Y-71188642D01*
X142481340Y-71171669D01*
X142494091Y-71137483D01*
X142500500Y-71077873D01*
X142500499Y-70082128D01*
X142494091Y-70022517D01*
X142481340Y-69988332D01*
X142476357Y-69918642D01*
X142481338Y-69901672D01*
X142494091Y-69867483D01*
X142500500Y-69807873D01*
X142500499Y-68812128D01*
X142494091Y-68752517D01*
X142481340Y-68718332D01*
X142476357Y-68648642D01*
X142481338Y-68631672D01*
X142494091Y-68597483D01*
X142500500Y-68537873D01*
X142500499Y-67542128D01*
X142494091Y-67482517D01*
X142481340Y-67448332D01*
X142476357Y-67378642D01*
X142481338Y-67361672D01*
X142494091Y-67327483D01*
X142500500Y-67267873D01*
X142500499Y-66272128D01*
X142494091Y-66212517D01*
X142481340Y-66178332D01*
X142476357Y-66108642D01*
X142481338Y-66091672D01*
X142494091Y-66057483D01*
X142500500Y-65997873D01*
X142500499Y-65002128D01*
X142494091Y-64942517D01*
X142481340Y-64908332D01*
X142476357Y-64838642D01*
X142481338Y-64821672D01*
X142494091Y-64787483D01*
X142500500Y-64727873D01*
X142500499Y-63732128D01*
X142494091Y-63672517D01*
X142481340Y-63638332D01*
X142476357Y-63568642D01*
X142481338Y-63551672D01*
X142494091Y-63517483D01*
X142500500Y-63457873D01*
X142500499Y-62462128D01*
X142494091Y-62402517D01*
X142481340Y-62368332D01*
X142476357Y-62298642D01*
X142481340Y-62281669D01*
X142494091Y-62247483D01*
X142500500Y-62187873D01*
X142500499Y-61192128D01*
X142497034Y-61159890D01*
X142496804Y-61157753D01*
X142509211Y-61088994D01*
X142556822Y-61037857D01*
X142620094Y-61020500D01*
X145995331Y-61020500D01*
X145995347Y-61020501D01*
X146002943Y-61020501D01*
X146161054Y-61020501D01*
X146161057Y-61020501D01*
X146313785Y-60979577D01*
X146383205Y-60939497D01*
X146450716Y-60900520D01*
X146562520Y-60788716D01*
X146562520Y-60788714D01*
X146572724Y-60778511D01*
X146572727Y-60778506D01*
X149818417Y-57532819D01*
X149879740Y-57499334D01*
X149906098Y-57496500D01*
X157376000Y-57496500D01*
X157443039Y-57516185D01*
G37*
%TD.AperFunction*%
%TA.AperFunction,Conductor*%
G36*
X109130000Y-71350000D02*
G01*
X109777828Y-71350000D01*
X109777844Y-71349999D01*
X109837372Y-71343598D01*
X109837379Y-71343596D01*
X109972086Y-71293354D01*
X109972093Y-71293350D01*
X110087187Y-71207190D01*
X110087190Y-71207187D01*
X110173350Y-71092093D01*
X110173354Y-71092086D01*
X110222422Y-70960529D01*
X110264293Y-70904595D01*
X110329757Y-70880178D01*
X110398030Y-70895030D01*
X110426285Y-70916181D01*
X110540213Y-71030109D01*
X110712179Y-71155048D01*
X110712181Y-71155049D01*
X110712184Y-71155051D01*
X110901588Y-71251557D01*
X111103757Y-71317246D01*
X111313713Y-71350500D01*
X111313714Y-71350500D01*
X111526286Y-71350500D01*
X111526287Y-71350500D01*
X111736243Y-71317246D01*
X111938412Y-71251557D01*
X112127816Y-71155051D01*
X112214471Y-71092093D01*
X112299786Y-71030109D01*
X112299788Y-71030106D01*
X112299792Y-71030104D01*
X112450104Y-70879792D01*
X112450106Y-70879788D01*
X112450109Y-70879786D01*
X112575048Y-70707820D01*
X112575047Y-70707820D01*
X112575051Y-70707816D01*
X112579514Y-70699054D01*
X112627488Y-70648259D01*
X112695308Y-70631463D01*
X112761444Y-70653999D01*
X112800484Y-70699054D01*
X112804591Y-70707115D01*
X112804951Y-70707820D01*
X112929890Y-70879786D01*
X113080213Y-71030109D01*
X113252179Y-71155048D01*
X113252181Y-71155049D01*
X113252184Y-71155051D01*
X113441588Y-71251557D01*
X113484713Y-71265569D01*
X113542389Y-71305007D01*
X113569587Y-71369365D01*
X113557672Y-71438212D01*
X113510428Y-71489687D01*
X113446395Y-71507500D01*
X112852940Y-71507500D01*
X112812019Y-71518464D01*
X112812019Y-71518465D01*
X112777125Y-71527815D01*
X112700214Y-71548423D01*
X112700209Y-71548426D01*
X112563290Y-71627475D01*
X112563282Y-71627481D01*
X112451478Y-71739286D01*
X111864522Y-72326241D01*
X111803199Y-72359726D01*
X111738523Y-72356491D01*
X111696245Y-72342754D01*
X111556272Y-72320584D01*
X111486287Y-72309500D01*
X111273713Y-72309500D01*
X111225042Y-72317208D01*
X111063760Y-72342753D01*
X110861585Y-72408444D01*
X110672179Y-72504951D01*
X110500215Y-72629889D01*
X110386285Y-72743819D01*
X110324962Y-72777303D01*
X110255270Y-72772319D01*
X110199337Y-72730447D01*
X110182422Y-72699470D01*
X110133354Y-72567913D01*
X110133350Y-72567906D01*
X110047190Y-72452812D01*
X110047187Y-72452809D01*
X109932093Y-72366649D01*
X109932086Y-72366645D01*
X109797379Y-72316403D01*
X109797372Y-72316401D01*
X109737844Y-72310000D01*
X109090000Y-72310000D01*
X109090000Y-73226988D01*
X109032993Y-73194075D01*
X108905826Y-73160000D01*
X108774174Y-73160000D01*
X108647007Y-73194075D01*
X108590000Y-73226988D01*
X108590000Y-72310000D01*
X108068715Y-72310000D01*
X108001676Y-72290315D01*
X107955921Y-72237511D01*
X107944715Y-72186000D01*
X107944715Y-71474000D01*
X107964400Y-71406961D01*
X108017204Y-71361206D01*
X108068715Y-71350000D01*
X108630000Y-71350000D01*
X108630000Y-70433012D01*
X108687007Y-70465925D01*
X108814174Y-70500000D01*
X108945826Y-70500000D01*
X109072993Y-70465925D01*
X109130000Y-70433012D01*
X109130000Y-71350000D01*
G37*
%TD.AperFunction*%
%TA.AperFunction,Conductor*%
G36*
X164731507Y-57496836D02*
G01*
X164732659Y-57496521D01*
X164764951Y-57506656D01*
X164797402Y-57516185D01*
X164798183Y-57517086D01*
X164799322Y-57517444D01*
X164821013Y-57543434D01*
X164843157Y-57568989D01*
X164843326Y-57570169D01*
X164844092Y-57571086D01*
X164848287Y-57604670D01*
X164853101Y-57638147D01*
X164852605Y-57639232D01*
X164852753Y-57640416D01*
X164838131Y-57670926D01*
X164824076Y-57701703D01*
X164822904Y-57702699D01*
X164822557Y-57703424D01*
X164795460Y-57726039D01*
X164744154Y-57757684D01*
X164620184Y-57881654D01*
X164528143Y-58030875D01*
X164528141Y-58030880D01*
X164472994Y-58197302D01*
X164472993Y-58197309D01*
X164462500Y-58300013D01*
X164462500Y-58750000D01*
X166787499Y-58750000D01*
X166787499Y-58300028D01*
X166787498Y-58300013D01*
X166777005Y-58197302D01*
X166721858Y-58030880D01*
X166721856Y-58030875D01*
X166629815Y-57881654D01*
X166505845Y-57757684D01*
X166454540Y-57726039D01*
X166407816Y-57674091D01*
X166396593Y-57605128D01*
X166424437Y-57541046D01*
X166482505Y-57502190D01*
X166519637Y-57496500D01*
X166577903Y-57496500D01*
X166644942Y-57516185D01*
X166665584Y-57532819D01*
X167550681Y-58417916D01*
X167584166Y-58479239D01*
X167587000Y-58505597D01*
X167587000Y-59700001D01*
X167587001Y-59700018D01*
X167597500Y-59802796D01*
X167597501Y-59802799D01*
X167637042Y-59922123D01*
X167652686Y-59969334D01*
X167744788Y-60118656D01*
X167868844Y-60242712D01*
X168018166Y-60334814D01*
X168184703Y-60389999D01*
X168287491Y-60400500D01*
X169212508Y-60400499D01*
X169212516Y-60400498D01*
X169212519Y-60400498D01*
X169268802Y-60394748D01*
X169315297Y-60389999D01*
X169481834Y-60334814D01*
X169631156Y-60242712D01*
X169755212Y-60118656D01*
X169767904Y-60098077D01*
X169819848Y-60051354D01*
X169888810Y-60040129D01*
X169952893Y-60067970D01*
X169961124Y-60075492D01*
X170031344Y-60145712D01*
X170180666Y-60237814D01*
X170347203Y-60292999D01*
X170449991Y-60303500D01*
X171047903Y-60303499D01*
X171114941Y-60323183D01*
X171160696Y-60375987D01*
X171170640Y-60445146D01*
X171141615Y-60508702D01*
X171135583Y-60515180D01*
X169334702Y-62316061D01*
X169273379Y-62349546D01*
X169234420Y-62351738D01*
X169212511Y-62349500D01*
X168287498Y-62349500D01*
X168287480Y-62349501D01*
X168184703Y-62360000D01*
X168184700Y-62360001D01*
X168018168Y-62415185D01*
X168018163Y-62415187D01*
X167868842Y-62507289D01*
X167744789Y-62631342D01*
X167652687Y-62780663D01*
X167652685Y-62780668D01*
X167640627Y-62817057D01*
X167597501Y-62947203D01*
X167597501Y-62947204D01*
X167597500Y-62947204D01*
X167587000Y-63049983D01*
X167587000Y-64450001D01*
X167587001Y-64450018D01*
X167597500Y-64552796D01*
X167597501Y-64552799D01*
X167652685Y-64719331D01*
X167652687Y-64719336D01*
X167687569Y-64775888D01*
X167744788Y-64868656D01*
X167868844Y-64992712D01*
X167933909Y-65032844D01*
X167969909Y-65055049D01*
X168016633Y-65106997D01*
X168027856Y-65175960D01*
X168000012Y-65240042D01*
X167992493Y-65248269D01*
X160212180Y-73028583D01*
X160150857Y-73062068D01*
X160081165Y-73057084D01*
X160025232Y-73015212D01*
X160000815Y-72949748D01*
X160000499Y-72940902D01*
X160000499Y-72622129D01*
X160000498Y-72622123D01*
X160000497Y-72622116D01*
X159994091Y-72562517D01*
X159981340Y-72528332D01*
X159976357Y-72458642D01*
X159981340Y-72441669D01*
X159994091Y-72407483D01*
X160000500Y-72347873D01*
X160000499Y-71352128D01*
X159994091Y-71292517D01*
X159981340Y-71258332D01*
X159976357Y-71188642D01*
X159981340Y-71171669D01*
X159994091Y-71137483D01*
X160000500Y-71077873D01*
X160000499Y-70082128D01*
X159994091Y-70022517D01*
X159981340Y-69988332D01*
X159976357Y-69918642D01*
X159981338Y-69901672D01*
X159994091Y-69867483D01*
X160000500Y-69807873D01*
X160000499Y-68812128D01*
X159994091Y-68752517D01*
X159981340Y-68718332D01*
X159976357Y-68648642D01*
X159981338Y-68631672D01*
X159994091Y-68597483D01*
X160000500Y-68537873D01*
X160000499Y-67542128D01*
X159994091Y-67482517D01*
X159981340Y-67448332D01*
X159976357Y-67378642D01*
X159981338Y-67361672D01*
X159994091Y-67327483D01*
X160000500Y-67267873D01*
X160000499Y-66272128D01*
X159994091Y-66212517D01*
X159981340Y-66178332D01*
X159976357Y-66108642D01*
X159981338Y-66091672D01*
X159994091Y-66057483D01*
X160000500Y-65997873D01*
X160000499Y-65002128D01*
X159994091Y-64942517D01*
X159981340Y-64908332D01*
X159976357Y-64838642D01*
X159981338Y-64821672D01*
X159994091Y-64787483D01*
X160000500Y-64727873D01*
X160000499Y-64220718D01*
X160000499Y-63732129D01*
X160000498Y-63732123D01*
X159996804Y-63697753D01*
X160009211Y-63628994D01*
X160056822Y-63577857D01*
X160120094Y-63560500D01*
X161086000Y-63560500D01*
X161153039Y-63580185D01*
X161198794Y-63632989D01*
X161210000Y-63684500D01*
X161210000Y-63885000D01*
X162126988Y-63885000D01*
X162094075Y-63942007D01*
X162060000Y-64069174D01*
X162060000Y-64200826D01*
X162094075Y-64327993D01*
X162126988Y-64385000D01*
X161210000Y-64385000D01*
X161210000Y-65032844D01*
X161216401Y-65092372D01*
X161216403Y-65092379D01*
X161266645Y-65227086D01*
X161266649Y-65227093D01*
X161352809Y-65342187D01*
X161352812Y-65342190D01*
X161467906Y-65428350D01*
X161467913Y-65428354D01*
X161602620Y-65478596D01*
X161602627Y-65478598D01*
X161662155Y-65484999D01*
X161662172Y-65485000D01*
X162310000Y-65485000D01*
X162310000Y-64568012D01*
X162367007Y-64600925D01*
X162494174Y-64635000D01*
X162625826Y-64635000D01*
X162752993Y-64600925D01*
X162810000Y-64568012D01*
X162810000Y-65485000D01*
X163457828Y-65485000D01*
X163457844Y-65484999D01*
X163517372Y-65478598D01*
X163517379Y-65478596D01*
X163652086Y-65428354D01*
X163652093Y-65428350D01*
X163767187Y-65342190D01*
X163767190Y-65342187D01*
X163853350Y-65227093D01*
X163853354Y-65227086D01*
X163903596Y-65092379D01*
X163903598Y-65092372D01*
X163909999Y-65032844D01*
X163910000Y-65032827D01*
X163910000Y-64449986D01*
X164462501Y-64449986D01*
X164472994Y-64552697D01*
X164528141Y-64719119D01*
X164528143Y-64719124D01*
X164620184Y-64868345D01*
X164744154Y-64992315D01*
X164893375Y-65084356D01*
X164893380Y-65084358D01*
X165059802Y-65139505D01*
X165059809Y-65139506D01*
X165162519Y-65149999D01*
X165374999Y-65149999D01*
X165875000Y-65149999D01*
X166087472Y-65149999D01*
X166087486Y-65149998D01*
X166190197Y-65139505D01*
X166356619Y-65084358D01*
X166356624Y-65084356D01*
X166505845Y-64992315D01*
X166629815Y-64868345D01*
X166721856Y-64719124D01*
X166721858Y-64719119D01*
X166777005Y-64552697D01*
X166777006Y-64552690D01*
X166787499Y-64449986D01*
X166787500Y-64449973D01*
X166787500Y-64000000D01*
X165875000Y-64000000D01*
X165875000Y-65149999D01*
X165374999Y-65149999D01*
X165375000Y-65149998D01*
X165375000Y-64000000D01*
X164462501Y-64000000D01*
X164462501Y-64449986D01*
X163910000Y-64449986D01*
X163910000Y-64385000D01*
X162993012Y-64385000D01*
X163025925Y-64327993D01*
X163060000Y-64200826D01*
X163060000Y-64069174D01*
X163025925Y-63942007D01*
X162993012Y-63885000D01*
X163910000Y-63885000D01*
X163910000Y-63237172D01*
X163909999Y-63237155D01*
X163903598Y-63177627D01*
X163903596Y-63177620D01*
X163870990Y-63090197D01*
X163856007Y-63050026D01*
X164462500Y-63050026D01*
X164462500Y-63500000D01*
X165375000Y-63500000D01*
X165875000Y-63500000D01*
X166787499Y-63500000D01*
X166787499Y-63050028D01*
X166787498Y-63050011D01*
X166777005Y-62947302D01*
X166721858Y-62780880D01*
X166721856Y-62780875D01*
X166629815Y-62631654D01*
X166505845Y-62507684D01*
X166356624Y-62415643D01*
X166356619Y-62415641D01*
X166190197Y-62360494D01*
X166190190Y-62360493D01*
X166087486Y-62350000D01*
X165875000Y-62350000D01*
X165875000Y-63500000D01*
X165375000Y-63500000D01*
X165375000Y-62350000D01*
X165162529Y-62350000D01*
X165162512Y-62350001D01*
X165059802Y-62360494D01*
X164893380Y-62415641D01*
X164893375Y-62415643D01*
X164744154Y-62507684D01*
X164620184Y-62631654D01*
X164528143Y-62780875D01*
X164528141Y-62780880D01*
X164472994Y-62947302D01*
X164472993Y-62947309D01*
X164462501Y-63050011D01*
X164462500Y-63050026D01*
X163856007Y-63050026D01*
X163853354Y-63042913D01*
X163853350Y-63042906D01*
X163767190Y-62927812D01*
X163767187Y-62927809D01*
X163652093Y-62841649D01*
X163652088Y-62841646D01*
X163520528Y-62792577D01*
X163464595Y-62750705D01*
X163440178Y-62685241D01*
X163455030Y-62616968D01*
X163476175Y-62588720D01*
X163590104Y-62474792D01*
X163594891Y-62468204D01*
X163715048Y-62302820D01*
X163715047Y-62302820D01*
X163715051Y-62302816D01*
X163811557Y-62113412D01*
X163877246Y-61911243D01*
X163910500Y-61701287D01*
X163910500Y-61488713D01*
X163877246Y-61278757D01*
X163811557Y-61076588D01*
X163715051Y-60887184D01*
X163715049Y-60887181D01*
X163715048Y-60887179D01*
X163590109Y-60715213D01*
X163439786Y-60564890D01*
X163267820Y-60439951D01*
X163267115Y-60439591D01*
X163259054Y-60435485D01*
X163208259Y-60387512D01*
X163191463Y-60319692D01*
X163213999Y-60253556D01*
X163259054Y-60214515D01*
X163267816Y-60210051D01*
X163356372Y-60145712D01*
X163439786Y-60085109D01*
X163439788Y-60085106D01*
X163439792Y-60085104D01*
X163590104Y-59934792D01*
X163590106Y-59934788D01*
X163590109Y-59934786D01*
X163715048Y-59762820D01*
X163715047Y-59762820D01*
X163715051Y-59762816D01*
X163747064Y-59699986D01*
X164462501Y-59699986D01*
X164472994Y-59802697D01*
X164528141Y-59969119D01*
X164528143Y-59969124D01*
X164620184Y-60118345D01*
X164744154Y-60242315D01*
X164893375Y-60334356D01*
X164893380Y-60334358D01*
X165059802Y-60389505D01*
X165059809Y-60389506D01*
X165162519Y-60399999D01*
X165374999Y-60399999D01*
X165875000Y-60399999D01*
X166087472Y-60399999D01*
X166087486Y-60399998D01*
X166190197Y-60389505D01*
X166356619Y-60334358D01*
X166356624Y-60334356D01*
X166505845Y-60242315D01*
X166629815Y-60118345D01*
X166721856Y-59969124D01*
X166721858Y-59969119D01*
X166777005Y-59802697D01*
X166777006Y-59802690D01*
X166787499Y-59699986D01*
X166787500Y-59699973D01*
X166787500Y-59250000D01*
X165875000Y-59250000D01*
X165875000Y-60399999D01*
X165374999Y-60399999D01*
X165375000Y-60399998D01*
X165375000Y-59250000D01*
X164462501Y-59250000D01*
X164462501Y-59699986D01*
X163747064Y-59699986D01*
X163811557Y-59573412D01*
X163877246Y-59371243D01*
X163910500Y-59161287D01*
X163910500Y-58948713D01*
X163877246Y-58738757D01*
X163811557Y-58536588D01*
X163715051Y-58347184D01*
X163715049Y-58347181D01*
X163715048Y-58347179D01*
X163590109Y-58175213D01*
X163439786Y-58024890D01*
X163267820Y-57899951D01*
X163078414Y-57803444D01*
X163078413Y-57803443D01*
X163078412Y-57803443D01*
X162878323Y-57738430D01*
X162820649Y-57698993D01*
X162793451Y-57634635D01*
X162805366Y-57565789D01*
X162852610Y-57514313D01*
X162916643Y-57496500D01*
X164730363Y-57496500D01*
X164731507Y-57496836D01*
G37*
%TD.AperFunction*%
%TA.AperFunction,Conductor*%
G36*
X170533270Y-70103717D02*
G01*
X170533270Y-70103716D01*
X170572622Y-70049555D01*
X170577232Y-70040507D01*
X170625205Y-69989709D01*
X170693025Y-69972912D01*
X170759161Y-69995447D01*
X170798204Y-70040504D01*
X170802949Y-70049817D01*
X170927890Y-70221786D01*
X171078213Y-70372109D01*
X171250179Y-70497048D01*
X171250181Y-70497049D01*
X171250184Y-70497051D01*
X171439588Y-70593557D01*
X171641757Y-70659246D01*
X171851713Y-70692500D01*
X171851714Y-70692500D01*
X172064286Y-70692500D01*
X172064287Y-70692500D01*
X172274243Y-70659246D01*
X172476412Y-70593557D01*
X172566205Y-70547804D01*
X172634874Y-70534909D01*
X172699615Y-70561185D01*
X172739872Y-70618291D01*
X172746500Y-70658290D01*
X172746500Y-71208902D01*
X172726815Y-71275941D01*
X172710181Y-71296583D01*
X172442522Y-71564241D01*
X172381199Y-71597726D01*
X172316523Y-71594491D01*
X172274245Y-71580754D01*
X172134272Y-71558584D01*
X172064287Y-71547500D01*
X171851713Y-71547500D01*
X171803042Y-71555208D01*
X171641760Y-71580753D01*
X171439585Y-71646444D01*
X171250179Y-71742951D01*
X171078213Y-71867890D01*
X170927890Y-72018213D01*
X170802949Y-72190182D01*
X170798202Y-72199499D01*
X170750227Y-72250293D01*
X170682405Y-72267087D01*
X170616271Y-72244548D01*
X170577234Y-72199495D01*
X170572626Y-72190452D01*
X170533270Y-72136282D01*
X170533269Y-72136282D01*
X169900962Y-72768590D01*
X169883925Y-72705007D01*
X169818099Y-72590993D01*
X169725007Y-72497901D01*
X169610993Y-72432075D01*
X169547409Y-72415037D01*
X170179716Y-71782728D01*
X170125550Y-71743375D01*
X169936217Y-71646904D01*
X169734129Y-71581242D01*
X169524246Y-71548000D01*
X169311754Y-71548000D01*
X169101872Y-71581242D01*
X169101869Y-71581242D01*
X168899782Y-71646904D01*
X168710439Y-71743380D01*
X168656282Y-71782727D01*
X168656282Y-71782728D01*
X169288591Y-72415037D01*
X169225007Y-72432075D01*
X169110993Y-72497901D01*
X169017901Y-72590993D01*
X168952075Y-72705007D01*
X168935037Y-72768591D01*
X168264818Y-72098372D01*
X168231333Y-72037049D01*
X168231330Y-72037036D01*
X168228499Y-72024015D01*
X168228499Y-72000128D01*
X168222091Y-71940517D01*
X168193926Y-71865002D01*
X168171798Y-71805673D01*
X168171793Y-71805664D01*
X168085547Y-71690455D01*
X168085544Y-71690452D01*
X167970335Y-71604206D01*
X167970328Y-71604202D01*
X167835482Y-71553908D01*
X167835483Y-71553908D01*
X167775883Y-71547501D01*
X167775881Y-71547500D01*
X167775873Y-71547500D01*
X167775865Y-71547500D01*
X167752500Y-71547500D01*
X167685461Y-71527815D01*
X167639706Y-71475011D01*
X167628500Y-71423500D01*
X167628500Y-70816499D01*
X167648185Y-70749460D01*
X167700989Y-70703705D01*
X167752500Y-70692499D01*
X167775871Y-70692499D01*
X167775872Y-70692499D01*
X167835483Y-70686091D01*
X167970331Y-70635796D01*
X168085546Y-70549546D01*
X168171796Y-70434331D01*
X168222091Y-70299483D01*
X168228500Y-70239873D01*
X168228499Y-70215979D01*
X168231330Y-70202963D01*
X168241940Y-70183525D01*
X168248179Y-70162275D01*
X168264803Y-70141643D01*
X168264808Y-70141636D01*
X168264811Y-70141634D01*
X168264818Y-70141626D01*
X168935037Y-69471408D01*
X168952075Y-69534993D01*
X169017901Y-69649007D01*
X169110993Y-69742099D01*
X169225007Y-69807925D01*
X169288590Y-69824962D01*
X168656282Y-70457269D01*
X168656282Y-70457270D01*
X168710449Y-70496624D01*
X168899782Y-70593095D01*
X169101870Y-70658757D01*
X169311754Y-70692000D01*
X169524246Y-70692000D01*
X169734127Y-70658757D01*
X169734130Y-70658757D01*
X169936217Y-70593095D01*
X170125554Y-70496622D01*
X170179716Y-70457270D01*
X170179717Y-70457270D01*
X169547408Y-69824962D01*
X169610993Y-69807925D01*
X169725007Y-69742099D01*
X169818099Y-69649007D01*
X169883925Y-69534993D01*
X169900962Y-69471408D01*
X170533270Y-70103717D01*
G37*
%TD.AperFunction*%
%TA.AperFunction,Conductor*%
G36*
X128195726Y-58936185D02*
G01*
X128241481Y-58988989D01*
X128251425Y-59058147D01*
X128246393Y-59079505D01*
X128240494Y-59097305D01*
X128240493Y-59097309D01*
X128230000Y-59200013D01*
X128230000Y-59750000D01*
X129146988Y-59750000D01*
X129114075Y-59807007D01*
X129080000Y-59934174D01*
X129080000Y-60065826D01*
X129114075Y-60192993D01*
X129146988Y-60250000D01*
X128230001Y-60250000D01*
X128230001Y-60799986D01*
X128240494Y-60902697D01*
X128295641Y-61069119D01*
X128295643Y-61069124D01*
X128387684Y-61218345D01*
X128511654Y-61342315D01*
X128660875Y-61434356D01*
X128660880Y-61434358D01*
X128827302Y-61489505D01*
X128827309Y-61489506D01*
X128930019Y-61499999D01*
X129329999Y-61499999D01*
X129330000Y-61499998D01*
X129330000Y-60433012D01*
X129387007Y-60465925D01*
X129514174Y-60500000D01*
X129645826Y-60500000D01*
X129772993Y-60465925D01*
X129830000Y-60433012D01*
X129830000Y-61499999D01*
X130229972Y-61499999D01*
X130229986Y-61499998D01*
X130332697Y-61489505D01*
X130499119Y-61434358D01*
X130499124Y-61434356D01*
X130648345Y-61342315D01*
X130772317Y-61218343D01*
X130867815Y-61063516D01*
X130919763Y-61016791D01*
X130988725Y-61005568D01*
X131052808Y-61033412D01*
X131061035Y-61040931D01*
X131200213Y-61180109D01*
X131334047Y-61277343D01*
X131372184Y-61305051D01*
X131423381Y-61331137D01*
X131439580Y-61339391D01*
X131490376Y-61387366D01*
X131507171Y-61455187D01*
X131484634Y-61521322D01*
X131470966Y-61537557D01*
X128621344Y-64387181D01*
X128560021Y-64420666D01*
X128533663Y-64423500D01*
X117527261Y-64423500D01*
X117460222Y-64403815D01*
X117414467Y-64351011D01*
X117404523Y-64281853D01*
X117424159Y-64230609D01*
X117505080Y-64109501D01*
X117505080Y-64109500D01*
X117505084Y-64109495D01*
X117561658Y-63972913D01*
X117576596Y-63897817D01*
X117590500Y-63827920D01*
X117590500Y-63608230D01*
X117599145Y-63578786D01*
X117605668Y-63548804D01*
X117609422Y-63543788D01*
X117610185Y-63541191D01*
X117626813Y-63520554D01*
X117738401Y-63408966D01*
X117799720Y-63375484D01*
X117869412Y-63380468D01*
X117891172Y-63391110D01*
X117939969Y-63421208D01*
X118010657Y-63464809D01*
X118010660Y-63464810D01*
X118010666Y-63464814D01*
X118177203Y-63519999D01*
X118279991Y-63530500D01*
X120480008Y-63530499D01*
X120582797Y-63519999D01*
X120749334Y-63464814D01*
X120898656Y-63372712D01*
X121022712Y-63248656D01*
X121074755Y-63164279D01*
X121126701Y-63117556D01*
X121195664Y-63106333D01*
X121259746Y-63134176D01*
X121285831Y-63164280D01*
X121337680Y-63248340D01*
X121337683Y-63248344D01*
X121461654Y-63372315D01*
X121610875Y-63464356D01*
X121610880Y-63464358D01*
X121777302Y-63519505D01*
X121777309Y-63519506D01*
X121880019Y-63529999D01*
X122729999Y-63529999D01*
X123230000Y-63529999D01*
X124079972Y-63529999D01*
X124079986Y-63529998D01*
X124182697Y-63519505D01*
X124349119Y-63464358D01*
X124349124Y-63464356D01*
X124498345Y-63372315D01*
X124622315Y-63248345D01*
X124714356Y-63099124D01*
X124714358Y-63099119D01*
X124769505Y-62932697D01*
X124769506Y-62932690D01*
X124779999Y-62829986D01*
X124780000Y-62829973D01*
X124780000Y-62480000D01*
X123230000Y-62480000D01*
X123230000Y-63529999D01*
X122729999Y-63529999D01*
X122730000Y-63529998D01*
X122730000Y-61980000D01*
X123230000Y-61980000D01*
X124779999Y-61980000D01*
X124779999Y-61630028D01*
X124779998Y-61630013D01*
X124769505Y-61527302D01*
X124714358Y-61360880D01*
X124714356Y-61360875D01*
X124622315Y-61211654D01*
X124498345Y-61087684D01*
X124349124Y-60995643D01*
X124349119Y-60995641D01*
X124182697Y-60940494D01*
X124182690Y-60940493D01*
X124079986Y-60930000D01*
X123230000Y-60930000D01*
X123230000Y-61980000D01*
X122730000Y-61980000D01*
X122730000Y-60930000D01*
X121880028Y-60930000D01*
X121880012Y-60930001D01*
X121777302Y-60940494D01*
X121610880Y-60995641D01*
X121610875Y-60995643D01*
X121461654Y-61087684D01*
X121337682Y-61211656D01*
X121285831Y-61295720D01*
X121233883Y-61342444D01*
X121164920Y-61353665D01*
X121100838Y-61325822D01*
X121074754Y-61295718D01*
X121022712Y-61211344D01*
X120898657Y-61087289D01*
X120898656Y-61087288D01*
X120805440Y-61029792D01*
X120749336Y-60995187D01*
X120749331Y-60995185D01*
X120702223Y-60979575D01*
X120582797Y-60940001D01*
X120582795Y-60940000D01*
X120480010Y-60929500D01*
X118279998Y-60929500D01*
X118279981Y-60929501D01*
X118177203Y-60940000D01*
X118177200Y-60940001D01*
X118010668Y-60995185D01*
X118010663Y-60995187D01*
X117861342Y-61087289D01*
X117737289Y-61211342D01*
X117645187Y-61360663D01*
X117645185Y-61360668D01*
X117607598Y-61474099D01*
X117567825Y-61531544D01*
X117537345Y-61549656D01*
X117500504Y-61564916D01*
X117451269Y-61597813D01*
X117377588Y-61647044D01*
X117377580Y-61647050D01*
X116257050Y-62767581D01*
X116257047Y-62767584D01*
X116223991Y-62817056D01*
X116223992Y-62817057D01*
X116174913Y-62890508D01*
X116118343Y-63027082D01*
X116118340Y-63027092D01*
X116089500Y-63172079D01*
X116089500Y-63391769D01*
X116080855Y-63421208D01*
X116074332Y-63451196D01*
X116070577Y-63456211D01*
X116069815Y-63458808D01*
X116053181Y-63479451D01*
X115962180Y-63570451D01*
X115900856Y-63603935D01*
X115831165Y-63598951D01*
X115775231Y-63557079D01*
X115750815Y-63491614D01*
X115750499Y-63482794D01*
X115750499Y-62727228D01*
X115770184Y-62660190D01*
X115786813Y-62639553D01*
X119473548Y-58952819D01*
X119534871Y-58919334D01*
X119561229Y-58916500D01*
X128128687Y-58916500D01*
X128195726Y-58936185D01*
G37*
%TD.AperFunction*%
%TD*%
M02*
