%TF.GenerationSoftware,KiCad,Pcbnew,9.0.4-9.0.4-0~ubuntu22.04.1*%
%TF.CreationDate,2025-10-18T22:49:12+02:00*%
%TF.ProjectId,YR,59522e6b-6963-4616-945f-706362585858,rev?*%
%TF.SameCoordinates,Original*%
%TF.FileFunction,Soldermask,Top*%
%TF.FilePolarity,Negative*%
%FSLAX46Y46*%
G04 Gerber Fmt 4.6, Leading zero omitted, Abs format (unit mm)*
G04 Created by KiCad (PCBNEW 9.0.4-9.0.4-0~ubuntu22.04.1) date 2025-10-18 22:49:12*
%MOMM*%
%LPD*%
G01*
G04 APERTURE LIST*
G04 Aperture macros list*
%AMRoundRect*
0 Rectangle with rounded corners*
0 $1 Rounding radius*
0 $2 $3 $4 $5 $6 $7 $8 $9 X,Y pos of 4 corners*
0 Add a 4 corners polygon primitive as box body*
4,1,4,$2,$3,$4,$5,$6,$7,$8,$9,$2,$3,0*
0 Add four circle primitives for the rounded corners*
1,1,$1+$1,$2,$3*
1,1,$1+$1,$4,$5*
1,1,$1+$1,$6,$7*
1,1,$1+$1,$8,$9*
0 Add four rect primitives between the rounded corners*
20,1,$1+$1,$2,$3,$4,$5,0*
20,1,$1+$1,$4,$5,$6,$7,0*
20,1,$1+$1,$6,$7,$8,$9,0*
20,1,$1+$1,$8,$9,$2,$3,0*%
G04 Aperture macros list end*
%ADD10C,0.300000*%
%ADD11C,2.500000*%
%ADD12RoundRect,0.375000X0.375000X-0.625000X0.375000X0.625000X-0.375000X0.625000X-0.375000X-0.625000X0*%
%ADD13RoundRect,0.500000X1.400000X-0.500000X1.400000X0.500000X-1.400000X0.500000X-1.400000X-0.500000X0*%
%ADD14R,1.500000X0.900000*%
%ADD15R,0.900000X1.500000*%
%ADD16C,0.600000*%
%ADD17R,3.900000X3.900000*%
%ADD18RoundRect,0.250000X-0.650000X0.412500X-0.650000X-0.412500X0.650000X-0.412500X0.650000X0.412500X0*%
%ADD19R,1.700000X1.700000*%
%ADD20C,1.700000*%
%ADD21RoundRect,0.250000X-0.275000X-0.750000X0.275000X-0.750000X0.275000X0.750000X-0.275000X0.750000X0*%
%ADD22RoundRect,0.250000X0.400000X0.625000X-0.400000X0.625000X-0.400000X-0.625000X0.400000X-0.625000X0*%
%ADD23RoundRect,0.250000X-1.050000X-0.550000X1.050000X-0.550000X1.050000X0.550000X-1.050000X0.550000X0*%
%ADD24RoundRect,0.250000X1.050000X0.550000X-1.050000X0.550000X-1.050000X-0.550000X1.050000X-0.550000X0*%
%ADD25RoundRect,0.250000X-0.412500X-0.650000X0.412500X-0.650000X0.412500X0.650000X-0.412500X0.650000X0*%
%ADD26RoundRect,0.250000X-0.400000X-0.625000X0.400000X-0.625000X0.400000X0.625000X-0.400000X0.625000X0*%
%ADD27RoundRect,0.250000X-0.600000X-0.750000X0.600000X-0.750000X0.600000X0.750000X-0.600000X0.750000X0*%
%ADD28O,1.700000X2.000000*%
%ADD29RoundRect,0.250000X-0.550000X1.050000X-0.550000X-1.050000X0.550000X-1.050000X0.550000X1.050000X0*%
G04 APERTURE END LIST*
D10*
G36*
X154605355Y-79761912D02*
G01*
X154605355Y-80405247D01*
X153940587Y-81108117D01*
X153066076Y-81108117D01*
X153066076Y-82240000D01*
X152642742Y-82240000D01*
X152642742Y-80787732D01*
X153066076Y-80787732D01*
X153744033Y-80787732D01*
X154190448Y-80272623D01*
X154190448Y-79901680D01*
X153759420Y-79524691D01*
X153066076Y-79524691D01*
X153066076Y-80787732D01*
X152642742Y-80787732D01*
X152642742Y-79162356D01*
X153944434Y-79162356D01*
X154605355Y-79761912D01*
G37*
G36*
X157193353Y-79776749D02*
G01*
X157193353Y-80329959D01*
X156590317Y-80884635D01*
X157155434Y-81682027D01*
X157155434Y-82240000D01*
X156734298Y-82240000D01*
X156734298Y-81736249D01*
X156201421Y-80961022D01*
X155668728Y-80961022D01*
X155668728Y-82240000D01*
X155245394Y-82240000D01*
X155245394Y-80661702D01*
X155668728Y-80661702D01*
X156334595Y-80661702D01*
X156778262Y-80215837D01*
X156778262Y-79922562D01*
X156334778Y-79524691D01*
X155668728Y-79524691D01*
X155668728Y-80661702D01*
X155245394Y-80661702D01*
X155245394Y-79162356D01*
X156511366Y-79162356D01*
X157193353Y-79776749D01*
G37*
G36*
X159837953Y-80277203D02*
G01*
X159837953Y-81110315D01*
X159047705Y-82240000D01*
X158478742Y-82240000D01*
X157688494Y-81110315D01*
X157688494Y-80402683D01*
X158103401Y-80402683D01*
X158103401Y-80985019D01*
X158667602Y-81856599D01*
X158856646Y-81856599D01*
X159423046Y-80985019D01*
X159423046Y-80402500D01*
X158869286Y-79545757D01*
X158678044Y-79545757D01*
X158103401Y-80402683D01*
X157688494Y-80402683D01*
X157688494Y-80277203D01*
X158478742Y-79162356D01*
X159075000Y-79162356D01*
X159837953Y-80277203D01*
G37*
G36*
X161143675Y-79518463D02*
G01*
X160256891Y-79518463D01*
X160293710Y-79162356D01*
X162437857Y-79162356D01*
X162472662Y-79518463D01*
X161562796Y-79518463D01*
X161562796Y-82240000D01*
X161143675Y-82240000D01*
X161143675Y-79518463D01*
G37*
G36*
X165043257Y-80277203D02*
G01*
X165043257Y-81110315D01*
X164253009Y-82240000D01*
X163684045Y-82240000D01*
X162893797Y-81110315D01*
X162893797Y-80402683D01*
X163308705Y-80402683D01*
X163308705Y-80985019D01*
X163872906Y-81856599D01*
X164061950Y-81856599D01*
X164628349Y-80985019D01*
X164628349Y-80402500D01*
X164074590Y-79545757D01*
X163883347Y-79545757D01*
X163308705Y-80402683D01*
X162893797Y-80402683D01*
X162893797Y-80277203D01*
X163684045Y-79162356D01*
X164280303Y-79162356D01*
X165043257Y-80277203D01*
G37*
G36*
X165645376Y-79162356D02*
G01*
X166020350Y-79162356D01*
X167087203Y-81388203D01*
X167102773Y-81388203D01*
X167102773Y-79160158D01*
X167496798Y-79160158D01*
X167496798Y-82237984D01*
X167142890Y-82237984D01*
X166054972Y-79961580D01*
X166039401Y-79961580D01*
X166039401Y-82240000D01*
X165645376Y-82240000D01*
X165645376Y-79162356D01*
G37*
G36*
X170747548Y-81825092D02*
G01*
X172201465Y-80318602D01*
X172201465Y-79813935D01*
X171800296Y-79539345D01*
X170806167Y-79539345D01*
X170862404Y-79162356D01*
X171980364Y-79162356D01*
X172616556Y-79606024D01*
X172616556Y-80487130D01*
X171230233Y-81883893D01*
X172761453Y-81883893D01*
X172761453Y-82240000D01*
X170863136Y-82240000D01*
X170747548Y-81825092D01*
G37*
G36*
X174572391Y-80988316D02*
G01*
X174146859Y-80988316D01*
X174146859Y-80409644D01*
X174572391Y-80409644D01*
X174572391Y-80988316D01*
G37*
G36*
X175433347Y-80277203D02*
G01*
X175433347Y-81110315D01*
X174643100Y-82240000D01*
X174074136Y-82240000D01*
X173283888Y-81110315D01*
X173283888Y-80402683D01*
X173698796Y-80402683D01*
X173698796Y-80985019D01*
X174262997Y-81856599D01*
X174452041Y-81856599D01*
X175018440Y-80985019D01*
X175018440Y-80402500D01*
X174464680Y-79545757D01*
X174273438Y-79545757D01*
X173698796Y-80402683D01*
X173283888Y-80402683D01*
X173283888Y-80277203D01*
X174074136Y-79162356D01*
X174670394Y-79162356D01*
X175433347Y-80277203D01*
G37*
G36*
X175952852Y-81825092D02*
G01*
X177406769Y-80318602D01*
X177406769Y-79813935D01*
X177005600Y-79539345D01*
X176011470Y-79539345D01*
X176067707Y-79162356D01*
X177185668Y-79162356D01*
X177821859Y-79606024D01*
X177821859Y-80487130D01*
X176435537Y-81883893D01*
X177966756Y-81883893D01*
X177966756Y-82240000D01*
X176068440Y-82240000D01*
X175952852Y-81825092D01*
G37*
G36*
X178637203Y-81862827D02*
G01*
X179643422Y-81862827D01*
X180137648Y-81399926D01*
X180137648Y-81062871D01*
X179794548Y-80734242D01*
X178602215Y-80734242D01*
X178684830Y-79162356D01*
X180362779Y-79162356D01*
X180406193Y-79518463D01*
X179031777Y-79518463D01*
X178984150Y-80397004D01*
X180003009Y-80397004D01*
X180550357Y-80912845D01*
X180550357Y-81552151D01*
X179824590Y-82240000D01*
X178689410Y-82240000D01*
X178637203Y-81862827D01*
G37*
D11*
%TO.C,REF\u002A\u002A*%
X205000000Y-52500000D03*
%TD*%
D12*
%TO.C,U3*%
X184450000Y-58800000D03*
X186750000Y-58800000D03*
D13*
X186750000Y-52500000D03*
D12*
X189050000Y-58800000D03*
%TD*%
D11*
%TO.C,REF\u002A\u002A*%
X96750000Y-52500000D03*
%TD*%
D14*
%TO.C,U2*%
X141250000Y-57880000D03*
X141250000Y-59150000D03*
X141250000Y-60420000D03*
X141250000Y-61690000D03*
X141250000Y-62960000D03*
X141250000Y-64230000D03*
X141250000Y-65500000D03*
X141250000Y-66770000D03*
X141250000Y-68040000D03*
X141250000Y-69310000D03*
X141250000Y-70580000D03*
X141250000Y-71850000D03*
X141250000Y-73120000D03*
X141250000Y-74390000D03*
D15*
X143015000Y-75640000D03*
X144285000Y-75640000D03*
X145555000Y-75640000D03*
X146825000Y-75640000D03*
X148095000Y-75640000D03*
X149365000Y-75640000D03*
X150635000Y-75640000D03*
X151905000Y-75640000D03*
X153175000Y-75640000D03*
X154445000Y-75640000D03*
X155715000Y-75640000D03*
X156985000Y-75640000D03*
D14*
X158750000Y-74390000D03*
X158750000Y-73120000D03*
X158750000Y-71850000D03*
X158750000Y-70580000D03*
X158750000Y-69310000D03*
X158750000Y-68040000D03*
X158750000Y-66770000D03*
X158750000Y-65500000D03*
X158750000Y-64230000D03*
X158750000Y-62960000D03*
X158750000Y-61690000D03*
X158750000Y-60420000D03*
X158750000Y-59150000D03*
X158750000Y-57880000D03*
D16*
X147100000Y-64900000D03*
X147100000Y-66300000D03*
X147800000Y-64200000D03*
X147800000Y-65600000D03*
X147800000Y-67000000D03*
X148500000Y-64900000D03*
D17*
X148500000Y-65600000D03*
D16*
X148500000Y-66300000D03*
X149200000Y-64200000D03*
X149200000Y-65600000D03*
X149200000Y-67000000D03*
X149900000Y-64900000D03*
X149900000Y-66300000D03*
%TD*%
D18*
%TO.C,C8*%
X122000000Y-69125000D03*
X122000000Y-72250000D03*
%TD*%
D19*
%TO.C,J5*%
X189590000Y-69250000D03*
D20*
X192130000Y-69250000D03*
X194670000Y-69250000D03*
X197210000Y-69250000D03*
X199750000Y-69250000D03*
%TD*%
D12*
%TO.C,U1*%
X109900000Y-62865000D03*
X112200000Y-62865000D03*
D13*
X112200000Y-56565000D03*
D12*
X114500000Y-62865000D03*
%TD*%
D19*
%TO.C,J4*%
X189630000Y-73000000D03*
D20*
X192170000Y-73000000D03*
X194710000Y-73000000D03*
X197250000Y-73000000D03*
X199790000Y-73000000D03*
%TD*%
D19*
%TO.C,J6*%
X107950000Y-81280000D03*
D20*
X110490000Y-81280000D03*
X113030000Y-81280000D03*
X115570000Y-81280000D03*
X118110000Y-81280000D03*
X120650000Y-81280000D03*
X123190000Y-81280000D03*
X125730000Y-81280000D03*
X128270000Y-81280000D03*
X130810000Y-81280000D03*
X133350000Y-81280000D03*
X135890000Y-81280000D03*
X138430000Y-81280000D03*
X140970000Y-81280000D03*
%TD*%
D11*
%TO.C,REF\u002A\u002A*%
X205000000Y-80500000D03*
%TD*%
D19*
%TO.C,J7*%
X108840000Y-73660000D03*
D20*
X111380000Y-73660000D03*
X113920000Y-73660000D03*
X116460000Y-73660000D03*
X119000000Y-73660000D03*
%TD*%
D21*
%TO.C,S2*%
X177300000Y-53250000D03*
X181750000Y-53250000D03*
%TD*%
D18*
%TO.C,C10*%
X193000000Y-52750000D03*
X193000000Y-55875000D03*
%TD*%
D19*
%TO.C,J10*%
X108880000Y-70000000D03*
D20*
X111420000Y-70000000D03*
X113960000Y-70000000D03*
X116500000Y-70000000D03*
X119040000Y-70000000D03*
%TD*%
D19*
%TO.C,J8*%
X166878000Y-72898000D03*
D20*
X169418000Y-72898000D03*
X171958000Y-72898000D03*
X174498000Y-72898000D03*
X177038000Y-72898000D03*
X179578000Y-72898000D03*
%TD*%
D11*
%TO.C,REF\u002A\u002A*%
X103250000Y-52500000D03*
%TD*%
D22*
%TO.C,R9*%
X181102000Y-63246000D03*
X178002000Y-63246000D03*
%TD*%
D23*
%TO.C,C2*%
X119380000Y-62230000D03*
X122980000Y-62230000D03*
%TD*%
D24*
%TO.C,C12*%
X187500000Y-63250000D03*
X183900000Y-63250000D03*
%TD*%
D11*
%TO.C,REF\u002A\u002A*%
X103250000Y-80500000D03*
%TD*%
D18*
%TO.C,C11*%
X186500000Y-69875000D03*
X186500000Y-73000000D03*
%TD*%
D25*
%TO.C,C3*%
X165625000Y-59000000D03*
X168750000Y-59000000D03*
%TD*%
D26*
%TO.C,R1*%
X170900000Y-58928000D03*
X174000000Y-58928000D03*
%TD*%
D11*
%TO.C,REF\u002A\u002A*%
X96750000Y-80500000D03*
%TD*%
D25*
%TO.C,C1*%
X120375000Y-56250000D03*
X123500000Y-56250000D03*
%TD*%
D11*
%TO.C,REF\u002A\u002A*%
X198500000Y-52500000D03*
%TD*%
%TO.C,REF\u002A\u002A*%
X198500000Y-80500000D03*
%TD*%
D25*
%TO.C,C7*%
X165625000Y-63750000D03*
X168750000Y-63750000D03*
%TD*%
D26*
%TO.C,R6*%
X170900000Y-63750000D03*
X174000000Y-63750000D03*
%TD*%
D19*
%TO.C,J1*%
X162560000Y-64135000D03*
D20*
X162560000Y-61595000D03*
X162560000Y-59055000D03*
%TD*%
D27*
%TO.C,J2*%
X129580000Y-60000000D03*
D28*
X132080000Y-60000000D03*
%TD*%
D21*
%TO.C,S1*%
X177275000Y-57500000D03*
X181725000Y-57500000D03*
%TD*%
D19*
%TO.C,J9*%
X166878000Y-69342000D03*
D20*
X169418000Y-69342000D03*
X171958000Y-69342000D03*
X174498000Y-69342000D03*
X177038000Y-69342000D03*
X179578000Y-69342000D03*
X182118000Y-69342000D03*
%TD*%
D29*
%TO.C,C9*%
X125750000Y-68900000D03*
X125750000Y-72500000D03*
%TD*%
D19*
%TO.C,J3*%
X104290000Y-74890000D03*
D20*
X101750000Y-74890000D03*
X104290000Y-72350000D03*
X101750000Y-72350000D03*
X104290000Y-69810000D03*
X101750000Y-69810000D03*
X104290000Y-67270000D03*
X101750000Y-67270000D03*
X104290000Y-64730000D03*
X101750000Y-64730000D03*
X104290000Y-62190000D03*
X101750000Y-62190000D03*
X104290000Y-59650000D03*
X101750000Y-59650000D03*
X104290000Y-57110000D03*
X101750000Y-57110000D03*
%TD*%
M02*
