%TF.GenerationSoftware,KiCad,Pcbnew,9.0.4-9.0.4-0~ubuntu22.04.1*%
%TF.CreationDate,2025-10-18T22:49:12+02:00*%
%TF.ProjectId,YR,59522e6b-6963-4616-945f-706362585858,rev?*%
%TF.SameCoordinates,Original*%
%TF.FileFunction,Legend,Top*%
%TF.FilePolarity,Positive*%
%FSLAX46Y46*%
G04 Gerber Fmt 4.6, Leading zero omitted, Abs format (unit mm)*
G04 Created by KiCad (PCBNEW 9.0.4-9.0.4-0~ubuntu22.04.1) date 2025-10-18 22:49:12*
%MOMM*%
%LPD*%
G01*
G04 APERTURE LIST*
%ADD10C,0.100000*%
%ADD11C,0.150000*%
%ADD12C,0.300000*%
%ADD13C,0.120000*%
G04 APERTURE END LIST*
D10*
X202000000Y-66250000D02*
X194500000Y-66250000D01*
X182500000Y-50292000D02*
X182500000Y-67310000D01*
X194310000Y-66250000D02*
X194310000Y-56134000D01*
X182500000Y-67310000D02*
X184250000Y-67310000D01*
X182500000Y-60706000D02*
X175514000Y-60706000D01*
X184250000Y-76000000D02*
X202000000Y-76000000D01*
X194500000Y-66250000D02*
X194310000Y-66250000D01*
X194310000Y-56134000D02*
X194310000Y-50292000D01*
X184250000Y-67310000D02*
X184250000Y-76000000D01*
X194310000Y-50292000D02*
X182500000Y-50292000D01*
X175514000Y-65786000D02*
X182500000Y-65786000D01*
X175514000Y-60706000D02*
X175514000Y-65502000D01*
X202000000Y-76000000D02*
X202000000Y-66250000D01*
X128650419Y-79452115D02*
X127650419Y-79452115D01*
X127650419Y-78785449D02*
X127650419Y-78594973D01*
X127650419Y-78594973D02*
X127698038Y-78499735D01*
X127698038Y-78499735D02*
X127793276Y-78404497D01*
X127793276Y-78404497D02*
X127983752Y-78356878D01*
X127983752Y-78356878D02*
X128317085Y-78356878D01*
X128317085Y-78356878D02*
X128507561Y-78404497D01*
X128507561Y-78404497D02*
X128602800Y-78499735D01*
X128602800Y-78499735D02*
X128650419Y-78594973D01*
X128650419Y-78594973D02*
X128650419Y-78785449D01*
X128650419Y-78785449D02*
X128602800Y-78880687D01*
X128602800Y-78880687D02*
X128507561Y-78975925D01*
X128507561Y-78975925D02*
X128317085Y-79023544D01*
X128317085Y-79023544D02*
X127983752Y-79023544D01*
X127983752Y-79023544D02*
X127793276Y-78975925D01*
X127793276Y-78975925D02*
X127698038Y-78880687D01*
X127698038Y-78880687D02*
X127650419Y-78785449D01*
X127650419Y-78023544D02*
X127650419Y-77404497D01*
X127650419Y-77404497D02*
X128031371Y-77737830D01*
X128031371Y-77737830D02*
X128031371Y-77594973D01*
X128031371Y-77594973D02*
X128078990Y-77499735D01*
X128078990Y-77499735D02*
X128126609Y-77452116D01*
X128126609Y-77452116D02*
X128221847Y-77404497D01*
X128221847Y-77404497D02*
X128459942Y-77404497D01*
X128459942Y-77404497D02*
X128555180Y-77452116D01*
X128555180Y-77452116D02*
X128602800Y-77499735D01*
X128602800Y-77499735D02*
X128650419Y-77594973D01*
X128650419Y-77594973D02*
X128650419Y-77880687D01*
X128650419Y-77880687D02*
X128602800Y-77975925D01*
X128602800Y-77975925D02*
X128555180Y-78023544D01*
X128650419Y-76928306D02*
X128650419Y-76737830D01*
X128650419Y-76737830D02*
X128602800Y-76642592D01*
X128602800Y-76642592D02*
X128555180Y-76594973D01*
X128555180Y-76594973D02*
X128412323Y-76499735D01*
X128412323Y-76499735D02*
X128221847Y-76452116D01*
X128221847Y-76452116D02*
X127840895Y-76452116D01*
X127840895Y-76452116D02*
X127745657Y-76499735D01*
X127745657Y-76499735D02*
X127698038Y-76547354D01*
X127698038Y-76547354D02*
X127650419Y-76642592D01*
X127650419Y-76642592D02*
X127650419Y-76833068D01*
X127650419Y-76833068D02*
X127698038Y-76928306D01*
X127698038Y-76928306D02*
X127745657Y-76975925D01*
X127745657Y-76975925D02*
X127840895Y-77023544D01*
X127840895Y-77023544D02*
X128078990Y-77023544D01*
X128078990Y-77023544D02*
X128174228Y-76975925D01*
X128174228Y-76975925D02*
X128221847Y-76928306D01*
X128221847Y-76928306D02*
X128269466Y-76833068D01*
X128269466Y-76833068D02*
X128269466Y-76642592D01*
X128269466Y-76642592D02*
X128221847Y-76547354D01*
X128221847Y-76547354D02*
X128174228Y-76499735D01*
X128174228Y-76499735D02*
X128078990Y-76452116D01*
X121030419Y-79452115D02*
X120030419Y-79452115D01*
X120030419Y-78785449D02*
X120030419Y-78594973D01*
X120030419Y-78594973D02*
X120078038Y-78499735D01*
X120078038Y-78499735D02*
X120173276Y-78404497D01*
X120173276Y-78404497D02*
X120363752Y-78356878D01*
X120363752Y-78356878D02*
X120697085Y-78356878D01*
X120697085Y-78356878D02*
X120887561Y-78404497D01*
X120887561Y-78404497D02*
X120982800Y-78499735D01*
X120982800Y-78499735D02*
X121030419Y-78594973D01*
X121030419Y-78594973D02*
X121030419Y-78785449D01*
X121030419Y-78785449D02*
X120982800Y-78880687D01*
X120982800Y-78880687D02*
X120887561Y-78975925D01*
X120887561Y-78975925D02*
X120697085Y-79023544D01*
X120697085Y-79023544D02*
X120363752Y-79023544D01*
X120363752Y-79023544D02*
X120173276Y-78975925D01*
X120173276Y-78975925D02*
X120078038Y-78880687D01*
X120078038Y-78880687D02*
X120030419Y-78785449D01*
X121030419Y-77404497D02*
X121030419Y-77975925D01*
X121030419Y-77690211D02*
X120030419Y-77690211D01*
X120030419Y-77690211D02*
X120173276Y-77785449D01*
X120173276Y-77785449D02*
X120268514Y-77880687D01*
X120268514Y-77880687D02*
X120316133Y-77975925D01*
X120363752Y-76547354D02*
X121030419Y-76547354D01*
X119982800Y-76785449D02*
X120697085Y-77023544D01*
X120697085Y-77023544D02*
X120697085Y-76404497D01*
X126110419Y-79452115D02*
X125110419Y-79452115D01*
X125110419Y-78785449D02*
X125110419Y-78594973D01*
X125110419Y-78594973D02*
X125158038Y-78499735D01*
X125158038Y-78499735D02*
X125253276Y-78404497D01*
X125253276Y-78404497D02*
X125443752Y-78356878D01*
X125443752Y-78356878D02*
X125777085Y-78356878D01*
X125777085Y-78356878D02*
X125967561Y-78404497D01*
X125967561Y-78404497D02*
X126062800Y-78499735D01*
X126062800Y-78499735D02*
X126110419Y-78594973D01*
X126110419Y-78594973D02*
X126110419Y-78785449D01*
X126110419Y-78785449D02*
X126062800Y-78880687D01*
X126062800Y-78880687D02*
X125967561Y-78975925D01*
X125967561Y-78975925D02*
X125777085Y-79023544D01*
X125777085Y-79023544D02*
X125443752Y-79023544D01*
X125443752Y-79023544D02*
X125253276Y-78975925D01*
X125253276Y-78975925D02*
X125158038Y-78880687D01*
X125158038Y-78880687D02*
X125110419Y-78785449D01*
X125110419Y-78023544D02*
X125110419Y-77404497D01*
X125110419Y-77404497D02*
X125491371Y-77737830D01*
X125491371Y-77737830D02*
X125491371Y-77594973D01*
X125491371Y-77594973D02*
X125538990Y-77499735D01*
X125538990Y-77499735D02*
X125586609Y-77452116D01*
X125586609Y-77452116D02*
X125681847Y-77404497D01*
X125681847Y-77404497D02*
X125919942Y-77404497D01*
X125919942Y-77404497D02*
X126015180Y-77452116D01*
X126015180Y-77452116D02*
X126062800Y-77499735D01*
X126062800Y-77499735D02*
X126110419Y-77594973D01*
X126110419Y-77594973D02*
X126110419Y-77880687D01*
X126110419Y-77880687D02*
X126062800Y-77975925D01*
X126062800Y-77975925D02*
X126015180Y-78023544D01*
X125538990Y-76833068D02*
X125491371Y-76928306D01*
X125491371Y-76928306D02*
X125443752Y-76975925D01*
X125443752Y-76975925D02*
X125348514Y-77023544D01*
X125348514Y-77023544D02*
X125300895Y-77023544D01*
X125300895Y-77023544D02*
X125205657Y-76975925D01*
X125205657Y-76975925D02*
X125158038Y-76928306D01*
X125158038Y-76928306D02*
X125110419Y-76833068D01*
X125110419Y-76833068D02*
X125110419Y-76642592D01*
X125110419Y-76642592D02*
X125158038Y-76547354D01*
X125158038Y-76547354D02*
X125205657Y-76499735D01*
X125205657Y-76499735D02*
X125300895Y-76452116D01*
X125300895Y-76452116D02*
X125348514Y-76452116D01*
X125348514Y-76452116D02*
X125443752Y-76499735D01*
X125443752Y-76499735D02*
X125491371Y-76547354D01*
X125491371Y-76547354D02*
X125538990Y-76642592D01*
X125538990Y-76642592D02*
X125538990Y-76833068D01*
X125538990Y-76833068D02*
X125586609Y-76928306D01*
X125586609Y-76928306D02*
X125634228Y-76975925D01*
X125634228Y-76975925D02*
X125729466Y-77023544D01*
X125729466Y-77023544D02*
X125919942Y-77023544D01*
X125919942Y-77023544D02*
X126015180Y-76975925D01*
X126015180Y-76975925D02*
X126062800Y-76928306D01*
X126062800Y-76928306D02*
X126110419Y-76833068D01*
X126110419Y-76833068D02*
X126110419Y-76642592D01*
X126110419Y-76642592D02*
X126062800Y-76547354D01*
X126062800Y-76547354D02*
X126015180Y-76499735D01*
X126015180Y-76499735D02*
X125919942Y-76452116D01*
X125919942Y-76452116D02*
X125729466Y-76452116D01*
X125729466Y-76452116D02*
X125634228Y-76499735D01*
X125634228Y-76499735D02*
X125586609Y-76547354D01*
X125586609Y-76547354D02*
X125538990Y-76642592D01*
X108330419Y-79452115D02*
X107330419Y-79452115D01*
X107330419Y-78785449D02*
X107330419Y-78594973D01*
X107330419Y-78594973D02*
X107378038Y-78499735D01*
X107378038Y-78499735D02*
X107473276Y-78404497D01*
X107473276Y-78404497D02*
X107663752Y-78356878D01*
X107663752Y-78356878D02*
X107997085Y-78356878D01*
X107997085Y-78356878D02*
X108187561Y-78404497D01*
X108187561Y-78404497D02*
X108282800Y-78499735D01*
X108282800Y-78499735D02*
X108330419Y-78594973D01*
X108330419Y-78594973D02*
X108330419Y-78785449D01*
X108330419Y-78785449D02*
X108282800Y-78880687D01*
X108282800Y-78880687D02*
X108187561Y-78975925D01*
X108187561Y-78975925D02*
X107997085Y-79023544D01*
X107997085Y-79023544D02*
X107663752Y-79023544D01*
X107663752Y-79023544D02*
X107473276Y-78975925D01*
X107473276Y-78975925D02*
X107378038Y-78880687D01*
X107378038Y-78880687D02*
X107330419Y-78785449D01*
X108330419Y-77404497D02*
X108330419Y-77975925D01*
X108330419Y-77690211D02*
X107330419Y-77690211D01*
X107330419Y-77690211D02*
X107473276Y-77785449D01*
X107473276Y-77785449D02*
X107568514Y-77880687D01*
X107568514Y-77880687D02*
X107616133Y-77975925D01*
X115950419Y-79452115D02*
X114950419Y-79452115D01*
X114950419Y-78785449D02*
X114950419Y-78594973D01*
X114950419Y-78594973D02*
X114998038Y-78499735D01*
X114998038Y-78499735D02*
X115093276Y-78404497D01*
X115093276Y-78404497D02*
X115283752Y-78356878D01*
X115283752Y-78356878D02*
X115617085Y-78356878D01*
X115617085Y-78356878D02*
X115807561Y-78404497D01*
X115807561Y-78404497D02*
X115902800Y-78499735D01*
X115902800Y-78499735D02*
X115950419Y-78594973D01*
X115950419Y-78594973D02*
X115950419Y-78785449D01*
X115950419Y-78785449D02*
X115902800Y-78880687D01*
X115902800Y-78880687D02*
X115807561Y-78975925D01*
X115807561Y-78975925D02*
X115617085Y-79023544D01*
X115617085Y-79023544D02*
X115283752Y-79023544D01*
X115283752Y-79023544D02*
X115093276Y-78975925D01*
X115093276Y-78975925D02*
X114998038Y-78880687D01*
X114998038Y-78880687D02*
X114950419Y-78785449D01*
X115283752Y-77499735D02*
X115950419Y-77499735D01*
X114902800Y-77737830D02*
X115617085Y-77975925D01*
X115617085Y-77975925D02*
X115617085Y-77356878D01*
D11*
G36*
X188511828Y-81103632D02*
G01*
X188511828Y-80472142D01*
X188780617Y-80472142D01*
X188780617Y-81047578D01*
X189120847Y-81674794D01*
X189459612Y-81051852D01*
X189459612Y-80472142D01*
X189724249Y-80472142D01*
X189724249Y-81103632D01*
X189253838Y-81910000D01*
X188982240Y-81910000D01*
X188511828Y-81103632D01*
G37*
G36*
X190991748Y-81075544D02*
G01*
X190715875Y-81075544D01*
X190715875Y-80697578D01*
X190991748Y-80697578D01*
X190991748Y-81075544D01*
G37*
G36*
X191565718Y-80606598D02*
G01*
X191565718Y-81159563D01*
X191040718Y-81910000D01*
X190665561Y-81910000D01*
X190140561Y-81159563D01*
X190140561Y-80687808D01*
X190409351Y-80687808D01*
X190409351Y-81078353D01*
X190787316Y-81662215D01*
X190917498Y-81662215D01*
X191296929Y-81078353D01*
X191296929Y-80687808D01*
X190925924Y-80113838D01*
X190794277Y-80113838D01*
X190409351Y-80687808D01*
X190140561Y-80687808D01*
X190140561Y-80606598D01*
X190665561Y-79866053D01*
X191058914Y-79866053D01*
X191565718Y-80606598D01*
G37*
G36*
X192359996Y-81457784D02*
G01*
X192812212Y-81457784D01*
X192812212Y-81910000D01*
X192359996Y-81910000D01*
X192359996Y-81457784D01*
G37*
G36*
X193545184Y-81140024D02*
G01*
X194371214Y-79832348D01*
X194582606Y-79975230D01*
X193843405Y-81134406D01*
X194525209Y-81134406D01*
X194525209Y-80598171D01*
X194791189Y-80598171D01*
X194791189Y-81124637D01*
X195092219Y-81124637D01*
X195092219Y-81348607D01*
X194791189Y-81348607D01*
X194791189Y-81910000D01*
X194525209Y-81910000D01*
X194525209Y-81348607D01*
X193573150Y-81348607D01*
X193545184Y-81140024D01*
G37*
D10*
X113410419Y-79452115D02*
X112410419Y-79452115D01*
X112410419Y-78785449D02*
X112410419Y-78594973D01*
X112410419Y-78594973D02*
X112458038Y-78499735D01*
X112458038Y-78499735D02*
X112553276Y-78404497D01*
X112553276Y-78404497D02*
X112743752Y-78356878D01*
X112743752Y-78356878D02*
X113077085Y-78356878D01*
X113077085Y-78356878D02*
X113267561Y-78404497D01*
X113267561Y-78404497D02*
X113362800Y-78499735D01*
X113362800Y-78499735D02*
X113410419Y-78594973D01*
X113410419Y-78594973D02*
X113410419Y-78785449D01*
X113410419Y-78785449D02*
X113362800Y-78880687D01*
X113362800Y-78880687D02*
X113267561Y-78975925D01*
X113267561Y-78975925D02*
X113077085Y-79023544D01*
X113077085Y-79023544D02*
X112743752Y-79023544D01*
X112743752Y-79023544D02*
X112553276Y-78975925D01*
X112553276Y-78975925D02*
X112458038Y-78880687D01*
X112458038Y-78880687D02*
X112410419Y-78785449D01*
X112410419Y-78023544D02*
X112410419Y-77404497D01*
X112410419Y-77404497D02*
X112791371Y-77737830D01*
X112791371Y-77737830D02*
X112791371Y-77594973D01*
X112791371Y-77594973D02*
X112838990Y-77499735D01*
X112838990Y-77499735D02*
X112886609Y-77452116D01*
X112886609Y-77452116D02*
X112981847Y-77404497D01*
X112981847Y-77404497D02*
X113219942Y-77404497D01*
X113219942Y-77404497D02*
X113315180Y-77452116D01*
X113315180Y-77452116D02*
X113362800Y-77499735D01*
X113362800Y-77499735D02*
X113410419Y-77594973D01*
X113410419Y-77594973D02*
X113410419Y-77880687D01*
X113410419Y-77880687D02*
X113362800Y-77975925D01*
X113362800Y-77975925D02*
X113315180Y-78023544D01*
X133730419Y-79452115D02*
X132730419Y-79452115D01*
X132730419Y-78785449D02*
X132730419Y-78594973D01*
X132730419Y-78594973D02*
X132778038Y-78499735D01*
X132778038Y-78499735D02*
X132873276Y-78404497D01*
X132873276Y-78404497D02*
X133063752Y-78356878D01*
X133063752Y-78356878D02*
X133397085Y-78356878D01*
X133397085Y-78356878D02*
X133587561Y-78404497D01*
X133587561Y-78404497D02*
X133682800Y-78499735D01*
X133682800Y-78499735D02*
X133730419Y-78594973D01*
X133730419Y-78594973D02*
X133730419Y-78785449D01*
X133730419Y-78785449D02*
X133682800Y-78880687D01*
X133682800Y-78880687D02*
X133587561Y-78975925D01*
X133587561Y-78975925D02*
X133397085Y-79023544D01*
X133397085Y-79023544D02*
X133063752Y-79023544D01*
X133063752Y-79023544D02*
X132873276Y-78975925D01*
X132873276Y-78975925D02*
X132778038Y-78880687D01*
X132778038Y-78880687D02*
X132730419Y-78785449D01*
X133063752Y-77499735D02*
X133730419Y-77499735D01*
X132682800Y-77737830D02*
X133397085Y-77975925D01*
X133397085Y-77975925D02*
X133397085Y-77356878D01*
X133730419Y-76452116D02*
X133730419Y-77023544D01*
X133730419Y-76737830D02*
X132730419Y-76737830D01*
X132730419Y-76737830D02*
X132873276Y-76833068D01*
X132873276Y-76833068D02*
X132968514Y-76928306D01*
X132968514Y-76928306D02*
X133016133Y-77023544D01*
X138810419Y-79452115D02*
X137810419Y-79452115D01*
X137810419Y-78785449D02*
X137810419Y-78594973D01*
X137810419Y-78594973D02*
X137858038Y-78499735D01*
X137858038Y-78499735D02*
X137953276Y-78404497D01*
X137953276Y-78404497D02*
X138143752Y-78356878D01*
X138143752Y-78356878D02*
X138477085Y-78356878D01*
X138477085Y-78356878D02*
X138667561Y-78404497D01*
X138667561Y-78404497D02*
X138762800Y-78499735D01*
X138762800Y-78499735D02*
X138810419Y-78594973D01*
X138810419Y-78594973D02*
X138810419Y-78785449D01*
X138810419Y-78785449D02*
X138762800Y-78880687D01*
X138762800Y-78880687D02*
X138667561Y-78975925D01*
X138667561Y-78975925D02*
X138477085Y-79023544D01*
X138477085Y-79023544D02*
X138143752Y-79023544D01*
X138143752Y-79023544D02*
X137953276Y-78975925D01*
X137953276Y-78975925D02*
X137858038Y-78880687D01*
X137858038Y-78880687D02*
X137810419Y-78785449D01*
X138143752Y-77499735D02*
X138810419Y-77499735D01*
X137762800Y-77737830D02*
X138477085Y-77975925D01*
X138477085Y-77975925D02*
X138477085Y-77356878D01*
X137810419Y-76499735D02*
X137810419Y-76975925D01*
X137810419Y-76975925D02*
X138286609Y-77023544D01*
X138286609Y-77023544D02*
X138238990Y-76975925D01*
X138238990Y-76975925D02*
X138191371Y-76880687D01*
X138191371Y-76880687D02*
X138191371Y-76642592D01*
X138191371Y-76642592D02*
X138238990Y-76547354D01*
X138238990Y-76547354D02*
X138286609Y-76499735D01*
X138286609Y-76499735D02*
X138381847Y-76452116D01*
X138381847Y-76452116D02*
X138619942Y-76452116D01*
X138619942Y-76452116D02*
X138715180Y-76499735D01*
X138715180Y-76499735D02*
X138762800Y-76547354D01*
X138762800Y-76547354D02*
X138810419Y-76642592D01*
X138810419Y-76642592D02*
X138810419Y-76880687D01*
X138810419Y-76880687D02*
X138762800Y-76975925D01*
X138762800Y-76975925D02*
X138715180Y-77023544D01*
X131190419Y-79452115D02*
X130190419Y-79452115D01*
X130190419Y-78785449D02*
X130190419Y-78594973D01*
X130190419Y-78594973D02*
X130238038Y-78499735D01*
X130238038Y-78499735D02*
X130333276Y-78404497D01*
X130333276Y-78404497D02*
X130523752Y-78356878D01*
X130523752Y-78356878D02*
X130857085Y-78356878D01*
X130857085Y-78356878D02*
X131047561Y-78404497D01*
X131047561Y-78404497D02*
X131142800Y-78499735D01*
X131142800Y-78499735D02*
X131190419Y-78594973D01*
X131190419Y-78594973D02*
X131190419Y-78785449D01*
X131190419Y-78785449D02*
X131142800Y-78880687D01*
X131142800Y-78880687D02*
X131047561Y-78975925D01*
X131047561Y-78975925D02*
X130857085Y-79023544D01*
X130857085Y-79023544D02*
X130523752Y-79023544D01*
X130523752Y-79023544D02*
X130333276Y-78975925D01*
X130333276Y-78975925D02*
X130238038Y-78880687D01*
X130238038Y-78880687D02*
X130190419Y-78785449D01*
X130523752Y-77499735D02*
X131190419Y-77499735D01*
X130142800Y-77737830D02*
X130857085Y-77975925D01*
X130857085Y-77975925D02*
X130857085Y-77356878D01*
X130190419Y-76785449D02*
X130190419Y-76690211D01*
X130190419Y-76690211D02*
X130238038Y-76594973D01*
X130238038Y-76594973D02*
X130285657Y-76547354D01*
X130285657Y-76547354D02*
X130380895Y-76499735D01*
X130380895Y-76499735D02*
X130571371Y-76452116D01*
X130571371Y-76452116D02*
X130809466Y-76452116D01*
X130809466Y-76452116D02*
X130999942Y-76499735D01*
X130999942Y-76499735D02*
X131095180Y-76547354D01*
X131095180Y-76547354D02*
X131142800Y-76594973D01*
X131142800Y-76594973D02*
X131190419Y-76690211D01*
X131190419Y-76690211D02*
X131190419Y-76785449D01*
X131190419Y-76785449D02*
X131142800Y-76880687D01*
X131142800Y-76880687D02*
X131095180Y-76928306D01*
X131095180Y-76928306D02*
X130999942Y-76975925D01*
X130999942Y-76975925D02*
X130809466Y-77023544D01*
X130809466Y-77023544D02*
X130571371Y-77023544D01*
X130571371Y-77023544D02*
X130380895Y-76975925D01*
X130380895Y-76975925D02*
X130285657Y-76928306D01*
X130285657Y-76928306D02*
X130238038Y-76880687D01*
X130238038Y-76880687D02*
X130190419Y-76785449D01*
X136270419Y-79452115D02*
X135270419Y-79452115D01*
X135270419Y-78785449D02*
X135270419Y-78594973D01*
X135270419Y-78594973D02*
X135318038Y-78499735D01*
X135318038Y-78499735D02*
X135413276Y-78404497D01*
X135413276Y-78404497D02*
X135603752Y-78356878D01*
X135603752Y-78356878D02*
X135937085Y-78356878D01*
X135937085Y-78356878D02*
X136127561Y-78404497D01*
X136127561Y-78404497D02*
X136222800Y-78499735D01*
X136222800Y-78499735D02*
X136270419Y-78594973D01*
X136270419Y-78594973D02*
X136270419Y-78785449D01*
X136270419Y-78785449D02*
X136222800Y-78880687D01*
X136222800Y-78880687D02*
X136127561Y-78975925D01*
X136127561Y-78975925D02*
X135937085Y-79023544D01*
X135937085Y-79023544D02*
X135603752Y-79023544D01*
X135603752Y-79023544D02*
X135413276Y-78975925D01*
X135413276Y-78975925D02*
X135318038Y-78880687D01*
X135318038Y-78880687D02*
X135270419Y-78785449D01*
X135603752Y-77499735D02*
X136270419Y-77499735D01*
X135222800Y-77737830D02*
X135937085Y-77975925D01*
X135937085Y-77975925D02*
X135937085Y-77356878D01*
X135365657Y-77023544D02*
X135318038Y-76975925D01*
X135318038Y-76975925D02*
X135270419Y-76880687D01*
X135270419Y-76880687D02*
X135270419Y-76642592D01*
X135270419Y-76642592D02*
X135318038Y-76547354D01*
X135318038Y-76547354D02*
X135365657Y-76499735D01*
X135365657Y-76499735D02*
X135460895Y-76452116D01*
X135460895Y-76452116D02*
X135556133Y-76452116D01*
X135556133Y-76452116D02*
X135698990Y-76499735D01*
X135698990Y-76499735D02*
X136270419Y-77071163D01*
X136270419Y-77071163D02*
X136270419Y-76452116D01*
X141350419Y-79452115D02*
X140350419Y-79452115D01*
X140350419Y-78785449D02*
X140350419Y-78594973D01*
X140350419Y-78594973D02*
X140398038Y-78499735D01*
X140398038Y-78499735D02*
X140493276Y-78404497D01*
X140493276Y-78404497D02*
X140683752Y-78356878D01*
X140683752Y-78356878D02*
X141017085Y-78356878D01*
X141017085Y-78356878D02*
X141207561Y-78404497D01*
X141207561Y-78404497D02*
X141302800Y-78499735D01*
X141302800Y-78499735D02*
X141350419Y-78594973D01*
X141350419Y-78594973D02*
X141350419Y-78785449D01*
X141350419Y-78785449D02*
X141302800Y-78880687D01*
X141302800Y-78880687D02*
X141207561Y-78975925D01*
X141207561Y-78975925D02*
X141017085Y-79023544D01*
X141017085Y-79023544D02*
X140683752Y-79023544D01*
X140683752Y-79023544D02*
X140493276Y-78975925D01*
X140493276Y-78975925D02*
X140398038Y-78880687D01*
X140398038Y-78880687D02*
X140350419Y-78785449D01*
X140683752Y-77499735D02*
X141350419Y-77499735D01*
X140302800Y-77737830D02*
X141017085Y-77975925D01*
X141017085Y-77975925D02*
X141017085Y-77356878D01*
X140350419Y-76547354D02*
X140350419Y-76737830D01*
X140350419Y-76737830D02*
X140398038Y-76833068D01*
X140398038Y-76833068D02*
X140445657Y-76880687D01*
X140445657Y-76880687D02*
X140588514Y-76975925D01*
X140588514Y-76975925D02*
X140778990Y-77023544D01*
X140778990Y-77023544D02*
X141159942Y-77023544D01*
X141159942Y-77023544D02*
X141255180Y-76975925D01*
X141255180Y-76975925D02*
X141302800Y-76928306D01*
X141302800Y-76928306D02*
X141350419Y-76833068D01*
X141350419Y-76833068D02*
X141350419Y-76642592D01*
X141350419Y-76642592D02*
X141302800Y-76547354D01*
X141302800Y-76547354D02*
X141255180Y-76499735D01*
X141255180Y-76499735D02*
X141159942Y-76452116D01*
X141159942Y-76452116D02*
X140921847Y-76452116D01*
X140921847Y-76452116D02*
X140826609Y-76499735D01*
X140826609Y-76499735D02*
X140778990Y-76547354D01*
X140778990Y-76547354D02*
X140731371Y-76642592D01*
X140731371Y-76642592D02*
X140731371Y-76833068D01*
X140731371Y-76833068D02*
X140778990Y-76928306D01*
X140778990Y-76928306D02*
X140826609Y-76975925D01*
X140826609Y-76975925D02*
X140921847Y-77023544D01*
X118490419Y-79452115D02*
X117490419Y-79452115D01*
X117490419Y-78785449D02*
X117490419Y-78594973D01*
X117490419Y-78594973D02*
X117538038Y-78499735D01*
X117538038Y-78499735D02*
X117633276Y-78404497D01*
X117633276Y-78404497D02*
X117823752Y-78356878D01*
X117823752Y-78356878D02*
X118157085Y-78356878D01*
X118157085Y-78356878D02*
X118347561Y-78404497D01*
X118347561Y-78404497D02*
X118442800Y-78499735D01*
X118442800Y-78499735D02*
X118490419Y-78594973D01*
X118490419Y-78594973D02*
X118490419Y-78785449D01*
X118490419Y-78785449D02*
X118442800Y-78880687D01*
X118442800Y-78880687D02*
X118347561Y-78975925D01*
X118347561Y-78975925D02*
X118157085Y-79023544D01*
X118157085Y-79023544D02*
X117823752Y-79023544D01*
X117823752Y-79023544D02*
X117633276Y-78975925D01*
X117633276Y-78975925D02*
X117538038Y-78880687D01*
X117538038Y-78880687D02*
X117490419Y-78785449D01*
X117918990Y-77785449D02*
X117871371Y-77880687D01*
X117871371Y-77880687D02*
X117823752Y-77928306D01*
X117823752Y-77928306D02*
X117728514Y-77975925D01*
X117728514Y-77975925D02*
X117680895Y-77975925D01*
X117680895Y-77975925D02*
X117585657Y-77928306D01*
X117585657Y-77928306D02*
X117538038Y-77880687D01*
X117538038Y-77880687D02*
X117490419Y-77785449D01*
X117490419Y-77785449D02*
X117490419Y-77594973D01*
X117490419Y-77594973D02*
X117538038Y-77499735D01*
X117538038Y-77499735D02*
X117585657Y-77452116D01*
X117585657Y-77452116D02*
X117680895Y-77404497D01*
X117680895Y-77404497D02*
X117728514Y-77404497D01*
X117728514Y-77404497D02*
X117823752Y-77452116D01*
X117823752Y-77452116D02*
X117871371Y-77499735D01*
X117871371Y-77499735D02*
X117918990Y-77594973D01*
X117918990Y-77594973D02*
X117918990Y-77785449D01*
X117918990Y-77785449D02*
X117966609Y-77880687D01*
X117966609Y-77880687D02*
X118014228Y-77928306D01*
X118014228Y-77928306D02*
X118109466Y-77975925D01*
X118109466Y-77975925D02*
X118299942Y-77975925D01*
X118299942Y-77975925D02*
X118395180Y-77928306D01*
X118395180Y-77928306D02*
X118442800Y-77880687D01*
X118442800Y-77880687D02*
X118490419Y-77785449D01*
X118490419Y-77785449D02*
X118490419Y-77594973D01*
X118490419Y-77594973D02*
X118442800Y-77499735D01*
X118442800Y-77499735D02*
X118395180Y-77452116D01*
X118395180Y-77452116D02*
X118299942Y-77404497D01*
X118299942Y-77404497D02*
X118109466Y-77404497D01*
X118109466Y-77404497D02*
X118014228Y-77452116D01*
X118014228Y-77452116D02*
X117966609Y-77499735D01*
X117966609Y-77499735D02*
X117918990Y-77594973D01*
X123570419Y-79452115D02*
X122570419Y-79452115D01*
X122570419Y-78785449D02*
X122570419Y-78594973D01*
X122570419Y-78594973D02*
X122618038Y-78499735D01*
X122618038Y-78499735D02*
X122713276Y-78404497D01*
X122713276Y-78404497D02*
X122903752Y-78356878D01*
X122903752Y-78356878D02*
X123237085Y-78356878D01*
X123237085Y-78356878D02*
X123427561Y-78404497D01*
X123427561Y-78404497D02*
X123522800Y-78499735D01*
X123522800Y-78499735D02*
X123570419Y-78594973D01*
X123570419Y-78594973D02*
X123570419Y-78785449D01*
X123570419Y-78785449D02*
X123522800Y-78880687D01*
X123522800Y-78880687D02*
X123427561Y-78975925D01*
X123427561Y-78975925D02*
X123237085Y-79023544D01*
X123237085Y-79023544D02*
X122903752Y-79023544D01*
X122903752Y-79023544D02*
X122713276Y-78975925D01*
X122713276Y-78975925D02*
X122618038Y-78880687D01*
X122618038Y-78880687D02*
X122570419Y-78785449D01*
X123570419Y-77404497D02*
X123570419Y-77975925D01*
X123570419Y-77690211D02*
X122570419Y-77690211D01*
X122570419Y-77690211D02*
X122713276Y-77785449D01*
X122713276Y-77785449D02*
X122808514Y-77880687D01*
X122808514Y-77880687D02*
X122856133Y-77975925D01*
X122570419Y-76499735D02*
X122570419Y-76975925D01*
X122570419Y-76975925D02*
X123046609Y-77023544D01*
X123046609Y-77023544D02*
X122998990Y-76975925D01*
X122998990Y-76975925D02*
X122951371Y-76880687D01*
X122951371Y-76880687D02*
X122951371Y-76642592D01*
X122951371Y-76642592D02*
X122998990Y-76547354D01*
X122998990Y-76547354D02*
X123046609Y-76499735D01*
X123046609Y-76499735D02*
X123141847Y-76452116D01*
X123141847Y-76452116D02*
X123379942Y-76452116D01*
X123379942Y-76452116D02*
X123475180Y-76499735D01*
X123475180Y-76499735D02*
X123522800Y-76547354D01*
X123522800Y-76547354D02*
X123570419Y-76642592D01*
X123570419Y-76642592D02*
X123570419Y-76880687D01*
X123570419Y-76880687D02*
X123522800Y-76975925D01*
X123522800Y-76975925D02*
X123475180Y-77023544D01*
D12*
X128554510Y-64564484D02*
X129697368Y-64564484D01*
X132697367Y-64564484D02*
X133840225Y-64564484D01*
X133268796Y-65135912D02*
X133268796Y-63993055D01*
X130411653Y-66050828D02*
X129697367Y-66050828D01*
X129697367Y-66050828D02*
X129625939Y-66765114D01*
X129625939Y-66765114D02*
X129697367Y-66693685D01*
X129697367Y-66693685D02*
X129840225Y-66622257D01*
X129840225Y-66622257D02*
X130197367Y-66622257D01*
X130197367Y-66622257D02*
X130340225Y-66693685D01*
X130340225Y-66693685D02*
X130411653Y-66765114D01*
X130411653Y-66765114D02*
X130483082Y-66907971D01*
X130483082Y-66907971D02*
X130483082Y-67265114D01*
X130483082Y-67265114D02*
X130411653Y-67407971D01*
X130411653Y-67407971D02*
X130340225Y-67479400D01*
X130340225Y-67479400D02*
X130197367Y-67550828D01*
X130197367Y-67550828D02*
X129840225Y-67550828D01*
X129840225Y-67550828D02*
X129697367Y-67479400D01*
X129697367Y-67479400D02*
X129625939Y-67407971D01*
X130911653Y-66050828D02*
X131411653Y-67550828D01*
X131411653Y-67550828D02*
X131911653Y-66050828D01*
D10*
X110870419Y-79452115D02*
X109870419Y-79452115D01*
X109870419Y-78785449D02*
X109870419Y-78594973D01*
X109870419Y-78594973D02*
X109918038Y-78499735D01*
X109918038Y-78499735D02*
X110013276Y-78404497D01*
X110013276Y-78404497D02*
X110203752Y-78356878D01*
X110203752Y-78356878D02*
X110537085Y-78356878D01*
X110537085Y-78356878D02*
X110727561Y-78404497D01*
X110727561Y-78404497D02*
X110822800Y-78499735D01*
X110822800Y-78499735D02*
X110870419Y-78594973D01*
X110870419Y-78594973D02*
X110870419Y-78785449D01*
X110870419Y-78785449D02*
X110822800Y-78880687D01*
X110822800Y-78880687D02*
X110727561Y-78975925D01*
X110727561Y-78975925D02*
X110537085Y-79023544D01*
X110537085Y-79023544D02*
X110203752Y-79023544D01*
X110203752Y-79023544D02*
X110013276Y-78975925D01*
X110013276Y-78975925D02*
X109918038Y-78880687D01*
X109918038Y-78880687D02*
X109870419Y-78785449D01*
X109965657Y-77975925D02*
X109918038Y-77928306D01*
X109918038Y-77928306D02*
X109870419Y-77833068D01*
X109870419Y-77833068D02*
X109870419Y-77594973D01*
X109870419Y-77594973D02*
X109918038Y-77499735D01*
X109918038Y-77499735D02*
X109965657Y-77452116D01*
X109965657Y-77452116D02*
X110060895Y-77404497D01*
X110060895Y-77404497D02*
X110156133Y-77404497D01*
X110156133Y-77404497D02*
X110298990Y-77452116D01*
X110298990Y-77452116D02*
X110870419Y-78023544D01*
X110870419Y-78023544D02*
X110870419Y-77404497D01*
D11*
X183438895Y-50610419D02*
X183438895Y-51419942D01*
X183438895Y-51419942D02*
X183486514Y-51515180D01*
X183486514Y-51515180D02*
X183534133Y-51562800D01*
X183534133Y-51562800D02*
X183629371Y-51610419D01*
X183629371Y-51610419D02*
X183819847Y-51610419D01*
X183819847Y-51610419D02*
X183915085Y-51562800D01*
X183915085Y-51562800D02*
X183962704Y-51515180D01*
X183962704Y-51515180D02*
X184010323Y-51419942D01*
X184010323Y-51419942D02*
X184010323Y-50610419D01*
X184391276Y-50610419D02*
X185010323Y-50610419D01*
X185010323Y-50610419D02*
X184676990Y-50991371D01*
X184676990Y-50991371D02*
X184819847Y-50991371D01*
X184819847Y-50991371D02*
X184915085Y-51038990D01*
X184915085Y-51038990D02*
X184962704Y-51086609D01*
X184962704Y-51086609D02*
X185010323Y-51181847D01*
X185010323Y-51181847D02*
X185010323Y-51419942D01*
X185010323Y-51419942D02*
X184962704Y-51515180D01*
X184962704Y-51515180D02*
X184915085Y-51562800D01*
X184915085Y-51562800D02*
X184819847Y-51610419D01*
X184819847Y-51610419D02*
X184534133Y-51610419D01*
X184534133Y-51610419D02*
X184438895Y-51562800D01*
X184438895Y-51562800D02*
X184391276Y-51515180D01*
X191075504Y-61794399D02*
X191075504Y-61318209D01*
X191361219Y-61889637D02*
X190361219Y-61556304D01*
X190361219Y-61556304D02*
X191361219Y-61222971D01*
X191361219Y-60889637D02*
X190361219Y-60889637D01*
X190361219Y-60889637D02*
X191075504Y-60556304D01*
X191075504Y-60556304D02*
X190361219Y-60222971D01*
X190361219Y-60222971D02*
X191361219Y-60222971D01*
X191313600Y-59794399D02*
X191361219Y-59651542D01*
X191361219Y-59651542D02*
X191361219Y-59413447D01*
X191361219Y-59413447D02*
X191313600Y-59318209D01*
X191313600Y-59318209D02*
X191265980Y-59270590D01*
X191265980Y-59270590D02*
X191170742Y-59222971D01*
X191170742Y-59222971D02*
X191075504Y-59222971D01*
X191075504Y-59222971D02*
X190980266Y-59270590D01*
X190980266Y-59270590D02*
X190932647Y-59318209D01*
X190932647Y-59318209D02*
X190885028Y-59413447D01*
X190885028Y-59413447D02*
X190837409Y-59603923D01*
X190837409Y-59603923D02*
X190789790Y-59699161D01*
X190789790Y-59699161D02*
X190742171Y-59746780D01*
X190742171Y-59746780D02*
X190646933Y-59794399D01*
X190646933Y-59794399D02*
X190551695Y-59794399D01*
X190551695Y-59794399D02*
X190456457Y-59746780D01*
X190456457Y-59746780D02*
X190408838Y-59699161D01*
X190408838Y-59699161D02*
X190361219Y-59603923D01*
X190361219Y-59603923D02*
X190361219Y-59365828D01*
X190361219Y-59365828D02*
X190408838Y-59222971D01*
X191361219Y-58270590D02*
X191361219Y-58842018D01*
X191361219Y-58556304D02*
X190361219Y-58556304D01*
X190361219Y-58556304D02*
X190504076Y-58651542D01*
X190504076Y-58651542D02*
X190599314Y-58746780D01*
X190599314Y-58746780D02*
X190646933Y-58842018D01*
X191361219Y-57318209D02*
X191361219Y-57889637D01*
X191361219Y-57603923D02*
X190361219Y-57603923D01*
X190361219Y-57603923D02*
X190504076Y-57699161D01*
X190504076Y-57699161D02*
X190599314Y-57794399D01*
X190599314Y-57794399D02*
X190646933Y-57889637D01*
X191361219Y-56365828D02*
X191361219Y-56937256D01*
X191361219Y-56651542D02*
X190361219Y-56651542D01*
X190361219Y-56651542D02*
X190504076Y-56746780D01*
X190504076Y-56746780D02*
X190599314Y-56842018D01*
X190599314Y-56842018D02*
X190646933Y-56937256D01*
X190361219Y-56032494D02*
X190361219Y-55365828D01*
X190361219Y-55365828D02*
X191361219Y-55794399D01*
X190980266Y-54984875D02*
X190980266Y-54222971D01*
X190361219Y-53842018D02*
X190361219Y-53222971D01*
X190361219Y-53222971D02*
X190742171Y-53556304D01*
X190742171Y-53556304D02*
X190742171Y-53413447D01*
X190742171Y-53413447D02*
X190789790Y-53318209D01*
X190789790Y-53318209D02*
X190837409Y-53270590D01*
X190837409Y-53270590D02*
X190932647Y-53222971D01*
X190932647Y-53222971D02*
X191170742Y-53222971D01*
X191170742Y-53222971D02*
X191265980Y-53270590D01*
X191265980Y-53270590D02*
X191313600Y-53318209D01*
X191313600Y-53318209D02*
X191361219Y-53413447D01*
X191361219Y-53413447D02*
X191361219Y-53699161D01*
X191361219Y-53699161D02*
X191313600Y-53794399D01*
X191313600Y-53794399D02*
X191265980Y-53842018D01*
X191265980Y-52794399D02*
X191313600Y-52746780D01*
X191313600Y-52746780D02*
X191361219Y-52794399D01*
X191361219Y-52794399D02*
X191313600Y-52842018D01*
X191313600Y-52842018D02*
X191265980Y-52794399D01*
X191265980Y-52794399D02*
X191361219Y-52794399D01*
X190361219Y-52413447D02*
X190361219Y-51794400D01*
X190361219Y-51794400D02*
X190742171Y-52127733D01*
X190742171Y-52127733D02*
X190742171Y-51984876D01*
X190742171Y-51984876D02*
X190789790Y-51889638D01*
X190789790Y-51889638D02*
X190837409Y-51842019D01*
X190837409Y-51842019D02*
X190932647Y-51794400D01*
X190932647Y-51794400D02*
X191170742Y-51794400D01*
X191170742Y-51794400D02*
X191265980Y-51842019D01*
X191265980Y-51842019D02*
X191313600Y-51889638D01*
X191313600Y-51889638D02*
X191361219Y-51984876D01*
X191361219Y-51984876D02*
X191361219Y-52270590D01*
X191361219Y-52270590D02*
X191313600Y-52365828D01*
X191313600Y-52365828D02*
X191265980Y-52413447D01*
X138954819Y-75301904D02*
X139764342Y-75301904D01*
X139764342Y-75301904D02*
X139859580Y-75254285D01*
X139859580Y-75254285D02*
X139907200Y-75206666D01*
X139907200Y-75206666D02*
X139954819Y-75111428D01*
X139954819Y-75111428D02*
X139954819Y-74920952D01*
X139954819Y-74920952D02*
X139907200Y-74825714D01*
X139907200Y-74825714D02*
X139859580Y-74778095D01*
X139859580Y-74778095D02*
X139764342Y-74730476D01*
X139764342Y-74730476D02*
X138954819Y-74730476D01*
X139050057Y-74301904D02*
X139002438Y-74254285D01*
X139002438Y-74254285D02*
X138954819Y-74159047D01*
X138954819Y-74159047D02*
X138954819Y-73920952D01*
X138954819Y-73920952D02*
X139002438Y-73825714D01*
X139002438Y-73825714D02*
X139050057Y-73778095D01*
X139050057Y-73778095D02*
X139145295Y-73730476D01*
X139145295Y-73730476D02*
X139240533Y-73730476D01*
X139240533Y-73730476D02*
X139383390Y-73778095D01*
X139383390Y-73778095D02*
X139954819Y-74349523D01*
X139954819Y-74349523D02*
X139954819Y-73730476D01*
X121645833Y-67797080D02*
X121598214Y-67844700D01*
X121598214Y-67844700D02*
X121455357Y-67892319D01*
X121455357Y-67892319D02*
X121360119Y-67892319D01*
X121360119Y-67892319D02*
X121217262Y-67844700D01*
X121217262Y-67844700D02*
X121122024Y-67749461D01*
X121122024Y-67749461D02*
X121074405Y-67654223D01*
X121074405Y-67654223D02*
X121026786Y-67463747D01*
X121026786Y-67463747D02*
X121026786Y-67320890D01*
X121026786Y-67320890D02*
X121074405Y-67130414D01*
X121074405Y-67130414D02*
X121122024Y-67035176D01*
X121122024Y-67035176D02*
X121217262Y-66939938D01*
X121217262Y-66939938D02*
X121360119Y-66892319D01*
X121360119Y-66892319D02*
X121455357Y-66892319D01*
X121455357Y-66892319D02*
X121598214Y-66939938D01*
X121598214Y-66939938D02*
X121645833Y-66987557D01*
X122217262Y-67320890D02*
X122122024Y-67273271D01*
X122122024Y-67273271D02*
X122074405Y-67225652D01*
X122074405Y-67225652D02*
X122026786Y-67130414D01*
X122026786Y-67130414D02*
X122026786Y-67082795D01*
X122026786Y-67082795D02*
X122074405Y-66987557D01*
X122074405Y-66987557D02*
X122122024Y-66939938D01*
X122122024Y-66939938D02*
X122217262Y-66892319D01*
X122217262Y-66892319D02*
X122407738Y-66892319D01*
X122407738Y-66892319D02*
X122502976Y-66939938D01*
X122502976Y-66939938D02*
X122550595Y-66987557D01*
X122550595Y-66987557D02*
X122598214Y-67082795D01*
X122598214Y-67082795D02*
X122598214Y-67130414D01*
X122598214Y-67130414D02*
X122550595Y-67225652D01*
X122550595Y-67225652D02*
X122502976Y-67273271D01*
X122502976Y-67273271D02*
X122407738Y-67320890D01*
X122407738Y-67320890D02*
X122217262Y-67320890D01*
X122217262Y-67320890D02*
X122122024Y-67368509D01*
X122122024Y-67368509D02*
X122074405Y-67416128D01*
X122074405Y-67416128D02*
X122026786Y-67511366D01*
X122026786Y-67511366D02*
X122026786Y-67701842D01*
X122026786Y-67701842D02*
X122074405Y-67797080D01*
X122074405Y-67797080D02*
X122122024Y-67844700D01*
X122122024Y-67844700D02*
X122217262Y-67892319D01*
X122217262Y-67892319D02*
X122407738Y-67892319D01*
X122407738Y-67892319D02*
X122502976Y-67844700D01*
X122502976Y-67844700D02*
X122550595Y-67797080D01*
X122550595Y-67797080D02*
X122598214Y-67701842D01*
X122598214Y-67701842D02*
X122598214Y-67511366D01*
X122598214Y-67511366D02*
X122550595Y-67416128D01*
X122550595Y-67416128D02*
X122502976Y-67368509D01*
X122502976Y-67368509D02*
X122407738Y-67320890D01*
X188666666Y-66454819D02*
X188666666Y-67169104D01*
X188666666Y-67169104D02*
X188619047Y-67311961D01*
X188619047Y-67311961D02*
X188523809Y-67407200D01*
X188523809Y-67407200D02*
X188380952Y-67454819D01*
X188380952Y-67454819D02*
X188285714Y-67454819D01*
X189619047Y-66454819D02*
X189142857Y-66454819D01*
X189142857Y-66454819D02*
X189095238Y-66931009D01*
X189095238Y-66931009D02*
X189142857Y-66883390D01*
X189142857Y-66883390D02*
X189238095Y-66835771D01*
X189238095Y-66835771D02*
X189476190Y-66835771D01*
X189476190Y-66835771D02*
X189571428Y-66883390D01*
X189571428Y-66883390D02*
X189619047Y-66931009D01*
X189619047Y-66931009D02*
X189666666Y-67026247D01*
X189666666Y-67026247D02*
X189666666Y-67264342D01*
X189666666Y-67264342D02*
X189619047Y-67359580D01*
X189619047Y-67359580D02*
X189571428Y-67407200D01*
X189571428Y-67407200D02*
X189476190Y-67454819D01*
X189476190Y-67454819D02*
X189238095Y-67454819D01*
X189238095Y-67454819D02*
X189142857Y-67407200D01*
X189142857Y-67407200D02*
X189095238Y-67359580D01*
X190857010Y-66454819D02*
X191476057Y-66454819D01*
X191476057Y-66454819D02*
X191142724Y-66835771D01*
X191142724Y-66835771D02*
X191285581Y-66835771D01*
X191285581Y-66835771D02*
X191380819Y-66883390D01*
X191380819Y-66883390D02*
X191428438Y-66931009D01*
X191428438Y-66931009D02*
X191476057Y-67026247D01*
X191476057Y-67026247D02*
X191476057Y-67264342D01*
X191476057Y-67264342D02*
X191428438Y-67359580D01*
X191428438Y-67359580D02*
X191380819Y-67407200D01*
X191380819Y-67407200D02*
X191285581Y-67454819D01*
X191285581Y-67454819D02*
X190999867Y-67454819D01*
X190999867Y-67454819D02*
X190904629Y-67407200D01*
X190904629Y-67407200D02*
X190857010Y-67359580D01*
X191904629Y-67359580D02*
X191952248Y-67407200D01*
X191952248Y-67407200D02*
X191904629Y-67454819D01*
X191904629Y-67454819D02*
X191857010Y-67407200D01*
X191857010Y-67407200D02*
X191904629Y-67359580D01*
X191904629Y-67359580D02*
X191904629Y-67454819D01*
X192285581Y-66454819D02*
X192904628Y-66454819D01*
X192904628Y-66454819D02*
X192571295Y-66835771D01*
X192571295Y-66835771D02*
X192714152Y-66835771D01*
X192714152Y-66835771D02*
X192809390Y-66883390D01*
X192809390Y-66883390D02*
X192857009Y-66931009D01*
X192857009Y-66931009D02*
X192904628Y-67026247D01*
X192904628Y-67026247D02*
X192904628Y-67264342D01*
X192904628Y-67264342D02*
X192857009Y-67359580D01*
X192857009Y-67359580D02*
X192809390Y-67407200D01*
X192809390Y-67407200D02*
X192714152Y-67454819D01*
X192714152Y-67454819D02*
X192428438Y-67454819D01*
X192428438Y-67454819D02*
X192333200Y-67407200D01*
X192333200Y-67407200D02*
X192285581Y-67359580D01*
X193190343Y-66454819D02*
X193523676Y-67454819D01*
X193523676Y-67454819D02*
X193857009Y-66454819D01*
X107154819Y-60476904D02*
X107964342Y-60476904D01*
X107964342Y-60476904D02*
X108059580Y-60429285D01*
X108059580Y-60429285D02*
X108107200Y-60381666D01*
X108107200Y-60381666D02*
X108154819Y-60286428D01*
X108154819Y-60286428D02*
X108154819Y-60095952D01*
X108154819Y-60095952D02*
X108107200Y-60000714D01*
X108107200Y-60000714D02*
X108059580Y-59953095D01*
X108059580Y-59953095D02*
X107964342Y-59905476D01*
X107964342Y-59905476D02*
X107154819Y-59905476D01*
X108154819Y-58905476D02*
X108154819Y-59476904D01*
X108154819Y-59191190D02*
X107154819Y-59191190D01*
X107154819Y-59191190D02*
X107297676Y-59286428D01*
X107297676Y-59286428D02*
X107392914Y-59381666D01*
X107392914Y-59381666D02*
X107440533Y-59476904D01*
X116869104Y-64714999D02*
X116869104Y-64238809D01*
X117154819Y-64810237D02*
X116154819Y-64476904D01*
X116154819Y-64476904D02*
X117154819Y-64143571D01*
X117154819Y-63810237D02*
X116154819Y-63810237D01*
X116154819Y-63810237D02*
X116869104Y-63476904D01*
X116869104Y-63476904D02*
X116154819Y-63143571D01*
X116154819Y-63143571D02*
X117154819Y-63143571D01*
X117107200Y-62714999D02*
X117154819Y-62572142D01*
X117154819Y-62572142D02*
X117154819Y-62334047D01*
X117154819Y-62334047D02*
X117107200Y-62238809D01*
X117107200Y-62238809D02*
X117059580Y-62191190D01*
X117059580Y-62191190D02*
X116964342Y-62143571D01*
X116964342Y-62143571D02*
X116869104Y-62143571D01*
X116869104Y-62143571D02*
X116773866Y-62191190D01*
X116773866Y-62191190D02*
X116726247Y-62238809D01*
X116726247Y-62238809D02*
X116678628Y-62334047D01*
X116678628Y-62334047D02*
X116631009Y-62524523D01*
X116631009Y-62524523D02*
X116583390Y-62619761D01*
X116583390Y-62619761D02*
X116535771Y-62667380D01*
X116535771Y-62667380D02*
X116440533Y-62714999D01*
X116440533Y-62714999D02*
X116345295Y-62714999D01*
X116345295Y-62714999D02*
X116250057Y-62667380D01*
X116250057Y-62667380D02*
X116202438Y-62619761D01*
X116202438Y-62619761D02*
X116154819Y-62524523D01*
X116154819Y-62524523D02*
X116154819Y-62286428D01*
X116154819Y-62286428D02*
X116202438Y-62143571D01*
X117154819Y-61191190D02*
X117154819Y-61762618D01*
X117154819Y-61476904D02*
X116154819Y-61476904D01*
X116154819Y-61476904D02*
X116297676Y-61572142D01*
X116297676Y-61572142D02*
X116392914Y-61667380D01*
X116392914Y-61667380D02*
X116440533Y-61762618D01*
X117154819Y-60238809D02*
X117154819Y-60810237D01*
X117154819Y-60524523D02*
X116154819Y-60524523D01*
X116154819Y-60524523D02*
X116297676Y-60619761D01*
X116297676Y-60619761D02*
X116392914Y-60714999D01*
X116392914Y-60714999D02*
X116440533Y-60810237D01*
X117154819Y-59286428D02*
X117154819Y-59857856D01*
X117154819Y-59572142D02*
X116154819Y-59572142D01*
X116154819Y-59572142D02*
X116297676Y-59667380D01*
X116297676Y-59667380D02*
X116392914Y-59762618D01*
X116392914Y-59762618D02*
X116440533Y-59857856D01*
X116154819Y-58953094D02*
X116154819Y-58286428D01*
X116154819Y-58286428D02*
X117154819Y-58714999D01*
X116773866Y-57905475D02*
X116773866Y-57143571D01*
X116154819Y-56762618D02*
X116154819Y-56143571D01*
X116154819Y-56143571D02*
X116535771Y-56476904D01*
X116535771Y-56476904D02*
X116535771Y-56334047D01*
X116535771Y-56334047D02*
X116583390Y-56238809D01*
X116583390Y-56238809D02*
X116631009Y-56191190D01*
X116631009Y-56191190D02*
X116726247Y-56143571D01*
X116726247Y-56143571D02*
X116964342Y-56143571D01*
X116964342Y-56143571D02*
X117059580Y-56191190D01*
X117059580Y-56191190D02*
X117107200Y-56238809D01*
X117107200Y-56238809D02*
X117154819Y-56334047D01*
X117154819Y-56334047D02*
X117154819Y-56619761D01*
X117154819Y-56619761D02*
X117107200Y-56714999D01*
X117107200Y-56714999D02*
X117059580Y-56762618D01*
X117059580Y-55714999D02*
X117107200Y-55667380D01*
X117107200Y-55667380D02*
X117154819Y-55714999D01*
X117154819Y-55714999D02*
X117107200Y-55762618D01*
X117107200Y-55762618D02*
X117059580Y-55714999D01*
X117059580Y-55714999D02*
X117154819Y-55714999D01*
X116154819Y-55334047D02*
X116154819Y-54715000D01*
X116154819Y-54715000D02*
X116535771Y-55048333D01*
X116535771Y-55048333D02*
X116535771Y-54905476D01*
X116535771Y-54905476D02*
X116583390Y-54810238D01*
X116583390Y-54810238D02*
X116631009Y-54762619D01*
X116631009Y-54762619D02*
X116726247Y-54715000D01*
X116726247Y-54715000D02*
X116964342Y-54715000D01*
X116964342Y-54715000D02*
X117059580Y-54762619D01*
X117059580Y-54762619D02*
X117107200Y-54810238D01*
X117107200Y-54810238D02*
X117154819Y-54905476D01*
X117154819Y-54905476D02*
X117154819Y-55191190D01*
X117154819Y-55191190D02*
X117107200Y-55286428D01*
X117107200Y-55286428D02*
X117059580Y-55334047D01*
X188606666Y-74704819D02*
X188606666Y-75419104D01*
X188606666Y-75419104D02*
X188559047Y-75561961D01*
X188559047Y-75561961D02*
X188463809Y-75657200D01*
X188463809Y-75657200D02*
X188320952Y-75704819D01*
X188320952Y-75704819D02*
X188225714Y-75704819D01*
X189511428Y-75038152D02*
X189511428Y-75704819D01*
X189273333Y-74657200D02*
X189035238Y-75371485D01*
X189035238Y-75371485D02*
X189654285Y-75371485D01*
X191488095Y-74752438D02*
X191392857Y-74704819D01*
X191392857Y-74704819D02*
X191250000Y-74704819D01*
X191250000Y-74704819D02*
X191107143Y-74752438D01*
X191107143Y-74752438D02*
X191011905Y-74847676D01*
X191011905Y-74847676D02*
X190964286Y-74942914D01*
X190964286Y-74942914D02*
X190916667Y-75133390D01*
X190916667Y-75133390D02*
X190916667Y-75276247D01*
X190916667Y-75276247D02*
X190964286Y-75466723D01*
X190964286Y-75466723D02*
X191011905Y-75561961D01*
X191011905Y-75561961D02*
X191107143Y-75657200D01*
X191107143Y-75657200D02*
X191250000Y-75704819D01*
X191250000Y-75704819D02*
X191345238Y-75704819D01*
X191345238Y-75704819D02*
X191488095Y-75657200D01*
X191488095Y-75657200D02*
X191535714Y-75609580D01*
X191535714Y-75609580D02*
X191535714Y-75276247D01*
X191535714Y-75276247D02*
X191345238Y-75276247D01*
X191964286Y-75704819D02*
X191964286Y-74704819D01*
X191964286Y-74704819D02*
X192535714Y-75704819D01*
X192535714Y-75704819D02*
X192535714Y-74704819D01*
X193011905Y-75704819D02*
X193011905Y-74704819D01*
X193011905Y-74704819D02*
X193250000Y-74704819D01*
X193250000Y-74704819D02*
X193392857Y-74752438D01*
X193392857Y-74752438D02*
X193488095Y-74847676D01*
X193488095Y-74847676D02*
X193535714Y-74942914D01*
X193535714Y-74942914D02*
X193583333Y-75133390D01*
X193583333Y-75133390D02*
X193583333Y-75276247D01*
X193583333Y-75276247D02*
X193535714Y-75466723D01*
X193535714Y-75466723D02*
X193488095Y-75561961D01*
X193488095Y-75561961D02*
X193392857Y-75657200D01*
X193392857Y-75657200D02*
X193250000Y-75704819D01*
X193250000Y-75704819D02*
X193011905Y-75704819D01*
X105024819Y-81613333D02*
X105739104Y-81613333D01*
X105739104Y-81613333D02*
X105881961Y-81660952D01*
X105881961Y-81660952D02*
X105977200Y-81756190D01*
X105977200Y-81756190D02*
X106024819Y-81899047D01*
X106024819Y-81899047D02*
X106024819Y-81994285D01*
X105024819Y-80708571D02*
X105024819Y-80899047D01*
X105024819Y-80899047D02*
X105072438Y-80994285D01*
X105072438Y-80994285D02*
X105120057Y-81041904D01*
X105120057Y-81041904D02*
X105262914Y-81137142D01*
X105262914Y-81137142D02*
X105453390Y-81184761D01*
X105453390Y-81184761D02*
X105834342Y-81184761D01*
X105834342Y-81184761D02*
X105929580Y-81137142D01*
X105929580Y-81137142D02*
X105977200Y-81089523D01*
X105977200Y-81089523D02*
X106024819Y-80994285D01*
X106024819Y-80994285D02*
X106024819Y-80803809D01*
X106024819Y-80803809D02*
X105977200Y-80708571D01*
X105977200Y-80708571D02*
X105929580Y-80660952D01*
X105929580Y-80660952D02*
X105834342Y-80613333D01*
X105834342Y-80613333D02*
X105596247Y-80613333D01*
X105596247Y-80613333D02*
X105501009Y-80660952D01*
X105501009Y-80660952D02*
X105453390Y-80708571D01*
X105453390Y-80708571D02*
X105405771Y-80803809D01*
X105405771Y-80803809D02*
X105405771Y-80994285D01*
X105405771Y-80994285D02*
X105453390Y-81089523D01*
X105453390Y-81089523D02*
X105501009Y-81137142D01*
X105501009Y-81137142D02*
X105596247Y-81184761D01*
X105914819Y-73993333D02*
X106629104Y-73993333D01*
X106629104Y-73993333D02*
X106771961Y-74040952D01*
X106771961Y-74040952D02*
X106867200Y-74136190D01*
X106867200Y-74136190D02*
X106914819Y-74279047D01*
X106914819Y-74279047D02*
X106914819Y-74374285D01*
X105914819Y-73612380D02*
X105914819Y-72945714D01*
X105914819Y-72945714D02*
X106914819Y-73374285D01*
X110154761Y-75681009D02*
X110488094Y-75681009D01*
X110630951Y-76204819D02*
X110154761Y-76204819D01*
X110154761Y-76204819D02*
X110154761Y-75204819D01*
X110154761Y-75204819D02*
X110630951Y-75204819D01*
X111059523Y-75538152D02*
X111059523Y-76204819D01*
X111059523Y-75633390D02*
X111107142Y-75585771D01*
X111107142Y-75585771D02*
X111202380Y-75538152D01*
X111202380Y-75538152D02*
X111345237Y-75538152D01*
X111345237Y-75538152D02*
X111440475Y-75585771D01*
X111440475Y-75585771D02*
X111488094Y-75681009D01*
X111488094Y-75681009D02*
X111488094Y-76204819D01*
X112392856Y-76157200D02*
X112297618Y-76204819D01*
X112297618Y-76204819D02*
X112107142Y-76204819D01*
X112107142Y-76204819D02*
X112011904Y-76157200D01*
X112011904Y-76157200D02*
X111964285Y-76109580D01*
X111964285Y-76109580D02*
X111916666Y-76014342D01*
X111916666Y-76014342D02*
X111916666Y-75728628D01*
X111916666Y-75728628D02*
X111964285Y-75633390D01*
X111964285Y-75633390D02*
X112011904Y-75585771D01*
X112011904Y-75585771D02*
X112107142Y-75538152D01*
X112107142Y-75538152D02*
X112297618Y-75538152D01*
X112297618Y-75538152D02*
X112392856Y-75585771D01*
X112964285Y-76204819D02*
X112869047Y-76157200D01*
X112869047Y-76157200D02*
X112821428Y-76109580D01*
X112821428Y-76109580D02*
X112773809Y-76014342D01*
X112773809Y-76014342D02*
X112773809Y-75728628D01*
X112773809Y-75728628D02*
X112821428Y-75633390D01*
X112821428Y-75633390D02*
X112869047Y-75585771D01*
X112869047Y-75585771D02*
X112964285Y-75538152D01*
X112964285Y-75538152D02*
X113107142Y-75538152D01*
X113107142Y-75538152D02*
X113202380Y-75585771D01*
X113202380Y-75585771D02*
X113249999Y-75633390D01*
X113249999Y-75633390D02*
X113297618Y-75728628D01*
X113297618Y-75728628D02*
X113297618Y-76014342D01*
X113297618Y-76014342D02*
X113249999Y-76109580D01*
X113249999Y-76109580D02*
X113202380Y-76157200D01*
X113202380Y-76157200D02*
X113107142Y-76204819D01*
X113107142Y-76204819D02*
X112964285Y-76204819D01*
X114154761Y-76204819D02*
X114154761Y-75204819D01*
X114154761Y-76157200D02*
X114059523Y-76204819D01*
X114059523Y-76204819D02*
X113869047Y-76204819D01*
X113869047Y-76204819D02*
X113773809Y-76157200D01*
X113773809Y-76157200D02*
X113726190Y-76109580D01*
X113726190Y-76109580D02*
X113678571Y-76014342D01*
X113678571Y-76014342D02*
X113678571Y-75728628D01*
X113678571Y-75728628D02*
X113726190Y-75633390D01*
X113726190Y-75633390D02*
X113773809Y-75585771D01*
X113773809Y-75585771D02*
X113869047Y-75538152D01*
X113869047Y-75538152D02*
X114059523Y-75538152D01*
X114059523Y-75538152D02*
X114154761Y-75585771D01*
X115011904Y-76157200D02*
X114916666Y-76204819D01*
X114916666Y-76204819D02*
X114726190Y-76204819D01*
X114726190Y-76204819D02*
X114630952Y-76157200D01*
X114630952Y-76157200D02*
X114583333Y-76061961D01*
X114583333Y-76061961D02*
X114583333Y-75681009D01*
X114583333Y-75681009D02*
X114630952Y-75585771D01*
X114630952Y-75585771D02*
X114726190Y-75538152D01*
X114726190Y-75538152D02*
X114916666Y-75538152D01*
X114916666Y-75538152D02*
X115011904Y-75585771D01*
X115011904Y-75585771D02*
X115059523Y-75681009D01*
X115059523Y-75681009D02*
X115059523Y-75776247D01*
X115059523Y-75776247D02*
X114583333Y-75871485D01*
X115488095Y-76204819D02*
X115488095Y-75538152D01*
X115488095Y-75728628D02*
X115535714Y-75633390D01*
X115535714Y-75633390D02*
X115583333Y-75585771D01*
X115583333Y-75585771D02*
X115678571Y-75538152D01*
X115678571Y-75538152D02*
X115773809Y-75538152D01*
X116821429Y-75300057D02*
X116869048Y-75252438D01*
X116869048Y-75252438D02*
X116964286Y-75204819D01*
X116964286Y-75204819D02*
X117202381Y-75204819D01*
X117202381Y-75204819D02*
X117297619Y-75252438D01*
X117297619Y-75252438D02*
X117345238Y-75300057D01*
X117345238Y-75300057D02*
X117392857Y-75395295D01*
X117392857Y-75395295D02*
X117392857Y-75490533D01*
X117392857Y-75490533D02*
X117345238Y-75633390D01*
X117345238Y-75633390D02*
X116773810Y-76204819D01*
X116773810Y-76204819D02*
X117392857Y-76204819D01*
X178167857Y-50781809D02*
X178310714Y-50829428D01*
X178310714Y-50829428D02*
X178358333Y-50877047D01*
X178358333Y-50877047D02*
X178405952Y-50972285D01*
X178405952Y-50972285D02*
X178405952Y-51115142D01*
X178405952Y-51115142D02*
X178358333Y-51210380D01*
X178358333Y-51210380D02*
X178310714Y-51258000D01*
X178310714Y-51258000D02*
X178215476Y-51305619D01*
X178215476Y-51305619D02*
X177834524Y-51305619D01*
X177834524Y-51305619D02*
X177834524Y-50305619D01*
X177834524Y-50305619D02*
X178167857Y-50305619D01*
X178167857Y-50305619D02*
X178263095Y-50353238D01*
X178263095Y-50353238D02*
X178310714Y-50400857D01*
X178310714Y-50400857D02*
X178358333Y-50496095D01*
X178358333Y-50496095D02*
X178358333Y-50591333D01*
X178358333Y-50591333D02*
X178310714Y-50686571D01*
X178310714Y-50686571D02*
X178263095Y-50734190D01*
X178263095Y-50734190D02*
X178167857Y-50781809D01*
X178167857Y-50781809D02*
X177834524Y-50781809D01*
X179025000Y-50305619D02*
X179215476Y-50305619D01*
X179215476Y-50305619D02*
X179310714Y-50353238D01*
X179310714Y-50353238D02*
X179405952Y-50448476D01*
X179405952Y-50448476D02*
X179453571Y-50638952D01*
X179453571Y-50638952D02*
X179453571Y-50972285D01*
X179453571Y-50972285D02*
X179405952Y-51162761D01*
X179405952Y-51162761D02*
X179310714Y-51258000D01*
X179310714Y-51258000D02*
X179215476Y-51305619D01*
X179215476Y-51305619D02*
X179025000Y-51305619D01*
X179025000Y-51305619D02*
X178929762Y-51258000D01*
X178929762Y-51258000D02*
X178834524Y-51162761D01*
X178834524Y-51162761D02*
X178786905Y-50972285D01*
X178786905Y-50972285D02*
X178786905Y-50638952D01*
X178786905Y-50638952D02*
X178834524Y-50448476D01*
X178834524Y-50448476D02*
X178929762Y-50353238D01*
X178929762Y-50353238D02*
X179025000Y-50305619D01*
X180072619Y-50305619D02*
X180263095Y-50305619D01*
X180263095Y-50305619D02*
X180358333Y-50353238D01*
X180358333Y-50353238D02*
X180453571Y-50448476D01*
X180453571Y-50448476D02*
X180501190Y-50638952D01*
X180501190Y-50638952D02*
X180501190Y-50972285D01*
X180501190Y-50972285D02*
X180453571Y-51162761D01*
X180453571Y-51162761D02*
X180358333Y-51258000D01*
X180358333Y-51258000D02*
X180263095Y-51305619D01*
X180263095Y-51305619D02*
X180072619Y-51305619D01*
X180072619Y-51305619D02*
X179977381Y-51258000D01*
X179977381Y-51258000D02*
X179882143Y-51162761D01*
X179882143Y-51162761D02*
X179834524Y-50972285D01*
X179834524Y-50972285D02*
X179834524Y-50638952D01*
X179834524Y-50638952D02*
X179882143Y-50448476D01*
X179882143Y-50448476D02*
X179977381Y-50353238D01*
X179977381Y-50353238D02*
X180072619Y-50305619D01*
X180786905Y-50305619D02*
X181358333Y-50305619D01*
X181072619Y-51305619D02*
X181072619Y-50305619D01*
X192193942Y-51565980D02*
X192146323Y-51613600D01*
X192146323Y-51613600D02*
X192003466Y-51661219D01*
X192003466Y-51661219D02*
X191908228Y-51661219D01*
X191908228Y-51661219D02*
X191765371Y-51613600D01*
X191765371Y-51613600D02*
X191670133Y-51518361D01*
X191670133Y-51518361D02*
X191622514Y-51423123D01*
X191622514Y-51423123D02*
X191574895Y-51232647D01*
X191574895Y-51232647D02*
X191574895Y-51089790D01*
X191574895Y-51089790D02*
X191622514Y-50899314D01*
X191622514Y-50899314D02*
X191670133Y-50804076D01*
X191670133Y-50804076D02*
X191765371Y-50708838D01*
X191765371Y-50708838D02*
X191908228Y-50661219D01*
X191908228Y-50661219D02*
X192003466Y-50661219D01*
X192003466Y-50661219D02*
X192146323Y-50708838D01*
X192146323Y-50708838D02*
X192193942Y-50756457D01*
X193146323Y-51661219D02*
X192574895Y-51661219D01*
X192860609Y-51661219D02*
X192860609Y-50661219D01*
X192860609Y-50661219D02*
X192765371Y-50804076D01*
X192765371Y-50804076D02*
X192670133Y-50899314D01*
X192670133Y-50899314D02*
X192574895Y-50946933D01*
X193765371Y-50661219D02*
X193860609Y-50661219D01*
X193860609Y-50661219D02*
X193955847Y-50708838D01*
X193955847Y-50708838D02*
X194003466Y-50756457D01*
X194003466Y-50756457D02*
X194051085Y-50851695D01*
X194051085Y-50851695D02*
X194098704Y-51042171D01*
X194098704Y-51042171D02*
X194098704Y-51280266D01*
X194098704Y-51280266D02*
X194051085Y-51470742D01*
X194051085Y-51470742D02*
X194003466Y-51565980D01*
X194003466Y-51565980D02*
X193955847Y-51613600D01*
X193955847Y-51613600D02*
X193860609Y-51661219D01*
X193860609Y-51661219D02*
X193765371Y-51661219D01*
X193765371Y-51661219D02*
X193670133Y-51613600D01*
X193670133Y-51613600D02*
X193622514Y-51565980D01*
X193622514Y-51565980D02*
X193574895Y-51470742D01*
X193574895Y-51470742D02*
X193527276Y-51280266D01*
X193527276Y-51280266D02*
X193527276Y-51042171D01*
X193527276Y-51042171D02*
X193574895Y-50851695D01*
X193574895Y-50851695D02*
X193622514Y-50756457D01*
X193622514Y-50756457D02*
X193670133Y-50708838D01*
X193670133Y-50708838D02*
X193765371Y-50661219D01*
X105954819Y-70809523D02*
X106669104Y-70809523D01*
X106669104Y-70809523D02*
X106811961Y-70857142D01*
X106811961Y-70857142D02*
X106907200Y-70952380D01*
X106907200Y-70952380D02*
X106954819Y-71095237D01*
X106954819Y-71095237D02*
X106954819Y-71190475D01*
X106954819Y-69809523D02*
X106954819Y-70380951D01*
X106954819Y-70095237D02*
X105954819Y-70095237D01*
X105954819Y-70095237D02*
X106097676Y-70190475D01*
X106097676Y-70190475D02*
X106192914Y-70285713D01*
X106192914Y-70285713D02*
X106240533Y-70380951D01*
X105954819Y-69190475D02*
X105954819Y-69095237D01*
X105954819Y-69095237D02*
X106002438Y-68999999D01*
X106002438Y-68999999D02*
X106050057Y-68952380D01*
X106050057Y-68952380D02*
X106145295Y-68904761D01*
X106145295Y-68904761D02*
X106335771Y-68857142D01*
X106335771Y-68857142D02*
X106573866Y-68857142D01*
X106573866Y-68857142D02*
X106764342Y-68904761D01*
X106764342Y-68904761D02*
X106859580Y-68952380D01*
X106859580Y-68952380D02*
X106907200Y-68999999D01*
X106907200Y-68999999D02*
X106954819Y-69095237D01*
X106954819Y-69095237D02*
X106954819Y-69190475D01*
X106954819Y-69190475D02*
X106907200Y-69285713D01*
X106907200Y-69285713D02*
X106859580Y-69333332D01*
X106859580Y-69333332D02*
X106764342Y-69380951D01*
X106764342Y-69380951D02*
X106573866Y-69428570D01*
X106573866Y-69428570D02*
X106335771Y-69428570D01*
X106335771Y-69428570D02*
X106145295Y-69380951D01*
X106145295Y-69380951D02*
X106050057Y-69333332D01*
X106050057Y-69333332D02*
X106002438Y-69285713D01*
X106002438Y-69285713D02*
X105954819Y-69190475D01*
X110154761Y-67931009D02*
X110488094Y-67931009D01*
X110630951Y-68454819D02*
X110154761Y-68454819D01*
X110154761Y-68454819D02*
X110154761Y-67454819D01*
X110154761Y-67454819D02*
X110630951Y-67454819D01*
X111059523Y-67788152D02*
X111059523Y-68454819D01*
X111059523Y-67883390D02*
X111107142Y-67835771D01*
X111107142Y-67835771D02*
X111202380Y-67788152D01*
X111202380Y-67788152D02*
X111345237Y-67788152D01*
X111345237Y-67788152D02*
X111440475Y-67835771D01*
X111440475Y-67835771D02*
X111488094Y-67931009D01*
X111488094Y-67931009D02*
X111488094Y-68454819D01*
X112392856Y-68407200D02*
X112297618Y-68454819D01*
X112297618Y-68454819D02*
X112107142Y-68454819D01*
X112107142Y-68454819D02*
X112011904Y-68407200D01*
X112011904Y-68407200D02*
X111964285Y-68359580D01*
X111964285Y-68359580D02*
X111916666Y-68264342D01*
X111916666Y-68264342D02*
X111916666Y-67978628D01*
X111916666Y-67978628D02*
X111964285Y-67883390D01*
X111964285Y-67883390D02*
X112011904Y-67835771D01*
X112011904Y-67835771D02*
X112107142Y-67788152D01*
X112107142Y-67788152D02*
X112297618Y-67788152D01*
X112297618Y-67788152D02*
X112392856Y-67835771D01*
X112964285Y-68454819D02*
X112869047Y-68407200D01*
X112869047Y-68407200D02*
X112821428Y-68359580D01*
X112821428Y-68359580D02*
X112773809Y-68264342D01*
X112773809Y-68264342D02*
X112773809Y-67978628D01*
X112773809Y-67978628D02*
X112821428Y-67883390D01*
X112821428Y-67883390D02*
X112869047Y-67835771D01*
X112869047Y-67835771D02*
X112964285Y-67788152D01*
X112964285Y-67788152D02*
X113107142Y-67788152D01*
X113107142Y-67788152D02*
X113202380Y-67835771D01*
X113202380Y-67835771D02*
X113249999Y-67883390D01*
X113249999Y-67883390D02*
X113297618Y-67978628D01*
X113297618Y-67978628D02*
X113297618Y-68264342D01*
X113297618Y-68264342D02*
X113249999Y-68359580D01*
X113249999Y-68359580D02*
X113202380Y-68407200D01*
X113202380Y-68407200D02*
X113107142Y-68454819D01*
X113107142Y-68454819D02*
X112964285Y-68454819D01*
X114154761Y-68454819D02*
X114154761Y-67454819D01*
X114154761Y-68407200D02*
X114059523Y-68454819D01*
X114059523Y-68454819D02*
X113869047Y-68454819D01*
X113869047Y-68454819D02*
X113773809Y-68407200D01*
X113773809Y-68407200D02*
X113726190Y-68359580D01*
X113726190Y-68359580D02*
X113678571Y-68264342D01*
X113678571Y-68264342D02*
X113678571Y-67978628D01*
X113678571Y-67978628D02*
X113726190Y-67883390D01*
X113726190Y-67883390D02*
X113773809Y-67835771D01*
X113773809Y-67835771D02*
X113869047Y-67788152D01*
X113869047Y-67788152D02*
X114059523Y-67788152D01*
X114059523Y-67788152D02*
X114154761Y-67835771D01*
X115011904Y-68407200D02*
X114916666Y-68454819D01*
X114916666Y-68454819D02*
X114726190Y-68454819D01*
X114726190Y-68454819D02*
X114630952Y-68407200D01*
X114630952Y-68407200D02*
X114583333Y-68311961D01*
X114583333Y-68311961D02*
X114583333Y-67931009D01*
X114583333Y-67931009D02*
X114630952Y-67835771D01*
X114630952Y-67835771D02*
X114726190Y-67788152D01*
X114726190Y-67788152D02*
X114916666Y-67788152D01*
X114916666Y-67788152D02*
X115011904Y-67835771D01*
X115011904Y-67835771D02*
X115059523Y-67931009D01*
X115059523Y-67931009D02*
X115059523Y-68026247D01*
X115059523Y-68026247D02*
X114583333Y-68121485D01*
X115488095Y-68454819D02*
X115488095Y-67788152D01*
X115488095Y-67978628D02*
X115535714Y-67883390D01*
X115535714Y-67883390D02*
X115583333Y-67835771D01*
X115583333Y-67835771D02*
X115678571Y-67788152D01*
X115678571Y-67788152D02*
X115773809Y-67788152D01*
X117392857Y-68454819D02*
X116821429Y-68454819D01*
X117107143Y-68454819D02*
X117107143Y-67454819D01*
X117107143Y-67454819D02*
X117011905Y-67597676D01*
X117011905Y-67597676D02*
X116916667Y-67692914D01*
X116916667Y-67692914D02*
X116821429Y-67740533D01*
X163952819Y-73231333D02*
X164667104Y-73231333D01*
X164667104Y-73231333D02*
X164809961Y-73278952D01*
X164809961Y-73278952D02*
X164905200Y-73374190D01*
X164905200Y-73374190D02*
X164952819Y-73517047D01*
X164952819Y-73517047D02*
X164952819Y-73612285D01*
X164381390Y-72612285D02*
X164333771Y-72707523D01*
X164333771Y-72707523D02*
X164286152Y-72755142D01*
X164286152Y-72755142D02*
X164190914Y-72802761D01*
X164190914Y-72802761D02*
X164143295Y-72802761D01*
X164143295Y-72802761D02*
X164048057Y-72755142D01*
X164048057Y-72755142D02*
X164000438Y-72707523D01*
X164000438Y-72707523D02*
X163952819Y-72612285D01*
X163952819Y-72612285D02*
X163952819Y-72421809D01*
X163952819Y-72421809D02*
X164000438Y-72326571D01*
X164000438Y-72326571D02*
X164048057Y-72278952D01*
X164048057Y-72278952D02*
X164143295Y-72231333D01*
X164143295Y-72231333D02*
X164190914Y-72231333D01*
X164190914Y-72231333D02*
X164286152Y-72278952D01*
X164286152Y-72278952D02*
X164333771Y-72326571D01*
X164333771Y-72326571D02*
X164381390Y-72421809D01*
X164381390Y-72421809D02*
X164381390Y-72612285D01*
X164381390Y-72612285D02*
X164429009Y-72707523D01*
X164429009Y-72707523D02*
X164476628Y-72755142D01*
X164476628Y-72755142D02*
X164571866Y-72802761D01*
X164571866Y-72802761D02*
X164762342Y-72802761D01*
X164762342Y-72802761D02*
X164857580Y-72755142D01*
X164857580Y-72755142D02*
X164905200Y-72707523D01*
X164905200Y-72707523D02*
X164952819Y-72612285D01*
X164952819Y-72612285D02*
X164952819Y-72421809D01*
X164952819Y-72421809D02*
X164905200Y-72326571D01*
X164905200Y-72326571D02*
X164857580Y-72278952D01*
X164857580Y-72278952D02*
X164762342Y-72231333D01*
X164762342Y-72231333D02*
X164571866Y-72231333D01*
X164571866Y-72231333D02*
X164476628Y-72278952D01*
X164476628Y-72278952D02*
X164429009Y-72326571D01*
X164429009Y-72326571D02*
X164381390Y-72421809D01*
X165243333Y-76102819D02*
X165243333Y-75102819D01*
X165243333Y-75102819D02*
X165624285Y-75102819D01*
X165624285Y-75102819D02*
X165719523Y-75150438D01*
X165719523Y-75150438D02*
X165767142Y-75198057D01*
X165767142Y-75198057D02*
X165814761Y-75293295D01*
X165814761Y-75293295D02*
X165814761Y-75436152D01*
X165814761Y-75436152D02*
X165767142Y-75531390D01*
X165767142Y-75531390D02*
X165719523Y-75579009D01*
X165719523Y-75579009D02*
X165624285Y-75626628D01*
X165624285Y-75626628D02*
X165243333Y-75626628D01*
X166814761Y-76007580D02*
X166767142Y-76055200D01*
X166767142Y-76055200D02*
X166624285Y-76102819D01*
X166624285Y-76102819D02*
X166529047Y-76102819D01*
X166529047Y-76102819D02*
X166386190Y-76055200D01*
X166386190Y-76055200D02*
X166290952Y-75959961D01*
X166290952Y-75959961D02*
X166243333Y-75864723D01*
X166243333Y-75864723D02*
X166195714Y-75674247D01*
X166195714Y-75674247D02*
X166195714Y-75531390D01*
X166195714Y-75531390D02*
X166243333Y-75340914D01*
X166243333Y-75340914D02*
X166290952Y-75245676D01*
X166290952Y-75245676D02*
X166386190Y-75150438D01*
X166386190Y-75150438D02*
X166529047Y-75102819D01*
X166529047Y-75102819D02*
X166624285Y-75102819D01*
X166624285Y-75102819D02*
X166767142Y-75150438D01*
X166767142Y-75150438D02*
X166814761Y-75198057D01*
X167243333Y-76102819D02*
X167243333Y-75102819D01*
X167243333Y-75102819D02*
X167576666Y-75817104D01*
X167576666Y-75817104D02*
X167909999Y-75102819D01*
X167909999Y-75102819D02*
X167909999Y-76102819D01*
X168862380Y-75102819D02*
X168386190Y-75102819D01*
X168386190Y-75102819D02*
X168338571Y-75579009D01*
X168338571Y-75579009D02*
X168386190Y-75531390D01*
X168386190Y-75531390D02*
X168481428Y-75483771D01*
X168481428Y-75483771D02*
X168719523Y-75483771D01*
X168719523Y-75483771D02*
X168814761Y-75531390D01*
X168814761Y-75531390D02*
X168862380Y-75579009D01*
X168862380Y-75579009D02*
X168909999Y-75674247D01*
X168909999Y-75674247D02*
X168909999Y-75912342D01*
X168909999Y-75912342D02*
X168862380Y-76007580D01*
X168862380Y-76007580D02*
X168814761Y-76055200D01*
X168814761Y-76055200D02*
X168719523Y-76102819D01*
X168719523Y-76102819D02*
X168481428Y-76102819D01*
X168481428Y-76102819D02*
X168386190Y-76055200D01*
X168386190Y-76055200D02*
X168338571Y-76007580D01*
X169862380Y-76102819D02*
X169290952Y-76102819D01*
X169576666Y-76102819D02*
X169576666Y-75102819D01*
X169576666Y-75102819D02*
X169481428Y-75245676D01*
X169481428Y-75245676D02*
X169386190Y-75340914D01*
X169386190Y-75340914D02*
X169290952Y-75388533D01*
X170481428Y-75102819D02*
X170576666Y-75102819D01*
X170576666Y-75102819D02*
X170671904Y-75150438D01*
X170671904Y-75150438D02*
X170719523Y-75198057D01*
X170719523Y-75198057D02*
X170767142Y-75293295D01*
X170767142Y-75293295D02*
X170814761Y-75483771D01*
X170814761Y-75483771D02*
X170814761Y-75721866D01*
X170814761Y-75721866D02*
X170767142Y-75912342D01*
X170767142Y-75912342D02*
X170719523Y-76007580D01*
X170719523Y-76007580D02*
X170671904Y-76055200D01*
X170671904Y-76055200D02*
X170576666Y-76102819D01*
X170576666Y-76102819D02*
X170481428Y-76102819D01*
X170481428Y-76102819D02*
X170386190Y-76055200D01*
X170386190Y-76055200D02*
X170338571Y-76007580D01*
X170338571Y-76007580D02*
X170290952Y-75912342D01*
X170290952Y-75912342D02*
X170243333Y-75721866D01*
X170243333Y-75721866D02*
X170243333Y-75483771D01*
X170243333Y-75483771D02*
X170290952Y-75293295D01*
X170290952Y-75293295D02*
X170338571Y-75198057D01*
X170338571Y-75198057D02*
X170386190Y-75150438D01*
X170386190Y-75150438D02*
X170481428Y-75102819D01*
X171195714Y-75198057D02*
X171243333Y-75150438D01*
X171243333Y-75150438D02*
X171338571Y-75102819D01*
X171338571Y-75102819D02*
X171576666Y-75102819D01*
X171576666Y-75102819D02*
X171671904Y-75150438D01*
X171671904Y-75150438D02*
X171719523Y-75198057D01*
X171719523Y-75198057D02*
X171767142Y-75293295D01*
X171767142Y-75293295D02*
X171767142Y-75388533D01*
X171767142Y-75388533D02*
X171719523Y-75531390D01*
X171719523Y-75531390D02*
X171148095Y-76102819D01*
X171148095Y-76102819D02*
X171767142Y-76102819D01*
X172148095Y-75817104D02*
X172624285Y-75817104D01*
X172052857Y-76102819D02*
X172386190Y-75102819D01*
X172386190Y-75102819D02*
X172719523Y-76102819D01*
X179385333Y-65530819D02*
X179052000Y-65054628D01*
X178813905Y-65530819D02*
X178813905Y-64530819D01*
X178813905Y-64530819D02*
X179194857Y-64530819D01*
X179194857Y-64530819D02*
X179290095Y-64578438D01*
X179290095Y-64578438D02*
X179337714Y-64626057D01*
X179337714Y-64626057D02*
X179385333Y-64721295D01*
X179385333Y-64721295D02*
X179385333Y-64864152D01*
X179385333Y-64864152D02*
X179337714Y-64959390D01*
X179337714Y-64959390D02*
X179290095Y-65007009D01*
X179290095Y-65007009D02*
X179194857Y-65054628D01*
X179194857Y-65054628D02*
X178813905Y-65054628D01*
X179861524Y-65530819D02*
X180052000Y-65530819D01*
X180052000Y-65530819D02*
X180147238Y-65483200D01*
X180147238Y-65483200D02*
X180194857Y-65435580D01*
X180194857Y-65435580D02*
X180290095Y-65292723D01*
X180290095Y-65292723D02*
X180337714Y-65102247D01*
X180337714Y-65102247D02*
X180337714Y-64721295D01*
X180337714Y-64721295D02*
X180290095Y-64626057D01*
X180290095Y-64626057D02*
X180242476Y-64578438D01*
X180242476Y-64578438D02*
X180147238Y-64530819D01*
X180147238Y-64530819D02*
X179956762Y-64530819D01*
X179956762Y-64530819D02*
X179861524Y-64578438D01*
X179861524Y-64578438D02*
X179813905Y-64626057D01*
X179813905Y-64626057D02*
X179766286Y-64721295D01*
X179766286Y-64721295D02*
X179766286Y-64959390D01*
X179766286Y-64959390D02*
X179813905Y-65054628D01*
X179813905Y-65054628D02*
X179861524Y-65102247D01*
X179861524Y-65102247D02*
X179956762Y-65149866D01*
X179956762Y-65149866D02*
X180147238Y-65149866D01*
X180147238Y-65149866D02*
X180242476Y-65102247D01*
X180242476Y-65102247D02*
X180290095Y-65054628D01*
X180290095Y-65054628D02*
X180337714Y-64959390D01*
X121013333Y-59389580D02*
X120965714Y-59437200D01*
X120965714Y-59437200D02*
X120822857Y-59484819D01*
X120822857Y-59484819D02*
X120727619Y-59484819D01*
X120727619Y-59484819D02*
X120584762Y-59437200D01*
X120584762Y-59437200D02*
X120489524Y-59341961D01*
X120489524Y-59341961D02*
X120441905Y-59246723D01*
X120441905Y-59246723D02*
X120394286Y-59056247D01*
X120394286Y-59056247D02*
X120394286Y-58913390D01*
X120394286Y-58913390D02*
X120441905Y-58722914D01*
X120441905Y-58722914D02*
X120489524Y-58627676D01*
X120489524Y-58627676D02*
X120584762Y-58532438D01*
X120584762Y-58532438D02*
X120727619Y-58484819D01*
X120727619Y-58484819D02*
X120822857Y-58484819D01*
X120822857Y-58484819D02*
X120965714Y-58532438D01*
X120965714Y-58532438D02*
X121013333Y-58580057D01*
X121394286Y-58580057D02*
X121441905Y-58532438D01*
X121441905Y-58532438D02*
X121537143Y-58484819D01*
X121537143Y-58484819D02*
X121775238Y-58484819D01*
X121775238Y-58484819D02*
X121870476Y-58532438D01*
X121870476Y-58532438D02*
X121918095Y-58580057D01*
X121918095Y-58580057D02*
X121965714Y-58675295D01*
X121965714Y-58675295D02*
X121965714Y-58770533D01*
X121965714Y-58770533D02*
X121918095Y-58913390D01*
X121918095Y-58913390D02*
X121346667Y-59484819D01*
X121346667Y-59484819D02*
X121965714Y-59484819D01*
X185057142Y-66809580D02*
X185009523Y-66857200D01*
X185009523Y-66857200D02*
X184866666Y-66904819D01*
X184866666Y-66904819D02*
X184771428Y-66904819D01*
X184771428Y-66904819D02*
X184628571Y-66857200D01*
X184628571Y-66857200D02*
X184533333Y-66761961D01*
X184533333Y-66761961D02*
X184485714Y-66666723D01*
X184485714Y-66666723D02*
X184438095Y-66476247D01*
X184438095Y-66476247D02*
X184438095Y-66333390D01*
X184438095Y-66333390D02*
X184485714Y-66142914D01*
X184485714Y-66142914D02*
X184533333Y-66047676D01*
X184533333Y-66047676D02*
X184628571Y-65952438D01*
X184628571Y-65952438D02*
X184771428Y-65904819D01*
X184771428Y-65904819D02*
X184866666Y-65904819D01*
X184866666Y-65904819D02*
X185009523Y-65952438D01*
X185009523Y-65952438D02*
X185057142Y-66000057D01*
X186009523Y-66904819D02*
X185438095Y-66904819D01*
X185723809Y-66904819D02*
X185723809Y-65904819D01*
X185723809Y-65904819D02*
X185628571Y-66047676D01*
X185628571Y-66047676D02*
X185533333Y-66142914D01*
X185533333Y-66142914D02*
X185438095Y-66190533D01*
X186390476Y-66000057D02*
X186438095Y-65952438D01*
X186438095Y-65952438D02*
X186533333Y-65904819D01*
X186533333Y-65904819D02*
X186771428Y-65904819D01*
X186771428Y-65904819D02*
X186866666Y-65952438D01*
X186866666Y-65952438D02*
X186914285Y-66000057D01*
X186914285Y-66000057D02*
X186961904Y-66095295D01*
X186961904Y-66095295D02*
X186961904Y-66190533D01*
X186961904Y-66190533D02*
X186914285Y-66333390D01*
X186914285Y-66333390D02*
X186342857Y-66904819D01*
X186342857Y-66904819D02*
X186961904Y-66904819D01*
X185607142Y-74859580D02*
X185559523Y-74907200D01*
X185559523Y-74907200D02*
X185416666Y-74954819D01*
X185416666Y-74954819D02*
X185321428Y-74954819D01*
X185321428Y-74954819D02*
X185178571Y-74907200D01*
X185178571Y-74907200D02*
X185083333Y-74811961D01*
X185083333Y-74811961D02*
X185035714Y-74716723D01*
X185035714Y-74716723D02*
X184988095Y-74526247D01*
X184988095Y-74526247D02*
X184988095Y-74383390D01*
X184988095Y-74383390D02*
X185035714Y-74192914D01*
X185035714Y-74192914D02*
X185083333Y-74097676D01*
X185083333Y-74097676D02*
X185178571Y-74002438D01*
X185178571Y-74002438D02*
X185321428Y-73954819D01*
X185321428Y-73954819D02*
X185416666Y-73954819D01*
X185416666Y-73954819D02*
X185559523Y-74002438D01*
X185559523Y-74002438D02*
X185607142Y-74050057D01*
X186559523Y-74954819D02*
X185988095Y-74954819D01*
X186273809Y-74954819D02*
X186273809Y-73954819D01*
X186273809Y-73954819D02*
X186178571Y-74097676D01*
X186178571Y-74097676D02*
X186083333Y-74192914D01*
X186083333Y-74192914D02*
X185988095Y-74240533D01*
X187511904Y-74954819D02*
X186940476Y-74954819D01*
X187226190Y-74954819D02*
X187226190Y-73954819D01*
X187226190Y-73954819D02*
X187130952Y-74097676D01*
X187130952Y-74097676D02*
X187035714Y-74192914D01*
X187035714Y-74192914D02*
X186940476Y-74240533D01*
X167020833Y-57509580D02*
X166973214Y-57557200D01*
X166973214Y-57557200D02*
X166830357Y-57604819D01*
X166830357Y-57604819D02*
X166735119Y-57604819D01*
X166735119Y-57604819D02*
X166592262Y-57557200D01*
X166592262Y-57557200D02*
X166497024Y-57461961D01*
X166497024Y-57461961D02*
X166449405Y-57366723D01*
X166449405Y-57366723D02*
X166401786Y-57176247D01*
X166401786Y-57176247D02*
X166401786Y-57033390D01*
X166401786Y-57033390D02*
X166449405Y-56842914D01*
X166449405Y-56842914D02*
X166497024Y-56747676D01*
X166497024Y-56747676D02*
X166592262Y-56652438D01*
X166592262Y-56652438D02*
X166735119Y-56604819D01*
X166735119Y-56604819D02*
X166830357Y-56604819D01*
X166830357Y-56604819D02*
X166973214Y-56652438D01*
X166973214Y-56652438D02*
X167020833Y-56700057D01*
X167354167Y-56604819D02*
X167973214Y-56604819D01*
X167973214Y-56604819D02*
X167639881Y-56985771D01*
X167639881Y-56985771D02*
X167782738Y-56985771D01*
X167782738Y-56985771D02*
X167877976Y-57033390D01*
X167877976Y-57033390D02*
X167925595Y-57081009D01*
X167925595Y-57081009D02*
X167973214Y-57176247D01*
X167973214Y-57176247D02*
X167973214Y-57414342D01*
X167973214Y-57414342D02*
X167925595Y-57509580D01*
X167925595Y-57509580D02*
X167877976Y-57557200D01*
X167877976Y-57557200D02*
X167782738Y-57604819D01*
X167782738Y-57604819D02*
X167497024Y-57604819D01*
X167497024Y-57604819D02*
X167401786Y-57557200D01*
X167401786Y-57557200D02*
X167354167Y-57509580D01*
X172283333Y-57552819D02*
X171950000Y-57076628D01*
X171711905Y-57552819D02*
X171711905Y-56552819D01*
X171711905Y-56552819D02*
X172092857Y-56552819D01*
X172092857Y-56552819D02*
X172188095Y-56600438D01*
X172188095Y-56600438D02*
X172235714Y-56648057D01*
X172235714Y-56648057D02*
X172283333Y-56743295D01*
X172283333Y-56743295D02*
X172283333Y-56886152D01*
X172283333Y-56886152D02*
X172235714Y-56981390D01*
X172235714Y-56981390D02*
X172188095Y-57029009D01*
X172188095Y-57029009D02*
X172092857Y-57076628D01*
X172092857Y-57076628D02*
X171711905Y-57076628D01*
X173235714Y-57552819D02*
X172664286Y-57552819D01*
X172950000Y-57552819D02*
X172950000Y-56552819D01*
X172950000Y-56552819D02*
X172854762Y-56695676D01*
X172854762Y-56695676D02*
X172759524Y-56790914D01*
X172759524Y-56790914D02*
X172664286Y-56838533D01*
X121770833Y-54759580D02*
X121723214Y-54807200D01*
X121723214Y-54807200D02*
X121580357Y-54854819D01*
X121580357Y-54854819D02*
X121485119Y-54854819D01*
X121485119Y-54854819D02*
X121342262Y-54807200D01*
X121342262Y-54807200D02*
X121247024Y-54711961D01*
X121247024Y-54711961D02*
X121199405Y-54616723D01*
X121199405Y-54616723D02*
X121151786Y-54426247D01*
X121151786Y-54426247D02*
X121151786Y-54283390D01*
X121151786Y-54283390D02*
X121199405Y-54092914D01*
X121199405Y-54092914D02*
X121247024Y-53997676D01*
X121247024Y-53997676D02*
X121342262Y-53902438D01*
X121342262Y-53902438D02*
X121485119Y-53854819D01*
X121485119Y-53854819D02*
X121580357Y-53854819D01*
X121580357Y-53854819D02*
X121723214Y-53902438D01*
X121723214Y-53902438D02*
X121770833Y-53950057D01*
X122723214Y-54854819D02*
X122151786Y-54854819D01*
X122437500Y-54854819D02*
X122437500Y-53854819D01*
X122437500Y-53854819D02*
X122342262Y-53997676D01*
X122342262Y-53997676D02*
X122247024Y-54092914D01*
X122247024Y-54092914D02*
X122151786Y-54140533D01*
X167020833Y-62259580D02*
X166973214Y-62307200D01*
X166973214Y-62307200D02*
X166830357Y-62354819D01*
X166830357Y-62354819D02*
X166735119Y-62354819D01*
X166735119Y-62354819D02*
X166592262Y-62307200D01*
X166592262Y-62307200D02*
X166497024Y-62211961D01*
X166497024Y-62211961D02*
X166449405Y-62116723D01*
X166449405Y-62116723D02*
X166401786Y-61926247D01*
X166401786Y-61926247D02*
X166401786Y-61783390D01*
X166401786Y-61783390D02*
X166449405Y-61592914D01*
X166449405Y-61592914D02*
X166497024Y-61497676D01*
X166497024Y-61497676D02*
X166592262Y-61402438D01*
X166592262Y-61402438D02*
X166735119Y-61354819D01*
X166735119Y-61354819D02*
X166830357Y-61354819D01*
X166830357Y-61354819D02*
X166973214Y-61402438D01*
X166973214Y-61402438D02*
X167020833Y-61450057D01*
X167354167Y-61354819D02*
X168020833Y-61354819D01*
X168020833Y-61354819D02*
X167592262Y-62354819D01*
X172283333Y-62374819D02*
X171950000Y-61898628D01*
X171711905Y-62374819D02*
X171711905Y-61374819D01*
X171711905Y-61374819D02*
X172092857Y-61374819D01*
X172092857Y-61374819D02*
X172188095Y-61422438D01*
X172188095Y-61422438D02*
X172235714Y-61470057D01*
X172235714Y-61470057D02*
X172283333Y-61565295D01*
X172283333Y-61565295D02*
X172283333Y-61708152D01*
X172283333Y-61708152D02*
X172235714Y-61803390D01*
X172235714Y-61803390D02*
X172188095Y-61851009D01*
X172188095Y-61851009D02*
X172092857Y-61898628D01*
X172092857Y-61898628D02*
X171711905Y-61898628D01*
X173140476Y-61374819D02*
X172950000Y-61374819D01*
X172950000Y-61374819D02*
X172854762Y-61422438D01*
X172854762Y-61422438D02*
X172807143Y-61470057D01*
X172807143Y-61470057D02*
X172711905Y-61612914D01*
X172711905Y-61612914D02*
X172664286Y-61803390D01*
X172664286Y-61803390D02*
X172664286Y-62184342D01*
X172664286Y-62184342D02*
X172711905Y-62279580D01*
X172711905Y-62279580D02*
X172759524Y-62327200D01*
X172759524Y-62327200D02*
X172854762Y-62374819D01*
X172854762Y-62374819D02*
X173045238Y-62374819D01*
X173045238Y-62374819D02*
X173140476Y-62327200D01*
X173140476Y-62327200D02*
X173188095Y-62279580D01*
X173188095Y-62279580D02*
X173235714Y-62184342D01*
X173235714Y-62184342D02*
X173235714Y-61946247D01*
X173235714Y-61946247D02*
X173188095Y-61851009D01*
X173188095Y-61851009D02*
X173140476Y-61803390D01*
X173140476Y-61803390D02*
X173045238Y-61755771D01*
X173045238Y-61755771D02*
X172854762Y-61755771D01*
X172854762Y-61755771D02*
X172759524Y-61803390D01*
X172759524Y-61803390D02*
X172711905Y-61851009D01*
X172711905Y-61851009D02*
X172664286Y-61946247D01*
X162226666Y-65969819D02*
X162226666Y-66684104D01*
X162226666Y-66684104D02*
X162179047Y-66826961D01*
X162179047Y-66826961D02*
X162083809Y-66922200D01*
X162083809Y-66922200D02*
X161940952Y-66969819D01*
X161940952Y-66969819D02*
X161845714Y-66969819D01*
X163226666Y-66969819D02*
X162655238Y-66969819D01*
X162940952Y-66969819D02*
X162940952Y-65969819D01*
X162940952Y-65969819D02*
X162845714Y-66112676D01*
X162845714Y-66112676D02*
X162750476Y-66207914D01*
X162750476Y-66207914D02*
X162655238Y-66255533D01*
X160964762Y-56454819D02*
X160964762Y-57264342D01*
X160964762Y-57264342D02*
X161012381Y-57359580D01*
X161012381Y-57359580D02*
X161060000Y-57407200D01*
X161060000Y-57407200D02*
X161155238Y-57454819D01*
X161155238Y-57454819D02*
X161345714Y-57454819D01*
X161345714Y-57454819D02*
X161440952Y-57407200D01*
X161440952Y-57407200D02*
X161488571Y-57359580D01*
X161488571Y-57359580D02*
X161536190Y-57264342D01*
X161536190Y-57264342D02*
X161536190Y-56454819D01*
X161964762Y-57169104D02*
X162440952Y-57169104D01*
X161869524Y-57454819D02*
X162202857Y-56454819D01*
X162202857Y-56454819D02*
X162536190Y-57454819D01*
X163440952Y-57454819D02*
X163107619Y-56978628D01*
X162869524Y-57454819D02*
X162869524Y-56454819D01*
X162869524Y-56454819D02*
X163250476Y-56454819D01*
X163250476Y-56454819D02*
X163345714Y-56502438D01*
X163345714Y-56502438D02*
X163393333Y-56550057D01*
X163393333Y-56550057D02*
X163440952Y-56645295D01*
X163440952Y-56645295D02*
X163440952Y-56788152D01*
X163440952Y-56788152D02*
X163393333Y-56883390D01*
X163393333Y-56883390D02*
X163345714Y-56931009D01*
X163345714Y-56931009D02*
X163250476Y-56978628D01*
X163250476Y-56978628D02*
X162869524Y-56978628D01*
X163726667Y-56454819D02*
X164298095Y-56454819D01*
X164012381Y-57454819D02*
X164012381Y-56454819D01*
X135416666Y-59204819D02*
X135416666Y-59919104D01*
X135416666Y-59919104D02*
X135369047Y-60061961D01*
X135369047Y-60061961D02*
X135273809Y-60157200D01*
X135273809Y-60157200D02*
X135130952Y-60204819D01*
X135130952Y-60204819D02*
X135035714Y-60204819D01*
X135845238Y-59300057D02*
X135892857Y-59252438D01*
X135892857Y-59252438D02*
X135988095Y-59204819D01*
X135988095Y-59204819D02*
X136226190Y-59204819D01*
X136226190Y-59204819D02*
X136321428Y-59252438D01*
X136321428Y-59252438D02*
X136369047Y-59300057D01*
X136369047Y-59300057D02*
X136416666Y-59395295D01*
X136416666Y-59395295D02*
X136416666Y-59490533D01*
X136416666Y-59490533D02*
X136369047Y-59633390D01*
X136369047Y-59633390D02*
X135797619Y-60204819D01*
X135797619Y-60204819D02*
X136416666Y-60204819D01*
X126204819Y-63059523D02*
X125204819Y-63059523D01*
X125204819Y-63059523D02*
X125204819Y-62678571D01*
X125204819Y-62678571D02*
X125252438Y-62583333D01*
X125252438Y-62583333D02*
X125300057Y-62535714D01*
X125300057Y-62535714D02*
X125395295Y-62488095D01*
X125395295Y-62488095D02*
X125538152Y-62488095D01*
X125538152Y-62488095D02*
X125633390Y-62535714D01*
X125633390Y-62535714D02*
X125681009Y-62583333D01*
X125681009Y-62583333D02*
X125728628Y-62678571D01*
X125728628Y-62678571D02*
X125728628Y-63059523D01*
X125204819Y-61869047D02*
X125204819Y-61678571D01*
X125204819Y-61678571D02*
X125252438Y-61583333D01*
X125252438Y-61583333D02*
X125347676Y-61488095D01*
X125347676Y-61488095D02*
X125538152Y-61440476D01*
X125538152Y-61440476D02*
X125871485Y-61440476D01*
X125871485Y-61440476D02*
X126061961Y-61488095D01*
X126061961Y-61488095D02*
X126157200Y-61583333D01*
X126157200Y-61583333D02*
X126204819Y-61678571D01*
X126204819Y-61678571D02*
X126204819Y-61869047D01*
X126204819Y-61869047D02*
X126157200Y-61964285D01*
X126157200Y-61964285D02*
X126061961Y-62059523D01*
X126061961Y-62059523D02*
X125871485Y-62107142D01*
X125871485Y-62107142D02*
X125538152Y-62107142D01*
X125538152Y-62107142D02*
X125347676Y-62059523D01*
X125347676Y-62059523D02*
X125252438Y-61964285D01*
X125252438Y-61964285D02*
X125204819Y-61869047D01*
X125204819Y-61107142D02*
X126204819Y-60869047D01*
X126204819Y-60869047D02*
X125490533Y-60678571D01*
X125490533Y-60678571D02*
X126204819Y-60488095D01*
X126204819Y-60488095D02*
X125204819Y-60250000D01*
X125681009Y-59869047D02*
X125681009Y-59535714D01*
X126204819Y-59392857D02*
X126204819Y-59869047D01*
X126204819Y-59869047D02*
X125204819Y-59869047D01*
X125204819Y-59869047D02*
X125204819Y-59392857D01*
X126204819Y-58392857D02*
X125728628Y-58726190D01*
X126204819Y-58964285D02*
X125204819Y-58964285D01*
X125204819Y-58964285D02*
X125204819Y-58583333D01*
X125204819Y-58583333D02*
X125252438Y-58488095D01*
X125252438Y-58488095D02*
X125300057Y-58440476D01*
X125300057Y-58440476D02*
X125395295Y-58392857D01*
X125395295Y-58392857D02*
X125538152Y-58392857D01*
X125538152Y-58392857D02*
X125633390Y-58440476D01*
X125633390Y-58440476D02*
X125681009Y-58488095D01*
X125681009Y-58488095D02*
X125728628Y-58583333D01*
X125728628Y-58583333D02*
X125728628Y-58964285D01*
X178952380Y-60398819D02*
X178619047Y-59922628D01*
X178380952Y-60398819D02*
X178380952Y-59398819D01*
X178380952Y-59398819D02*
X178761904Y-59398819D01*
X178761904Y-59398819D02*
X178857142Y-59446438D01*
X178857142Y-59446438D02*
X178904761Y-59494057D01*
X178904761Y-59494057D02*
X178952380Y-59589295D01*
X178952380Y-59589295D02*
X178952380Y-59732152D01*
X178952380Y-59732152D02*
X178904761Y-59827390D01*
X178904761Y-59827390D02*
X178857142Y-59875009D01*
X178857142Y-59875009D02*
X178761904Y-59922628D01*
X178761904Y-59922628D02*
X178380952Y-59922628D01*
X179333333Y-60351200D02*
X179476190Y-60398819D01*
X179476190Y-60398819D02*
X179714285Y-60398819D01*
X179714285Y-60398819D02*
X179809523Y-60351200D01*
X179809523Y-60351200D02*
X179857142Y-60303580D01*
X179857142Y-60303580D02*
X179904761Y-60208342D01*
X179904761Y-60208342D02*
X179904761Y-60113104D01*
X179904761Y-60113104D02*
X179857142Y-60017866D01*
X179857142Y-60017866D02*
X179809523Y-59970247D01*
X179809523Y-59970247D02*
X179714285Y-59922628D01*
X179714285Y-59922628D02*
X179523809Y-59875009D01*
X179523809Y-59875009D02*
X179428571Y-59827390D01*
X179428571Y-59827390D02*
X179380952Y-59779771D01*
X179380952Y-59779771D02*
X179333333Y-59684533D01*
X179333333Y-59684533D02*
X179333333Y-59589295D01*
X179333333Y-59589295D02*
X179380952Y-59494057D01*
X179380952Y-59494057D02*
X179428571Y-59446438D01*
X179428571Y-59446438D02*
X179523809Y-59398819D01*
X179523809Y-59398819D02*
X179761904Y-59398819D01*
X179761904Y-59398819D02*
X179904761Y-59446438D01*
X180190476Y-59398819D02*
X180761904Y-59398819D01*
X180476190Y-60398819D02*
X180476190Y-59398819D01*
X163952819Y-69675333D02*
X164667104Y-69675333D01*
X164667104Y-69675333D02*
X164809961Y-69722952D01*
X164809961Y-69722952D02*
X164905200Y-69818190D01*
X164905200Y-69818190D02*
X164952819Y-69961047D01*
X164952819Y-69961047D02*
X164952819Y-70056285D01*
X164952819Y-69151523D02*
X164952819Y-68961047D01*
X164952819Y-68961047D02*
X164905200Y-68865809D01*
X164905200Y-68865809D02*
X164857580Y-68818190D01*
X164857580Y-68818190D02*
X164714723Y-68722952D01*
X164714723Y-68722952D02*
X164524247Y-68675333D01*
X164524247Y-68675333D02*
X164143295Y-68675333D01*
X164143295Y-68675333D02*
X164048057Y-68722952D01*
X164048057Y-68722952D02*
X164000438Y-68770571D01*
X164000438Y-68770571D02*
X163952819Y-68865809D01*
X163952819Y-68865809D02*
X163952819Y-69056285D01*
X163952819Y-69056285D02*
X164000438Y-69151523D01*
X164000438Y-69151523D02*
X164048057Y-69199142D01*
X164048057Y-69199142D02*
X164143295Y-69246761D01*
X164143295Y-69246761D02*
X164381390Y-69246761D01*
X164381390Y-69246761D02*
X164476628Y-69199142D01*
X164476628Y-69199142D02*
X164524247Y-69151523D01*
X164524247Y-69151523D02*
X164571866Y-69056285D01*
X164571866Y-69056285D02*
X164571866Y-68865809D01*
X164571866Y-68865809D02*
X164524247Y-68770571D01*
X164524247Y-68770571D02*
X164476628Y-68722952D01*
X164476628Y-68722952D02*
X164381390Y-68675333D01*
X165164285Y-66256819D02*
X165402380Y-67256819D01*
X165402380Y-67256819D02*
X165592856Y-66542533D01*
X165592856Y-66542533D02*
X165783332Y-67256819D01*
X165783332Y-67256819D02*
X166021428Y-66256819D01*
X166783332Y-67209200D02*
X166688094Y-67256819D01*
X166688094Y-67256819D02*
X166497618Y-67256819D01*
X166497618Y-67256819D02*
X166402380Y-67209200D01*
X166402380Y-67209200D02*
X166354761Y-67113961D01*
X166354761Y-67113961D02*
X166354761Y-66733009D01*
X166354761Y-66733009D02*
X166402380Y-66637771D01*
X166402380Y-66637771D02*
X166497618Y-66590152D01*
X166497618Y-66590152D02*
X166688094Y-66590152D01*
X166688094Y-66590152D02*
X166783332Y-66637771D01*
X166783332Y-66637771D02*
X166830951Y-66733009D01*
X166830951Y-66733009D02*
X166830951Y-66828247D01*
X166830951Y-66828247D02*
X166354761Y-66923485D01*
X167211904Y-66971104D02*
X167688094Y-66971104D01*
X167116666Y-67256819D02*
X167449999Y-66256819D01*
X167449999Y-66256819D02*
X167783332Y-67256819D01*
X168545237Y-67209200D02*
X168449999Y-67256819D01*
X168449999Y-67256819D02*
X168259523Y-67256819D01*
X168259523Y-67256819D02*
X168164285Y-67209200D01*
X168164285Y-67209200D02*
X168116666Y-67161580D01*
X168116666Y-67161580D02*
X168069047Y-67066342D01*
X168069047Y-67066342D02*
X168069047Y-66780628D01*
X168069047Y-66780628D02*
X168116666Y-66685390D01*
X168116666Y-66685390D02*
X168164285Y-66637771D01*
X168164285Y-66637771D02*
X168259523Y-66590152D01*
X168259523Y-66590152D02*
X168449999Y-66590152D01*
X168449999Y-66590152D02*
X168545237Y-66637771D01*
X168830952Y-66590152D02*
X169211904Y-66590152D01*
X168973809Y-66256819D02*
X168973809Y-67113961D01*
X168973809Y-67113961D02*
X169021428Y-67209200D01*
X169021428Y-67209200D02*
X169116666Y-67256819D01*
X169116666Y-67256819D02*
X169211904Y-67256819D01*
X170307143Y-67256819D02*
X170307143Y-66256819D01*
X170307143Y-66256819D02*
X170688095Y-66256819D01*
X170688095Y-66256819D02*
X170783333Y-66304438D01*
X170783333Y-66304438D02*
X170830952Y-66352057D01*
X170830952Y-66352057D02*
X170878571Y-66447295D01*
X170878571Y-66447295D02*
X170878571Y-66590152D01*
X170878571Y-66590152D02*
X170830952Y-66685390D01*
X170830952Y-66685390D02*
X170783333Y-66733009D01*
X170783333Y-66733009D02*
X170688095Y-66780628D01*
X170688095Y-66780628D02*
X170307143Y-66780628D01*
X171878571Y-67161580D02*
X171830952Y-67209200D01*
X171830952Y-67209200D02*
X171688095Y-67256819D01*
X171688095Y-67256819D02*
X171592857Y-67256819D01*
X171592857Y-67256819D02*
X171450000Y-67209200D01*
X171450000Y-67209200D02*
X171354762Y-67113961D01*
X171354762Y-67113961D02*
X171307143Y-67018723D01*
X171307143Y-67018723D02*
X171259524Y-66828247D01*
X171259524Y-66828247D02*
X171259524Y-66685390D01*
X171259524Y-66685390D02*
X171307143Y-66494914D01*
X171307143Y-66494914D02*
X171354762Y-66399676D01*
X171354762Y-66399676D02*
X171450000Y-66304438D01*
X171450000Y-66304438D02*
X171592857Y-66256819D01*
X171592857Y-66256819D02*
X171688095Y-66256819D01*
X171688095Y-66256819D02*
X171830952Y-66304438D01*
X171830952Y-66304438D02*
X171878571Y-66352057D01*
X172307143Y-67256819D02*
X172307143Y-66256819D01*
X172307143Y-66256819D02*
X172640476Y-66971104D01*
X172640476Y-66971104D02*
X172973809Y-66256819D01*
X172973809Y-66256819D02*
X172973809Y-67256819D01*
X173926190Y-66256819D02*
X173450000Y-66256819D01*
X173450000Y-66256819D02*
X173402381Y-66733009D01*
X173402381Y-66733009D02*
X173450000Y-66685390D01*
X173450000Y-66685390D02*
X173545238Y-66637771D01*
X173545238Y-66637771D02*
X173783333Y-66637771D01*
X173783333Y-66637771D02*
X173878571Y-66685390D01*
X173878571Y-66685390D02*
X173926190Y-66733009D01*
X173926190Y-66733009D02*
X173973809Y-66828247D01*
X173973809Y-66828247D02*
X173973809Y-67066342D01*
X173973809Y-67066342D02*
X173926190Y-67161580D01*
X173926190Y-67161580D02*
X173878571Y-67209200D01*
X173878571Y-67209200D02*
X173783333Y-67256819D01*
X173783333Y-67256819D02*
X173545238Y-67256819D01*
X173545238Y-67256819D02*
X173450000Y-67209200D01*
X173450000Y-67209200D02*
X173402381Y-67161580D01*
X174926190Y-67256819D02*
X174354762Y-67256819D01*
X174640476Y-67256819D02*
X174640476Y-66256819D01*
X174640476Y-66256819D02*
X174545238Y-66399676D01*
X174545238Y-66399676D02*
X174450000Y-66494914D01*
X174450000Y-66494914D02*
X174354762Y-66542533D01*
X175545238Y-66256819D02*
X175640476Y-66256819D01*
X175640476Y-66256819D02*
X175735714Y-66304438D01*
X175735714Y-66304438D02*
X175783333Y-66352057D01*
X175783333Y-66352057D02*
X175830952Y-66447295D01*
X175830952Y-66447295D02*
X175878571Y-66637771D01*
X175878571Y-66637771D02*
X175878571Y-66875866D01*
X175878571Y-66875866D02*
X175830952Y-67066342D01*
X175830952Y-67066342D02*
X175783333Y-67161580D01*
X175783333Y-67161580D02*
X175735714Y-67209200D01*
X175735714Y-67209200D02*
X175640476Y-67256819D01*
X175640476Y-67256819D02*
X175545238Y-67256819D01*
X175545238Y-67256819D02*
X175450000Y-67209200D01*
X175450000Y-67209200D02*
X175402381Y-67161580D01*
X175402381Y-67161580D02*
X175354762Y-67066342D01*
X175354762Y-67066342D02*
X175307143Y-66875866D01*
X175307143Y-66875866D02*
X175307143Y-66637771D01*
X175307143Y-66637771D02*
X175354762Y-66447295D01*
X175354762Y-66447295D02*
X175402381Y-66352057D01*
X175402381Y-66352057D02*
X175450000Y-66304438D01*
X175450000Y-66304438D02*
X175545238Y-66256819D01*
X176497619Y-66256819D02*
X176592857Y-66256819D01*
X176592857Y-66256819D02*
X176688095Y-66304438D01*
X176688095Y-66304438D02*
X176735714Y-66352057D01*
X176735714Y-66352057D02*
X176783333Y-66447295D01*
X176783333Y-66447295D02*
X176830952Y-66637771D01*
X176830952Y-66637771D02*
X176830952Y-66875866D01*
X176830952Y-66875866D02*
X176783333Y-67066342D01*
X176783333Y-67066342D02*
X176735714Y-67161580D01*
X176735714Y-67161580D02*
X176688095Y-67209200D01*
X176688095Y-67209200D02*
X176592857Y-67256819D01*
X176592857Y-67256819D02*
X176497619Y-67256819D01*
X176497619Y-67256819D02*
X176402381Y-67209200D01*
X176402381Y-67209200D02*
X176354762Y-67161580D01*
X176354762Y-67161580D02*
X176307143Y-67066342D01*
X176307143Y-67066342D02*
X176259524Y-66875866D01*
X176259524Y-66875866D02*
X176259524Y-66637771D01*
X176259524Y-66637771D02*
X176307143Y-66447295D01*
X176307143Y-66447295D02*
X176354762Y-66352057D01*
X176354762Y-66352057D02*
X176402381Y-66304438D01*
X176402381Y-66304438D02*
X176497619Y-66256819D01*
X177211905Y-66971104D02*
X177688095Y-66971104D01*
X177116667Y-67256819D02*
X177450000Y-66256819D01*
X177450000Y-66256819D02*
X177783333Y-67256819D01*
X128109580Y-74566666D02*
X128157200Y-74614285D01*
X128157200Y-74614285D02*
X128204819Y-74757142D01*
X128204819Y-74757142D02*
X128204819Y-74852380D01*
X128204819Y-74852380D02*
X128157200Y-74995237D01*
X128157200Y-74995237D02*
X128061961Y-75090475D01*
X128061961Y-75090475D02*
X127966723Y-75138094D01*
X127966723Y-75138094D02*
X127776247Y-75185713D01*
X127776247Y-75185713D02*
X127633390Y-75185713D01*
X127633390Y-75185713D02*
X127442914Y-75138094D01*
X127442914Y-75138094D02*
X127347676Y-75090475D01*
X127347676Y-75090475D02*
X127252438Y-74995237D01*
X127252438Y-74995237D02*
X127204819Y-74852380D01*
X127204819Y-74852380D02*
X127204819Y-74757142D01*
X127204819Y-74757142D02*
X127252438Y-74614285D01*
X127252438Y-74614285D02*
X127300057Y-74566666D01*
X128204819Y-74090475D02*
X128204819Y-73899999D01*
X128204819Y-73899999D02*
X128157200Y-73804761D01*
X128157200Y-73804761D02*
X128109580Y-73757142D01*
X128109580Y-73757142D02*
X127966723Y-73661904D01*
X127966723Y-73661904D02*
X127776247Y-73614285D01*
X127776247Y-73614285D02*
X127395295Y-73614285D01*
X127395295Y-73614285D02*
X127300057Y-73661904D01*
X127300057Y-73661904D02*
X127252438Y-73709523D01*
X127252438Y-73709523D02*
X127204819Y-73804761D01*
X127204819Y-73804761D02*
X127204819Y-73995237D01*
X127204819Y-73995237D02*
X127252438Y-74090475D01*
X127252438Y-74090475D02*
X127300057Y-74138094D01*
X127300057Y-74138094D02*
X127395295Y-74185713D01*
X127395295Y-74185713D02*
X127633390Y-74185713D01*
X127633390Y-74185713D02*
X127728628Y-74138094D01*
X127728628Y-74138094D02*
X127776247Y-74090475D01*
X127776247Y-74090475D02*
X127823866Y-73995237D01*
X127823866Y-73995237D02*
X127823866Y-73804761D01*
X127823866Y-73804761D02*
X127776247Y-73709523D01*
X127776247Y-73709523D02*
X127728628Y-73661904D01*
X127728628Y-73661904D02*
X127633390Y-73614285D01*
D13*
%TO.C,U3*%
X183340000Y-53740000D02*
X184600000Y-53740000D01*
X183340000Y-57500000D02*
X183340000Y-53740000D01*
X190160000Y-53740000D02*
X188900000Y-53740000D01*
X190160000Y-57500000D02*
X190160000Y-53740000D01*
X183440000Y-58780000D02*
X183110000Y-59020000D01*
X183110000Y-58540000D01*
X183440000Y-58780000D01*
G36*
X183440000Y-58780000D02*
G01*
X183110000Y-59020000D01*
X183110000Y-58540000D01*
X183440000Y-58780000D01*
G37*
%TO.C,U2*%
X140800000Y-50240000D02*
X140800000Y-56440000D01*
X140800000Y-50240000D02*
X159200000Y-50240000D01*
X140800000Y-75090000D02*
X140800000Y-76090000D01*
X140800000Y-76090000D02*
X142300000Y-76090000D01*
X159200000Y-50240000D02*
X159200000Y-56440000D01*
X159200000Y-76090000D02*
X157700000Y-76090000D01*
X159200000Y-76090000D02*
X159200000Y-75090000D01*
X140800000Y-57115000D02*
X140300000Y-57115000D01*
X140800000Y-56615000D01*
X140800000Y-57115000D01*
G36*
X140800000Y-57115000D02*
G01*
X140300000Y-57115000D01*
X140800000Y-56615000D01*
X140800000Y-57115000D01*
G37*
%TO.C,C8*%
X121090000Y-69976248D02*
X121090000Y-71398752D01*
X122910000Y-69976248D02*
X122910000Y-71398752D01*
%TO.C,J5*%
X188210000Y-70630000D02*
X188210000Y-69250000D01*
X189590000Y-70630000D02*
X188210000Y-70630000D01*
X190860000Y-67870000D02*
X201130000Y-67870000D01*
X190860000Y-70630000D02*
X190860000Y-67870000D01*
X190860000Y-70630000D02*
X201130000Y-70630000D01*
X201130000Y-70630000D02*
X201130000Y-67870000D01*
%TO.C,U1*%
X108790000Y-57805000D02*
X110050000Y-57805000D01*
X108790000Y-61565000D02*
X108790000Y-57805000D01*
X115610000Y-57805000D02*
X114350000Y-57805000D01*
X115610000Y-61565000D02*
X115610000Y-57805000D01*
X108890000Y-62845000D02*
X108560000Y-63085000D01*
X108560000Y-62605000D01*
X108890000Y-62845000D01*
G36*
X108890000Y-62845000D02*
G01*
X108560000Y-63085000D01*
X108560000Y-62605000D01*
X108890000Y-62845000D01*
G37*
%TO.C,J4*%
X188250000Y-74380000D02*
X188250000Y-73000000D01*
X189630000Y-74380000D02*
X188250000Y-74380000D01*
X190900000Y-71620000D02*
X201170000Y-71620000D01*
X190900000Y-74380000D02*
X190900000Y-71620000D01*
X190900000Y-74380000D02*
X201170000Y-74380000D01*
X201170000Y-74380000D02*
X201170000Y-71620000D01*
%TO.C,J6*%
X106570000Y-82660000D02*
X106570000Y-81280000D01*
X107950000Y-82660000D02*
X106570000Y-82660000D01*
X109220000Y-79900000D02*
X142350000Y-79900000D01*
X109220000Y-82660000D02*
X109220000Y-79900000D01*
X109220000Y-82660000D02*
X142350000Y-82660000D01*
X142350000Y-82660000D02*
X142350000Y-79900000D01*
%TO.C,J7*%
X107460000Y-75040000D02*
X107460000Y-73660000D01*
X108840000Y-75040000D02*
X107460000Y-75040000D01*
X110110000Y-72280000D02*
X120380000Y-72280000D01*
X110110000Y-75040000D02*
X110110000Y-72280000D01*
X110110000Y-75040000D02*
X120380000Y-75040000D01*
X120380000Y-75040000D02*
X120380000Y-72280000D01*
%TO.C,S2*%
X177425000Y-51600000D02*
X181625000Y-51600000D01*
X177425000Y-51990000D02*
X177425000Y-51600000D01*
X177425000Y-54510000D02*
X177425000Y-54900000D01*
X177425000Y-54900000D02*
X181625000Y-54900000D01*
X181625000Y-51600000D02*
X181625000Y-51990000D01*
X181625000Y-54900000D02*
X181625000Y-54510000D01*
%TO.C,C10*%
X192090000Y-53601248D02*
X192090000Y-55023752D01*
X193910000Y-53601248D02*
X193910000Y-55023752D01*
%TO.C,J10*%
X107500000Y-71380000D02*
X107500000Y-70000000D01*
X108880000Y-71380000D02*
X107500000Y-71380000D01*
X110150000Y-68620000D02*
X120420000Y-68620000D01*
X110150000Y-71380000D02*
X110150000Y-68620000D01*
X110150000Y-71380000D02*
X120420000Y-71380000D01*
X120420000Y-71380000D02*
X120420000Y-68620000D01*
%TO.C,J8*%
X165498000Y-74278000D02*
X165498000Y-72898000D01*
X166878000Y-74278000D02*
X165498000Y-74278000D01*
X168148000Y-71518000D02*
X180958000Y-71518000D01*
X168148000Y-74278000D02*
X168148000Y-71518000D01*
X168148000Y-74278000D02*
X180958000Y-74278000D01*
X180958000Y-74278000D02*
X180958000Y-71518000D01*
%TO.C,R9*%
X180279064Y-62336000D02*
X178824936Y-62336000D01*
X180279064Y-64156000D02*
X178824936Y-64156000D01*
%TO.C,C2*%
X118180000Y-60670000D02*
X118680000Y-60670000D01*
X118430000Y-60420000D02*
X118430000Y-60920000D01*
X118920000Y-61034437D02*
X118920000Y-61170000D01*
X118920000Y-61034437D02*
X119984437Y-59970000D01*
X118920000Y-63425563D02*
X118920000Y-63290000D01*
X118920000Y-63425563D02*
X119984437Y-64490000D01*
X119984437Y-59970000D02*
X123440000Y-59970000D01*
X119984437Y-64490000D02*
X123440000Y-64490000D01*
X123440000Y-59970000D02*
X123440000Y-61170000D01*
X123440000Y-64490000D02*
X123440000Y-63290000D01*
%TO.C,C12*%
X183440000Y-60990000D02*
X183440000Y-62190000D01*
X183440000Y-65510000D02*
X183440000Y-64310000D01*
X186895563Y-60990000D02*
X183440000Y-60990000D01*
X186895563Y-65510000D02*
X183440000Y-65510000D01*
X187960000Y-62054437D02*
X186895563Y-60990000D01*
X187960000Y-62054437D02*
X187960000Y-62190000D01*
X187960000Y-64445563D02*
X186895563Y-65510000D01*
X187960000Y-64445563D02*
X187960000Y-64310000D01*
X188450000Y-65060000D02*
X188450000Y-64560000D01*
X188700000Y-64810000D02*
X188200000Y-64810000D01*
%TO.C,C11*%
X185590000Y-70726248D02*
X185590000Y-72148752D01*
X187410000Y-70726248D02*
X187410000Y-72148752D01*
%TO.C,C3*%
X166476248Y-58090000D02*
X167898752Y-58090000D01*
X166476248Y-59910000D02*
X167898752Y-59910000D01*
%TO.C,R1*%
X171722936Y-58018000D02*
X173177064Y-58018000D01*
X171722936Y-59838000D02*
X173177064Y-59838000D01*
%TO.C,C1*%
X121226248Y-55340000D02*
X122648752Y-55340000D01*
X121226248Y-57160000D02*
X122648752Y-57160000D01*
%TO.C,C7*%
X166476248Y-62840000D02*
X167898752Y-62840000D01*
X166476248Y-64660000D02*
X167898752Y-64660000D01*
%TO.C,R6*%
X171722936Y-62840000D02*
X173177064Y-62840000D01*
X171722936Y-64660000D02*
X173177064Y-64660000D01*
%TO.C,J1*%
X161180000Y-62865000D02*
X161180000Y-57675000D01*
X163940000Y-57675000D02*
X161180000Y-57675000D01*
X163940000Y-62865000D02*
X161180000Y-62865000D01*
X163940000Y-62865000D02*
X163940000Y-57675000D01*
X163940000Y-64135000D02*
X163940000Y-65515000D01*
X163940000Y-65515000D02*
X162560000Y-65515000D01*
%TO.C,J2*%
X126730000Y-57250000D02*
X126730000Y-58500000D01*
X127020000Y-57540000D02*
X127020000Y-63510000D01*
X127020000Y-63510000D02*
X134640000Y-63510000D01*
X127030000Y-57550000D02*
X127030000Y-58300000D01*
X127030000Y-58300000D02*
X128830000Y-58300000D01*
X127030000Y-59800000D02*
X127780000Y-59800000D01*
X127780000Y-59800000D02*
X127780000Y-62750000D01*
X127780000Y-62750000D02*
X130830000Y-62750000D01*
X127980000Y-57250000D02*
X126730000Y-57250000D01*
X128830000Y-57550000D02*
X127030000Y-57550000D01*
X128830000Y-58300000D02*
X128830000Y-57550000D01*
X130330000Y-57550000D02*
X130330000Y-58300000D01*
X130330000Y-58300000D02*
X131330000Y-58300000D01*
X131330000Y-57550000D02*
X130330000Y-57550000D01*
X131330000Y-58300000D02*
X131330000Y-57550000D01*
X132830000Y-57550000D02*
X132830000Y-58300000D01*
X132830000Y-58300000D02*
X134630000Y-58300000D01*
X133880000Y-59800000D02*
X133880000Y-62750000D01*
X133880000Y-62750000D02*
X130830000Y-62750000D01*
X134630000Y-57550000D02*
X132830000Y-57550000D01*
X134630000Y-58300000D02*
X134630000Y-57550000D01*
X134630000Y-59800000D02*
X133880000Y-59800000D01*
X134640000Y-57540000D02*
X127020000Y-57540000D01*
X134640000Y-63510000D02*
X134640000Y-57540000D01*
%TO.C,S1*%
X177400000Y-55850000D02*
X181600000Y-55850000D01*
X177400000Y-56240000D02*
X177400000Y-55850000D01*
X177400000Y-58760000D02*
X177400000Y-59150000D01*
X177400000Y-59150000D02*
X181600000Y-59150000D01*
X181600000Y-55850000D02*
X181600000Y-56240000D01*
X181600000Y-59150000D02*
X181600000Y-58760000D01*
%TO.C,J9*%
X165498000Y-70722000D02*
X165498000Y-69342000D01*
X166878000Y-70722000D02*
X165498000Y-70722000D01*
X168148000Y-67962000D02*
X183498000Y-67962000D01*
X168148000Y-70722000D02*
X168148000Y-67962000D01*
X168148000Y-70722000D02*
X183498000Y-70722000D01*
X183498000Y-70722000D02*
X183498000Y-67962000D01*
%TO.C,C9*%
X123490000Y-69504437D02*
X123490000Y-72960000D01*
X123490000Y-72960000D02*
X124690000Y-72960000D01*
X124554437Y-68440000D02*
X123490000Y-69504437D01*
X124554437Y-68440000D02*
X124690000Y-68440000D01*
X126945563Y-68440000D02*
X126810000Y-68440000D01*
X126945563Y-68440000D02*
X128010000Y-69504437D01*
X127310000Y-67700000D02*
X127310000Y-68200000D01*
X127560000Y-67950000D02*
X127060000Y-67950000D01*
X128010000Y-69504437D02*
X128010000Y-72960000D01*
X128010000Y-72960000D02*
X126810000Y-72960000D01*
%TD*%
M02*
