%TF.GenerationSoftware,KiCad,Pcbnew,9.0.4-9.0.4-0~ubuntu22.04.1*%
%TF.CreationDate,2025-10-18T22:49:02+02:00*%
%TF.ProjectId,YR,59522e6b-6963-4616-945f-706362585858,rev?*%
%TF.SameCoordinates,Original*%
%TF.FileFunction,Drillmap*%
%TF.FilePolarity,Positive*%
%FSLAX45Y45*%
G04 Gerber Fmt 4.5, Leading zero omitted, Abs format (unit mm)*
G04 Created by KiCad (PCBNEW 9.0.4-9.0.4-0~ubuntu22.04.1) date 2025-10-18 22:49:02*
%MOMM*%
%LPD*%
G01*
G04 APERTURE LIST*
%ADD10C,0.050000*%
%ADD11C,0.200000*%
%ADD12C,0.250000*%
G04 APERTURE END LIST*
D10*
X12600000Y-5625000D02*
X17375000Y-5625000D01*
X9400000Y-5025000D02*
X9400000Y-8275000D01*
X20750000Y-8275000D02*
X20725000Y-8300000D01*
X20725000Y-8300000D02*
X9425000Y-8300000D01*
X17375000Y-5625000D02*
X17425000Y-5575000D01*
X17425000Y-5025000D02*
X17450000Y-5000000D01*
X9425000Y-8300000D02*
X9400000Y-8275000D01*
X17450000Y-5000000D02*
X20725000Y-5000000D01*
X9425000Y-5000000D02*
X9400000Y-5025000D01*
X12575000Y-5600000D02*
X12600000Y-5625000D01*
X17425000Y-5575000D02*
X17425000Y-5025000D01*
X9425000Y-5000000D02*
X12550000Y-5000000D01*
X12550000Y-5000000D02*
X12575000Y-5025000D01*
X12575000Y-5025000D02*
X12575000Y-5600000D01*
X20725000Y-5000000D02*
X20750000Y-5025000D01*
X20750000Y-5025000D02*
X20750000Y-8275000D01*
D11*
D12*
X9550000Y-5125000D02*
X9800000Y-5375000D01*
X9800000Y-5125000D02*
X9550000Y-5375000D01*
X9550000Y-7925000D02*
X9800000Y-8175000D01*
X9800000Y-7925000D02*
X9550000Y-8175000D01*
X10200000Y-5125000D02*
X10450000Y-5375000D01*
X10450000Y-5125000D02*
X10200000Y-5375000D01*
X10200000Y-7925000D02*
X10450000Y-8175000D01*
X10450000Y-7925000D02*
X10200000Y-8175000D01*
X19725000Y-5125000D02*
X19975000Y-5375000D01*
X19975000Y-5125000D02*
X19725000Y-5375000D01*
X19725000Y-7925000D02*
X19975000Y-8175000D01*
X19975000Y-7925000D02*
X19725000Y-8175000D01*
X20375000Y-5125000D02*
X20625000Y-5375000D01*
X20625000Y-5125000D02*
X20375000Y-5375000D01*
X20375000Y-7925000D02*
X20625000Y-8175000D01*
X20625000Y-7925000D02*
X20375000Y-8175000D01*
D11*
X9658277Y-8613984D02*
X9658277Y-8413984D01*
X9658277Y-8413984D02*
X9705896Y-8413984D01*
X9705896Y-8413984D02*
X9734467Y-8423508D01*
X9734467Y-8423508D02*
X9753515Y-8442555D01*
X9753515Y-8442555D02*
X9763039Y-8461603D01*
X9763039Y-8461603D02*
X9772563Y-8499698D01*
X9772563Y-8499698D02*
X9772563Y-8528270D01*
X9772563Y-8528270D02*
X9763039Y-8566365D01*
X9763039Y-8566365D02*
X9753515Y-8585412D01*
X9753515Y-8585412D02*
X9734467Y-8604460D01*
X9734467Y-8604460D02*
X9705896Y-8613984D01*
X9705896Y-8613984D02*
X9658277Y-8613984D01*
X9858277Y-8613984D02*
X9858277Y-8480650D01*
X9858277Y-8518746D02*
X9867801Y-8499698D01*
X9867801Y-8499698D02*
X9877324Y-8490174D01*
X9877324Y-8490174D02*
X9896372Y-8480650D01*
X9896372Y-8480650D02*
X9915420Y-8480650D01*
X9982086Y-8613984D02*
X9982086Y-8480650D01*
X9982086Y-8413984D02*
X9972563Y-8423508D01*
X9972563Y-8423508D02*
X9982086Y-8433031D01*
X9982086Y-8433031D02*
X9991610Y-8423508D01*
X9991610Y-8423508D02*
X9982086Y-8413984D01*
X9982086Y-8413984D02*
X9982086Y-8433031D01*
X10105896Y-8613984D02*
X10086848Y-8604460D01*
X10086848Y-8604460D02*
X10077324Y-8585412D01*
X10077324Y-8585412D02*
X10077324Y-8413984D01*
X10210658Y-8613984D02*
X10191610Y-8604460D01*
X10191610Y-8604460D02*
X10182086Y-8585412D01*
X10182086Y-8585412D02*
X10182086Y-8413984D01*
X10439229Y-8613984D02*
X10439229Y-8413984D01*
X10439229Y-8413984D02*
X10505896Y-8556841D01*
X10505896Y-8556841D02*
X10572563Y-8413984D01*
X10572563Y-8413984D02*
X10572563Y-8613984D01*
X10753515Y-8613984D02*
X10753515Y-8509222D01*
X10753515Y-8509222D02*
X10743991Y-8490174D01*
X10743991Y-8490174D02*
X10724944Y-8480650D01*
X10724944Y-8480650D02*
X10686848Y-8480650D01*
X10686848Y-8480650D02*
X10667801Y-8490174D01*
X10753515Y-8604460D02*
X10734467Y-8613984D01*
X10734467Y-8613984D02*
X10686848Y-8613984D01*
X10686848Y-8613984D02*
X10667801Y-8604460D01*
X10667801Y-8604460D02*
X10658277Y-8585412D01*
X10658277Y-8585412D02*
X10658277Y-8566365D01*
X10658277Y-8566365D02*
X10667801Y-8547317D01*
X10667801Y-8547317D02*
X10686848Y-8537793D01*
X10686848Y-8537793D02*
X10734467Y-8537793D01*
X10734467Y-8537793D02*
X10753515Y-8528270D01*
X10848753Y-8480650D02*
X10848753Y-8680650D01*
X10848753Y-8490174D02*
X10867801Y-8480650D01*
X10867801Y-8480650D02*
X10905896Y-8480650D01*
X10905896Y-8480650D02*
X10924944Y-8490174D01*
X10924944Y-8490174D02*
X10934467Y-8499698D01*
X10934467Y-8499698D02*
X10943991Y-8518746D01*
X10943991Y-8518746D02*
X10943991Y-8575889D01*
X10943991Y-8575889D02*
X10934467Y-8594936D01*
X10934467Y-8594936D02*
X10924944Y-8604460D01*
X10924944Y-8604460D02*
X10905896Y-8613984D01*
X10905896Y-8613984D02*
X10867801Y-8613984D01*
X10867801Y-8613984D02*
X10848753Y-8604460D01*
X11029705Y-8594936D02*
X11039229Y-8604460D01*
X11039229Y-8604460D02*
X11029705Y-8613984D01*
X11029705Y-8613984D02*
X11020182Y-8604460D01*
X11020182Y-8604460D02*
X11029705Y-8594936D01*
X11029705Y-8594936D02*
X11029705Y-8613984D01*
X11029705Y-8490174D02*
X11039229Y-8499698D01*
X11039229Y-8499698D02*
X11029705Y-8509222D01*
X11029705Y-8509222D02*
X11020182Y-8499698D01*
X11020182Y-8499698D02*
X11029705Y-8490174D01*
X11029705Y-8490174D02*
X11029705Y-8509222D01*
X9197500Y-8842500D02*
X9397500Y-9042500D01*
X9397500Y-8842500D02*
X9197500Y-9042500D01*
X9648753Y-8853031D02*
X9658277Y-8843508D01*
X9658277Y-8843508D02*
X9677324Y-8833984D01*
X9677324Y-8833984D02*
X9724944Y-8833984D01*
X9724944Y-8833984D02*
X9743991Y-8843508D01*
X9743991Y-8843508D02*
X9753515Y-8853031D01*
X9753515Y-8853031D02*
X9763039Y-8872079D01*
X9763039Y-8872079D02*
X9763039Y-8891127D01*
X9763039Y-8891127D02*
X9753515Y-8919698D01*
X9753515Y-8919698D02*
X9639229Y-9033984D01*
X9639229Y-9033984D02*
X9763039Y-9033984D01*
X9848753Y-9014936D02*
X9858277Y-9024460D01*
X9858277Y-9024460D02*
X9848753Y-9033984D01*
X9848753Y-9033984D02*
X9839229Y-9024460D01*
X9839229Y-9024460D02*
X9848753Y-9014936D01*
X9848753Y-9014936D02*
X9848753Y-9033984D01*
X10039229Y-8833984D02*
X9943991Y-8833984D01*
X9943991Y-8833984D02*
X9934467Y-8929222D01*
X9934467Y-8929222D02*
X9943991Y-8919698D01*
X9943991Y-8919698D02*
X9963039Y-8910174D01*
X9963039Y-8910174D02*
X10010658Y-8910174D01*
X10010658Y-8910174D02*
X10029705Y-8919698D01*
X10029705Y-8919698D02*
X10039229Y-8929222D01*
X10039229Y-8929222D02*
X10048753Y-8948270D01*
X10048753Y-8948270D02*
X10048753Y-8995889D01*
X10048753Y-8995889D02*
X10039229Y-9014936D01*
X10039229Y-9014936D02*
X10029705Y-9024460D01*
X10029705Y-9024460D02*
X10010658Y-9033984D01*
X10010658Y-9033984D02*
X9963039Y-9033984D01*
X9963039Y-9033984D02*
X9943991Y-9024460D01*
X9943991Y-9024460D02*
X9934467Y-9014936D01*
X10172563Y-8833984D02*
X10191610Y-8833984D01*
X10191610Y-8833984D02*
X10210658Y-8843508D01*
X10210658Y-8843508D02*
X10220182Y-8853031D01*
X10220182Y-8853031D02*
X10229705Y-8872079D01*
X10229705Y-8872079D02*
X10239229Y-8910174D01*
X10239229Y-8910174D02*
X10239229Y-8957793D01*
X10239229Y-8957793D02*
X10229705Y-8995889D01*
X10229705Y-8995889D02*
X10220182Y-9014936D01*
X10220182Y-9014936D02*
X10210658Y-9024460D01*
X10210658Y-9024460D02*
X10191610Y-9033984D01*
X10191610Y-9033984D02*
X10172563Y-9033984D01*
X10172563Y-9033984D02*
X10153515Y-9024460D01*
X10153515Y-9024460D02*
X10143991Y-9014936D01*
X10143991Y-9014936D02*
X10134467Y-8995889D01*
X10134467Y-8995889D02*
X10124944Y-8957793D01*
X10124944Y-8957793D02*
X10124944Y-8910174D01*
X10124944Y-8910174D02*
X10134467Y-8872079D01*
X10134467Y-8872079D02*
X10143991Y-8853031D01*
X10143991Y-8853031D02*
X10153515Y-8843508D01*
X10153515Y-8843508D02*
X10172563Y-8833984D01*
X10363039Y-8833984D02*
X10382086Y-8833984D01*
X10382086Y-8833984D02*
X10401134Y-8843508D01*
X10401134Y-8843508D02*
X10410658Y-8853031D01*
X10410658Y-8853031D02*
X10420182Y-8872079D01*
X10420182Y-8872079D02*
X10429705Y-8910174D01*
X10429705Y-8910174D02*
X10429705Y-8957793D01*
X10429705Y-8957793D02*
X10420182Y-8995889D01*
X10420182Y-8995889D02*
X10410658Y-9014936D01*
X10410658Y-9014936D02*
X10401134Y-9024460D01*
X10401134Y-9024460D02*
X10382086Y-9033984D01*
X10382086Y-9033984D02*
X10363039Y-9033984D01*
X10363039Y-9033984D02*
X10343991Y-9024460D01*
X10343991Y-9024460D02*
X10334467Y-9014936D01*
X10334467Y-9014936D02*
X10324944Y-8995889D01*
X10324944Y-8995889D02*
X10315420Y-8957793D01*
X10315420Y-8957793D02*
X10315420Y-8910174D01*
X10315420Y-8910174D02*
X10324944Y-8872079D01*
X10324944Y-8872079D02*
X10334467Y-8853031D01*
X10334467Y-8853031D02*
X10343991Y-8843508D01*
X10343991Y-8843508D02*
X10363039Y-8833984D01*
X10515420Y-9033984D02*
X10515420Y-8900650D01*
X10515420Y-8919698D02*
X10524944Y-8910174D01*
X10524944Y-8910174D02*
X10543991Y-8900650D01*
X10543991Y-8900650D02*
X10572563Y-8900650D01*
X10572563Y-8900650D02*
X10591610Y-8910174D01*
X10591610Y-8910174D02*
X10601134Y-8929222D01*
X10601134Y-8929222D02*
X10601134Y-9033984D01*
X10601134Y-8929222D02*
X10610658Y-8910174D01*
X10610658Y-8910174D02*
X10629705Y-8900650D01*
X10629705Y-8900650D02*
X10658277Y-8900650D01*
X10658277Y-8900650D02*
X10677325Y-8910174D01*
X10677325Y-8910174D02*
X10686848Y-8929222D01*
X10686848Y-8929222D02*
X10686848Y-9033984D01*
X10782086Y-9033984D02*
X10782086Y-8900650D01*
X10782086Y-8919698D02*
X10791610Y-8910174D01*
X10791610Y-8910174D02*
X10810658Y-8900650D01*
X10810658Y-8900650D02*
X10839229Y-8900650D01*
X10839229Y-8900650D02*
X10858277Y-8910174D01*
X10858277Y-8910174D02*
X10867801Y-8929222D01*
X10867801Y-8929222D02*
X10867801Y-9033984D01*
X10867801Y-8929222D02*
X10877325Y-8910174D01*
X10877325Y-8910174D02*
X10896372Y-8900650D01*
X10896372Y-8900650D02*
X10924944Y-8900650D01*
X10924944Y-8900650D02*
X10943991Y-8910174D01*
X10943991Y-8910174D02*
X10953515Y-8929222D01*
X10953515Y-8929222D02*
X10953515Y-9033984D01*
X11343991Y-8824460D02*
X11172563Y-9081603D01*
X11601134Y-8833984D02*
X11620182Y-8833984D01*
X11620182Y-8833984D02*
X11639229Y-8843508D01*
X11639229Y-8843508D02*
X11648753Y-8853031D01*
X11648753Y-8853031D02*
X11658277Y-8872079D01*
X11658277Y-8872079D02*
X11667801Y-8910174D01*
X11667801Y-8910174D02*
X11667801Y-8957793D01*
X11667801Y-8957793D02*
X11658277Y-8995889D01*
X11658277Y-8995889D02*
X11648753Y-9014936D01*
X11648753Y-9014936D02*
X11639229Y-9024460D01*
X11639229Y-9024460D02*
X11620182Y-9033984D01*
X11620182Y-9033984D02*
X11601134Y-9033984D01*
X11601134Y-9033984D02*
X11582086Y-9024460D01*
X11582086Y-9024460D02*
X11572563Y-9014936D01*
X11572563Y-9014936D02*
X11563039Y-8995889D01*
X11563039Y-8995889D02*
X11553515Y-8957793D01*
X11553515Y-8957793D02*
X11553515Y-8910174D01*
X11553515Y-8910174D02*
X11563039Y-8872079D01*
X11563039Y-8872079D02*
X11572563Y-8853031D01*
X11572563Y-8853031D02*
X11582086Y-8843508D01*
X11582086Y-8843508D02*
X11601134Y-8833984D01*
X11753515Y-9014936D02*
X11763039Y-9024460D01*
X11763039Y-9024460D02*
X11753515Y-9033984D01*
X11753515Y-9033984D02*
X11743991Y-9024460D01*
X11743991Y-9024460D02*
X11753515Y-9014936D01*
X11753515Y-9014936D02*
X11753515Y-9033984D01*
X11886848Y-8833984D02*
X11905896Y-8833984D01*
X11905896Y-8833984D02*
X11924944Y-8843508D01*
X11924944Y-8843508D02*
X11934467Y-8853031D01*
X11934467Y-8853031D02*
X11943991Y-8872079D01*
X11943991Y-8872079D02*
X11953515Y-8910174D01*
X11953515Y-8910174D02*
X11953515Y-8957793D01*
X11953515Y-8957793D02*
X11943991Y-8995889D01*
X11943991Y-8995889D02*
X11934467Y-9014936D01*
X11934467Y-9014936D02*
X11924944Y-9024460D01*
X11924944Y-9024460D02*
X11905896Y-9033984D01*
X11905896Y-9033984D02*
X11886848Y-9033984D01*
X11886848Y-9033984D02*
X11867801Y-9024460D01*
X11867801Y-9024460D02*
X11858277Y-9014936D01*
X11858277Y-9014936D02*
X11848753Y-8995889D01*
X11848753Y-8995889D02*
X11839229Y-8957793D01*
X11839229Y-8957793D02*
X11839229Y-8910174D01*
X11839229Y-8910174D02*
X11848753Y-8872079D01*
X11848753Y-8872079D02*
X11858277Y-8853031D01*
X11858277Y-8853031D02*
X11867801Y-8843508D01*
X11867801Y-8843508D02*
X11886848Y-8833984D01*
X12048753Y-9033984D02*
X12086848Y-9033984D01*
X12086848Y-9033984D02*
X12105896Y-9024460D01*
X12105896Y-9024460D02*
X12115420Y-9014936D01*
X12115420Y-9014936D02*
X12134467Y-8986365D01*
X12134467Y-8986365D02*
X12143991Y-8948270D01*
X12143991Y-8948270D02*
X12143991Y-8872079D01*
X12143991Y-8872079D02*
X12134467Y-8853031D01*
X12134467Y-8853031D02*
X12124944Y-8843508D01*
X12124944Y-8843508D02*
X12105896Y-8833984D01*
X12105896Y-8833984D02*
X12067801Y-8833984D01*
X12067801Y-8833984D02*
X12048753Y-8843508D01*
X12048753Y-8843508D02*
X12039229Y-8853031D01*
X12039229Y-8853031D02*
X12029706Y-8872079D01*
X12029706Y-8872079D02*
X12029706Y-8919698D01*
X12029706Y-8919698D02*
X12039229Y-8938746D01*
X12039229Y-8938746D02*
X12048753Y-8948270D01*
X12048753Y-8948270D02*
X12067801Y-8957793D01*
X12067801Y-8957793D02*
X12105896Y-8957793D01*
X12105896Y-8957793D02*
X12124944Y-8948270D01*
X12124944Y-8948270D02*
X12134467Y-8938746D01*
X12134467Y-8938746D02*
X12143991Y-8919698D01*
X12258277Y-8919698D02*
X12239229Y-8910174D01*
X12239229Y-8910174D02*
X12229706Y-8900650D01*
X12229706Y-8900650D02*
X12220182Y-8881603D01*
X12220182Y-8881603D02*
X12220182Y-8872079D01*
X12220182Y-8872079D02*
X12229706Y-8853031D01*
X12229706Y-8853031D02*
X12239229Y-8843508D01*
X12239229Y-8843508D02*
X12258277Y-8833984D01*
X12258277Y-8833984D02*
X12296372Y-8833984D01*
X12296372Y-8833984D02*
X12315420Y-8843508D01*
X12315420Y-8843508D02*
X12324944Y-8853031D01*
X12324944Y-8853031D02*
X12334467Y-8872079D01*
X12334467Y-8872079D02*
X12334467Y-8881603D01*
X12334467Y-8881603D02*
X12324944Y-8900650D01*
X12324944Y-8900650D02*
X12315420Y-8910174D01*
X12315420Y-8910174D02*
X12296372Y-8919698D01*
X12296372Y-8919698D02*
X12258277Y-8919698D01*
X12258277Y-8919698D02*
X12239229Y-8929222D01*
X12239229Y-8929222D02*
X12229706Y-8938746D01*
X12229706Y-8938746D02*
X12220182Y-8957793D01*
X12220182Y-8957793D02*
X12220182Y-8995889D01*
X12220182Y-8995889D02*
X12229706Y-9014936D01*
X12229706Y-9014936D02*
X12239229Y-9024460D01*
X12239229Y-9024460D02*
X12258277Y-9033984D01*
X12258277Y-9033984D02*
X12296372Y-9033984D01*
X12296372Y-9033984D02*
X12315420Y-9024460D01*
X12315420Y-9024460D02*
X12324944Y-9014936D01*
X12324944Y-9014936D02*
X12334467Y-8995889D01*
X12334467Y-8995889D02*
X12334467Y-8957793D01*
X12334467Y-8957793D02*
X12324944Y-8938746D01*
X12324944Y-8938746D02*
X12315420Y-8929222D01*
X12315420Y-8929222D02*
X12296372Y-8919698D01*
X12505896Y-8900650D02*
X12505896Y-9033984D01*
X12458277Y-8824460D02*
X12410658Y-8967317D01*
X12410658Y-8967317D02*
X12534467Y-8967317D01*
X12601134Y-8833984D02*
X12601134Y-8872079D01*
X12677325Y-8833984D02*
X12677325Y-8872079D01*
X12972563Y-9110174D02*
X12963039Y-9100650D01*
X12963039Y-9100650D02*
X12943991Y-9072079D01*
X12943991Y-9072079D02*
X12934468Y-9053031D01*
X12934468Y-9053031D02*
X12924944Y-9024460D01*
X12924944Y-9024460D02*
X12915420Y-8976841D01*
X12915420Y-8976841D02*
X12915420Y-8938746D01*
X12915420Y-8938746D02*
X12924944Y-8891127D01*
X12924944Y-8891127D02*
X12934468Y-8862555D01*
X12934468Y-8862555D02*
X12943991Y-8843508D01*
X12943991Y-8843508D02*
X12963039Y-8814936D01*
X12963039Y-8814936D02*
X12972563Y-8805412D01*
X13077325Y-8919698D02*
X13058277Y-8910174D01*
X13058277Y-8910174D02*
X13048753Y-8900650D01*
X13048753Y-8900650D02*
X13039229Y-8881603D01*
X13039229Y-8881603D02*
X13039229Y-8872079D01*
X13039229Y-8872079D02*
X13048753Y-8853031D01*
X13048753Y-8853031D02*
X13058277Y-8843508D01*
X13058277Y-8843508D02*
X13077325Y-8833984D01*
X13077325Y-8833984D02*
X13115420Y-8833984D01*
X13115420Y-8833984D02*
X13134468Y-8843508D01*
X13134468Y-8843508D02*
X13143991Y-8853031D01*
X13143991Y-8853031D02*
X13153515Y-8872079D01*
X13153515Y-8872079D02*
X13153515Y-8881603D01*
X13153515Y-8881603D02*
X13143991Y-8900650D01*
X13143991Y-8900650D02*
X13134468Y-8910174D01*
X13134468Y-8910174D02*
X13115420Y-8919698D01*
X13115420Y-8919698D02*
X13077325Y-8919698D01*
X13077325Y-8919698D02*
X13058277Y-8929222D01*
X13058277Y-8929222D02*
X13048753Y-8938746D01*
X13048753Y-8938746D02*
X13039229Y-8957793D01*
X13039229Y-8957793D02*
X13039229Y-8995889D01*
X13039229Y-8995889D02*
X13048753Y-9014936D01*
X13048753Y-9014936D02*
X13058277Y-9024460D01*
X13058277Y-9024460D02*
X13077325Y-9033984D01*
X13077325Y-9033984D02*
X13115420Y-9033984D01*
X13115420Y-9033984D02*
X13134468Y-9024460D01*
X13134468Y-9024460D02*
X13143991Y-9014936D01*
X13143991Y-9014936D02*
X13153515Y-8995889D01*
X13153515Y-8995889D02*
X13153515Y-8957793D01*
X13153515Y-8957793D02*
X13143991Y-8938746D01*
X13143991Y-8938746D02*
X13134468Y-8929222D01*
X13134468Y-8929222D02*
X13115420Y-8919698D01*
X13391610Y-9033984D02*
X13391610Y-8833984D01*
X13477325Y-9033984D02*
X13477325Y-8929222D01*
X13477325Y-8929222D02*
X13467801Y-8910174D01*
X13467801Y-8910174D02*
X13448753Y-8900650D01*
X13448753Y-8900650D02*
X13420182Y-8900650D01*
X13420182Y-8900650D02*
X13401134Y-8910174D01*
X13401134Y-8910174D02*
X13391610Y-8919698D01*
X13601134Y-9033984D02*
X13582087Y-9024460D01*
X13582087Y-9024460D02*
X13572563Y-9014936D01*
X13572563Y-9014936D02*
X13563039Y-8995889D01*
X13563039Y-8995889D02*
X13563039Y-8938746D01*
X13563039Y-8938746D02*
X13572563Y-8919698D01*
X13572563Y-8919698D02*
X13582087Y-8910174D01*
X13582087Y-8910174D02*
X13601134Y-8900650D01*
X13601134Y-8900650D02*
X13629706Y-8900650D01*
X13629706Y-8900650D02*
X13648753Y-8910174D01*
X13648753Y-8910174D02*
X13658277Y-8919698D01*
X13658277Y-8919698D02*
X13667801Y-8938746D01*
X13667801Y-8938746D02*
X13667801Y-8995889D01*
X13667801Y-8995889D02*
X13658277Y-9014936D01*
X13658277Y-9014936D02*
X13648753Y-9024460D01*
X13648753Y-9024460D02*
X13629706Y-9033984D01*
X13629706Y-9033984D02*
X13601134Y-9033984D01*
X13782087Y-9033984D02*
X13763039Y-9024460D01*
X13763039Y-9024460D02*
X13753515Y-9005412D01*
X13753515Y-9005412D02*
X13753515Y-8833984D01*
X13934468Y-9024460D02*
X13915420Y-9033984D01*
X13915420Y-9033984D02*
X13877325Y-9033984D01*
X13877325Y-9033984D02*
X13858277Y-9024460D01*
X13858277Y-9024460D02*
X13848753Y-9005412D01*
X13848753Y-9005412D02*
X13848753Y-8929222D01*
X13848753Y-8929222D02*
X13858277Y-8910174D01*
X13858277Y-8910174D02*
X13877325Y-8900650D01*
X13877325Y-8900650D02*
X13915420Y-8900650D01*
X13915420Y-8900650D02*
X13934468Y-8910174D01*
X13934468Y-8910174D02*
X13943991Y-8929222D01*
X13943991Y-8929222D02*
X13943991Y-8948270D01*
X13943991Y-8948270D02*
X13848753Y-8967317D01*
X14020182Y-9024460D02*
X14039230Y-9033984D01*
X14039230Y-9033984D02*
X14077325Y-9033984D01*
X14077325Y-9033984D02*
X14096372Y-9024460D01*
X14096372Y-9024460D02*
X14105896Y-9005412D01*
X14105896Y-9005412D02*
X14105896Y-8995889D01*
X14105896Y-8995889D02*
X14096372Y-8976841D01*
X14096372Y-8976841D02*
X14077325Y-8967317D01*
X14077325Y-8967317D02*
X14048753Y-8967317D01*
X14048753Y-8967317D02*
X14029706Y-8957793D01*
X14029706Y-8957793D02*
X14020182Y-8938746D01*
X14020182Y-8938746D02*
X14020182Y-8929222D01*
X14020182Y-8929222D02*
X14029706Y-8910174D01*
X14029706Y-8910174D02*
X14048753Y-8900650D01*
X14048753Y-8900650D02*
X14077325Y-8900650D01*
X14077325Y-8900650D02*
X14096372Y-8910174D01*
X14172563Y-9110174D02*
X14182087Y-9100650D01*
X14182087Y-9100650D02*
X14201134Y-9072079D01*
X14201134Y-9072079D02*
X14210658Y-9053031D01*
X14210658Y-9053031D02*
X14220182Y-9024460D01*
X14220182Y-9024460D02*
X14229706Y-8976841D01*
X14229706Y-8976841D02*
X14229706Y-8938746D01*
X14229706Y-8938746D02*
X14220182Y-8891127D01*
X14220182Y-8891127D02*
X14210658Y-8862555D01*
X14210658Y-8862555D02*
X14201134Y-8843508D01*
X14201134Y-8843508D02*
X14182087Y-8814936D01*
X14182087Y-8814936D02*
X14172563Y-8805412D01*
X14534468Y-9110174D02*
X14524944Y-9100650D01*
X14524944Y-9100650D02*
X14505896Y-9072079D01*
X14505896Y-9072079D02*
X14496372Y-9053031D01*
X14496372Y-9053031D02*
X14486849Y-9024460D01*
X14486849Y-9024460D02*
X14477325Y-8976841D01*
X14477325Y-8976841D02*
X14477325Y-8938746D01*
X14477325Y-8938746D02*
X14486849Y-8891127D01*
X14486849Y-8891127D02*
X14496372Y-8862555D01*
X14496372Y-8862555D02*
X14505896Y-8843508D01*
X14505896Y-8843508D02*
X14524944Y-8814936D01*
X14524944Y-8814936D02*
X14534468Y-8805412D01*
X14610658Y-8900650D02*
X14610658Y-9033984D01*
X14610658Y-8919698D02*
X14620182Y-8910174D01*
X14620182Y-8910174D02*
X14639230Y-8900650D01*
X14639230Y-8900650D02*
X14667801Y-8900650D01*
X14667801Y-8900650D02*
X14686849Y-8910174D01*
X14686849Y-8910174D02*
X14696372Y-8929222D01*
X14696372Y-8929222D02*
X14696372Y-9033984D01*
X14820182Y-9033984D02*
X14801134Y-9024460D01*
X14801134Y-9024460D02*
X14791611Y-9014936D01*
X14791611Y-9014936D02*
X14782087Y-8995889D01*
X14782087Y-8995889D02*
X14782087Y-8938746D01*
X14782087Y-8938746D02*
X14791611Y-8919698D01*
X14791611Y-8919698D02*
X14801134Y-8910174D01*
X14801134Y-8910174D02*
X14820182Y-8900650D01*
X14820182Y-8900650D02*
X14848753Y-8900650D01*
X14848753Y-8900650D02*
X14867801Y-8910174D01*
X14867801Y-8910174D02*
X14877325Y-8919698D01*
X14877325Y-8919698D02*
X14886849Y-8938746D01*
X14886849Y-8938746D02*
X14886849Y-8995889D01*
X14886849Y-8995889D02*
X14877325Y-9014936D01*
X14877325Y-9014936D02*
X14867801Y-9024460D01*
X14867801Y-9024460D02*
X14848753Y-9033984D01*
X14848753Y-9033984D02*
X14820182Y-9033984D01*
X14943992Y-8900650D02*
X15020182Y-8900650D01*
X14972563Y-8833984D02*
X14972563Y-9005412D01*
X14972563Y-9005412D02*
X14982087Y-9024460D01*
X14982087Y-9024460D02*
X15001134Y-9033984D01*
X15001134Y-9033984D02*
X15020182Y-9033984D01*
X15239230Y-8900650D02*
X15239230Y-9100650D01*
X15239230Y-8910174D02*
X15258277Y-8900650D01*
X15258277Y-8900650D02*
X15296373Y-8900650D01*
X15296373Y-8900650D02*
X15315420Y-8910174D01*
X15315420Y-8910174D02*
X15324944Y-8919698D01*
X15324944Y-8919698D02*
X15334468Y-8938746D01*
X15334468Y-8938746D02*
X15334468Y-8995889D01*
X15334468Y-8995889D02*
X15324944Y-9014936D01*
X15324944Y-9014936D02*
X15315420Y-9024460D01*
X15315420Y-9024460D02*
X15296373Y-9033984D01*
X15296373Y-9033984D02*
X15258277Y-9033984D01*
X15258277Y-9033984D02*
X15239230Y-9024460D01*
X15448753Y-9033984D02*
X15429706Y-9024460D01*
X15429706Y-9024460D02*
X15420182Y-9005412D01*
X15420182Y-9005412D02*
X15420182Y-8833984D01*
X15610658Y-9033984D02*
X15610658Y-8929222D01*
X15610658Y-8929222D02*
X15601134Y-8910174D01*
X15601134Y-8910174D02*
X15582087Y-8900650D01*
X15582087Y-8900650D02*
X15543992Y-8900650D01*
X15543992Y-8900650D02*
X15524944Y-8910174D01*
X15610658Y-9024460D02*
X15591611Y-9033984D01*
X15591611Y-9033984D02*
X15543992Y-9033984D01*
X15543992Y-9033984D02*
X15524944Y-9024460D01*
X15524944Y-9024460D02*
X15515420Y-9005412D01*
X15515420Y-9005412D02*
X15515420Y-8986365D01*
X15515420Y-8986365D02*
X15524944Y-8967317D01*
X15524944Y-8967317D02*
X15543992Y-8957793D01*
X15543992Y-8957793D02*
X15591611Y-8957793D01*
X15591611Y-8957793D02*
X15610658Y-8948270D01*
X15677325Y-8900650D02*
X15753515Y-8900650D01*
X15705896Y-8833984D02*
X15705896Y-9005412D01*
X15705896Y-9005412D02*
X15715420Y-9024460D01*
X15715420Y-9024460D02*
X15734468Y-9033984D01*
X15734468Y-9033984D02*
X15753515Y-9033984D01*
X15896373Y-9024460D02*
X15877325Y-9033984D01*
X15877325Y-9033984D02*
X15839230Y-9033984D01*
X15839230Y-9033984D02*
X15820182Y-9024460D01*
X15820182Y-9024460D02*
X15810658Y-9005412D01*
X15810658Y-9005412D02*
X15810658Y-8929222D01*
X15810658Y-8929222D02*
X15820182Y-8910174D01*
X15820182Y-8910174D02*
X15839230Y-8900650D01*
X15839230Y-8900650D02*
X15877325Y-8900650D01*
X15877325Y-8900650D02*
X15896373Y-8910174D01*
X15896373Y-8910174D02*
X15905896Y-8929222D01*
X15905896Y-8929222D02*
X15905896Y-8948270D01*
X15905896Y-8948270D02*
X15810658Y-8967317D01*
X16077325Y-9033984D02*
X16077325Y-8833984D01*
X16077325Y-9024460D02*
X16058277Y-9033984D01*
X16058277Y-9033984D02*
X16020182Y-9033984D01*
X16020182Y-9033984D02*
X16001134Y-9024460D01*
X16001134Y-9024460D02*
X15991611Y-9014936D01*
X15991611Y-9014936D02*
X15982087Y-8995889D01*
X15982087Y-8995889D02*
X15982087Y-8938746D01*
X15982087Y-8938746D02*
X15991611Y-8919698D01*
X15991611Y-8919698D02*
X16001134Y-8910174D01*
X16001134Y-8910174D02*
X16020182Y-8900650D01*
X16020182Y-8900650D02*
X16058277Y-8900650D01*
X16058277Y-8900650D02*
X16077325Y-8910174D01*
X16153515Y-9110174D02*
X16163039Y-9100650D01*
X16163039Y-9100650D02*
X16182087Y-9072079D01*
X16182087Y-9072079D02*
X16191611Y-9053031D01*
X16191611Y-9053031D02*
X16201134Y-9024460D01*
X16201134Y-9024460D02*
X16210658Y-8976841D01*
X16210658Y-8976841D02*
X16210658Y-8938746D01*
X16210658Y-8938746D02*
X16201134Y-8891127D01*
X16201134Y-8891127D02*
X16191611Y-8862555D01*
X16191611Y-8862555D02*
X16182087Y-8843508D01*
X16182087Y-8843508D02*
X16163039Y-8814936D01*
X16163039Y-8814936D02*
X16153515Y-8805412D01*
M02*
