M48
; DRILL file {KiCad 9.0.4-9.0.4-0~ubuntu22.04.1} date 2025-10-18T22:49:02+0200
; FORMAT={-:-/ absolute / metric / decimal}
; #@! TF.CreationDate,2025-10-18T22:49:02+02:00
; #@! TF.GenerationSoftware,Kicad,Pcbnew,9.0.4-9.0.4-0~ubuntu22.04.1
; #@! TF.FileFunction,Plated,1,2,PTH
FMAT,2
METRIC
; #@! TA.AperFunction,Plated,PTH,ViaDrill
T1C0.300
; #@! TA.AperFunction,Plated,PTH,ComponentDrill
T2C0.300
; #@! TA.AperFunction,Plated,PTH,ComponentDrill
T3C1.000
%
G90
G05
T1
X108.712Y-75.946
X109.22Y-54.864
X110.0Y-64.75
X111.75Y-64.75
X111.75Y-67.75
X113.284Y-77.216
X118.11Y-76.946
X123.357Y-75.342
X123.444Y-74.422
X126.25Y-62.75
X126.25Y-64.0
X137.0Y-61.5
X139.192Y-62.992
X139.192Y-64.262
X139.192Y-65.786
X143.75Y-61.75
X144.184Y-77.128
X145.25Y-59.25
X148.0Y-61.75
X148.082Y-70.104
X148.59Y-60.452
X149.352Y-68.71
X149.86Y-59.436
X150.368Y-68.072
X151.384Y-67.31
X152.654Y-66.548
X156.464Y-73.66
X163.5Y-68.25
X164.5Y-71.25
X169.882Y-64.8
X171.0Y-67.25
X175.75Y-58.75
X175.75Y-63.75
X177.75Y-75.0
X183.0Y-65.25
X183.9Y-63.25
X185.5Y-65.25
X188.5Y-65.25
X188.722Y-60.706
T2
X147.1Y-64.9
X147.1Y-66.3
X147.8Y-64.2
X147.8Y-65.6
X147.8Y-67.0
X148.5Y-64.9
X148.5Y-66.3
X149.2Y-64.2
X149.2Y-65.6
X149.2Y-67.0
X149.9Y-64.9
X149.9Y-66.3
T3
X101.75Y-57.11
X101.75Y-59.65
X101.75Y-62.19
X101.75Y-64.73
X101.75Y-67.27
X101.75Y-69.81
X101.75Y-72.35
X101.75Y-74.89
X104.29Y-57.11
X104.29Y-59.65
X104.29Y-62.19
X104.29Y-64.73
X104.29Y-67.27
X104.29Y-69.81
X104.29Y-72.35
X104.29Y-74.89
X107.95Y-81.28
X108.84Y-73.66
X108.88Y-70.0
X110.49Y-81.28
X111.38Y-73.66
X111.42Y-70.0
X113.03Y-81.28
X113.92Y-73.66
X113.96Y-70.0
X115.57Y-81.28
X116.46Y-73.66
X116.5Y-70.0
X118.11Y-81.28
X119.0Y-73.66
X119.04Y-70.0
X120.65Y-81.28
X123.19Y-81.28
X125.73Y-81.28
X128.27Y-81.28
X129.58Y-60.0
X130.81Y-81.28
X132.08Y-60.0
X133.35Y-81.28
X135.89Y-81.28
X138.43Y-81.28
X140.97Y-81.28
X162.56Y-59.055
X162.56Y-61.595
X162.56Y-64.135
X166.878Y-69.342
X166.878Y-72.898
X169.418Y-69.342
X169.418Y-72.898
X171.958Y-69.342
X171.958Y-72.898
X174.498Y-69.342
X174.498Y-72.898
X177.038Y-69.342
X177.038Y-72.898
X179.578Y-69.342
X179.578Y-72.898
X182.118Y-69.342
X189.59Y-69.25
X189.63Y-73.0
X192.13Y-69.25
X192.17Y-73.0
X194.67Y-69.25
X194.71Y-73.0
X197.21Y-69.25
X197.25Y-73.0
X199.75Y-69.25
X199.79Y-73.0
M30
