%TF.GenerationSoftware,KiCad,Pcbnew,9.0.4-9.0.4-0~ubuntu22.04.1*%
%TF.CreationDate,2025-10-18T22:49:02+02:00*%
%TF.ProjectId,YR,59522e6b-6963-4616-945f-706362585858,rev?*%
%TF.SameCoordinates,Original*%
%TF.FileFunction,Drillmap*%
%TF.FilePolarity,Positive*%
%FSLAX45Y45*%
G04 Gerber Fmt 4.5, Leading zero omitted, Abs format (unit mm)*
G04 Created by KiCad (PCBNEW 9.0.4-9.0.4-0~ubuntu22.04.1) date 2025-10-18 22:49:02*
%MOMM*%
%LPD*%
G01*
G04 APERTURE LIST*
%ADD10C,0.050000*%
%ADD11C,0.200000*%
%ADD12C,0.100000*%
G04 APERTURE END LIST*
D10*
X12600000Y-5625000D02*
X17375000Y-5625000D01*
X9400000Y-5025000D02*
X9400000Y-8275000D01*
X20750000Y-8275000D02*
X20725000Y-8300000D01*
X20725000Y-8300000D02*
X9425000Y-8300000D01*
X17375000Y-5625000D02*
X17425000Y-5575000D01*
X17425000Y-5025000D02*
X17450000Y-5000000D01*
X9425000Y-8300000D02*
X9400000Y-8275000D01*
X17450000Y-5000000D02*
X20725000Y-5000000D01*
X9425000Y-5000000D02*
X9400000Y-5025000D01*
X12575000Y-5600000D02*
X12600000Y-5625000D01*
X17425000Y-5575000D02*
X17425000Y-5025000D01*
X9425000Y-5000000D02*
X12550000Y-5000000D01*
X12550000Y-5000000D02*
X12575000Y-5025000D01*
X12575000Y-5025000D02*
X12575000Y-5600000D01*
X20725000Y-5000000D02*
X20750000Y-5025000D01*
X20750000Y-5025000D02*
X20750000Y-8275000D01*
D11*
D12*
X10856200Y-7579600D02*
X10886200Y-7609600D01*
X10886200Y-7579600D02*
X10856200Y-7609600D01*
X10907000Y-5471400D02*
X10937000Y-5501400D01*
X10937000Y-5471400D02*
X10907000Y-5501400D01*
X10985000Y-6460000D02*
X11015000Y-6490000D01*
X11015000Y-6460000D02*
X10985000Y-6490000D01*
X11160000Y-6460000D02*
X11190000Y-6490000D01*
X11190000Y-6460000D02*
X11160000Y-6490000D01*
X11160000Y-6760000D02*
X11190000Y-6790000D01*
X11190000Y-6760000D02*
X11160000Y-6790000D01*
X11313400Y-7706600D02*
X11343400Y-7736600D01*
X11343400Y-7706600D02*
X11313400Y-7736600D01*
X11796000Y-7679600D02*
X11826000Y-7709600D01*
X11826000Y-7679600D02*
X11796000Y-7709600D01*
X12320749Y-7519200D02*
X12350749Y-7549200D01*
X12350749Y-7519200D02*
X12320749Y-7549200D01*
X12329400Y-7427200D02*
X12359400Y-7457200D01*
X12359400Y-7427200D02*
X12329400Y-7457200D01*
X12610000Y-6260000D02*
X12640000Y-6290000D01*
X12640000Y-6260000D02*
X12610000Y-6290000D01*
X12610000Y-6385000D02*
X12640000Y-6415000D01*
X12640000Y-6385000D02*
X12610000Y-6415000D01*
X13685000Y-6135000D02*
X13715000Y-6165000D01*
X13715000Y-6135000D02*
X13685000Y-6165000D01*
X13904200Y-6284200D02*
X13934200Y-6314200D01*
X13934200Y-6284200D02*
X13904200Y-6314200D01*
X13904200Y-6411200D02*
X13934200Y-6441200D01*
X13934200Y-6411200D02*
X13904200Y-6441200D01*
X13904200Y-6563600D02*
X13934200Y-6593600D01*
X13934200Y-6563600D02*
X13904200Y-6593600D01*
X14360000Y-6160000D02*
X14390000Y-6190000D01*
X14390000Y-6160000D02*
X14360000Y-6190000D01*
X14403356Y-7697756D02*
X14433356Y-7727756D01*
X14433356Y-7697756D02*
X14403356Y-7727756D01*
X14510000Y-5910000D02*
X14540000Y-5940000D01*
X14540000Y-5910000D02*
X14510000Y-5940000D01*
X14785000Y-6160000D02*
X14815000Y-6190000D01*
X14815000Y-6160000D02*
X14785000Y-6190000D01*
X14793200Y-6995400D02*
X14823200Y-7025400D01*
X14823200Y-6995400D02*
X14793200Y-7025400D01*
X14844000Y-6030200D02*
X14874000Y-6060200D01*
X14874000Y-6030200D02*
X14844000Y-6060200D01*
X14920200Y-6856000D02*
X14950200Y-6886000D01*
X14950200Y-6856000D02*
X14920200Y-6886000D01*
X14971000Y-5928600D02*
X15001000Y-5958600D01*
X15001000Y-5928600D02*
X14971000Y-5958600D01*
X15021800Y-6792200D02*
X15051800Y-6822200D01*
X15051800Y-6792200D02*
X15021800Y-6822200D01*
X15123400Y-6716000D02*
X15153400Y-6746000D01*
X15153400Y-6716000D02*
X15123400Y-6746000D01*
X15250400Y-6639800D02*
X15280400Y-6669800D01*
X15280400Y-6639800D02*
X15250400Y-6669800D01*
X15631400Y-7351000D02*
X15661400Y-7381000D01*
X15661400Y-7351000D02*
X15631400Y-7381000D01*
X16335000Y-6810000D02*
X16365000Y-6840000D01*
X16365000Y-6810000D02*
X16335000Y-6840000D01*
X16435000Y-7110000D02*
X16465000Y-7140000D01*
X16465000Y-7110000D02*
X16435000Y-7140000D01*
X16973218Y-6465034D02*
X17003218Y-6495034D01*
X17003218Y-6465034D02*
X16973218Y-6495034D01*
X17085000Y-6710000D02*
X17115000Y-6740000D01*
X17115000Y-6710000D02*
X17085000Y-6740000D01*
X17560000Y-5860000D02*
X17590000Y-5890000D01*
X17590000Y-5860000D02*
X17560000Y-5890000D01*
X17560000Y-6360000D02*
X17590000Y-6390000D01*
X17590000Y-6360000D02*
X17560000Y-6390000D01*
X17760000Y-7485000D02*
X17790000Y-7515000D01*
X17790000Y-7485000D02*
X17760000Y-7515000D01*
X18285000Y-6510000D02*
X18315000Y-6540000D01*
X18315000Y-6510000D02*
X18285000Y-6540000D01*
X18375000Y-6310000D02*
X18405000Y-6340000D01*
X18405000Y-6310000D02*
X18375000Y-6340000D01*
X18535000Y-6510000D02*
X18565000Y-6540000D01*
X18565000Y-6510000D02*
X18535000Y-6540000D01*
X18835000Y-6510000D02*
X18865000Y-6540000D01*
X18865000Y-6510000D02*
X18835000Y-6540000D01*
X18857200Y-6055600D02*
X18887200Y-6085600D01*
X18887200Y-6055600D02*
X18857200Y-6085600D01*
X14725000Y-6490000D02*
G75*
G02*
X14695000Y-6490000I-15000J0D01*
G01*
X14695000Y-6490000D02*
G75*
G02*
X14725000Y-6490000I15000J0D01*
G01*
X14725000Y-6630000D02*
G75*
G02*
X14695000Y-6630000I-15000J0D01*
G01*
X14695000Y-6630000D02*
G75*
G02*
X14725000Y-6630000I15000J0D01*
G01*
X14795000Y-6420000D02*
G75*
G02*
X14765000Y-6420000I-15000J0D01*
G01*
X14765000Y-6420000D02*
G75*
G02*
X14795000Y-6420000I15000J0D01*
G01*
X14795000Y-6560000D02*
G75*
G02*
X14765000Y-6560000I-15000J0D01*
G01*
X14765000Y-6560000D02*
G75*
G02*
X14795000Y-6560000I15000J0D01*
G01*
X14795000Y-6700000D02*
G75*
G02*
X14765000Y-6700000I-15000J0D01*
G01*
X14765000Y-6700000D02*
G75*
G02*
X14795000Y-6700000I15000J0D01*
G01*
X14865000Y-6490000D02*
G75*
G02*
X14835000Y-6490000I-15000J0D01*
G01*
X14835000Y-6490000D02*
G75*
G02*
X14865000Y-6490000I15000J0D01*
G01*
X14865000Y-6630000D02*
G75*
G02*
X14835000Y-6630000I-15000J0D01*
G01*
X14835000Y-6630000D02*
G75*
G02*
X14865000Y-6630000I15000J0D01*
G01*
X14935000Y-6420000D02*
G75*
G02*
X14905000Y-6420000I-15000J0D01*
G01*
X14905000Y-6420000D02*
G75*
G02*
X14935000Y-6420000I15000J0D01*
G01*
X14935000Y-6560000D02*
G75*
G02*
X14905000Y-6560000I-15000J0D01*
G01*
X14905000Y-6560000D02*
G75*
G02*
X14935000Y-6560000I15000J0D01*
G01*
X14935000Y-6700000D02*
G75*
G02*
X14905000Y-6700000I-15000J0D01*
G01*
X14905000Y-6700000D02*
G75*
G02*
X14935000Y-6700000I15000J0D01*
G01*
X15005000Y-6490000D02*
G75*
G02*
X14975000Y-6490000I-15000J0D01*
G01*
X14975000Y-6490000D02*
G75*
G02*
X15005000Y-6490000I15000J0D01*
G01*
X15005000Y-6630000D02*
G75*
G02*
X14975000Y-6630000I-15000J0D01*
G01*
X14975000Y-6630000D02*
G75*
G02*
X15005000Y-6630000I15000J0D01*
G01*
X10175000Y-5661000D02*
X10175000Y-5761000D01*
X10125000Y-5711000D02*
X10225000Y-5711000D01*
X10175000Y-5915000D02*
X10175000Y-6015000D01*
X10125000Y-5965000D02*
X10225000Y-5965000D01*
X10175000Y-6169000D02*
X10175000Y-6269000D01*
X10125000Y-6219000D02*
X10225000Y-6219000D01*
X10175000Y-6423000D02*
X10175000Y-6523000D01*
X10125000Y-6473000D02*
X10225000Y-6473000D01*
X10175000Y-6677000D02*
X10175000Y-6777000D01*
X10125000Y-6727000D02*
X10225000Y-6727000D01*
X10175000Y-6931000D02*
X10175000Y-7031000D01*
X10125000Y-6981000D02*
X10225000Y-6981000D01*
X10175000Y-7185000D02*
X10175000Y-7285000D01*
X10125000Y-7235000D02*
X10225000Y-7235000D01*
X10175000Y-7439000D02*
X10175000Y-7539000D01*
X10125000Y-7489000D02*
X10225000Y-7489000D01*
X10429000Y-5661000D02*
X10429000Y-5761000D01*
X10379000Y-5711000D02*
X10479000Y-5711000D01*
X10429000Y-5915000D02*
X10429000Y-6015000D01*
X10379000Y-5965000D02*
X10479000Y-5965000D01*
X10429000Y-6169000D02*
X10429000Y-6269000D01*
X10379000Y-6219000D02*
X10479000Y-6219000D01*
X10429000Y-6423000D02*
X10429000Y-6523000D01*
X10379000Y-6473000D02*
X10479000Y-6473000D01*
X10429000Y-6677000D02*
X10429000Y-6777000D01*
X10379000Y-6727000D02*
X10479000Y-6727000D01*
X10429000Y-6931000D02*
X10429000Y-7031000D01*
X10379000Y-6981000D02*
X10479000Y-6981000D01*
X10429000Y-7185000D02*
X10429000Y-7285000D01*
X10379000Y-7235000D02*
X10479000Y-7235000D01*
X10429000Y-7439000D02*
X10429000Y-7539000D01*
X10379000Y-7489000D02*
X10479000Y-7489000D01*
X10795000Y-8078000D02*
X10795000Y-8178000D01*
X10745000Y-8128000D02*
X10845000Y-8128000D01*
X10884000Y-7316000D02*
X10884000Y-7416000D01*
X10834000Y-7366000D02*
X10934000Y-7366000D01*
X10888000Y-6950000D02*
X10888000Y-7050000D01*
X10838000Y-7000000D02*
X10938000Y-7000000D01*
X11049000Y-8078000D02*
X11049000Y-8178000D01*
X10999000Y-8128000D02*
X11099000Y-8128000D01*
X11138000Y-7316000D02*
X11138000Y-7416000D01*
X11088000Y-7366000D02*
X11188000Y-7366000D01*
X11142000Y-6950000D02*
X11142000Y-7050000D01*
X11092000Y-7000000D02*
X11192000Y-7000000D01*
X11303000Y-8078000D02*
X11303000Y-8178000D01*
X11253000Y-8128000D02*
X11353000Y-8128000D01*
X11392000Y-7316000D02*
X11392000Y-7416000D01*
X11342000Y-7366000D02*
X11442000Y-7366000D01*
X11396000Y-6950000D02*
X11396000Y-7050000D01*
X11346000Y-7000000D02*
X11446000Y-7000000D01*
X11557000Y-8078000D02*
X11557000Y-8178000D01*
X11507000Y-8128000D02*
X11607000Y-8128000D01*
X11646000Y-7316000D02*
X11646000Y-7416000D01*
X11596000Y-7366000D02*
X11696000Y-7366000D01*
X11650000Y-6950000D02*
X11650000Y-7050000D01*
X11600000Y-7000000D02*
X11700000Y-7000000D01*
X11811000Y-8078000D02*
X11811000Y-8178000D01*
X11761000Y-8128000D02*
X11861000Y-8128000D01*
X11900000Y-7316000D02*
X11900000Y-7416000D01*
X11850000Y-7366000D02*
X11950000Y-7366000D01*
X11904000Y-6950000D02*
X11904000Y-7050000D01*
X11854000Y-7000000D02*
X11954000Y-7000000D01*
X12065000Y-8078000D02*
X12065000Y-8178000D01*
X12015000Y-8128000D02*
X12115000Y-8128000D01*
X12319000Y-8078000D02*
X12319000Y-8178000D01*
X12269000Y-8128000D02*
X12369000Y-8128000D01*
X12573000Y-8078000D02*
X12573000Y-8178000D01*
X12523000Y-8128000D02*
X12623000Y-8128000D01*
X12827000Y-8078000D02*
X12827000Y-8178000D01*
X12777000Y-8128000D02*
X12877000Y-8128000D01*
X12958000Y-5950000D02*
X12958000Y-6050000D01*
X12908000Y-6000000D02*
X13008000Y-6000000D01*
X13081000Y-8078000D02*
X13081000Y-8178000D01*
X13031000Y-8128000D02*
X13131000Y-8128000D01*
X13208000Y-5950000D02*
X13208000Y-6050000D01*
X13158000Y-6000000D02*
X13258000Y-6000000D01*
X13335000Y-8078000D02*
X13335000Y-8178000D01*
X13285000Y-8128000D02*
X13385000Y-8128000D01*
X13589000Y-8078000D02*
X13589000Y-8178000D01*
X13539000Y-8128000D02*
X13639000Y-8128000D01*
X13843000Y-8078000D02*
X13843000Y-8178000D01*
X13793000Y-8128000D02*
X13893000Y-8128000D01*
X14097000Y-8078000D02*
X14097000Y-8178000D01*
X14047000Y-8128000D02*
X14147000Y-8128000D01*
X16256000Y-5855500D02*
X16256000Y-5955500D01*
X16206000Y-5905500D02*
X16306000Y-5905500D01*
X16256000Y-6109500D02*
X16256000Y-6209500D01*
X16206000Y-6159500D02*
X16306000Y-6159500D01*
X16256000Y-6363500D02*
X16256000Y-6463500D01*
X16206000Y-6413500D02*
X16306000Y-6413500D01*
X16687800Y-6884200D02*
X16687800Y-6984200D01*
X16637800Y-6934200D02*
X16737800Y-6934200D01*
X16687800Y-7239800D02*
X16687800Y-7339800D01*
X16637800Y-7289800D02*
X16737800Y-7289800D01*
X16941800Y-6884200D02*
X16941800Y-6984200D01*
X16891800Y-6934200D02*
X16991800Y-6934200D01*
X16941800Y-7239800D02*
X16941800Y-7339800D01*
X16891800Y-7289800D02*
X16991800Y-7289800D01*
X17195800Y-6884200D02*
X17195800Y-6984200D01*
X17145800Y-6934200D02*
X17245800Y-6934200D01*
X17195800Y-7239800D02*
X17195800Y-7339800D01*
X17145800Y-7289800D02*
X17245800Y-7289800D01*
X17449800Y-6884200D02*
X17449800Y-6984200D01*
X17399800Y-6934200D02*
X17499800Y-6934200D01*
X17449800Y-7239800D02*
X17449800Y-7339800D01*
X17399800Y-7289800D02*
X17499800Y-7289800D01*
X17703800Y-6884200D02*
X17703800Y-6984200D01*
X17653800Y-6934200D02*
X17753800Y-6934200D01*
X17703800Y-7239800D02*
X17703800Y-7339800D01*
X17653800Y-7289800D02*
X17753800Y-7289800D01*
X17957800Y-6884200D02*
X17957800Y-6984200D01*
X17907800Y-6934200D02*
X18007800Y-6934200D01*
X17957800Y-7239800D02*
X17957800Y-7339800D01*
X17907800Y-7289800D02*
X18007800Y-7289800D01*
X18211800Y-6884200D02*
X18211800Y-6984200D01*
X18161800Y-6934200D02*
X18261800Y-6934200D01*
X18959000Y-6875000D02*
X18959000Y-6975000D01*
X18909000Y-6925000D02*
X19009000Y-6925000D01*
X18963000Y-7250000D02*
X18963000Y-7350000D01*
X18913000Y-7300000D02*
X19013000Y-7300000D01*
X19213000Y-6875000D02*
X19213000Y-6975000D01*
X19163000Y-6925000D02*
X19263000Y-6925000D01*
X19217000Y-7250000D02*
X19217000Y-7350000D01*
X19167000Y-7300000D02*
X19267000Y-7300000D01*
X19467000Y-6875000D02*
X19467000Y-6975000D01*
X19417000Y-6925000D02*
X19517000Y-6925000D01*
X19471000Y-7250000D02*
X19471000Y-7350000D01*
X19421000Y-7300000D02*
X19521000Y-7300000D01*
X19721000Y-6875000D02*
X19721000Y-6975000D01*
X19671000Y-6925000D02*
X19771000Y-6925000D01*
X19725000Y-7250000D02*
X19725000Y-7350000D01*
X19675000Y-7300000D02*
X19775000Y-7300000D01*
X19975000Y-6875000D02*
X19975000Y-6975000D01*
X19925000Y-6925000D02*
X20025000Y-6925000D01*
X19979000Y-7250000D02*
X19979000Y-7350000D01*
X19929000Y-7300000D02*
X20029000Y-7300000D01*
D11*
X9658277Y-8613984D02*
X9658277Y-8413984D01*
X9658277Y-8413984D02*
X9705896Y-8413984D01*
X9705896Y-8413984D02*
X9734467Y-8423508D01*
X9734467Y-8423508D02*
X9753515Y-8442555D01*
X9753515Y-8442555D02*
X9763039Y-8461603D01*
X9763039Y-8461603D02*
X9772563Y-8499698D01*
X9772563Y-8499698D02*
X9772563Y-8528270D01*
X9772563Y-8528270D02*
X9763039Y-8566365D01*
X9763039Y-8566365D02*
X9753515Y-8585412D01*
X9753515Y-8585412D02*
X9734467Y-8604460D01*
X9734467Y-8604460D02*
X9705896Y-8613984D01*
X9705896Y-8613984D02*
X9658277Y-8613984D01*
X9858277Y-8613984D02*
X9858277Y-8480650D01*
X9858277Y-8518746D02*
X9867801Y-8499698D01*
X9867801Y-8499698D02*
X9877324Y-8490174D01*
X9877324Y-8490174D02*
X9896372Y-8480650D01*
X9896372Y-8480650D02*
X9915420Y-8480650D01*
X9982086Y-8613984D02*
X9982086Y-8480650D01*
X9982086Y-8413984D02*
X9972563Y-8423508D01*
X9972563Y-8423508D02*
X9982086Y-8433031D01*
X9982086Y-8433031D02*
X9991610Y-8423508D01*
X9991610Y-8423508D02*
X9982086Y-8413984D01*
X9982086Y-8413984D02*
X9982086Y-8433031D01*
X10105896Y-8613984D02*
X10086848Y-8604460D01*
X10086848Y-8604460D02*
X10077324Y-8585412D01*
X10077324Y-8585412D02*
X10077324Y-8413984D01*
X10210658Y-8613984D02*
X10191610Y-8604460D01*
X10191610Y-8604460D02*
X10182086Y-8585412D01*
X10182086Y-8585412D02*
X10182086Y-8413984D01*
X10439229Y-8613984D02*
X10439229Y-8413984D01*
X10439229Y-8413984D02*
X10505896Y-8556841D01*
X10505896Y-8556841D02*
X10572563Y-8413984D01*
X10572563Y-8413984D02*
X10572563Y-8613984D01*
X10753515Y-8613984D02*
X10753515Y-8509222D01*
X10753515Y-8509222D02*
X10743991Y-8490174D01*
X10743991Y-8490174D02*
X10724944Y-8480650D01*
X10724944Y-8480650D02*
X10686848Y-8480650D01*
X10686848Y-8480650D02*
X10667801Y-8490174D01*
X10753515Y-8604460D02*
X10734467Y-8613984D01*
X10734467Y-8613984D02*
X10686848Y-8613984D01*
X10686848Y-8613984D02*
X10667801Y-8604460D01*
X10667801Y-8604460D02*
X10658277Y-8585412D01*
X10658277Y-8585412D02*
X10658277Y-8566365D01*
X10658277Y-8566365D02*
X10667801Y-8547317D01*
X10667801Y-8547317D02*
X10686848Y-8537793D01*
X10686848Y-8537793D02*
X10734467Y-8537793D01*
X10734467Y-8537793D02*
X10753515Y-8528270D01*
X10848753Y-8480650D02*
X10848753Y-8680650D01*
X10848753Y-8490174D02*
X10867801Y-8480650D01*
X10867801Y-8480650D02*
X10905896Y-8480650D01*
X10905896Y-8480650D02*
X10924944Y-8490174D01*
X10924944Y-8490174D02*
X10934467Y-8499698D01*
X10934467Y-8499698D02*
X10943991Y-8518746D01*
X10943991Y-8518746D02*
X10943991Y-8575889D01*
X10943991Y-8575889D02*
X10934467Y-8594936D01*
X10934467Y-8594936D02*
X10924944Y-8604460D01*
X10924944Y-8604460D02*
X10905896Y-8613984D01*
X10905896Y-8613984D02*
X10867801Y-8613984D01*
X10867801Y-8613984D02*
X10848753Y-8604460D01*
X11029705Y-8594936D02*
X11039229Y-8604460D01*
X11039229Y-8604460D02*
X11029705Y-8613984D01*
X11029705Y-8613984D02*
X11020182Y-8604460D01*
X11020182Y-8604460D02*
X11029705Y-8594936D01*
X11029705Y-8594936D02*
X11029705Y-8613984D01*
X11029705Y-8490174D02*
X11039229Y-8499698D01*
X11039229Y-8499698D02*
X11029705Y-8509222D01*
X11029705Y-8509222D02*
X11020182Y-8499698D01*
X11020182Y-8499698D02*
X11029705Y-8490174D01*
X11029705Y-8490174D02*
X11029705Y-8509222D01*
D12*
X9367500Y-8927500D02*
X9397500Y-8957500D01*
X9397500Y-8927500D02*
X9367500Y-8957500D01*
D11*
X9696372Y-8833984D02*
X9715420Y-8833984D01*
X9715420Y-8833984D02*
X9734467Y-8843508D01*
X9734467Y-8843508D02*
X9743991Y-8853031D01*
X9743991Y-8853031D02*
X9753515Y-8872079D01*
X9753515Y-8872079D02*
X9763039Y-8910174D01*
X9763039Y-8910174D02*
X9763039Y-8957793D01*
X9763039Y-8957793D02*
X9753515Y-8995889D01*
X9753515Y-8995889D02*
X9743991Y-9014936D01*
X9743991Y-9014936D02*
X9734467Y-9024460D01*
X9734467Y-9024460D02*
X9715420Y-9033984D01*
X9715420Y-9033984D02*
X9696372Y-9033984D01*
X9696372Y-9033984D02*
X9677324Y-9024460D01*
X9677324Y-9024460D02*
X9667801Y-9014936D01*
X9667801Y-9014936D02*
X9658277Y-8995889D01*
X9658277Y-8995889D02*
X9648753Y-8957793D01*
X9648753Y-8957793D02*
X9648753Y-8910174D01*
X9648753Y-8910174D02*
X9658277Y-8872079D01*
X9658277Y-8872079D02*
X9667801Y-8853031D01*
X9667801Y-8853031D02*
X9677324Y-8843508D01*
X9677324Y-8843508D02*
X9696372Y-8833984D01*
X9848753Y-9014936D02*
X9858277Y-9024460D01*
X9858277Y-9024460D02*
X9848753Y-9033984D01*
X9848753Y-9033984D02*
X9839229Y-9024460D01*
X9839229Y-9024460D02*
X9848753Y-9014936D01*
X9848753Y-9014936D02*
X9848753Y-9033984D01*
X9924944Y-8833984D02*
X10048753Y-8833984D01*
X10048753Y-8833984D02*
X9982086Y-8910174D01*
X9982086Y-8910174D02*
X10010658Y-8910174D01*
X10010658Y-8910174D02*
X10029705Y-8919698D01*
X10029705Y-8919698D02*
X10039229Y-8929222D01*
X10039229Y-8929222D02*
X10048753Y-8948270D01*
X10048753Y-8948270D02*
X10048753Y-8995889D01*
X10048753Y-8995889D02*
X10039229Y-9014936D01*
X10039229Y-9014936D02*
X10029705Y-9024460D01*
X10029705Y-9024460D02*
X10010658Y-9033984D01*
X10010658Y-9033984D02*
X9953515Y-9033984D01*
X9953515Y-9033984D02*
X9934467Y-9024460D01*
X9934467Y-9024460D02*
X9924944Y-9014936D01*
X10172563Y-8833984D02*
X10191610Y-8833984D01*
X10191610Y-8833984D02*
X10210658Y-8843508D01*
X10210658Y-8843508D02*
X10220182Y-8853031D01*
X10220182Y-8853031D02*
X10229705Y-8872079D01*
X10229705Y-8872079D02*
X10239229Y-8910174D01*
X10239229Y-8910174D02*
X10239229Y-8957793D01*
X10239229Y-8957793D02*
X10229705Y-8995889D01*
X10229705Y-8995889D02*
X10220182Y-9014936D01*
X10220182Y-9014936D02*
X10210658Y-9024460D01*
X10210658Y-9024460D02*
X10191610Y-9033984D01*
X10191610Y-9033984D02*
X10172563Y-9033984D01*
X10172563Y-9033984D02*
X10153515Y-9024460D01*
X10153515Y-9024460D02*
X10143991Y-9014936D01*
X10143991Y-9014936D02*
X10134467Y-8995889D01*
X10134467Y-8995889D02*
X10124944Y-8957793D01*
X10124944Y-8957793D02*
X10124944Y-8910174D01*
X10124944Y-8910174D02*
X10134467Y-8872079D01*
X10134467Y-8872079D02*
X10143991Y-8853031D01*
X10143991Y-8853031D02*
X10153515Y-8843508D01*
X10153515Y-8843508D02*
X10172563Y-8833984D01*
X10363039Y-8833984D02*
X10382086Y-8833984D01*
X10382086Y-8833984D02*
X10401134Y-8843508D01*
X10401134Y-8843508D02*
X10410658Y-8853031D01*
X10410658Y-8853031D02*
X10420182Y-8872079D01*
X10420182Y-8872079D02*
X10429705Y-8910174D01*
X10429705Y-8910174D02*
X10429705Y-8957793D01*
X10429705Y-8957793D02*
X10420182Y-8995889D01*
X10420182Y-8995889D02*
X10410658Y-9014936D01*
X10410658Y-9014936D02*
X10401134Y-9024460D01*
X10401134Y-9024460D02*
X10382086Y-9033984D01*
X10382086Y-9033984D02*
X10363039Y-9033984D01*
X10363039Y-9033984D02*
X10343991Y-9024460D01*
X10343991Y-9024460D02*
X10334467Y-9014936D01*
X10334467Y-9014936D02*
X10324944Y-8995889D01*
X10324944Y-8995889D02*
X10315420Y-8957793D01*
X10315420Y-8957793D02*
X10315420Y-8910174D01*
X10315420Y-8910174D02*
X10324944Y-8872079D01*
X10324944Y-8872079D02*
X10334467Y-8853031D01*
X10334467Y-8853031D02*
X10343991Y-8843508D01*
X10343991Y-8843508D02*
X10363039Y-8833984D01*
X10515420Y-9033984D02*
X10515420Y-8900650D01*
X10515420Y-8919698D02*
X10524944Y-8910174D01*
X10524944Y-8910174D02*
X10543991Y-8900650D01*
X10543991Y-8900650D02*
X10572563Y-8900650D01*
X10572563Y-8900650D02*
X10591610Y-8910174D01*
X10591610Y-8910174D02*
X10601134Y-8929222D01*
X10601134Y-8929222D02*
X10601134Y-9033984D01*
X10601134Y-8929222D02*
X10610658Y-8910174D01*
X10610658Y-8910174D02*
X10629705Y-8900650D01*
X10629705Y-8900650D02*
X10658277Y-8900650D01*
X10658277Y-8900650D02*
X10677325Y-8910174D01*
X10677325Y-8910174D02*
X10686848Y-8929222D01*
X10686848Y-8929222D02*
X10686848Y-9033984D01*
X10782086Y-9033984D02*
X10782086Y-8900650D01*
X10782086Y-8919698D02*
X10791610Y-8910174D01*
X10791610Y-8910174D02*
X10810658Y-8900650D01*
X10810658Y-8900650D02*
X10839229Y-8900650D01*
X10839229Y-8900650D02*
X10858277Y-8910174D01*
X10858277Y-8910174D02*
X10867801Y-8929222D01*
X10867801Y-8929222D02*
X10867801Y-9033984D01*
X10867801Y-8929222D02*
X10877325Y-8910174D01*
X10877325Y-8910174D02*
X10896372Y-8900650D01*
X10896372Y-8900650D02*
X10924944Y-8900650D01*
X10924944Y-8900650D02*
X10943991Y-8910174D01*
X10943991Y-8910174D02*
X10953515Y-8929222D01*
X10953515Y-8929222D02*
X10953515Y-9033984D01*
X11343991Y-8824460D02*
X11172563Y-9081603D01*
X11601134Y-8833984D02*
X11620182Y-8833984D01*
X11620182Y-8833984D02*
X11639229Y-8843508D01*
X11639229Y-8843508D02*
X11648753Y-8853031D01*
X11648753Y-8853031D02*
X11658277Y-8872079D01*
X11658277Y-8872079D02*
X11667801Y-8910174D01*
X11667801Y-8910174D02*
X11667801Y-8957793D01*
X11667801Y-8957793D02*
X11658277Y-8995889D01*
X11658277Y-8995889D02*
X11648753Y-9014936D01*
X11648753Y-9014936D02*
X11639229Y-9024460D01*
X11639229Y-9024460D02*
X11620182Y-9033984D01*
X11620182Y-9033984D02*
X11601134Y-9033984D01*
X11601134Y-9033984D02*
X11582086Y-9024460D01*
X11582086Y-9024460D02*
X11572563Y-9014936D01*
X11572563Y-9014936D02*
X11563039Y-8995889D01*
X11563039Y-8995889D02*
X11553515Y-8957793D01*
X11553515Y-8957793D02*
X11553515Y-8910174D01*
X11553515Y-8910174D02*
X11563039Y-8872079D01*
X11563039Y-8872079D02*
X11572563Y-8853031D01*
X11572563Y-8853031D02*
X11582086Y-8843508D01*
X11582086Y-8843508D02*
X11601134Y-8833984D01*
X11753515Y-9014936D02*
X11763039Y-9024460D01*
X11763039Y-9024460D02*
X11753515Y-9033984D01*
X11753515Y-9033984D02*
X11743991Y-9024460D01*
X11743991Y-9024460D02*
X11753515Y-9014936D01*
X11753515Y-9014936D02*
X11753515Y-9033984D01*
X11886848Y-8833984D02*
X11905896Y-8833984D01*
X11905896Y-8833984D02*
X11924944Y-8843508D01*
X11924944Y-8843508D02*
X11934467Y-8853031D01*
X11934467Y-8853031D02*
X11943991Y-8872079D01*
X11943991Y-8872079D02*
X11953515Y-8910174D01*
X11953515Y-8910174D02*
X11953515Y-8957793D01*
X11953515Y-8957793D02*
X11943991Y-8995889D01*
X11943991Y-8995889D02*
X11934467Y-9014936D01*
X11934467Y-9014936D02*
X11924944Y-9024460D01*
X11924944Y-9024460D02*
X11905896Y-9033984D01*
X11905896Y-9033984D02*
X11886848Y-9033984D01*
X11886848Y-9033984D02*
X11867801Y-9024460D01*
X11867801Y-9024460D02*
X11858277Y-9014936D01*
X11858277Y-9014936D02*
X11848753Y-8995889D01*
X11848753Y-8995889D02*
X11839229Y-8957793D01*
X11839229Y-8957793D02*
X11839229Y-8910174D01*
X11839229Y-8910174D02*
X11848753Y-8872079D01*
X11848753Y-8872079D02*
X11858277Y-8853031D01*
X11858277Y-8853031D02*
X11867801Y-8843508D01*
X11867801Y-8843508D02*
X11886848Y-8833984D01*
X12143991Y-9033984D02*
X12029706Y-9033984D01*
X12086848Y-9033984D02*
X12086848Y-8833984D01*
X12086848Y-8833984D02*
X12067801Y-8862555D01*
X12067801Y-8862555D02*
X12048753Y-8881603D01*
X12048753Y-8881603D02*
X12029706Y-8891127D01*
X12334467Y-9033984D02*
X12220182Y-9033984D01*
X12277325Y-9033984D02*
X12277325Y-8833984D01*
X12277325Y-8833984D02*
X12258277Y-8862555D01*
X12258277Y-8862555D02*
X12239229Y-8881603D01*
X12239229Y-8881603D02*
X12220182Y-8891127D01*
X12448753Y-8919698D02*
X12429706Y-8910174D01*
X12429706Y-8910174D02*
X12420182Y-8900650D01*
X12420182Y-8900650D02*
X12410658Y-8881603D01*
X12410658Y-8881603D02*
X12410658Y-8872079D01*
X12410658Y-8872079D02*
X12420182Y-8853031D01*
X12420182Y-8853031D02*
X12429706Y-8843508D01*
X12429706Y-8843508D02*
X12448753Y-8833984D01*
X12448753Y-8833984D02*
X12486848Y-8833984D01*
X12486848Y-8833984D02*
X12505896Y-8843508D01*
X12505896Y-8843508D02*
X12515420Y-8853031D01*
X12515420Y-8853031D02*
X12524944Y-8872079D01*
X12524944Y-8872079D02*
X12524944Y-8881603D01*
X12524944Y-8881603D02*
X12515420Y-8900650D01*
X12515420Y-8900650D02*
X12505896Y-8910174D01*
X12505896Y-8910174D02*
X12486848Y-8919698D01*
X12486848Y-8919698D02*
X12448753Y-8919698D01*
X12448753Y-8919698D02*
X12429706Y-8929222D01*
X12429706Y-8929222D02*
X12420182Y-8938746D01*
X12420182Y-8938746D02*
X12410658Y-8957793D01*
X12410658Y-8957793D02*
X12410658Y-8995889D01*
X12410658Y-8995889D02*
X12420182Y-9014936D01*
X12420182Y-9014936D02*
X12429706Y-9024460D01*
X12429706Y-9024460D02*
X12448753Y-9033984D01*
X12448753Y-9033984D02*
X12486848Y-9033984D01*
X12486848Y-9033984D02*
X12505896Y-9024460D01*
X12505896Y-9024460D02*
X12515420Y-9014936D01*
X12515420Y-9014936D02*
X12524944Y-8995889D01*
X12524944Y-8995889D02*
X12524944Y-8957793D01*
X12524944Y-8957793D02*
X12515420Y-8938746D01*
X12515420Y-8938746D02*
X12505896Y-8929222D01*
X12505896Y-8929222D02*
X12486848Y-8919698D01*
X12601134Y-8833984D02*
X12601134Y-8872079D01*
X12677325Y-8833984D02*
X12677325Y-8872079D01*
X12972563Y-9110174D02*
X12963039Y-9100650D01*
X12963039Y-9100650D02*
X12943991Y-9072079D01*
X12943991Y-9072079D02*
X12934468Y-9053031D01*
X12934468Y-9053031D02*
X12924944Y-9024460D01*
X12924944Y-9024460D02*
X12915420Y-8976841D01*
X12915420Y-8976841D02*
X12915420Y-8938746D01*
X12915420Y-8938746D02*
X12924944Y-8891127D01*
X12924944Y-8891127D02*
X12934468Y-8862555D01*
X12934468Y-8862555D02*
X12943991Y-8843508D01*
X12943991Y-8843508D02*
X12963039Y-8814936D01*
X12963039Y-8814936D02*
X12972563Y-8805412D01*
X13029706Y-8833984D02*
X13153515Y-8833984D01*
X13153515Y-8833984D02*
X13086848Y-8910174D01*
X13086848Y-8910174D02*
X13115420Y-8910174D01*
X13115420Y-8910174D02*
X13134468Y-8919698D01*
X13134468Y-8919698D02*
X13143991Y-8929222D01*
X13143991Y-8929222D02*
X13153515Y-8948270D01*
X13153515Y-8948270D02*
X13153515Y-8995889D01*
X13153515Y-8995889D02*
X13143991Y-9014936D01*
X13143991Y-9014936D02*
X13134468Y-9024460D01*
X13134468Y-9024460D02*
X13115420Y-9033984D01*
X13115420Y-9033984D02*
X13058277Y-9033984D01*
X13058277Y-9033984D02*
X13039229Y-9024460D01*
X13039229Y-9024460D02*
X13029706Y-9014936D01*
X13248753Y-9033984D02*
X13286848Y-9033984D01*
X13286848Y-9033984D02*
X13305896Y-9024460D01*
X13305896Y-9024460D02*
X13315420Y-9014936D01*
X13315420Y-9014936D02*
X13334468Y-8986365D01*
X13334468Y-8986365D02*
X13343991Y-8948270D01*
X13343991Y-8948270D02*
X13343991Y-8872079D01*
X13343991Y-8872079D02*
X13334468Y-8853031D01*
X13334468Y-8853031D02*
X13324944Y-8843508D01*
X13324944Y-8843508D02*
X13305896Y-8833984D01*
X13305896Y-8833984D02*
X13267801Y-8833984D01*
X13267801Y-8833984D02*
X13248753Y-8843508D01*
X13248753Y-8843508D02*
X13239229Y-8853031D01*
X13239229Y-8853031D02*
X13229706Y-8872079D01*
X13229706Y-8872079D02*
X13229706Y-8919698D01*
X13229706Y-8919698D02*
X13239229Y-8938746D01*
X13239229Y-8938746D02*
X13248753Y-8948270D01*
X13248753Y-8948270D02*
X13267801Y-8957793D01*
X13267801Y-8957793D02*
X13305896Y-8957793D01*
X13305896Y-8957793D02*
X13324944Y-8948270D01*
X13324944Y-8948270D02*
X13334468Y-8938746D01*
X13334468Y-8938746D02*
X13343991Y-8919698D01*
X13582087Y-9033984D02*
X13582087Y-8833984D01*
X13667801Y-9033984D02*
X13667801Y-8929222D01*
X13667801Y-8929222D02*
X13658277Y-8910174D01*
X13658277Y-8910174D02*
X13639230Y-8900650D01*
X13639230Y-8900650D02*
X13610658Y-8900650D01*
X13610658Y-8900650D02*
X13591610Y-8910174D01*
X13591610Y-8910174D02*
X13582087Y-8919698D01*
X13791610Y-9033984D02*
X13772563Y-9024460D01*
X13772563Y-9024460D02*
X13763039Y-9014936D01*
X13763039Y-9014936D02*
X13753515Y-8995889D01*
X13753515Y-8995889D02*
X13753515Y-8938746D01*
X13753515Y-8938746D02*
X13763039Y-8919698D01*
X13763039Y-8919698D02*
X13772563Y-8910174D01*
X13772563Y-8910174D02*
X13791610Y-8900650D01*
X13791610Y-8900650D02*
X13820182Y-8900650D01*
X13820182Y-8900650D02*
X13839230Y-8910174D01*
X13839230Y-8910174D02*
X13848753Y-8919698D01*
X13848753Y-8919698D02*
X13858277Y-8938746D01*
X13858277Y-8938746D02*
X13858277Y-8995889D01*
X13858277Y-8995889D02*
X13848753Y-9014936D01*
X13848753Y-9014936D02*
X13839230Y-9024460D01*
X13839230Y-9024460D02*
X13820182Y-9033984D01*
X13820182Y-9033984D02*
X13791610Y-9033984D01*
X13972563Y-9033984D02*
X13953515Y-9024460D01*
X13953515Y-9024460D02*
X13943991Y-9005412D01*
X13943991Y-9005412D02*
X13943991Y-8833984D01*
X14124944Y-9024460D02*
X14105896Y-9033984D01*
X14105896Y-9033984D02*
X14067801Y-9033984D01*
X14067801Y-9033984D02*
X14048753Y-9024460D01*
X14048753Y-9024460D02*
X14039230Y-9005412D01*
X14039230Y-9005412D02*
X14039230Y-8929222D01*
X14039230Y-8929222D02*
X14048753Y-8910174D01*
X14048753Y-8910174D02*
X14067801Y-8900650D01*
X14067801Y-8900650D02*
X14105896Y-8900650D01*
X14105896Y-8900650D02*
X14124944Y-8910174D01*
X14124944Y-8910174D02*
X14134468Y-8929222D01*
X14134468Y-8929222D02*
X14134468Y-8948270D01*
X14134468Y-8948270D02*
X14039230Y-8967317D01*
X14210658Y-9024460D02*
X14229706Y-9033984D01*
X14229706Y-9033984D02*
X14267801Y-9033984D01*
X14267801Y-9033984D02*
X14286849Y-9024460D01*
X14286849Y-9024460D02*
X14296372Y-9005412D01*
X14296372Y-9005412D02*
X14296372Y-8995889D01*
X14296372Y-8995889D02*
X14286849Y-8976841D01*
X14286849Y-8976841D02*
X14267801Y-8967317D01*
X14267801Y-8967317D02*
X14239230Y-8967317D01*
X14239230Y-8967317D02*
X14220182Y-8957793D01*
X14220182Y-8957793D02*
X14210658Y-8938746D01*
X14210658Y-8938746D02*
X14210658Y-8929222D01*
X14210658Y-8929222D02*
X14220182Y-8910174D01*
X14220182Y-8910174D02*
X14239230Y-8900650D01*
X14239230Y-8900650D02*
X14267801Y-8900650D01*
X14267801Y-8900650D02*
X14286849Y-8910174D01*
X14363039Y-9110174D02*
X14372563Y-9100650D01*
X14372563Y-9100650D02*
X14391611Y-9072079D01*
X14391611Y-9072079D02*
X14401134Y-9053031D01*
X14401134Y-9053031D02*
X14410658Y-9024460D01*
X14410658Y-9024460D02*
X14420182Y-8976841D01*
X14420182Y-8976841D02*
X14420182Y-8938746D01*
X14420182Y-8938746D02*
X14410658Y-8891127D01*
X14410658Y-8891127D02*
X14401134Y-8862555D01*
X14401134Y-8862555D02*
X14391611Y-8843508D01*
X14391611Y-8843508D02*
X14372563Y-8814936D01*
X14372563Y-8814936D02*
X14363039Y-8805412D01*
D12*
X9397500Y-9206500D02*
G75*
G02*
X9367500Y-9206500I-15000J0D01*
G01*
X9367500Y-9206500D02*
G75*
G02*
X9397500Y-9206500I15000J0D01*
G01*
D11*
X9696372Y-9097984D02*
X9715420Y-9097984D01*
X9715420Y-9097984D02*
X9734467Y-9107508D01*
X9734467Y-9107508D02*
X9743991Y-9117031D01*
X9743991Y-9117031D02*
X9753515Y-9136079D01*
X9753515Y-9136079D02*
X9763039Y-9174174D01*
X9763039Y-9174174D02*
X9763039Y-9221793D01*
X9763039Y-9221793D02*
X9753515Y-9259889D01*
X9753515Y-9259889D02*
X9743991Y-9278936D01*
X9743991Y-9278936D02*
X9734467Y-9288460D01*
X9734467Y-9288460D02*
X9715420Y-9297984D01*
X9715420Y-9297984D02*
X9696372Y-9297984D01*
X9696372Y-9297984D02*
X9677324Y-9288460D01*
X9677324Y-9288460D02*
X9667801Y-9278936D01*
X9667801Y-9278936D02*
X9658277Y-9259889D01*
X9658277Y-9259889D02*
X9648753Y-9221793D01*
X9648753Y-9221793D02*
X9648753Y-9174174D01*
X9648753Y-9174174D02*
X9658277Y-9136079D01*
X9658277Y-9136079D02*
X9667801Y-9117031D01*
X9667801Y-9117031D02*
X9677324Y-9107508D01*
X9677324Y-9107508D02*
X9696372Y-9097984D01*
X9848753Y-9278936D02*
X9858277Y-9288460D01*
X9858277Y-9288460D02*
X9848753Y-9297984D01*
X9848753Y-9297984D02*
X9839229Y-9288460D01*
X9839229Y-9288460D02*
X9848753Y-9278936D01*
X9848753Y-9278936D02*
X9848753Y-9297984D01*
X9924944Y-9097984D02*
X10048753Y-9097984D01*
X10048753Y-9097984D02*
X9982086Y-9174174D01*
X9982086Y-9174174D02*
X10010658Y-9174174D01*
X10010658Y-9174174D02*
X10029705Y-9183698D01*
X10029705Y-9183698D02*
X10039229Y-9193222D01*
X10039229Y-9193222D02*
X10048753Y-9212270D01*
X10048753Y-9212270D02*
X10048753Y-9259889D01*
X10048753Y-9259889D02*
X10039229Y-9278936D01*
X10039229Y-9278936D02*
X10029705Y-9288460D01*
X10029705Y-9288460D02*
X10010658Y-9297984D01*
X10010658Y-9297984D02*
X9953515Y-9297984D01*
X9953515Y-9297984D02*
X9934467Y-9288460D01*
X9934467Y-9288460D02*
X9924944Y-9278936D01*
X10172563Y-9097984D02*
X10191610Y-9097984D01*
X10191610Y-9097984D02*
X10210658Y-9107508D01*
X10210658Y-9107508D02*
X10220182Y-9117031D01*
X10220182Y-9117031D02*
X10229705Y-9136079D01*
X10229705Y-9136079D02*
X10239229Y-9174174D01*
X10239229Y-9174174D02*
X10239229Y-9221793D01*
X10239229Y-9221793D02*
X10229705Y-9259889D01*
X10229705Y-9259889D02*
X10220182Y-9278936D01*
X10220182Y-9278936D02*
X10210658Y-9288460D01*
X10210658Y-9288460D02*
X10191610Y-9297984D01*
X10191610Y-9297984D02*
X10172563Y-9297984D01*
X10172563Y-9297984D02*
X10153515Y-9288460D01*
X10153515Y-9288460D02*
X10143991Y-9278936D01*
X10143991Y-9278936D02*
X10134467Y-9259889D01*
X10134467Y-9259889D02*
X10124944Y-9221793D01*
X10124944Y-9221793D02*
X10124944Y-9174174D01*
X10124944Y-9174174D02*
X10134467Y-9136079D01*
X10134467Y-9136079D02*
X10143991Y-9117031D01*
X10143991Y-9117031D02*
X10153515Y-9107508D01*
X10153515Y-9107508D02*
X10172563Y-9097984D01*
X10363039Y-9097984D02*
X10382086Y-9097984D01*
X10382086Y-9097984D02*
X10401134Y-9107508D01*
X10401134Y-9107508D02*
X10410658Y-9117031D01*
X10410658Y-9117031D02*
X10420182Y-9136079D01*
X10420182Y-9136079D02*
X10429705Y-9174174D01*
X10429705Y-9174174D02*
X10429705Y-9221793D01*
X10429705Y-9221793D02*
X10420182Y-9259889D01*
X10420182Y-9259889D02*
X10410658Y-9278936D01*
X10410658Y-9278936D02*
X10401134Y-9288460D01*
X10401134Y-9288460D02*
X10382086Y-9297984D01*
X10382086Y-9297984D02*
X10363039Y-9297984D01*
X10363039Y-9297984D02*
X10343991Y-9288460D01*
X10343991Y-9288460D02*
X10334467Y-9278936D01*
X10334467Y-9278936D02*
X10324944Y-9259889D01*
X10324944Y-9259889D02*
X10315420Y-9221793D01*
X10315420Y-9221793D02*
X10315420Y-9174174D01*
X10315420Y-9174174D02*
X10324944Y-9136079D01*
X10324944Y-9136079D02*
X10334467Y-9117031D01*
X10334467Y-9117031D02*
X10343991Y-9107508D01*
X10343991Y-9107508D02*
X10363039Y-9097984D01*
X10515420Y-9297984D02*
X10515420Y-9164650D01*
X10515420Y-9183698D02*
X10524944Y-9174174D01*
X10524944Y-9174174D02*
X10543991Y-9164650D01*
X10543991Y-9164650D02*
X10572563Y-9164650D01*
X10572563Y-9164650D02*
X10591610Y-9174174D01*
X10591610Y-9174174D02*
X10601134Y-9193222D01*
X10601134Y-9193222D02*
X10601134Y-9297984D01*
X10601134Y-9193222D02*
X10610658Y-9174174D01*
X10610658Y-9174174D02*
X10629705Y-9164650D01*
X10629705Y-9164650D02*
X10658277Y-9164650D01*
X10658277Y-9164650D02*
X10677325Y-9174174D01*
X10677325Y-9174174D02*
X10686848Y-9193222D01*
X10686848Y-9193222D02*
X10686848Y-9297984D01*
X10782086Y-9297984D02*
X10782086Y-9164650D01*
X10782086Y-9183698D02*
X10791610Y-9174174D01*
X10791610Y-9174174D02*
X10810658Y-9164650D01*
X10810658Y-9164650D02*
X10839229Y-9164650D01*
X10839229Y-9164650D02*
X10858277Y-9174174D01*
X10858277Y-9174174D02*
X10867801Y-9193222D01*
X10867801Y-9193222D02*
X10867801Y-9297984D01*
X10867801Y-9193222D02*
X10877325Y-9174174D01*
X10877325Y-9174174D02*
X10896372Y-9164650D01*
X10896372Y-9164650D02*
X10924944Y-9164650D01*
X10924944Y-9164650D02*
X10943991Y-9174174D01*
X10943991Y-9174174D02*
X10953515Y-9193222D01*
X10953515Y-9193222D02*
X10953515Y-9297984D01*
X11343991Y-9088460D02*
X11172563Y-9345603D01*
X11601134Y-9097984D02*
X11620182Y-9097984D01*
X11620182Y-9097984D02*
X11639229Y-9107508D01*
X11639229Y-9107508D02*
X11648753Y-9117031D01*
X11648753Y-9117031D02*
X11658277Y-9136079D01*
X11658277Y-9136079D02*
X11667801Y-9174174D01*
X11667801Y-9174174D02*
X11667801Y-9221793D01*
X11667801Y-9221793D02*
X11658277Y-9259889D01*
X11658277Y-9259889D02*
X11648753Y-9278936D01*
X11648753Y-9278936D02*
X11639229Y-9288460D01*
X11639229Y-9288460D02*
X11620182Y-9297984D01*
X11620182Y-9297984D02*
X11601134Y-9297984D01*
X11601134Y-9297984D02*
X11582086Y-9288460D01*
X11582086Y-9288460D02*
X11572563Y-9278936D01*
X11572563Y-9278936D02*
X11563039Y-9259889D01*
X11563039Y-9259889D02*
X11553515Y-9221793D01*
X11553515Y-9221793D02*
X11553515Y-9174174D01*
X11553515Y-9174174D02*
X11563039Y-9136079D01*
X11563039Y-9136079D02*
X11572563Y-9117031D01*
X11572563Y-9117031D02*
X11582086Y-9107508D01*
X11582086Y-9107508D02*
X11601134Y-9097984D01*
X11753515Y-9278936D02*
X11763039Y-9288460D01*
X11763039Y-9288460D02*
X11753515Y-9297984D01*
X11753515Y-9297984D02*
X11743991Y-9288460D01*
X11743991Y-9288460D02*
X11753515Y-9278936D01*
X11753515Y-9278936D02*
X11753515Y-9297984D01*
X11886848Y-9097984D02*
X11905896Y-9097984D01*
X11905896Y-9097984D02*
X11924944Y-9107508D01*
X11924944Y-9107508D02*
X11934467Y-9117031D01*
X11934467Y-9117031D02*
X11943991Y-9136079D01*
X11943991Y-9136079D02*
X11953515Y-9174174D01*
X11953515Y-9174174D02*
X11953515Y-9221793D01*
X11953515Y-9221793D02*
X11943991Y-9259889D01*
X11943991Y-9259889D02*
X11934467Y-9278936D01*
X11934467Y-9278936D02*
X11924944Y-9288460D01*
X11924944Y-9288460D02*
X11905896Y-9297984D01*
X11905896Y-9297984D02*
X11886848Y-9297984D01*
X11886848Y-9297984D02*
X11867801Y-9288460D01*
X11867801Y-9288460D02*
X11858277Y-9278936D01*
X11858277Y-9278936D02*
X11848753Y-9259889D01*
X11848753Y-9259889D02*
X11839229Y-9221793D01*
X11839229Y-9221793D02*
X11839229Y-9174174D01*
X11839229Y-9174174D02*
X11848753Y-9136079D01*
X11848753Y-9136079D02*
X11858277Y-9117031D01*
X11858277Y-9117031D02*
X11867801Y-9107508D01*
X11867801Y-9107508D02*
X11886848Y-9097984D01*
X12143991Y-9297984D02*
X12029706Y-9297984D01*
X12086848Y-9297984D02*
X12086848Y-9097984D01*
X12086848Y-9097984D02*
X12067801Y-9126555D01*
X12067801Y-9126555D02*
X12048753Y-9145603D01*
X12048753Y-9145603D02*
X12029706Y-9155127D01*
X12334467Y-9297984D02*
X12220182Y-9297984D01*
X12277325Y-9297984D02*
X12277325Y-9097984D01*
X12277325Y-9097984D02*
X12258277Y-9126555D01*
X12258277Y-9126555D02*
X12239229Y-9145603D01*
X12239229Y-9145603D02*
X12220182Y-9155127D01*
X12448753Y-9183698D02*
X12429706Y-9174174D01*
X12429706Y-9174174D02*
X12420182Y-9164650D01*
X12420182Y-9164650D02*
X12410658Y-9145603D01*
X12410658Y-9145603D02*
X12410658Y-9136079D01*
X12410658Y-9136079D02*
X12420182Y-9117031D01*
X12420182Y-9117031D02*
X12429706Y-9107508D01*
X12429706Y-9107508D02*
X12448753Y-9097984D01*
X12448753Y-9097984D02*
X12486848Y-9097984D01*
X12486848Y-9097984D02*
X12505896Y-9107508D01*
X12505896Y-9107508D02*
X12515420Y-9117031D01*
X12515420Y-9117031D02*
X12524944Y-9136079D01*
X12524944Y-9136079D02*
X12524944Y-9145603D01*
X12524944Y-9145603D02*
X12515420Y-9164650D01*
X12515420Y-9164650D02*
X12505896Y-9174174D01*
X12505896Y-9174174D02*
X12486848Y-9183698D01*
X12486848Y-9183698D02*
X12448753Y-9183698D01*
X12448753Y-9183698D02*
X12429706Y-9193222D01*
X12429706Y-9193222D02*
X12420182Y-9202746D01*
X12420182Y-9202746D02*
X12410658Y-9221793D01*
X12410658Y-9221793D02*
X12410658Y-9259889D01*
X12410658Y-9259889D02*
X12420182Y-9278936D01*
X12420182Y-9278936D02*
X12429706Y-9288460D01*
X12429706Y-9288460D02*
X12448753Y-9297984D01*
X12448753Y-9297984D02*
X12486848Y-9297984D01*
X12486848Y-9297984D02*
X12505896Y-9288460D01*
X12505896Y-9288460D02*
X12515420Y-9278936D01*
X12515420Y-9278936D02*
X12524944Y-9259889D01*
X12524944Y-9259889D02*
X12524944Y-9221793D01*
X12524944Y-9221793D02*
X12515420Y-9202746D01*
X12515420Y-9202746D02*
X12505896Y-9193222D01*
X12505896Y-9193222D02*
X12486848Y-9183698D01*
X12601134Y-9097984D02*
X12601134Y-9136079D01*
X12677325Y-9097984D02*
X12677325Y-9136079D01*
X12972563Y-9374174D02*
X12963039Y-9364650D01*
X12963039Y-9364650D02*
X12943991Y-9336079D01*
X12943991Y-9336079D02*
X12934468Y-9317031D01*
X12934468Y-9317031D02*
X12924944Y-9288460D01*
X12924944Y-9288460D02*
X12915420Y-9240841D01*
X12915420Y-9240841D02*
X12915420Y-9202746D01*
X12915420Y-9202746D02*
X12924944Y-9155127D01*
X12924944Y-9155127D02*
X12934468Y-9126555D01*
X12934468Y-9126555D02*
X12943991Y-9107508D01*
X12943991Y-9107508D02*
X12963039Y-9078936D01*
X12963039Y-9078936D02*
X12972563Y-9069412D01*
X13153515Y-9297984D02*
X13039229Y-9297984D01*
X13096372Y-9297984D02*
X13096372Y-9097984D01*
X13096372Y-9097984D02*
X13077325Y-9126555D01*
X13077325Y-9126555D02*
X13058277Y-9145603D01*
X13058277Y-9145603D02*
X13039229Y-9155127D01*
X13229706Y-9117031D02*
X13239229Y-9107508D01*
X13239229Y-9107508D02*
X13258277Y-9097984D01*
X13258277Y-9097984D02*
X13305896Y-9097984D01*
X13305896Y-9097984D02*
X13324944Y-9107508D01*
X13324944Y-9107508D02*
X13334468Y-9117031D01*
X13334468Y-9117031D02*
X13343991Y-9136079D01*
X13343991Y-9136079D02*
X13343991Y-9155127D01*
X13343991Y-9155127D02*
X13334468Y-9183698D01*
X13334468Y-9183698D02*
X13220182Y-9297984D01*
X13220182Y-9297984D02*
X13343991Y-9297984D01*
X13582087Y-9297984D02*
X13582087Y-9097984D01*
X13667801Y-9297984D02*
X13667801Y-9193222D01*
X13667801Y-9193222D02*
X13658277Y-9174174D01*
X13658277Y-9174174D02*
X13639230Y-9164650D01*
X13639230Y-9164650D02*
X13610658Y-9164650D01*
X13610658Y-9164650D02*
X13591610Y-9174174D01*
X13591610Y-9174174D02*
X13582087Y-9183698D01*
X13791610Y-9297984D02*
X13772563Y-9288460D01*
X13772563Y-9288460D02*
X13763039Y-9278936D01*
X13763039Y-9278936D02*
X13753515Y-9259889D01*
X13753515Y-9259889D02*
X13753515Y-9202746D01*
X13753515Y-9202746D02*
X13763039Y-9183698D01*
X13763039Y-9183698D02*
X13772563Y-9174174D01*
X13772563Y-9174174D02*
X13791610Y-9164650D01*
X13791610Y-9164650D02*
X13820182Y-9164650D01*
X13820182Y-9164650D02*
X13839230Y-9174174D01*
X13839230Y-9174174D02*
X13848753Y-9183698D01*
X13848753Y-9183698D02*
X13858277Y-9202746D01*
X13858277Y-9202746D02*
X13858277Y-9259889D01*
X13858277Y-9259889D02*
X13848753Y-9278936D01*
X13848753Y-9278936D02*
X13839230Y-9288460D01*
X13839230Y-9288460D02*
X13820182Y-9297984D01*
X13820182Y-9297984D02*
X13791610Y-9297984D01*
X13972563Y-9297984D02*
X13953515Y-9288460D01*
X13953515Y-9288460D02*
X13943991Y-9269412D01*
X13943991Y-9269412D02*
X13943991Y-9097984D01*
X14124944Y-9288460D02*
X14105896Y-9297984D01*
X14105896Y-9297984D02*
X14067801Y-9297984D01*
X14067801Y-9297984D02*
X14048753Y-9288460D01*
X14048753Y-9288460D02*
X14039230Y-9269412D01*
X14039230Y-9269412D02*
X14039230Y-9193222D01*
X14039230Y-9193222D02*
X14048753Y-9174174D01*
X14048753Y-9174174D02*
X14067801Y-9164650D01*
X14067801Y-9164650D02*
X14105896Y-9164650D01*
X14105896Y-9164650D02*
X14124944Y-9174174D01*
X14124944Y-9174174D02*
X14134468Y-9193222D01*
X14134468Y-9193222D02*
X14134468Y-9212270D01*
X14134468Y-9212270D02*
X14039230Y-9231317D01*
X14210658Y-9288460D02*
X14229706Y-9297984D01*
X14229706Y-9297984D02*
X14267801Y-9297984D01*
X14267801Y-9297984D02*
X14286849Y-9288460D01*
X14286849Y-9288460D02*
X14296372Y-9269412D01*
X14296372Y-9269412D02*
X14296372Y-9259889D01*
X14296372Y-9259889D02*
X14286849Y-9240841D01*
X14286849Y-9240841D02*
X14267801Y-9231317D01*
X14267801Y-9231317D02*
X14239230Y-9231317D01*
X14239230Y-9231317D02*
X14220182Y-9221793D01*
X14220182Y-9221793D02*
X14210658Y-9202746D01*
X14210658Y-9202746D02*
X14210658Y-9193222D01*
X14210658Y-9193222D02*
X14220182Y-9174174D01*
X14220182Y-9174174D02*
X14239230Y-9164650D01*
X14239230Y-9164650D02*
X14267801Y-9164650D01*
X14267801Y-9164650D02*
X14286849Y-9174174D01*
X14363039Y-9374174D02*
X14372563Y-9364650D01*
X14372563Y-9364650D02*
X14391611Y-9336079D01*
X14391611Y-9336079D02*
X14401134Y-9317031D01*
X14401134Y-9317031D02*
X14410658Y-9288460D01*
X14410658Y-9288460D02*
X14420182Y-9240841D01*
X14420182Y-9240841D02*
X14420182Y-9202746D01*
X14420182Y-9202746D02*
X14410658Y-9155127D01*
X14410658Y-9155127D02*
X14401134Y-9126555D01*
X14401134Y-9126555D02*
X14391611Y-9107508D01*
X14391611Y-9107508D02*
X14372563Y-9078936D01*
X14372563Y-9078936D02*
X14363039Y-9069412D01*
D12*
X9347500Y-9420500D02*
X9347500Y-9520500D01*
X9297500Y-9470500D02*
X9397500Y-9470500D01*
D11*
X9763039Y-9561984D02*
X9648753Y-9561984D01*
X9705896Y-9561984D02*
X9705896Y-9361984D01*
X9705896Y-9361984D02*
X9686848Y-9390555D01*
X9686848Y-9390555D02*
X9667801Y-9409603D01*
X9667801Y-9409603D02*
X9648753Y-9419127D01*
X9848753Y-9542936D02*
X9858277Y-9552460D01*
X9858277Y-9552460D02*
X9848753Y-9561984D01*
X9848753Y-9561984D02*
X9839229Y-9552460D01*
X9839229Y-9552460D02*
X9848753Y-9542936D01*
X9848753Y-9542936D02*
X9848753Y-9561984D01*
X9982086Y-9361984D02*
X10001134Y-9361984D01*
X10001134Y-9361984D02*
X10020182Y-9371508D01*
X10020182Y-9371508D02*
X10029705Y-9381031D01*
X10029705Y-9381031D02*
X10039229Y-9400079D01*
X10039229Y-9400079D02*
X10048753Y-9438174D01*
X10048753Y-9438174D02*
X10048753Y-9485793D01*
X10048753Y-9485793D02*
X10039229Y-9523889D01*
X10039229Y-9523889D02*
X10029705Y-9542936D01*
X10029705Y-9542936D02*
X10020182Y-9552460D01*
X10020182Y-9552460D02*
X10001134Y-9561984D01*
X10001134Y-9561984D02*
X9982086Y-9561984D01*
X9982086Y-9561984D02*
X9963039Y-9552460D01*
X9963039Y-9552460D02*
X9953515Y-9542936D01*
X9953515Y-9542936D02*
X9943991Y-9523889D01*
X9943991Y-9523889D02*
X9934467Y-9485793D01*
X9934467Y-9485793D02*
X9934467Y-9438174D01*
X9934467Y-9438174D02*
X9943991Y-9400079D01*
X9943991Y-9400079D02*
X9953515Y-9381031D01*
X9953515Y-9381031D02*
X9963039Y-9371508D01*
X9963039Y-9371508D02*
X9982086Y-9361984D01*
X10172563Y-9361984D02*
X10191610Y-9361984D01*
X10191610Y-9361984D02*
X10210658Y-9371508D01*
X10210658Y-9371508D02*
X10220182Y-9381031D01*
X10220182Y-9381031D02*
X10229705Y-9400079D01*
X10229705Y-9400079D02*
X10239229Y-9438174D01*
X10239229Y-9438174D02*
X10239229Y-9485793D01*
X10239229Y-9485793D02*
X10229705Y-9523889D01*
X10229705Y-9523889D02*
X10220182Y-9542936D01*
X10220182Y-9542936D02*
X10210658Y-9552460D01*
X10210658Y-9552460D02*
X10191610Y-9561984D01*
X10191610Y-9561984D02*
X10172563Y-9561984D01*
X10172563Y-9561984D02*
X10153515Y-9552460D01*
X10153515Y-9552460D02*
X10143991Y-9542936D01*
X10143991Y-9542936D02*
X10134467Y-9523889D01*
X10134467Y-9523889D02*
X10124944Y-9485793D01*
X10124944Y-9485793D02*
X10124944Y-9438174D01*
X10124944Y-9438174D02*
X10134467Y-9400079D01*
X10134467Y-9400079D02*
X10143991Y-9381031D01*
X10143991Y-9381031D02*
X10153515Y-9371508D01*
X10153515Y-9371508D02*
X10172563Y-9361984D01*
X10363039Y-9361984D02*
X10382086Y-9361984D01*
X10382086Y-9361984D02*
X10401134Y-9371508D01*
X10401134Y-9371508D02*
X10410658Y-9381031D01*
X10410658Y-9381031D02*
X10420182Y-9400079D01*
X10420182Y-9400079D02*
X10429705Y-9438174D01*
X10429705Y-9438174D02*
X10429705Y-9485793D01*
X10429705Y-9485793D02*
X10420182Y-9523889D01*
X10420182Y-9523889D02*
X10410658Y-9542936D01*
X10410658Y-9542936D02*
X10401134Y-9552460D01*
X10401134Y-9552460D02*
X10382086Y-9561984D01*
X10382086Y-9561984D02*
X10363039Y-9561984D01*
X10363039Y-9561984D02*
X10343991Y-9552460D01*
X10343991Y-9552460D02*
X10334467Y-9542936D01*
X10334467Y-9542936D02*
X10324944Y-9523889D01*
X10324944Y-9523889D02*
X10315420Y-9485793D01*
X10315420Y-9485793D02*
X10315420Y-9438174D01*
X10315420Y-9438174D02*
X10324944Y-9400079D01*
X10324944Y-9400079D02*
X10334467Y-9381031D01*
X10334467Y-9381031D02*
X10343991Y-9371508D01*
X10343991Y-9371508D02*
X10363039Y-9361984D01*
X10515420Y-9561984D02*
X10515420Y-9428650D01*
X10515420Y-9447698D02*
X10524944Y-9438174D01*
X10524944Y-9438174D02*
X10543991Y-9428650D01*
X10543991Y-9428650D02*
X10572563Y-9428650D01*
X10572563Y-9428650D02*
X10591610Y-9438174D01*
X10591610Y-9438174D02*
X10601134Y-9457222D01*
X10601134Y-9457222D02*
X10601134Y-9561984D01*
X10601134Y-9457222D02*
X10610658Y-9438174D01*
X10610658Y-9438174D02*
X10629705Y-9428650D01*
X10629705Y-9428650D02*
X10658277Y-9428650D01*
X10658277Y-9428650D02*
X10677325Y-9438174D01*
X10677325Y-9438174D02*
X10686848Y-9457222D01*
X10686848Y-9457222D02*
X10686848Y-9561984D01*
X10782086Y-9561984D02*
X10782086Y-9428650D01*
X10782086Y-9447698D02*
X10791610Y-9438174D01*
X10791610Y-9438174D02*
X10810658Y-9428650D01*
X10810658Y-9428650D02*
X10839229Y-9428650D01*
X10839229Y-9428650D02*
X10858277Y-9438174D01*
X10858277Y-9438174D02*
X10867801Y-9457222D01*
X10867801Y-9457222D02*
X10867801Y-9561984D01*
X10867801Y-9457222D02*
X10877325Y-9438174D01*
X10877325Y-9438174D02*
X10896372Y-9428650D01*
X10896372Y-9428650D02*
X10924944Y-9428650D01*
X10924944Y-9428650D02*
X10943991Y-9438174D01*
X10943991Y-9438174D02*
X10953515Y-9457222D01*
X10953515Y-9457222D02*
X10953515Y-9561984D01*
X11343991Y-9352460D02*
X11172563Y-9609603D01*
X11601134Y-9361984D02*
X11620182Y-9361984D01*
X11620182Y-9361984D02*
X11639229Y-9371508D01*
X11639229Y-9371508D02*
X11648753Y-9381031D01*
X11648753Y-9381031D02*
X11658277Y-9400079D01*
X11658277Y-9400079D02*
X11667801Y-9438174D01*
X11667801Y-9438174D02*
X11667801Y-9485793D01*
X11667801Y-9485793D02*
X11658277Y-9523889D01*
X11658277Y-9523889D02*
X11648753Y-9542936D01*
X11648753Y-9542936D02*
X11639229Y-9552460D01*
X11639229Y-9552460D02*
X11620182Y-9561984D01*
X11620182Y-9561984D02*
X11601134Y-9561984D01*
X11601134Y-9561984D02*
X11582086Y-9552460D01*
X11582086Y-9552460D02*
X11572563Y-9542936D01*
X11572563Y-9542936D02*
X11563039Y-9523889D01*
X11563039Y-9523889D02*
X11553515Y-9485793D01*
X11553515Y-9485793D02*
X11553515Y-9438174D01*
X11553515Y-9438174D02*
X11563039Y-9400079D01*
X11563039Y-9400079D02*
X11572563Y-9381031D01*
X11572563Y-9381031D02*
X11582086Y-9371508D01*
X11582086Y-9371508D02*
X11601134Y-9361984D01*
X11753515Y-9542936D02*
X11763039Y-9552460D01*
X11763039Y-9552460D02*
X11753515Y-9561984D01*
X11753515Y-9561984D02*
X11743991Y-9552460D01*
X11743991Y-9552460D02*
X11753515Y-9542936D01*
X11753515Y-9542936D02*
X11753515Y-9561984D01*
X11886848Y-9361984D02*
X11905896Y-9361984D01*
X11905896Y-9361984D02*
X11924944Y-9371508D01*
X11924944Y-9371508D02*
X11934467Y-9381031D01*
X11934467Y-9381031D02*
X11943991Y-9400079D01*
X11943991Y-9400079D02*
X11953515Y-9438174D01*
X11953515Y-9438174D02*
X11953515Y-9485793D01*
X11953515Y-9485793D02*
X11943991Y-9523889D01*
X11943991Y-9523889D02*
X11934467Y-9542936D01*
X11934467Y-9542936D02*
X11924944Y-9552460D01*
X11924944Y-9552460D02*
X11905896Y-9561984D01*
X11905896Y-9561984D02*
X11886848Y-9561984D01*
X11886848Y-9561984D02*
X11867801Y-9552460D01*
X11867801Y-9552460D02*
X11858277Y-9542936D01*
X11858277Y-9542936D02*
X11848753Y-9523889D01*
X11848753Y-9523889D02*
X11839229Y-9485793D01*
X11839229Y-9485793D02*
X11839229Y-9438174D01*
X11839229Y-9438174D02*
X11848753Y-9400079D01*
X11848753Y-9400079D02*
X11858277Y-9381031D01*
X11858277Y-9381031D02*
X11867801Y-9371508D01*
X11867801Y-9371508D02*
X11886848Y-9361984D01*
X12020182Y-9361984D02*
X12143991Y-9361984D01*
X12143991Y-9361984D02*
X12077325Y-9438174D01*
X12077325Y-9438174D02*
X12105896Y-9438174D01*
X12105896Y-9438174D02*
X12124944Y-9447698D01*
X12124944Y-9447698D02*
X12134467Y-9457222D01*
X12134467Y-9457222D02*
X12143991Y-9476270D01*
X12143991Y-9476270D02*
X12143991Y-9523889D01*
X12143991Y-9523889D02*
X12134467Y-9542936D01*
X12134467Y-9542936D02*
X12124944Y-9552460D01*
X12124944Y-9552460D02*
X12105896Y-9561984D01*
X12105896Y-9561984D02*
X12048753Y-9561984D01*
X12048753Y-9561984D02*
X12029706Y-9552460D01*
X12029706Y-9552460D02*
X12020182Y-9542936D01*
X12239229Y-9561984D02*
X12277325Y-9561984D01*
X12277325Y-9561984D02*
X12296372Y-9552460D01*
X12296372Y-9552460D02*
X12305896Y-9542936D01*
X12305896Y-9542936D02*
X12324944Y-9514365D01*
X12324944Y-9514365D02*
X12334467Y-9476270D01*
X12334467Y-9476270D02*
X12334467Y-9400079D01*
X12334467Y-9400079D02*
X12324944Y-9381031D01*
X12324944Y-9381031D02*
X12315420Y-9371508D01*
X12315420Y-9371508D02*
X12296372Y-9361984D01*
X12296372Y-9361984D02*
X12258277Y-9361984D01*
X12258277Y-9361984D02*
X12239229Y-9371508D01*
X12239229Y-9371508D02*
X12229706Y-9381031D01*
X12229706Y-9381031D02*
X12220182Y-9400079D01*
X12220182Y-9400079D02*
X12220182Y-9447698D01*
X12220182Y-9447698D02*
X12229706Y-9466746D01*
X12229706Y-9466746D02*
X12239229Y-9476270D01*
X12239229Y-9476270D02*
X12258277Y-9485793D01*
X12258277Y-9485793D02*
X12296372Y-9485793D01*
X12296372Y-9485793D02*
X12315420Y-9476270D01*
X12315420Y-9476270D02*
X12324944Y-9466746D01*
X12324944Y-9466746D02*
X12334467Y-9447698D01*
X12505896Y-9428650D02*
X12505896Y-9561984D01*
X12458277Y-9352460D02*
X12410658Y-9495317D01*
X12410658Y-9495317D02*
X12534467Y-9495317D01*
X12601134Y-9361984D02*
X12601134Y-9400079D01*
X12677325Y-9361984D02*
X12677325Y-9400079D01*
X12972563Y-9638174D02*
X12963039Y-9628650D01*
X12963039Y-9628650D02*
X12943991Y-9600079D01*
X12943991Y-9600079D02*
X12934468Y-9581031D01*
X12934468Y-9581031D02*
X12924944Y-9552460D01*
X12924944Y-9552460D02*
X12915420Y-9504841D01*
X12915420Y-9504841D02*
X12915420Y-9466746D01*
X12915420Y-9466746D02*
X12924944Y-9419127D01*
X12924944Y-9419127D02*
X12934468Y-9390555D01*
X12934468Y-9390555D02*
X12943991Y-9371508D01*
X12943991Y-9371508D02*
X12963039Y-9342936D01*
X12963039Y-9342936D02*
X12972563Y-9333412D01*
X13134468Y-9361984D02*
X13096372Y-9361984D01*
X13096372Y-9361984D02*
X13077325Y-9371508D01*
X13077325Y-9371508D02*
X13067801Y-9381031D01*
X13067801Y-9381031D02*
X13048753Y-9409603D01*
X13048753Y-9409603D02*
X13039229Y-9447698D01*
X13039229Y-9447698D02*
X13039229Y-9523889D01*
X13039229Y-9523889D02*
X13048753Y-9542936D01*
X13048753Y-9542936D02*
X13058277Y-9552460D01*
X13058277Y-9552460D02*
X13077325Y-9561984D01*
X13077325Y-9561984D02*
X13115420Y-9561984D01*
X13115420Y-9561984D02*
X13134468Y-9552460D01*
X13134468Y-9552460D02*
X13143991Y-9542936D01*
X13143991Y-9542936D02*
X13153515Y-9523889D01*
X13153515Y-9523889D02*
X13153515Y-9476270D01*
X13153515Y-9476270D02*
X13143991Y-9457222D01*
X13143991Y-9457222D02*
X13134468Y-9447698D01*
X13134468Y-9447698D02*
X13115420Y-9438174D01*
X13115420Y-9438174D02*
X13077325Y-9438174D01*
X13077325Y-9438174D02*
X13058277Y-9447698D01*
X13058277Y-9447698D02*
X13048753Y-9457222D01*
X13048753Y-9457222D02*
X13039229Y-9476270D01*
X13267801Y-9447698D02*
X13248753Y-9438174D01*
X13248753Y-9438174D02*
X13239229Y-9428650D01*
X13239229Y-9428650D02*
X13229706Y-9409603D01*
X13229706Y-9409603D02*
X13229706Y-9400079D01*
X13229706Y-9400079D02*
X13239229Y-9381031D01*
X13239229Y-9381031D02*
X13248753Y-9371508D01*
X13248753Y-9371508D02*
X13267801Y-9361984D01*
X13267801Y-9361984D02*
X13305896Y-9361984D01*
X13305896Y-9361984D02*
X13324944Y-9371508D01*
X13324944Y-9371508D02*
X13334468Y-9381031D01*
X13334468Y-9381031D02*
X13343991Y-9400079D01*
X13343991Y-9400079D02*
X13343991Y-9409603D01*
X13343991Y-9409603D02*
X13334468Y-9428650D01*
X13334468Y-9428650D02*
X13324944Y-9438174D01*
X13324944Y-9438174D02*
X13305896Y-9447698D01*
X13305896Y-9447698D02*
X13267801Y-9447698D01*
X13267801Y-9447698D02*
X13248753Y-9457222D01*
X13248753Y-9457222D02*
X13239229Y-9466746D01*
X13239229Y-9466746D02*
X13229706Y-9485793D01*
X13229706Y-9485793D02*
X13229706Y-9523889D01*
X13229706Y-9523889D02*
X13239229Y-9542936D01*
X13239229Y-9542936D02*
X13248753Y-9552460D01*
X13248753Y-9552460D02*
X13267801Y-9561984D01*
X13267801Y-9561984D02*
X13305896Y-9561984D01*
X13305896Y-9561984D02*
X13324944Y-9552460D01*
X13324944Y-9552460D02*
X13334468Y-9542936D01*
X13334468Y-9542936D02*
X13343991Y-9523889D01*
X13343991Y-9523889D02*
X13343991Y-9485793D01*
X13343991Y-9485793D02*
X13334468Y-9466746D01*
X13334468Y-9466746D02*
X13324944Y-9457222D01*
X13324944Y-9457222D02*
X13305896Y-9447698D01*
X13582087Y-9561984D02*
X13582087Y-9361984D01*
X13667801Y-9561984D02*
X13667801Y-9457222D01*
X13667801Y-9457222D02*
X13658277Y-9438174D01*
X13658277Y-9438174D02*
X13639230Y-9428650D01*
X13639230Y-9428650D02*
X13610658Y-9428650D01*
X13610658Y-9428650D02*
X13591610Y-9438174D01*
X13591610Y-9438174D02*
X13582087Y-9447698D01*
X13791610Y-9561984D02*
X13772563Y-9552460D01*
X13772563Y-9552460D02*
X13763039Y-9542936D01*
X13763039Y-9542936D02*
X13753515Y-9523889D01*
X13753515Y-9523889D02*
X13753515Y-9466746D01*
X13753515Y-9466746D02*
X13763039Y-9447698D01*
X13763039Y-9447698D02*
X13772563Y-9438174D01*
X13772563Y-9438174D02*
X13791610Y-9428650D01*
X13791610Y-9428650D02*
X13820182Y-9428650D01*
X13820182Y-9428650D02*
X13839230Y-9438174D01*
X13839230Y-9438174D02*
X13848753Y-9447698D01*
X13848753Y-9447698D02*
X13858277Y-9466746D01*
X13858277Y-9466746D02*
X13858277Y-9523889D01*
X13858277Y-9523889D02*
X13848753Y-9542936D01*
X13848753Y-9542936D02*
X13839230Y-9552460D01*
X13839230Y-9552460D02*
X13820182Y-9561984D01*
X13820182Y-9561984D02*
X13791610Y-9561984D01*
X13972563Y-9561984D02*
X13953515Y-9552460D01*
X13953515Y-9552460D02*
X13943991Y-9533412D01*
X13943991Y-9533412D02*
X13943991Y-9361984D01*
X14124944Y-9552460D02*
X14105896Y-9561984D01*
X14105896Y-9561984D02*
X14067801Y-9561984D01*
X14067801Y-9561984D02*
X14048753Y-9552460D01*
X14048753Y-9552460D02*
X14039230Y-9533412D01*
X14039230Y-9533412D02*
X14039230Y-9457222D01*
X14039230Y-9457222D02*
X14048753Y-9438174D01*
X14048753Y-9438174D02*
X14067801Y-9428650D01*
X14067801Y-9428650D02*
X14105896Y-9428650D01*
X14105896Y-9428650D02*
X14124944Y-9438174D01*
X14124944Y-9438174D02*
X14134468Y-9457222D01*
X14134468Y-9457222D02*
X14134468Y-9476270D01*
X14134468Y-9476270D02*
X14039230Y-9495317D01*
X14210658Y-9552460D02*
X14229706Y-9561984D01*
X14229706Y-9561984D02*
X14267801Y-9561984D01*
X14267801Y-9561984D02*
X14286849Y-9552460D01*
X14286849Y-9552460D02*
X14296372Y-9533412D01*
X14296372Y-9533412D02*
X14296372Y-9523889D01*
X14296372Y-9523889D02*
X14286849Y-9504841D01*
X14286849Y-9504841D02*
X14267801Y-9495317D01*
X14267801Y-9495317D02*
X14239230Y-9495317D01*
X14239230Y-9495317D02*
X14220182Y-9485793D01*
X14220182Y-9485793D02*
X14210658Y-9466746D01*
X14210658Y-9466746D02*
X14210658Y-9457222D01*
X14210658Y-9457222D02*
X14220182Y-9438174D01*
X14220182Y-9438174D02*
X14239230Y-9428650D01*
X14239230Y-9428650D02*
X14267801Y-9428650D01*
X14267801Y-9428650D02*
X14286849Y-9438174D01*
X14363039Y-9638174D02*
X14372563Y-9628650D01*
X14372563Y-9628650D02*
X14391611Y-9600079D01*
X14391611Y-9600079D02*
X14401134Y-9581031D01*
X14401134Y-9581031D02*
X14410658Y-9552460D01*
X14410658Y-9552460D02*
X14420182Y-9504841D01*
X14420182Y-9504841D02*
X14420182Y-9466746D01*
X14420182Y-9466746D02*
X14410658Y-9419127D01*
X14410658Y-9419127D02*
X14401134Y-9390555D01*
X14401134Y-9390555D02*
X14391611Y-9371508D01*
X14391611Y-9371508D02*
X14372563Y-9342936D01*
X14372563Y-9342936D02*
X14363039Y-9333412D01*
M02*
